<svg width="602" height="146" viewBox="0 0 602 146" fill="none" xmlns="http://www.w3.org/2000/svg">
<mask id="mask0_185_764" style="mask-type:luminance" maskUnits="userSpaceOnUse" x="0" y="36" width="98" height="91">
<path d="M61.8202 42.8088C37.4506 32.5293 13.5132 34.559 4.49082 49.0682C-6.23388 66.3141 8.20977 94.6907 36.7566 112.447C58.8608 126.171 82.9161 129.523 97.6347 122.347" fill="white"/>
</mask>
<g mask="url(#mask0_185_764)">
<path d="M-6.23364 73.1016L50.1791 129.514H-6.23364V73.1016Z" fill="#FB9955"/>
<path d="M-6.23364 71.4023L51.8683 129.517H50.1791L-6.23364 73.1047V71.4023Z" fill="#FB9955"/>
<path d="M-6.23364 69.7148L53.5707 129.519H51.8683L-6.23364 71.4041V69.7148Z" fill="#FB9A56"/>
<path d="M-6.23364 68.0117L55.2599 129.518H53.5707L-6.23364 69.7141V68.0117Z" fill="#FB9A57"/>
<path d="M-6.23364 66.3242L56.9622 129.52H55.2599L-6.23364 68.0135V66.3242Z" fill="#FB9B58"/>
<path d="M-6.23364 64.6211L58.6515 129.519H56.9622L-6.23364 66.3234V64.6211Z" fill="#FB9B59"/>
<path d="M-6.23364 62.9336L60.3538 129.521H58.6515L-6.23364 64.6228V62.9336Z" fill="#FB9C5A"/>
<path d="M-6.23364 61.2266L62.0431 129.516H60.3538L-6.23364 62.9289V61.2266Z" fill="#FB9C5B"/>
<path d="M-6.23364 59.5352L63.7454 129.514H62.0431L-6.23364 61.2244V59.5352Z" fill="#FB9D5C"/>
<path d="M-6.23364 57.8398L65.4346 129.521H63.7454L-6.23364 59.5422V57.8398Z" fill="#FB9E5D"/>
<path d="M-6.23364 56.1523L67.137 129.523H65.4346L-6.23364 57.8416V56.1523Z" fill="#FB9E5E"/>
<path d="M-6.23364 54.4453L68.8262 129.518H67.137L-6.23364 56.1477V54.4453Z" fill="#FB9F5F"/>
<path d="M-6.23364 52.7617L70.5285 129.524H68.8262L-6.23364 54.451V52.7617Z" fill="#FB9F60"/>
<path d="M-6.23364 51.0508L72.2178 129.515H70.5285L-6.23364 52.7531V51.0508Z" fill="#FBA061"/>
<path d="M-6.23364 49.8986L-5.95865 49.6367L73.9201 129.515H72.2178L-6.23364 51.051V49.8986Z" fill="#FBA162"/>
<path d="M-5.95874 49.6402L-5.12067 48.7891L75.6093 129.519H73.92L-5.95874 49.6402Z" fill="#FBA163"/>
<path d="M-5.12036 48.7926L-4.26919 47.9414L77.3119 129.522H75.6096L-5.12036 48.7926Z" fill="#FBA264"/>
<path d="M-4.26904 47.9293L-3.41788 47.0781L79.0013 129.51H77.3121L-4.26904 47.9293Z" fill="#FBA265"/>
<path d="M-3.41846 47.0842L-2.56729 46.2461L80.703 129.516H79.0007L-3.41846 47.0842Z" fill="#FBA366"/>
<path d="M-2.56714 46.2418L-1.72907 45.3906L82.3924 129.512H80.7032L-2.56714 46.2418Z" fill="#FBA367"/>
<path d="M-1.72925 45.3941L-0.878081 44.543L84.0946 129.516H82.3923L-1.72925 45.3941Z" fill="#FBA468"/>
<path d="M-0.878662 44.5426L-0.0274954 43.6914L85.7832 129.515H84.094L-0.878662 44.5426Z" fill="#FBA569"/>
<path d="M-0.0263672 43.6896L0.8248 42.8516L87.4867 129.513H85.7844L-0.0263672 43.6896Z" fill="#FBA56A"/>
<path d="M0.824463 42.8512L1.66254 42L89.1756 129.513H87.4864L0.824463 42.8512Z" fill="#FBA66B"/>
<path d="M1.66235 42.0035L2.51352 41.1523L90.8778 129.517H89.1754L1.66235 42.0035Z" fill="#FBA66C"/>
<path d="M2.51294 41.148L3.36411 40.2969L92.5664 129.512H90.8772L2.51294 41.148Z" fill="#FBA76D"/>
<path d="M3.36523 40.3029L4.2164 39.4648L94.2699 129.518H92.5675L3.36523 40.3029Z" fill="#FBA76E"/>
<path d="M4.21606 39.4684L5.05414 38.6172L95.4088 128.959L94.8588 129.522H94.2695L4.21606 39.4684Z" fill="#FBA86F"/>
<path d="M5.92072 37.7497L5.06885 38.6016L95.4136 128.946L96.2654 128.094L5.92072 37.7497Z" fill="#FBA970"/>
<path d="M6.74958 36.9138L5.89771 37.7656L96.2424 128.11L97.0943 127.258L6.74958 36.9138Z" fill="#FBA971"/>
<path d="M6.75708 36.9084L7.59515 36.0703L97.6486 126.111V126.713L97.0986 127.263L6.75708 36.9084Z" fill="#FBAA73"/>
<path d="M7.59424 36.0699L8.4454 35.2188L97.6477 124.421V126.11L7.59424 36.0699Z" fill="#FBAA74"/>
<path d="M8.44556 35.2184L9.29672 34.3672L97.6479 122.718V124.421L8.44556 35.2184Z" fill="#FBAB75"/>
<path d="M9.29688 34.3668L10.148 33.5156L97.648 121.029V122.718L9.29688 34.3668Z" fill="#FBAC76"/>
<path d="M10.1475 33.5178L10.9855 32.6797L97.6474 119.328V121.031L10.1475 33.5178Z" fill="#FBAC77"/>
<path d="M10.9854 32.6792L11.1294 32.5352H12.5436L97.6473 117.639V119.328L10.9854 32.6792Z" fill="#FBAD78"/>
<path d="M14.247 32.5352L97.6483 115.936V117.639L12.5447 32.5352H14.247Z" fill="#FBAD79"/>
<path d="M15.9363 32.5352L97.6484 114.247V115.936L14.2471 32.5352H15.9363Z" fill="#FBAE7A"/>
<path d="M17.6386 32.5352L97.6483 112.545V114.247L15.9363 32.5352H17.6386Z" fill="#FBAE7B"/>
<path d="M19.3279 32.5352L97.6484 110.856V112.545L17.6387 32.5352H19.3279Z" fill="#FBAF7C"/>
<path d="M21.0297 32.5352L97.6479 109.153V110.856L19.3274 32.5352H21.0297Z" fill="#FBB07D"/>
<path d="M22.719 32.5352L97.6479 107.464V109.153L21.0298 32.5352H22.719Z" fill="#FBB07E"/>
<path d="M24.4213 32.5352L97.6479 105.762V107.464L22.719 32.5352H24.4213Z" fill="#FBB17F"/>
<path d="M26.1111 32.5352L97.6484 104.072V105.762L24.4219 32.5352H26.1111Z" fill="#FBB180"/>
<path d="M27.8134 32.5352L97.6484 102.37V104.072L26.1111 32.5352H27.8134Z" fill="#FBB281"/>
<path d="M29.5032 32.5352L97.649 100.681V102.37L27.814 32.5352H29.5032Z" fill="#FBB282"/>
<path d="M31.1919 32.5352L97.6484 98.9786V100.681L29.5027 32.5352H31.1919Z" fill="#FBB383"/>
<path d="M32.8935 32.5352L97.6477 97.2893V98.9786L31.1912 32.5352H32.8935Z" fill="#FBB484"/>
<path d="M34.5835 32.5352L97.6485 95.587V97.2893L32.8943 32.5352H34.5835Z" fill="#FBB485"/>
<path d="M36.2851 32.5352L97.6477 93.8978V95.587L34.5828 32.5352H36.2851Z" fill="#FBB586"/>
<path d="M37.9746 32.5352L97.648 92.1954V93.8978L36.2854 32.5352H37.9746Z" fill="#FBB587"/>
<path d="M39.6762 32.5352L97.6472 90.5062V92.1954L37.9739 32.5352H39.6762Z" fill="#FBB688"/>
<path d="M41.3662 32.5352L97.648 88.8039V90.5062L39.677 32.5352H41.3662Z" fill="#FBB789"/>
<path d="M43.0683 32.5352L97.6478 87.1146V88.8039L41.366 32.5352H43.0683Z" fill="#FBB78A"/>
<path d="M44.7578 32.5352L97.6481 85.4254V87.1146L43.0686 32.5352H44.7578Z" fill="#FBB88B"/>
<path d="M46.4594 32.5352L97.6473 83.723V85.4254L44.7571 32.5352H46.4594Z" fill="#FBB88C"/>
<path d="M48.1494 32.5352L97.6481 82.0338V83.723L46.4602 32.5352H48.1494Z" fill="#FBB98D"/>
<path d="M49.851 32.5352L97.6473 80.3315V82.0338L48.1487 32.5352H49.851Z" fill="#FBB98E"/>
<path d="M51.541 32.5352L97.6481 78.6422V80.3315L49.8518 32.5352H51.541Z" fill="#FBBA8F"/>
<path d="M97.6481 78.6422L51.541 32.5352H97.6481V78.6422Z" fill="#FBBA8F"/>
</g>
<mask id="mask1_185_764" style="mask-type:luminance" maskUnits="userSpaceOnUse" x="61" y="2" width="72" height="121">
<path d="M61.8203 42.8063C66.4297 44.7575 71.0522 47.1407 75.5961 49.9561C104.143 67.6997 118.6 96.0763 107.875 113.322C105.452 117.225 101.956 120.223 97.6479 122.318C97.6479 122.318 97.6479 122.318 97.661 122.318C113.467 116.675 127.386 95.4084 131.223 68.5116C135.977 35.2375 123.523 5.93114 103.41 3.06336C86.5304 0.653903 69.6249 17.6249 61.8203 42.8063Z" fill="white"/>
</mask>
<g mask="url(#mask1_185_764)">
<path d="M61.8203 86.125L98.0146 122.332H61.8203V86.125Z" fill="#FBBB98"/>
<path d="M61.8203 85.1406L98.9967 122.33H98.0146L61.8203 86.1227V85.1406Z" fill="#FBBB98"/>
<path d="M61.8203 84.1758L99.9788 122.334H98.9967L61.8203 85.1448V84.1758Z" fill="#FBBA97"/>
<path d="M61.8203 83.1953L100.961 122.336H99.9788L61.8203 84.1774V83.1953Z" fill="#FBB996"/>
<path d="M61.8203 82.2109L101.943 122.334H100.961L61.8203 83.1931V82.2109Z" fill="#FAB995"/>
<path d="M61.8203 81.2305L102.925 122.335H101.943L61.8203 82.2126V81.2305Z" fill="#FAB894"/>
<path d="M61.8203 80.2461L103.894 122.333H102.925L61.8203 81.2282V80.2461Z" fill="#FAB793"/>
<path d="M61.8203 79.2695L104.876 122.339H103.894L61.8203 80.2516V79.2695Z" fill="#FAB692"/>
<path d="M61.8203 78.2852L105.858 122.336H104.876L61.8203 79.2673V78.2852Z" fill="#FAB691"/>
<path d="M61.8203 77.3086L106.841 122.342H105.858L61.8203 78.2907V77.3086Z" fill="#F9B590"/>
<path d="M61.8203 76.3242L107.823 122.34H106.84L61.8203 77.3063V76.3242Z" fill="#F9B48F"/>
<path d="M61.8203 75.3398L108.805 122.337H107.823L61.8203 76.322V75.3398Z" fill="#F9B38E"/>
<path d="M61.8203 74.3633L109.787 122.33H108.805L61.8203 75.3323V74.3633Z" fill="#F9B38D"/>
<path d="M61.8203 73.3789L110.769 122.328H109.787L61.8203 74.361V73.3789Z" fill="#F9B28C"/>
<path d="M61.8203 72.4023L111.751 122.333H110.769L61.8203 73.3845V72.4023Z" fill="#F8B18B"/>
<path d="M61.8203 71.4141L112.471 122.065L112.222 122.327H111.751L61.8203 72.3962V71.4141Z" fill="#F8B08A"/>
<path d="M61.8203 70.4375L112.956 121.586L112.471 122.071L61.8203 71.4196V70.4375Z" fill="#F8B089"/>
<path d="M61.8203 69.457L113.453 121.09L112.956 121.588L61.8203 70.4391V69.457Z" fill="#F8AF88"/>
<path d="M61.8203 68.4727L113.938 120.603L113.453 121.088L61.8203 69.4548V68.4727Z" fill="#F8AE87"/>
<path d="M61.8203 67.4883L114.436 120.104L113.938 120.601L61.8203 68.4704V67.4883Z" fill="#F7AD86"/>
<path d="M61.8203 66.5078L114.92 119.621L114.436 120.105L61.8203 67.4899V66.5078Z" fill="#F7AD85"/>
<path d="M61.8203 65.5234L115.418 119.121L114.92 119.618L61.8203 66.5056V65.5234Z" fill="#F7AC84"/>
<path d="M61.8203 64.5625L115.902 118.644L115.418 119.129L61.8203 65.5315V64.5625Z" fill="#F7AB83"/>
<path d="M61.8203 63.5781L116.4 118.144L115.902 118.642L61.8203 64.5602V63.5781Z" fill="#F7AA82"/>
<path d="M61.8203 62.5977L116.884 117.662L116.4 118.146L61.8203 63.5798V62.5977Z" fill="#F6AA81"/>
<path d="M61.8203 61.6133L117.382 117.175L116.884 117.659L61.8203 62.5954V61.6133Z" fill="#F6A980"/>
<path d="M61.8203 60.6328L117.866 116.679L117.382 117.176L61.8203 61.6149V60.6328Z" fill="#F6A87F"/>
<path d="M61.8203 59.6484L118.351 116.192L117.866 116.677L61.8203 60.6306V59.6484Z" fill="#F6A77E"/>
<path d="M61.8203 58.668L118.849 115.696L118.351 116.194L61.8203 59.6501V58.668Z" fill="#F6A77D"/>
<path d="M61.8203 57.6836L119.333 115.209L118.848 115.694L61.8203 58.6657V57.6836Z" fill="#F5A67C"/>
<path d="M61.8203 56.707L119.831 114.717L119.333 115.215L61.8203 57.6891V56.707Z" fill="#F5A57B"/>
<path d="M61.8203 55.7227L120.315 114.231L119.831 114.715L61.8203 56.7048V55.7227Z" fill="#F5A47A"/>
<path d="M61.8203 54.75L120.813 113.729L120.315 114.227L61.8203 55.719V54.75Z" fill="#F5A479"/>
<path d="M61.8203 53.7656L121.297 113.243L120.813 113.727L61.8203 54.7477V53.7656Z" fill="#F5A378"/>
<path d="M61.8203 52.7812L121.795 112.756L121.297 113.24L61.8203 53.7634V52.7812Z" fill="#F4A277"/>
<path d="M61.8203 51.8008L122.279 112.26L121.795 112.757L61.8203 52.7829V51.8008Z" fill="#F4A176"/>
<path d="M61.8203 50.8281L122.764 111.785L122.279 112.269L61.8203 51.8102V50.8281Z" fill="#F4A175"/>
<path d="M61.8203 49.8398L123.261 111.281L122.764 111.779L61.8203 50.822V49.8398Z" fill="#F4A074"/>
<path d="M61.8203 48.8555L123.746 110.794L123.261 111.279L61.8203 49.8376V48.8555Z" fill="#F39F73"/>
<path d="M61.8203 47.875L124.244 110.298L123.746 110.796L61.8203 48.8571V47.875Z" fill="#F39E72"/>
<path d="M61.8203 46.8906L124.728 109.812L124.244 110.296L61.8203 47.8727V46.8906Z" fill="#F39E71"/>
<path d="M61.8203 45.9219L125.226 109.314L124.728 109.812L61.8203 46.8909V45.9219Z" fill="#F39D70"/>
<path d="M61.8203 44.9453L125.71 108.835L125.226 109.32L61.8203 45.9274V44.9453Z" fill="#F39C6F"/>
<path d="M61.8203 43.9609L126.208 108.348L125.71 108.833L61.8203 44.9431V43.9609Z" fill="#F29B6E"/>
<path d="M61.8203 42.9805L126.692 107.853L126.208 108.35L61.8203 43.9626V42.9805Z" fill="#F29B6D"/>
<path d="M61.8203 42L127.19 107.37L126.692 107.854L61.8203 42.9821V42Z" fill="#F29A6C"/>
<path d="M61.8203 41.0117L127.674 106.866L127.19 107.363L61.8203 41.9938V41.0117Z" fill="#F2996B"/>
<path d="M61.8203 40.0273L128.159 106.379L127.674 106.864L61.8203 41.0095V40.0273Z" fill="#F2986A"/>
<path d="M61.8203 39.0469L128.657 105.883L128.159 106.381L61.8203 40.029V39.0469Z" fill="#F19869"/>
<path d="M61.8203 38.0664L129.141 105.4L128.657 105.885L61.8203 39.0485V38.0664Z" fill="#F19768"/>
<path d="M61.8203 37.082L129.639 104.9L129.141 105.398L61.8203 38.0641V37.082Z" fill="#F19667"/>
<path d="M61.8203 36.1172L130.123 104.42L129.639 104.905L61.8203 37.0862V36.1172Z" fill="#F19566"/>
<path d="M61.8203 35.1328L130.621 103.92L130.123 104.418L61.8203 36.1149V35.1328Z" fill="#F19565"/>
<path d="M61.8203 34.1562L131.105 103.441L130.621 103.926L61.8203 35.1384V34.1562Z" fill="#F09464"/>
<path d="M61.8203 33.168L131.603 102.951L131.105 103.435L61.8203 34.1501V33.168Z" fill="#F09363"/>
<path d="M61.8203 32.1836L132.087 102.451L131.603 102.948L61.8203 33.1657V32.1836Z" fill="#F09262"/>
<path d="M61.8203 31.2031L132.572 101.968L132.087 102.452L61.8203 32.1852V31.2031Z" fill="#F09261"/>
<path d="M61.8203 30.2266L133.07 101.476L132.572 101.973L61.8203 31.2087V30.2266Z" fill="#F09160"/>
<path d="M61.8203 29.2383L133.554 100.985L133.07 101.47L61.8203 30.2204V29.2383Z" fill="#EF905F"/>
<path d="M61.8203 28.2617L134.052 100.493L133.554 100.991L61.8203 29.2438V28.2617Z" fill="#EF8F5E"/>
<path d="M61.8203 27.2773L134.536 100.006L134.052 100.491L61.8203 28.2595V27.2773Z" fill="#EF8F5D"/>
<path d="M61.8203 26.3086L135.034 99.509L134.536 100.007L61.8203 27.2776V26.3086Z" fill="#EF8E5C"/>
<path d="M61.8203 25.3203L135.518 99.0183L135.034 99.5028L61.8203 26.3024V25.3203Z" fill="#EF8D5B"/>
<path d="M61.8203 24.3398L135.977 98.4961V98.5616L135.518 99.0199L61.8203 25.322V24.3398Z" fill="#EE8C5A"/>
<path d="M61.8203 23.3672L135.977 97.5235V98.5056L61.8203 24.3493V23.3672Z" fill="#EE8C59"/>
<path d="M61.8203 22.3828L135.977 96.5391V97.5212L61.8203 23.3649V22.3828Z" fill="#EE8B58"/>
<path d="M61.8203 21.3984L135.977 95.5547V96.5368L61.8203 22.3806V21.3984Z" fill="#EE8A57"/>
<path d="M61.8203 20.9795L62.0953 20.6914L135.977 94.5727V95.5548L61.8203 21.3985V20.9795Z" fill="#EE8956"/>
<path d="M62.0957 20.6954L62.5933 20.2109L135.977 93.5946V94.5767L62.0957 20.6954Z" fill="#ED8954"/>
<path d="M62.5928 20.2072L63.0773 19.7227L135.976 92.6087V93.5909L62.5928 20.2072Z" fill="#ED8853"/>
<path d="M63.0774 19.7203L63.5619 19.2227L135.977 91.6242V92.6064L63.0774 19.7203Z" fill="#ED8752"/>
<path d="M63.5618 19.2228L64.0594 18.7383L135.976 90.6423V91.6244L63.5618 19.2228Z" fill="#ED8651"/>
<path d="M64.0591 18.7398L64.5436 18.2422L135.976 89.6747V90.6438L64.0591 18.7398Z" fill="#ED8650"/>
<path d="M64.5439 18.2423L65.0416 17.7578L135.976 88.6928V89.6749L64.5439 18.2423Z" fill="#EC854F"/>
<path d="M65.0415 17.7554L65.526 17.2578L135.976 87.7082V88.6904L65.0415 17.7554Z" fill="#EC844E"/>
<path d="M65.5269 17.2619L66.0245 16.7773L135.977 86.7302V87.7123L65.5269 17.2619Z" fill="#EC834D"/>
<path d="M66.0232 16.775L66.5077 16.2773L135.976 85.7457V86.7278L66.0232 16.775Z" fill="#EC834C"/>
<path d="M66.5085 16.2814L67.0062 15.7969L135.977 84.7676V85.7497L66.5085 16.2814Z" fill="#EC824B"/>
<path d="M67.0061 15.797L67.4906 15.3125L135.977 83.7856V84.7677L67.0061 15.797Z" fill="#EB814A"/>
<path d="M67.4907 15.3062L67.9883 14.8086L135.977 82.7972V83.7793L67.4907 15.3062Z" fill="#EB8049"/>
<path d="M67.9883 14.8126L68.4728 14.3281L135.977 81.8191V82.8012L67.9883 14.8126Z" fill="#EB8048"/>
<path d="M68.4731 14.3257L68.9577 13.8281L135.977 80.8346V81.8167L68.4731 14.3257Z" fill="#EB7F47"/>
<path d="M68.9573 13.8322L69.4549 13.3477L135.977 79.8696V80.8386L68.9573 13.8322Z" fill="#EB7E46"/>
<path d="M69.4548 13.3414L69.9393 12.8438L135.977 78.8812V79.8633L69.4548 13.3414Z" fill="#EA7D45"/>
<path d="M69.9395 12.8556L70.4371 12.3711L135.977 77.911V78.8931L69.9395 12.8556Z" fill="#EA7D44"/>
<path d="M70.4365 12.357L70.921 11.8594L135.976 76.9147V77.8969L70.4365 12.357Z" fill="#EA7C43"/>
<path d="M70.9211 11.8634L71.4187 11.3789L135.977 75.9367V76.9188L70.9211 11.8634Z" fill="#EA7B42"/>
<path d="M71.4192 11.3804L71.9037 10.8828L135.977 74.956V75.9382L71.4192 11.3804Z" fill="#EA7A41"/>
<path d="M71.9036 10.8829L72.4012 10.3984L135.977 73.9741V74.9562L71.9036 10.8829Z" fill="#E97A40"/>
<path d="M72.4011 10.4064L72.8856 9.92188L135.977 72.9999V73.982L72.4011 10.4064Z" fill="#E9793F"/>
<path d="M72.8857 9.91557L73.3703 9.41797L135.977 72.0115V72.9936L72.8857 9.91557Z" fill="#E9783E"/>
<path d="M73.3701 9.41811L73.8677 8.93359L135.977 71.0295V72.0116L73.3701 9.41811Z" fill="#E9773D"/>
<path d="M73.8674 8.92729L74.3519 8.42969L135.976 70.0542V71.0232L73.8674 8.92729Z" fill="#E9773C"/>
<path d="M74.3518 8.44155L74.8494 7.95703L135.976 69.0839V70.066L74.3518 8.44155Z" fill="#E8763B"/>
<path d="M74.8503 7.95073L75.3349 7.45312L135.977 68.0955V69.0776L74.8503 7.95073Z" fill="#E8753A"/>
<path d="M75.3335 7.45326L75.8311 6.96875L135.976 67.1135V68.0956L75.3335 7.45326Z" fill="#E87439"/>
<path d="M75.832 6.97416L76.3165 6.47656L135.977 66.1368V67.1189L75.832 6.97416Z" fill="#E87438"/>
<path d="M76.3157 6.46889L76.8133 5.98438L135.976 65.147V66.1292L76.3157 6.46889Z" fill="#E87337"/>
<path d="M76.8145 5.98451L77.299 5.5L135.977 64.1651V65.1472L76.8145 5.98451Z" fill="#E77236"/>
<path d="M77.2981 5.50151L77.7826 5.00391L135.976 63.1845V64.1666L77.2981 5.50151Z" fill="#E77135"/>
<path d="M77.7827 5.00404L78.2803 4.51953L135.976 62.2025V63.1846L77.7827 5.00404Z" fill="#E77134"/>
<path d="M78.2803 4.52104L78.7648 4.02344L135.976 61.2219V62.204L78.2803 4.52104Z" fill="#E77033"/>
<path d="M78.7651 4.01967L79.2627 3.53516L135.977 60.2491V61.2181L78.7651 4.01967Z" fill="#E66F32"/>
<path d="M79.262 3.54058L79.7465 3.04297L135.976 59.2724V60.2545L79.262 3.54058Z" fill="#E66E31"/>
<path d="M79.7473 3.03138L80.2449 2.54688L135.977 58.2787V59.2608L79.7473 3.03138Z" fill="#E66E30"/>
<path d="M80.2449 2.5562L80.7294 2.05859L135.977 57.3059V58.288L80.2449 2.5562Z" fill="#E66D2F"/>
<path d="M80.7295 2.05873L81.2271 1.57422L135.977 56.3239V57.306L80.7295 2.05873Z" fill="#E66C2E"/>
<path d="M81.2266 1.57964L81.7111 1.08203L135.976 55.3472V56.3293L81.2266 1.57964Z" fill="#E56B2D"/>
<path d="M81.7114 1.07529L82.1435 0.65625H82.2614L135.977 54.3583V55.3405L81.7114 1.07529Z" fill="#E56B2C"/>
<path d="M83.2436 0.65625L135.977 53.3762V54.3583L82.2615 0.65625H83.2436Z" fill="#E56A2B"/>
<path d="M84.225 0.65625L135.976 52.3941V53.3762L83.2429 0.65625H84.225Z" fill="#E5692A"/>
<path d="M85.2077 0.65625L135.977 51.412V52.3941L84.2256 0.65625H85.2077Z" fill="#E56829"/>
<path d="M86.1899 0.65625L135.977 50.443V51.412L85.2078 0.65625H86.1899Z" fill="#E46828"/>
<path d="M87.1718 0.65625L135.976 49.4609V50.443L86.1897 0.65625H87.1718Z" fill="#E46727"/>
<path d="M88.1535 0.65625L135.976 48.4787V49.4609L87.1714 0.65625H88.1535Z" fill="#E46626"/>
<path d="M89.1362 0.65625L135.977 47.4966V48.4787L88.1541 0.65625H89.1362Z" fill="#E46525"/>
<path d="M90.1181 0.65625L135.976 46.5145V47.4966L89.136 0.65625H90.1181Z" fill="#E46524"/>
<path d="M91.0872 0.65625L135.976 45.5324V46.5145L90.1182 0.65625H91.0872Z" fill="#E36423"/>
<path d="M92.0693 0.65625L135.976 44.5503V45.5324L91.0872 0.65625H92.0693Z" fill="#E36322"/>
<path d="M93.0515 0.65625L135.976 43.5682V44.5503L92.0693 0.65625H93.0515Z" fill="#E36221"/>
<path d="M94.0344 0.65625L135.977 42.5861V43.5682L93.0522 0.65625H94.0344Z" fill="#E36220"/>
<path d="M95.0161 0.65625L135.977 41.617V42.5861L94.0339 0.65625H95.0161Z" fill="#E3611F"/>
<path d="M95.9977 0.65625L135.976 40.6349V41.617L95.0156 0.65625H95.9977Z" fill="#E2601E"/>
<path d="M96.9807 0.65625L135.977 39.6528V40.6349L95.9985 0.65625H96.9807Z" fill="#E25F1D"/>
<path d="M97.9623 0.65625L135.977 38.6707V39.6528L96.9802 0.65625H97.9623Z" fill="#E25F1C"/>
<path d="M98.944 0.65625L135.976 37.6886V38.6707L97.9619 0.65625H98.944Z" fill="#E25E1B"/>
<path d="M99.9265 0.65625L135.977 36.7065V37.6886L98.9443 0.65625H99.9265Z" fill="#E25D1A"/>
<path d="M100.896 0.65625L135.977 35.7243V36.7065L99.9265 0.65625H100.896Z" fill="#E15C19"/>
<path d="M101.878 0.65625L135.977 34.7422V35.7243L100.896 0.65625H101.878Z" fill="#E15C18"/>
<path d="M102.859 0.65625L135.976 33.7601V34.7422L101.877 0.65625H102.859Z" fill="#E15B17"/>
<path d="M103.841 0.65625L135.976 32.778V33.7601L102.859 0.65625H103.841Z" fill="#E15A16"/>
<path d="M104.823 0.65625L135.976 31.809V32.778L103.841 0.65625H104.823Z" fill="#E15915"/>
<path d="M105.806 0.65625L135.977 30.8269V31.809L104.824 0.65625H105.806Z" fill="#E05914"/>
<path d="M106.788 0.65625L135.976 29.8447V30.8269L105.806 0.65625H106.788Z" fill="#E05813"/>
<path d="M107.77 0.65625L135.976 28.8626V29.8447L106.788 0.65625H107.77Z" fill="#E05712"/>
<path d="M135.977 28.8626L107.771 0.65625H135.977V28.8626Z" fill="#E05712"/>
</g>
<mask id="mask2_185_764" style="mask-type:luminance" maskUnits="userSpaceOnUse" x="57" y="42" width="55" height="82">
<path d="M107.874 113.334C105.452 117.236 101.955 120.235 97.6471 122.33C93.9019 123.666 90.052 124.124 86.2021 123.574C66.1015 120.693 53.6483 91.3998 58.3886 58.1126C59.1481 52.7568 60.3135 47.6367 61.8064 42.8047C66.4158 44.7558 71.0383 47.1391 75.5822 49.9545C104.129 67.6981 118.586 96.0747 107.861 113.321L107.874 113.334Z" fill="white"/>
</mask>
<g mask="url(#mask2_185_764)">
<path d="M53.6497 86.0039L74.7717 124.123H53.6497V86.0039Z" fill="#FB8F50"/>
<path d="M53.6497 84.4102L75.6622 124.127H74.7717L53.6497 86.0077V84.4102Z" fill="#FB8F50"/>
<path d="M53.6497 82.793L76.5526 124.12H75.6622L53.6497 84.4036V82.793Z" fill="#FB8F50"/>
<path d="M53.6497 81.1953L77.4431 124.12H76.5526L53.6497 82.7929V81.1953Z" fill="#FB8F50"/>
<path d="M53.6497 79.5859L78.3335 124.122H77.4431L53.6497 81.1966V79.5859Z" fill="#FB8E4F"/>
<path d="M53.6497 77.9766L79.224 124.123H78.3335L53.6497 79.5872V77.9766Z" fill="#FB8E4F"/>
<path d="M53.6497 76.375L80.1144 124.119H79.224L53.6497 77.9726V76.375Z" fill="#FA8E4F"/>
<path d="M53.6497 74.7656L81.0049 124.12H80.1144L53.6497 76.3763V74.7656Z" fill="#FA8D4E"/>
<path d="M53.6497 73.1719L81.8953 124.124H81.0049L53.6497 74.7695V73.1719Z" fill="#FA8D4E"/>
<path d="M53.6497 71.5586L82.7858 124.121H81.8953L53.6497 73.1693V71.5586Z" fill="#FA8C4D"/>
<path d="M53.6497 69.9492L83.6762 124.123H82.7858L53.6497 71.5599V69.9492Z" fill="#FA8C4D"/>
<path d="M53.6497 68.3555L84.5667 124.127H83.6762L53.6497 69.953V68.3555Z" fill="#F98B4C"/>
<path d="M53.6497 66.75L85.4571 124.132H84.5667L53.6497 68.3607V66.75Z" fill="#F98B4B"/>
<path d="M53.6497 65.1406L86.3476 124.12H85.4571L53.6497 66.7382V65.1406Z" fill="#F98A4B"/>
<path d="M53.6497 63.5312L87.2249 124.121H86.3476L53.6497 65.1419V63.5312Z" fill="#F88A4A"/>
<path d="M53.6497 61.9336L88.1154 124.121H87.2249L53.6497 63.5312V61.9336Z" fill="#F88949"/>
<path d="M53.6497 60.3242L89.0058 124.122H88.1154L53.6497 61.9349V60.3242Z" fill="#F88849"/>
<path d="M53.6497 58.7109L89.8963 124.12H89.0058L53.6497 60.3216V58.7109Z" fill="#F78848"/>
<path d="M53.6497 57.1172L90.7867 124.124H89.8963L53.6497 58.7148V57.1172Z" fill="#F78747"/>
<path d="M53.6497 55.5078L91.6772 124.125H90.7867L53.6497 57.1185V55.5078Z" fill="#F78646"/>
<path d="M53.6497 53.9062L92.5676 124.121H91.6772L53.6497 55.5038V53.9062Z" fill="#F68545"/>
<path d="M53.6497 52.3008L93.4581 124.126H92.5676L53.6497 53.9115V52.3008Z" fill="#F68545"/>
<path d="M53.6497 50.6914L94.3485 124.127H93.4581L53.6497 52.3021V50.6914Z" fill="#F68444"/>
<path d="M53.6497 49.0898L95.239 124.123H94.3485L53.6497 50.6874V49.0898Z" fill="#F58343"/>
<path d="M53.6497 47.4805L96.1294 124.125H95.239L53.6497 49.0911V47.4805Z" fill="#F58242"/>
<path d="M53.6497 45.8867L97.0199 124.129H96.1294L53.6497 47.4843V45.8867Z" fill="#F48141"/>
<path d="M53.6497 44.2734L97.9104 124.126H97.0199L53.6497 45.8841V44.2734Z" fill="#F48140"/>
<path d="M53.6497 43.7892L54.1211 43.5273L98.8008 124.126H97.9104L53.6497 44.2738V43.7892Z" fill="#F4803F"/>
<path d="M54.1216 43.5243L54.8025 43.1445L99.6918 124.123H98.8013L54.1216 43.5243Z" fill="#F37F3E"/>
<path d="M54.8018 43.1452L55.4041 42.8047H55.5089L100.581 124.124H99.691L54.8018 43.1452Z" fill="#F37E3D"/>
<path d="M56.3992 42.8047L101.433 124.058L101.341 124.124H100.581L55.5088 42.8047H56.3992Z" fill="#F27D3C"/>
<path d="M57.2899 42.8047L102.114 123.692L101.433 124.058L56.3994 42.8047H57.2899Z" fill="#F27C3B"/>
<path d="M58.18 42.8047L102.794 123.312L102.113 123.692L57.2896 42.8047H58.18Z" fill="#F17B3A"/>
<path d="M59.0711 42.8047L103.476 122.932L102.795 123.312L58.1807 42.8047H59.0711Z" fill="#F17A39"/>
<path d="M59.9617 42.8047L104.157 122.552L103.476 122.932L59.0713 42.8047H59.9617Z" fill="#F07938"/>
<path d="M60.8519 42.8047L104.838 122.173L104.157 122.552L59.9614 42.8047H60.8519Z" fill="#F07836"/>
<path d="M61.7425 42.8047L105.519 121.806L104.838 122.173L60.8521 42.8047H61.7425Z" fill="#EF7735"/>
<path d="M62.6195 42.8047L106.199 121.426L105.518 121.806L61.7422 42.8047H62.6195Z" fill="#EF7634"/>
<path d="M63.5096 42.8047L106.88 121.047L106.199 121.426L62.6191 42.8047H63.5096Z" fill="#EE7533"/>
<path d="M64.4002 42.8047L107.561 120.667L106.88 121.047L63.5098 42.8047H64.4002Z" fill="#EE7432"/>
<path d="M65.2904 42.8047L108.242 120.287L107.561 120.667L64.3999 42.8047H65.2904Z" fill="#ED7331"/>
<path d="M66.182 42.8047L108.924 119.92L108.243 120.287L65.2915 42.8047H66.182Z" fill="#ED712F"/>
<path d="M67.0716 42.8047L109.604 119.541L108.923 119.92L66.1812 42.8047H67.0716Z" fill="#EC702E"/>
<path d="M67.9622 42.8047L110.285 119.161L109.604 119.541L67.0718 42.8047H67.9622Z" fill="#EC6F2D"/>
<path d="M68.8533 42.8047L110.966 118.781L110.286 119.161L67.9629 42.8047H68.8533Z" fill="#EB6E2C"/>
<path d="M69.7435 42.8047L111.647 118.401L110.966 118.781L68.853 42.8047H69.7435Z" fill="#EB6D2A"/>
<path d="M70.6341 42.8047L112.328 118.022L111.647 118.401L69.7437 42.8047H70.6341Z" fill="#EA6C29"/>
<path d="M71.5247 42.8047L113.009 117.655L112.328 118.022L70.6343 42.8047H71.5247Z" fill="#E96B28"/>
<path d="M72.4149 42.8047L113.69 117.275L113.009 117.655L71.5244 42.8047H72.4149Z" fill="#E96926"/>
<path d="M73.3045 42.8047L114.37 116.896L113.689 117.275L72.4141 42.8047H73.3045Z" fill="#E86825"/>
<path d="M74.1951 42.8047L115.051 116.516L114.37 116.896L73.3047 42.8047H74.1951Z" fill="#E86724"/>
<path d="M75.0858 42.8047L115.732 116.136L115.051 116.516L74.1953 42.8047H75.0858Z" fill="#E76622"/>
<path d="M75.9769 42.8047L116.414 115.769L115.733 116.136L75.0864 42.8047H75.9769Z" fill="#E66421"/>
<path d="M76.867 42.8047L117.094 115.39L116.414 115.769L75.9766 42.8047H76.867Z" fill="#E6631F"/>
<path d="M77.7572 42.8047L117.775 115.01L117.094 115.39L76.8667 42.8047H77.7572Z" fill="#E5621E"/>
<path d="M78.6473 42.8047L118.456 114.63L117.775 115.01L77.7568 42.8047H78.6473Z" fill="#E5601C"/>
<path d="M79.5379 42.8047L118.6 113.281V114.552L118.456 114.63L78.6475 42.8047H79.5379Z" fill="#E45F1B"/>
<path d="M80.415 42.8047L118.6 111.671V113.281L79.5376 42.8047H80.415Z" fill="#E35E1A"/>
<path d="M81.3055 42.8047L118.6 110.073V111.671L80.415 42.8047H81.3055Z" fill="#E35C18"/>
<path d="M82.1966 42.8047L118.6 108.462V110.073L81.3062 42.8047H82.1966Z" fill="#E25B17"/>
<path d="M83.0863 42.8047L118.6 106.865V108.462L82.1958 42.8047H83.0863Z" fill="#E15A15"/>
<path d="M83.9774 42.8047L118.6 105.254V106.865L83.0869 42.8047H83.9774Z" fill="#E15814"/>
<path d="M84.8685 42.8047L118.601 103.657V105.254L83.978 42.8047H84.8685Z" fill="#E05712"/>
<path d="M118.6 103.657L84.8677 42.8047H118.6V103.657Z" fill="#E05712"/>
</g>
<mask id="mask3_185_764" style="mask-type:luminance" maskUnits="userSpaceOnUse" x="83" y="108" width="58" height="36">
<path d="M139.984 112.019C139.984 112.019 139.984 112.071 139.984 112.097C139.971 112.66 139.827 113.184 139.578 113.643C139.578 113.643 139.578 113.656 139.578 113.669L139.46 113.865L139.133 114.415C138.805 114.782 138.399 115.083 137.928 115.279C137.679 115.384 137.404 115.437 137.129 115.463C136.893 115.476 136.645 115.502 136.37 115.541C131.983 116.17 122.044 119.758 108.91 128.217C101.851 132.761 95.4481 137.685 90.9565 141.954C89.0709 143.748 86.1245 143.787 84.1603 142.085C83.715 141.692 83.4924 141.155 83.4924 140.605C83.4924 140.12 83.6758 139.623 84.0424 139.243C88.9137 134.123 96.5087 128.112 105.23 122.495C113.205 117.348 126.417 110.172 135.243 108.902C135.453 108.876 135.649 108.85 135.859 108.824C136.173 108.784 136.474 108.758 136.762 108.745C137.339 108.706 137.915 108.837 138.412 109.138C139.381 109.74 140.01 110.814 140.01 112.032L139.984 112.019Z" fill="white"/>
</mask>
<g mask="url(#mask3_185_764)">
<path d="M84.3822 108.695H83.4656V143.803H84.3822V108.695Z" fill="#FB8F50"/>
<path d="M85.2855 108.695H84.3689V143.803H85.2855V108.695Z" fill="#FB8F50"/>
<path d="M86.2023 108.695H85.2856V143.803H86.2023V108.695Z" fill="#FB8F50"/>
<path d="M87.1058 108.695H86.1892V143.803H87.1058V108.695Z" fill="#FB8E4F"/>
<path d="M88.0221 108.695H87.1055V143.803H88.0221V108.695Z" fill="#FB8E4F"/>
<path d="M88.9389 108.695H88.0222V143.803H88.9389V108.695Z" fill="#FA8E4F"/>
<path d="M89.8434 108.695H88.9268V143.803H89.8434V108.695Z" fill="#FA8D4E"/>
<path d="M90.7589 108.695H89.8423V143.803H90.7589V108.695Z" fill="#FA8D4E"/>
<path d="M91.663 108.695H90.7463V143.803H91.663V108.695Z" fill="#FA8C4D"/>
<path d="M92.5787 108.695H91.6621V143.803H92.5787V108.695Z" fill="#FA8C4D"/>
<path d="M93.497 108.695H92.5803V143.803H93.497V108.695Z" fill="#F98B4C"/>
<path d="M94.3998 108.695H93.4832V143.803H94.3998V108.695Z" fill="#F98B4B"/>
<path d="M95.3165 108.695H94.3999V143.803H95.3165V108.695Z" fill="#F98A4B"/>
<path d="M96.2323 108.695H95.3157V143.803H96.2323V108.695Z" fill="#F88A4A"/>
<path d="M97.1364 108.695H96.2197V143.803H97.1364V108.695Z" fill="#F88949"/>
<path d="M98.0536 108.695H97.137V143.803H98.0536V108.695Z" fill="#F88849"/>
<path d="M98.956 108.695H98.0393V143.803H98.956V108.695Z" fill="#F78848"/>
<path d="M99.8732 108.695H98.9565V143.803H99.8732V108.695Z" fill="#F78747"/>
<path d="M100.79 108.695H99.8733V143.803H100.79V108.695Z" fill="#F78646"/>
<path d="M101.694 108.695H100.777V143.803H101.694V108.695Z" fill="#F68545"/>
<path d="M102.611 108.695H101.694V143.803H102.611V108.695Z" fill="#F68545"/>
<path d="M103.514 108.695H102.597V143.803H103.514V108.695Z" fill="#F68444"/>
<path d="M104.431 108.695H103.514V143.803H104.431V108.695Z" fill="#F58343"/>
<path d="M105.347 108.695H104.43V143.803H105.347V108.695Z" fill="#F58242"/>
<path d="M106.251 108.695H105.334V143.803H106.251V108.695Z" fill="#F48141"/>
<path d="M107.167 108.695H106.25V143.803H107.167V108.695Z" fill="#F48140"/>
<path d="M108.085 108.695H107.168V143.803H108.085V108.695Z" fill="#F4803F"/>
<path d="M108.988 108.695H108.071V143.803H108.988V108.695Z" fill="#F37F3E"/>
<path d="M109.904 108.695H108.988V143.803H109.904V108.695Z" fill="#F37E3D"/>
<path d="M110.808 108.695H109.892V143.803H110.808V108.695Z" fill="#F27D3C"/>
<path d="M111.723 108.695H110.807V143.803H111.723V108.695Z" fill="#F27C3B"/>
<path d="M112.642 108.695H111.725V143.803H112.642V108.695Z" fill="#F17B3A"/>
<path d="M113.544 108.695H112.627V143.803H113.544V108.695Z" fill="#F17A39"/>
<path d="M114.462 108.695H113.545V143.803H114.462V108.695Z" fill="#F07938"/>
<path d="M115.365 108.695H114.448V143.803H115.365V108.695Z" fill="#F07836"/>
<path d="M116.281 108.695H115.365V143.803H116.281V108.695Z" fill="#EF7735"/>
<path d="M117.198 108.695H116.281V143.803H117.198V108.695Z" fill="#EF7634"/>
<path d="M118.102 108.695H117.185V143.803H118.102V108.695Z" fill="#EE7533"/>
<path d="M119.018 108.695H118.102V143.803H119.018V108.695Z" fill="#EE7432"/>
<path d="M119.922 108.695H119.006V143.803H119.922V108.695Z" fill="#ED7331"/>
<path d="M120.838 108.695H119.922V143.803H120.838V108.695Z" fill="#ED712F"/>
<path d="M121.755 108.695H120.838V143.803H121.755V108.695Z" fill="#EC702E"/>
<path d="M122.658 108.695H121.742V143.803H122.658V108.695Z" fill="#EC6F2D"/>
<path d="M123.576 108.695H122.659V143.803H123.576V108.695Z" fill="#EB6E2C"/>
<path d="M124.491 108.695H123.575V143.803H124.491V108.695Z" fill="#EB6D2A"/>
<path d="M125.395 108.695H124.479V143.803H125.395V108.695Z" fill="#EA6C29"/>
<path d="M126.311 108.695H125.395V143.803H126.311V108.695Z" fill="#E96B28"/>
<path d="M127.215 108.695H126.299V143.803H127.215V108.695Z" fill="#E96926"/>
<path d="M128.133 108.695H127.216V143.803H128.133V108.695Z" fill="#E86825"/>
<path d="M129.049 108.695H128.133V143.803H129.049V108.695Z" fill="#E86724"/>
<path d="M129.953 108.695H129.036V143.803H129.953V108.695Z" fill="#E76622"/>
<path d="M130.869 108.695H129.953V143.803H130.869V108.695Z" fill="#E66421"/>
<path d="M131.773 108.695H130.856V143.803H131.773V108.695Z" fill="#E6631F"/>
<path d="M132.689 108.695H131.772V143.803H132.689V108.695Z" fill="#E5621E"/>
<path d="M133.606 108.695H132.689V143.803H133.606V108.695Z" fill="#E5601C"/>
<path d="M134.509 108.695H133.592V143.803H134.509V108.695Z" fill="#E45F1B"/>
<path d="M135.426 108.695H134.509V143.803H135.426V108.695Z" fill="#E35E1A"/>
<path d="M136.343 108.695H135.427V143.803H136.343V108.695Z" fill="#E35C18"/>
<path d="M137.246 108.695H136.33V143.803H137.246V108.695Z" fill="#E25B17"/>
<path d="M138.163 108.695H137.246V143.803H138.163V108.695Z" fill="#E15A15"/>
<path d="M139.067 108.695H138.15V143.803H139.067V108.695Z" fill="#E15814"/>
<path d="M139.983 108.695H139.066V143.803H139.983V108.695Z" fill="#E05712"/>
</g>
<path d="M224.576 41.3167C224.576 47.0729 222.337 51.5214 217.918 54.5927C213.717 57.5054 208.08 58.9717 201.184 58.9717C196.062 58.9717 191.644 58.0999 188.067 56.3562C184.441 54.6026 181.617 52.2446 179.675 49.3318C177.744 46.4488 176.644 43.2487 176.416 39.8405L176.287 37.9284H188.037L188.235 39.5136C188.404 41.0096 188.949 42.4957 189.831 43.9125C190.663 45.2797 192 46.4091 193.803 47.281C195.656 48.1826 198.183 48.6383 201.284 48.6383C202.254 48.6383 203.493 48.5392 204.969 48.3411C206.366 48.1429 207.753 47.7863 209.051 47.2711C210.24 46.8153 211.211 46.1416 212.023 45.2103C212.727 44.4078 213.054 43.3874 213.054 42.0598C213.054 40.4449 212.499 39.2857 211.27 38.4337C209.774 37.3636 207.763 36.5017 205.306 35.8874C202.641 35.2336 199.797 34.5698 196.835 33.9456C193.764 33.2917 190.811 32.4298 188.057 31.3796C185.115 30.2699 182.677 28.655 180.805 26.5646C178.804 24.3651 177.793 21.383 177.793 17.6875C177.793 12.3177 179.794 8.09712 183.747 5.09517C187.542 2.22202 193.13 0.765625 200.342 0.765625C205.256 0.765625 209.348 1.54831 212.519 3.12359C215.719 4.69887 218.186 6.77943 219.89 9.2761C221.564 11.7728 222.575 14.4973 222.872 17.3804L223.09 19.3619H211.478L211.28 17.7866C211.052 15.9834 210.171 14.4478 208.565 13.1202C206.97 11.7827 204.127 11.0892 200.124 11.0892C189.315 11.0892 189.315 15.4881 189.315 16.9445C189.315 18.4008 189.86 19.5303 191.059 20.3328C192.575 21.3433 194.596 22.1558 197.073 22.7898C199.728 23.4437 202.572 24.0877 205.514 24.6722C208.615 25.2865 211.577 26.1584 214.351 27.2383C217.294 28.4073 219.731 30.0817 221.604 32.2316C223.585 34.5004 224.586 37.542 224.586 41.2969L224.576 41.3167Z" fill="white"/>
<path d="M280.87 1.61719L248.017 79.1131H235.514L245.947 55.5829L223.615 1.61719H236.297L252.149 41.98L268.288 1.61719H280.87Z" fill="white"/>
<path d="M333.666 25.5342V58.1395H322.144V25.7422C322.144 21.3731 320.955 17.9748 318.508 15.3593C316.081 12.7932 313.009 11.535 309.116 11.535C306.471 11.535 304.043 12.1393 301.933 13.3183C299.823 14.5072 298.089 16.1915 296.821 18.3414C295.553 20.4814 294.909 23.0078 294.909 25.8512V58.1296H283.386V1.60775H294.909V6.98749C296.197 5.76887 297.603 4.67905 299.149 3.68831C302.181 1.74646 306.054 0.765625 310.701 0.765625C314.654 0.765625 318.409 1.70683 321.877 3.55952C325.364 5.44193 328.227 8.27545 330.397 11.9511C332.567 15.6466 333.666 20.204 333.666 25.5144V25.5342Z" fill="white"/>
<path d="M395.944 29.8755C395.944 24.5353 394.805 19.6114 392.556 15.2422C390.297 10.8433 387.047 7.28652 382.866 4.69078C378.666 2.09503 373.643 0.777344 367.886 0.777344C362.13 0.777344 357.196 2.09503 352.966 4.69078C348.755 7.28652 345.466 10.8433 343.197 15.2422C340.968 19.6114 339.829 24.5353 339.829 29.8755C339.829 35.2156 341.027 40.0801 343.366 44.4988C345.733 48.9274 349.102 52.4941 353.402 55.0799C357.682 57.6757 362.735 58.9934 368.412 58.9934C375.069 58.9934 380.608 57.3686 384.888 54.1387C389.128 50.9584 392.269 46.7874 394.22 41.7644L395.162 39.337H382.797L382.302 40.2683C381.034 42.6065 379.25 44.5483 376.962 46.0345C374.732 47.4908 371.889 48.2339 368.511 48.2339C365.311 48.2339 362.467 47.5503 360.069 46.193C357.672 44.8258 355.73 42.9632 354.303 40.6646C353.204 38.8813 352.401 36.9196 351.916 34.8589H395.934V29.8953L395.944 29.8755ZM352.104 23.8616C353.006 20.6318 354.601 17.8677 356.919 15.579C359.673 12.8644 363.26 11.5368 367.896 11.5368C372.533 11.5368 376.149 12.8644 378.933 15.579C381.301 17.8875 382.876 20.6219 383.718 23.8616H352.104Z" fill="white"/>
<path d="M433.434 0.775531V12.2781H430.69C427.104 12.2781 424.111 13.2193 421.536 15.1512C418.94 17.103 416.909 19.6888 415.522 22.8196C414.125 25.9998 413.411 29.4476 413.411 33.0539V58.1395H401.889V1.61766H413.411V9.31573C414.026 8.51323 414.749 7.70082 415.551 6.89832C417.236 5.21406 419.396 3.75767 421.932 2.56878C424.528 1.36998 427.619 0.765625 431.096 0.765625H433.424L433.434 0.775531Z" fill="white"/>
<path d="M478.157 1.61947V7.05865C476.661 5.6617 474.976 4.4629 473.104 3.46225C469.716 1.67892 465.634 0.777344 460.987 0.777344C455.538 0.777344 450.664 2.04549 446.552 4.5917C442.44 7.11809 439.211 10.5857 436.962 14.9152C434.723 19.225 433.573 24.1093 433.573 29.4593C433.573 34.8093 434.713 39.6144 436.962 43.9341C439.22 48.3033 442.44 51.8006 446.552 54.327C450.664 56.8534 455.518 58.1413 460.987 58.1413C465.653 58.1413 469.735 57.2001 473.134 55.3276C474.986 54.2972 476.671 53.0885 478.157 51.6817V54.2378C478.157 59.1618 476.928 62.9365 474.491 65.4332C472.064 67.9199 468.021 69.1881 462.473 69.1881C458.778 69.1881 455.716 68.5342 453.388 67.2363C451.119 65.9979 449.574 64.2839 448.662 62.0349L448.207 60.9253H435.773L436.526 63.2635C438.121 68.2172 441.212 72.2891 445.68 75.3604C450.138 78.4119 455.914 79.9575 462.899 79.9575C471.311 79.9575 477.929 77.7679 482.585 73.4483C487.301 69.089 489.679 62.8077 489.679 54.7728V1.61947H478.157ZM462.047 47.372C458.51 47.372 455.449 46.5695 452.922 44.9843C450.396 43.409 448.444 41.2393 447.107 38.5643C445.769 35.8199 445.076 32.7585 445.076 29.4593C445.076 26.1602 445.759 23.0096 447.107 20.295C448.434 17.6497 450.386 15.4998 452.922 13.9245C455.449 12.3393 458.52 11.5368 462.047 11.5368C465.574 11.5368 468.556 12.3393 470.974 13.8948C473.401 15.48 475.303 17.62 476.601 20.2751C477.919 22.9898 478.583 26.071 478.583 29.4593C478.583 32.8477 477.909 35.8397 476.581 38.5841C475.293 41.269 473.401 43.4387 470.974 45.0041C468.556 46.5794 465.564 47.372 462.047 47.372Z" fill="white"/>
<path d="M545.488 3.40234L546.171 5.0767L546.885 3.40234H545.488Z" fill="white"/>
<path d="M544.745 1.62109L545.488 3.40443L546.172 5.07879L547.133 7.38722L548.104 5.07879L548.817 3.40443L549.57 1.62109H544.745Z" fill="white"/>
<path d="M547.132 7.38722L516.716 79.117H504.213L514.646 55.5868L492.314 1.62109H504.996L520.848 41.9839L536.987 1.62109H544.745L545.488 3.40443L546.171 5.06888L547.132 7.38722Z" fill="white"/>
<path d="M547.411 3.40234L548.094 5.0767L548.808 3.40234H547.411Z" fill="white"/>
<path d="M544.746 1.62109L545.489 3.40443L546.172 5.07879L547.133 7.38722L548.104 5.07879L548.818 3.40443L549.571 1.62109H544.746Z" fill="white"/>
<path d="M602.001 1.62109L569.148 79.117H556.635L567.077 55.5868L547.133 7.38722L548.104 5.06888L548.818 3.40443L549.571 1.62109H557.427L573.269 41.9839L589.418 1.62109H602.001Z" fill="white"/>
<path d="M181.293 110.202H176.176V106.03H181.293V98.0755H185.855V106.03H193.03V110.202H185.855V126.945C185.855 128.168 186.077 129.003 186.522 129.503C186.967 130.004 187.801 130.227 188.97 130.227H193.92V134.398H188.691C186.021 134.398 184.075 133.842 182.962 132.618C181.85 131.45 181.293 129.559 181.293 127V110.202ZM222.707 130.227V134.398H220.204C218.369 134.398 217.089 134.065 216.31 133.286C215.532 132.563 215.087 131.45 215.087 130.004C212.862 133.175 209.691 134.732 205.575 134.732C202.404 134.732 199.846 134.009 197.954 132.507C196.063 131.061 195.117 129.003 195.117 126.444C195.117 123.607 196.063 121.438 198.01 119.88C199.957 118.379 202.794 117.6 206.52 117.6H214.864V115.653C214.864 113.817 214.197 112.371 212.973 111.314C211.749 110.313 210.025 109.757 207.8 109.757C205.797 109.757 204.184 110.202 202.905 111.092C201.625 111.982 200.847 113.094 200.569 114.54H196.007C196.341 111.759 197.565 109.59 199.679 108.032C201.792 106.475 204.574 105.696 208.022 105.696C211.638 105.696 214.419 106.586 216.422 108.366C218.424 110.146 219.425 112.649 219.425 115.931V128.168C219.425 129.559 220.037 130.227 221.317 130.227H222.707ZM214.864 121.438H206.075C201.848 121.438 199.734 123.051 199.734 126.166C199.734 127.612 200.291 128.725 201.403 129.559C202.515 130.449 204.017 130.838 205.909 130.838C208.69 130.838 210.859 130.115 212.472 128.669C214.03 127.223 214.864 125.276 214.864 122.828V121.438ZM225.658 95.4611H230.219V134.398H225.658V95.4611ZM236.579 112.594C237.691 110.424 239.304 108.755 241.362 107.532C243.365 106.308 245.701 105.696 248.371 105.696C250.93 105.696 253.266 106.252 255.269 107.309C257.271 108.422 258.829 109.979 259.997 111.982C261.109 114.04 261.721 116.432 261.832 119.157C261.832 119.602 261.777 120.214 261.721 121.104H239.694V121.493C239.749 124.275 240.584 126.5 242.252 128.168C243.866 129.837 245.979 130.672 248.649 130.672C250.652 130.672 252.376 130.171 253.822 129.17C255.269 128.168 256.214 126.722 256.715 124.887H261.332C260.775 127.779 259.385 130.171 257.16 132.007C254.935 133.842 252.209 134.732 248.983 134.732C246.146 134.732 243.699 134.176 241.585 132.952C239.471 131.728 237.802 130.06 236.634 127.835C235.466 125.61 234.91 123.107 234.91 120.214C234.91 117.322 235.466 114.819 236.579 112.594ZM257.104 117.322C256.882 114.93 255.936 113.039 254.379 111.704C252.821 110.369 250.819 109.701 248.427 109.701C246.257 109.701 244.366 110.424 242.753 111.815C241.084 113.261 240.194 115.097 239.972 117.322H257.104ZM288.675 108.811C290.789 110.925 291.846 114.151 291.846 118.601V134.398H287.285V118.879C287.285 115.987 286.617 113.762 285.282 112.204C283.947 110.647 282.056 109.868 279.608 109.868C276.938 109.868 274.825 110.814 273.323 112.649C271.765 114.54 271.042 117.044 271.042 120.214V134.398H266.481V106.03H270.43L271.042 109.868C273.156 107.087 276.271 105.696 280.387 105.696C283.836 105.696 286.561 106.753 288.675 108.811ZM298.996 110.202H293.879V106.03H298.996V98.0755H303.557V106.03H310.733V110.202H303.557V126.945C303.557 128.168 303.78 129.003 304.225 129.503C304.67 130.004 305.504 130.227 306.672 130.227H311.623V134.398H306.394C303.724 134.398 301.777 133.842 300.665 132.618C299.552 131.45 298.996 129.559 298.996 127V110.202ZM350.508 108.811C352.622 110.925 353.678 114.151 353.678 118.601V134.398H349.117V118.879C349.117 115.987 348.45 113.762 347.115 112.204C345.78 110.647 343.888 109.868 341.441 109.868C338.771 109.868 336.657 110.814 335.155 112.649C333.598 114.54 332.875 117.044 332.875 120.214V134.398H328.314V106.03H332.263L332.875 109.868C334.988 107.087 338.103 105.696 342.22 105.696C345.668 105.696 348.394 106.753 350.508 108.811ZM359.605 112.594C360.718 110.424 362.331 108.755 364.389 107.532C366.391 106.308 368.728 105.696 371.398 105.696C373.956 105.696 376.292 106.252 378.295 107.309C380.297 108.422 381.855 109.979 383.023 111.982C384.136 114.04 384.747 116.432 384.859 119.157C384.859 119.602 384.803 120.214 384.747 121.104H362.72V121.493C362.776 124.275 363.61 126.5 365.279 128.168C366.892 129.837 369.006 130.672 371.676 130.672C373.678 130.672 375.402 130.171 376.849 129.17C378.295 128.168 379.241 126.722 379.741 124.887H384.358C383.802 127.779 382.411 130.171 380.186 132.007C377.961 133.842 375.236 134.732 372.009 134.732C369.173 134.732 366.725 134.176 364.611 132.952C362.498 131.728 360.829 130.06 359.661 127.835C358.493 125.61 357.936 123.107 357.936 120.214C357.936 117.322 358.493 114.819 359.605 112.594ZM380.131 117.322C379.908 114.93 378.962 113.039 377.405 111.704C375.847 110.369 373.845 109.701 371.453 109.701C369.284 109.701 367.393 110.424 365.779 111.815C364.111 113.261 363.221 115.097 362.998 117.322H380.131ZM391.073 110.202H385.955V106.03H391.073V98.0755H395.634V106.03H402.809V110.202H395.634V126.945C395.634 128.168 395.856 129.003 396.301 129.503C396.746 130.004 397.581 130.227 398.749 130.227H403.699V134.398H398.471C395.801 134.398 393.854 133.842 392.741 132.618C391.629 131.45 391.073 129.559 391.073 127V110.202ZM403.718 106.03H408.502L415.566 129.114L423.02 106.03H427.247L434.312 129.114L441.71 106.03H446.327L436.87 134.398H431.864L425.022 113.317L417.902 134.398L412.896 134.454L403.718 106.03ZM454.258 132.897C452.144 131.673 450.475 130.004 449.307 127.779C448.083 125.61 447.527 123.107 447.527 120.214C447.527 117.377 448.083 114.874 449.307 112.649C450.475 110.48 452.144 108.755 454.258 107.532C456.371 106.308 458.819 105.696 461.6 105.696C464.326 105.696 466.773 106.308 468.887 107.532C471.001 108.755 472.669 110.48 473.893 112.649C475.061 114.874 475.673 117.377 475.673 120.214C475.673 123.107 475.061 125.61 473.893 127.779C472.669 130.004 471.001 131.673 468.887 132.897C466.773 134.12 464.326 134.732 461.6 134.732C458.819 134.732 456.371 134.12 454.258 132.897ZM466.495 129.337C467.941 128.447 469.054 127.223 469.833 125.61C470.611 124.052 471.001 122.217 471.001 120.214C471.001 118.212 470.611 116.432 469.833 114.819C469.054 113.261 467.941 111.982 466.495 111.092C465.049 110.202 463.436 109.757 461.6 109.757C459.709 109.757 458.096 110.202 456.649 111.092C455.203 111.982 454.146 113.261 453.368 114.819C452.589 116.432 452.199 118.212 452.199 120.214C452.199 122.217 452.589 124.052 453.368 125.61C454.146 127.223 455.203 128.447 456.649 129.337C458.096 130.227 459.709 130.672 461.6 130.672C463.436 130.672 465.049 130.227 466.495 129.337ZM494.754 106.03V110.48H492.474C489.748 110.48 487.801 111.425 486.633 113.205C485.465 115.041 484.909 117.266 484.909 119.936V134.398H480.347V106.03H484.297L484.909 110.313C485.687 109.034 486.744 107.977 488.079 107.198C489.359 106.419 491.139 106.03 493.475 106.03H494.754ZM498.369 95.4611H502.93V121.271L517.337 106.03H522.788L511.886 117.655L523.567 134.398H518.06L508.604 120.937L502.93 126.889V134.398H498.369V95.4611Z" fill="white"/>
</svg>
