<svg width="17" height="16" viewBox="0 0 17 16" fill="none" xmlns="http://www.w3.org/2000/svg">
<g id="&#60;RemoveButton&#62;">
<path id="Vector" fill-rule="evenodd" clip-rule="evenodd" d="M12.1813 5.12631L9.50021 7.80838L6.81748 5.12547C6.73727 5.04702 6.6294 5.00331 6.5172 5.00378C6.40501 5.00425 6.29751 5.04888 6.21796 5.128L5.62853 5.71831C5.58818 5.75701 5.55601 5.80343 5.53394 5.85481C5.51186 5.90618 5.50032 5.96146 5.50001 6.01738C5.49969 6.0733 5.51061 6.1287 5.53211 6.18032C5.55361 6.23194 5.58525 6.27872 5.62516 6.31788L8.30705 8.9991L5.626 11.682C5.54767 11.7623 5.50411 11.8703 5.50474 11.9825C5.50537 12.0947 5.55014 12.2021 5.62937 12.2816L6.2188 12.8711C6.39226 13.0454 6.65329 13.0395 6.81833 12.8744L9.50105 10.1924L12.1821 12.8744C12.2624 12.9528 12.3704 12.9963 12.4826 12.9957C12.5947 12.9951 12.7022 12.9503 12.7816 12.8711L13.3719 12.2816C13.4122 12.2428 13.4443 12.1964 13.4663 12.145C13.4883 12.0936 13.4998 12.0383 13.5 11.9823C13.5002 11.9264 13.4892 11.871 13.4677 11.8194C13.4461 11.7679 13.4144 11.7211 13.3744 11.682L10.6917 8.9991L13.3744 6.31788C13.4529 6.23766 13.4966 6.12978 13.4961 6.01757C13.4956 5.90537 13.451 5.79786 13.3719 5.71831L12.7825 5.12884C12.743 5.0884 12.6958 5.05619 12.6438 5.03407C12.5918 5.01196 12.5359 5.00038 12.4793 5C12.4239 5.00045 12.3691 5.01184 12.3181 5.03352C12.2671 5.0552 12.2209 5.08673 12.1821 5.12631H12.1813Z" fill="white"/>
</g>
</svg>
