<svg width="20" height="20" viewBox="0 0 20 20" fill="none" xmlns="http://www.w3.org/2000/svg">
<g clip-path="url(#clip0_14164_6808)">
<path d="M12.0832 17.4983C11.9048 17.5045 11.7295 17.4503 11.5858 17.3444C11.4421 17.2385 11.3384 17.0872 11.2916 16.9149L8.70823 9.12327L6.62489 14.4566C6.57246 14.6141 6.47184 14.7512 6.33725 14.8484C6.20266 14.9456 6.04091 14.998 5.87489 14.9983C5.7135 15.0023 5.55412 14.9617 5.41439 14.8808C5.27467 14.7999 5.16005 14.6819 5.08323 14.5399L3.58323 11.4983L2.29156 13.0399C2.14699 13.2042 1.94359 13.3051 1.7253 13.3207C1.50701 13.3363 1.29134 13.2654 1.12489 13.1233C0.960591 12.9787 0.859753 12.7753 0.84416 12.557C0.828568 12.3387 0.899473 12.1231 1.04156 11.9566L3.12489 9.4566C3.20863 9.35202 3.31755 9.2704 3.44143 9.21939C3.56532 9.16838 3.70012 9.14964 3.83323 9.16494C3.97303 9.18203 4.10665 9.23263 4.22271 9.31243C4.33878 9.39222 4.43386 9.49886 4.49989 9.62327L5.74989 12.1233L7.95823 6.37327C8.01727 6.20784 8.12707 6.0653 8.27196 5.966C8.41685 5.8667 8.5894 5.81572 8.76499 5.82034C8.94058 5.82496 9.11022 5.88494 9.24968 5.99173C9.38914 6.09851 9.4913 6.24663 9.54156 6.41493L11.9999 13.7483L15.0416 2.28993C15.0787 2.11692 15.1728 1.96135 15.3087 1.84806C15.4447 1.73477 15.6147 1.6703 15.7916 1.66493C15.9754 1.65652 16.1568 1.70918 16.3076 1.8147C16.4583 1.92023 16.5699 2.07267 16.6249 2.24827L19.1249 9.74827C19.1702 9.9518 19.1376 10.1649 19.0335 10.3456C18.9294 10.5263 18.7613 10.6613 18.5624 10.7241C18.3636 10.7869 18.1484 10.7729 17.9594 10.6848C17.7704 10.5967 17.6213 10.4409 17.5416 10.2483L15.9166 5.41493L12.8749 16.8733C12.8377 17.0463 12.7436 17.2019 12.6077 17.3151C12.4718 17.4284 12.3018 17.4929 12.1249 17.4983H12.0832Z" fill="#72F9FF"/>
</g>
<defs>
<clipPath id="clip0_14164_6808">
<rect width="20" height="20" fill="white"/>
</clipPath>
</defs>
</svg>
