<svg width="16" height="17" viewBox="0 0 16 17" fill="none" xmlns="http://www.w3.org/2000/svg">
<g id="add">
<path id="Icon" d="M7.9974 3.79688C8.36559 3.79688 8.66406 4.09535 8.66406 4.46354V8.46354H12.6641C13.0323 8.46354 13.3307 8.76202 13.3307 9.13021C13.3307 9.4984 13.0323 9.79688 12.6641 9.79688H8.66406V13.7969C8.66406 14.1651 8.36559 14.4635 7.9974 14.4635C7.62921 14.4635 7.33073 14.1651 7.33073 13.7969V9.79688H3.33073C2.96254 9.79688 2.66406 9.4984 2.66406 9.13021C2.66406 8.76202 2.96254 8.46354 3.33073 8.46354H7.33073V4.46354C7.33073 4.09535 7.62921 3.79688 7.9974 3.79688Z" fill="white"/>
</g>
</svg>
