<svg width="13" height="12" viewBox="0 0 13 12" fill="none" xmlns="http://www.w3.org/2000/svg">
<path id="Icon" d="M6.28141 0.460938C6.6773 0.460938 6.99823 0.78186 6.99823 1.17774V5.47855H11.2991C11.695 5.47855 12.016 5.79947 12.016 6.19535C12.016 6.59123 11.695 6.91215 11.2991 6.91215H6.99823V11.213C6.99823 11.6088 6.6773 11.9298 6.28141 11.9298C5.88553 11.9298 5.5646 11.6088 5.5646 11.213V6.91215H1.26369C0.867805 6.91215 0.546875 6.59123 0.546875 6.19535C0.546875 5.79947 0.867805 5.47855 1.26369 5.47855H5.5646V1.17774C5.5646 0.78186 5.88553 0.460938 6.28141 0.460938Z" fill="#42B8BD"/>
</svg>
