<svg width="34" height="34" viewBox="0 0 34 34" fill="none" xmlns="http://www.w3.org/2000/svg">
<g id="add">
<path id="Icon" d="M11.7272 11.6635C12.1177 11.2729 12.7509 11.2729 13.1414 11.6635L17.384 15.9061L21.6267 11.6635C22.0172 11.2729 22.6504 11.2729 23.0409 11.6635C23.4314 12.054 23.4314 12.6872 23.0409 13.0777L18.7982 17.3203L23.0409 21.563C23.4314 21.9535 23.4314 22.5866 23.0409 22.9772C22.6504 23.3677 22.0172 23.3677 21.6267 22.9772L17.384 18.7345L13.1414 22.9772C12.7509 23.3677 12.1177 23.3677 11.7272 22.9772C11.3366 22.5866 11.3366 21.9535 11.7272 21.563L15.9698 17.3203L11.7272 13.0777C11.3366 12.6871 11.3366 12.054 11.7272 11.6635Z" fill="#667A81"/>
</g>
</svg>
