<svg width="19" height="24" viewBox="0 0 19 24" fill="none" xmlns="http://www.w3.org/2000/svg">
<g clip-path="url(#clip0_13481_13864)">
<path d="M15.828 12.5953C15.8186 10.875 16.5967 9.57656 18.1717 8.62031C17.2905 7.35938 15.9592 6.66563 14.2014 6.52969C12.5374 6.39844 10.7186 7.5 10.053 7.5C9.34985 7.5 7.73735 6.57656 6.47173 6.57656C3.8561 6.61875 1.07642 8.6625 1.07642 12.8203C1.07642 14.0484 1.30142 15.3172 1.75142 16.6266C2.35142 18.3469 4.51704 22.5656 6.77642 22.4953C7.95767 22.4672 8.79204 21.6563 10.3295 21.6563C11.8202 21.6563 12.5936 22.4953 13.9108 22.4953C16.1889 22.4625 18.1483 18.6281 18.7202 16.9031C15.6639 15.4641 15.828 12.6844 15.828 12.5953ZM13.1749 4.89844C14.4545 3.37969 14.3374 1.99688 14.2999 1.5C13.1702 1.56563 11.8624 2.26875 11.117 3.13594C10.2967 4.06406 9.81392 5.2125 9.91704 6.50625C11.1405 6.6 12.2561 5.97188 13.1749 4.89844Z" fill="white"/>
</g>
<defs>
<clipPath id="clip0_13481_13864">
<rect width="18" height="24" fill="white" transform="translate(0.888916)"/>
</clipPath>
</defs>
</svg>
