<svg width="17" height="23" viewBox="0 0 17 23" fill="none" xmlns="http://www.w3.org/2000/svg">
<g clip-path="url(#clip0_13737_2551)">
<path d="M13.6682 11.9167C13.6598 10.3875 14.3515 9.23337 15.7515 8.38337C14.9682 7.26253 13.7848 6.64587 12.2223 6.52503C10.7432 6.40837 9.1265 7.38753 8.53483 7.38753C7.90983 7.38753 6.4765 6.5667 5.3515 6.5667C3.0265 6.6042 0.555664 8.42087 0.555664 12.1167C0.555664 13.2084 0.755664 14.3361 1.15566 15.5C1.689 17.0292 3.614 20.7792 5.62233 20.7167C6.67233 20.6917 7.414 19.9709 8.78066 19.9709C10.1057 19.9709 10.7932 20.7167 11.964 20.7167C13.989 20.6875 15.7307 17.2792 16.239 15.7459C13.5223 14.4667 13.6682 11.9959 13.6682 11.9167ZM11.3098 5.07503C12.4473 3.72503 12.3432 2.49587 12.3098 2.0542C11.3057 2.11253 10.1432 2.73753 9.48066 3.50837C8.7515 4.33337 8.32233 5.3542 8.414 6.5042C9.5015 6.58753 10.4932 6.0292 11.3098 5.07503Z" fill="#00212D"/>
</g>
<defs>
<clipPath id="clip0_13737_2551">
<rect width="16" height="21.3333" fill="white" transform="translate(0.388672 0.722168)"/>
</clipPath>
</defs>
</svg>
