<svg width="19" height="24" viewBox="0 0 19 24" fill="none" xmlns="http://www.w3.org/2000/svg">
<g id="apple 1" clip-path="url(#clip0_10047_29131)">
<path id="Vector" d="M15.4391 12.5953C15.4297 10.875 16.2078 9.57656 17.7828 8.62031C16.9016 7.35938 15.5703 6.66563 13.8125 6.52969C12.1484 6.39844 10.3297 7.5 9.66406 7.5C8.96094 7.5 7.34844 6.57656 6.08281 6.57656C3.46719 6.61875 0.6875 8.6625 0.6875 12.8203C0.6875 14.0484 0.9125 15.3172 1.3625 16.6266C1.9625 18.3469 4.12812 22.5656 6.3875 22.4953C7.56875 22.4672 8.40312 21.6563 9.94062 21.6563C11.4312 21.6563 12.2047 22.4953 13.5219 22.4953C15.8 22.4625 17.7594 18.6281 18.3312 16.9031C15.275 15.4641 15.4391 12.6844 15.4391 12.5953ZM12.7859 4.89844C14.0656 3.37969 13.9484 1.99688 13.9109 1.5C12.7812 1.56563 11.4734 2.26875 10.7281 3.13594C9.90781 4.06406 9.425 5.2125 9.52813 6.50625C10.7516 6.6 11.8672 5.97188 12.7859 4.89844Z" fill="#00141B"/>
</g>
<defs>
<clipPath id="clip0_10047_29131">
<rect width="18" height="24" fill="white" transform="translate(0.5)"/>
</clipPath>
</defs>
</svg>
