<svg width="9" height="7" viewBox="0 0 9 7" fill="none" xmlns="http://www.w3.org/2000/svg">
<path d="M1 3.11155C0.772183 3.11155 0.5875 3.29623 0.5875 3.52405C0.5875 3.75187 0.772183 3.93655 1 3.93655V3.11155ZM8.29204 3.81573C8.45313 3.65464 8.45313 3.39346 8.29204 3.23237L5.6669 0.607232C5.50581 0.446141 5.24463 0.446141 5.08354 0.607232C4.92245 0.768323 4.92245 1.0295 5.08354 1.1906L7.41699 3.52405L5.08354 5.8575C4.92245 6.01859 4.92245 6.27977 5.08354 6.44086C5.24463 6.60195 5.50581 6.60195 5.6669 6.44086L8.29204 3.81573ZM1 3.93655L8.00036 3.93655V3.11155L1 3.11155V3.93655Z" fill="#00141B"/>
</svg>
