<svg width="24" height="24" viewBox="0 0 24 24" fill="none" xmlns="http://www.w3.org/2000/svg">
<path d="M8.62057 7.70945L8.62052 7.70936C8.48551 7.44013 8.20999 7.27041 7.90922 7.27041H3.75469V3.91094H19.4874V9.74521H9.6381L8.62057 7.70945ZM18.3868 5.59067C18.3868 5.27117 18.128 5.01156 17.8077 5.01156H11.6211C11.3013 5.01156 11.0427 5.27124 11.0427 5.59067C11.0427 5.91011 11.3013 6.16979 11.6211 6.16979H17.8077C18.128 6.16979 18.3868 5.91018 18.3868 5.59067ZM18.3868 8.06547C18.3868 7.74518 18.128 7.48636 17.8077 7.48636H11.6211C11.3014 7.48636 11.0427 7.74525 11.0427 8.06547C11.0427 8.38505 11.3015 8.64387 11.6211 8.64387H17.8077C18.1279 8.64387 18.3868 8.38511 18.3868 8.06547ZM9.72537 5.59067C9.72537 5.27117 9.46662 5.01156 9.14626 5.01156H6.67218C6.35182 5.01156 6.09307 5.27117 6.09307 5.59067C6.09307 5.91018 6.35182 6.16979 6.67218 6.16979H9.14626C9.46662 6.16979 9.72537 5.91018 9.72537 5.59067Z" fill="white" stroke="white" stroke-width="0.15"/>
<path d="M8.43048 10.8998L8.43052 10.8999C8.56549 11.1691 8.84025 11.3389 9.14111 11.3389H20.72V19.2867C20.72 20.1677 20.0028 20.885 19.1211 20.885H4.11072C3.22973 20.885 2.5125 20.1677 2.5125 19.2867V8.86406H7.41295L8.43048 10.8998ZM14.436 15.946C14.436 15.5069 14.0798 15.1517 13.6409 15.1517H12.411V13.9217C12.411 13.4827 12.0549 13.1266 11.6159 13.1266C11.1768 13.1266 10.8216 13.4828 10.8216 13.9217V15.1517H9.59159C9.1527 15.1517 8.79654 15.5069 8.79654 15.946C8.79654 16.385 9.1526 16.7411 9.59159 16.7411H10.8216V17.971C10.8216 18.4099 11.1768 18.7661 11.6159 18.7661C12.0549 18.7661 12.411 18.41 12.411 17.971V16.7411H13.6409C14.0799 16.7411 14.436 16.385 14.436 15.946Z" fill="white" stroke="white" stroke-width="0.15"/>
<path d="M2.23775 7.42303H2.31275V7.34803V3.11849C2.31275 2.76225 2.60105 2.47344 2.9571 2.47344H20.2799C20.6361 2.47344 20.925 2.76235 20.925 3.11849V9.82282V9.89782H21H21.5177C21.8738 9.89782 22.162 10.186 22.162 10.5422V19.2851C22.162 20.9605 20.7991 22.3234 19.1237 22.3234H4.11334C2.43792 22.3234 1.075 20.9605 1.075 19.2851V8.06808C1.075 7.71194 1.36391 7.42303 1.72006 7.42303H2.23775ZM20.8726 11.2622V11.1872H20.7976H9.14372C8.89971 11.1872 8.6768 11.0495 8.56722 10.831L7.52901 8.75389L7.50828 8.71243H7.46192H2.44011H2.36511V8.78743V19.2851C2.36511 20.2489 3.1495 21.0333 4.11334 21.0333H19.1237C20.0882 21.0333 20.8726 20.249 20.8726 19.2851V11.2622ZM19.5599 9.89782H19.6349V9.82282V3.83855V3.76355H19.5599H3.67715H3.60215V3.83855V7.34803V7.42303H3.67715H7.90668C8.15078 7.42303 8.37437 7.56078 8.4839 7.77921L9.52212 9.85635L9.54284 9.89782H9.5892H19.5599Z" fill="#00141B" stroke="white" stroke-width="0.15"/>
<path d="M17.8072 5.16094C18.0446 5.16094 18.2363 5.35325 18.2363 5.59005C18.2363 5.82685 18.0446 6.01916 17.8072 6.01916H11.6206C11.384 6.01916 11.1922 5.82692 11.1922 5.59005C11.1922 5.35318 11.384 5.16094 11.6206 5.16094H17.8072Z" fill="#00141B" stroke="white" stroke-width="0.15"/>
<path d="M17.8072 7.6375C18.0447 7.6375 18.2363 7.82916 18.2363 8.06661C18.2363 8.30328 18.0447 8.49501 17.8072 8.49501H11.6206C11.3838 8.49501 11.1922 8.30335 11.1922 8.06661C11.1922 7.82909 11.3839 7.6375 11.6206 7.6375H17.8072Z" fill="#00141B" stroke="white" stroke-width="0.15"/>
<path d="M12.3394 16.5926H12.2644V16.6676V17.9725C12.2644 18.3287 11.9755 18.6176 11.6194 18.6176C11.2633 18.6176 10.975 18.3288 10.975 17.9725V16.6676V16.5926H10.9H9.59506C9.23891 16.5926 8.95 16.3036 8.95 15.9475C8.95 15.5914 9.23881 15.3032 9.59506 15.3032H10.9H10.975V15.2282V13.9232C10.975 13.5669 11.2633 13.2781 11.6194 13.2781C11.9755 13.2781 12.2644 13.567 12.2644 13.9232V15.2282V15.3032H12.3394H13.6444C14.0006 15.3032 14.2895 15.5914 14.2895 15.9475C14.2895 16.3036 14.0005 16.5926 13.6444 16.5926H12.3394Z" fill="#00141B" stroke="white" stroke-width="0.15"/>
<path d="M9.14225 5.16094C9.37963 5.16094 9.57136 5.35325 9.57136 5.59005C9.57136 5.82685 9.37963 6.01916 9.14225 6.01916H6.66817C6.43079 6.01916 6.23906 5.82685 6.23906 5.59005C6.23906 5.35325 6.43079 5.16094 6.66817 5.16094H9.14225Z" fill="#00141B" stroke="white" stroke-width="0.15"/>
</svg>
