<svg width="49" height="49" viewBox="0 0 49 49" fill="none" xmlns="http://www.w3.org/2000/svg">
<path d="M21.4019 14.4497C13.0746 10.9413 4.895 11.6322 1.8159 16.5852C-1.85353 22.484 3.08824 32.1707 12.8376 38.235C20.3889 42.9308 28.6066 44.069 33.6333 41.6138" fill="url(#paint0_linear_13737_1206)"/>
<path d="M21.4023 14.4504C23.0292 15.1408 24.5993 15.958 26.0981 16.8944C35.8498 22.9565 40.7871 32.6477 37.1221 38.5398C36.2747 39.8761 35.0628 40.9421 33.6293 41.6122C39.0295 39.6847 43.7812 32.4219 45.0938 23.2315C46.7149 11.8655 42.4641 1.85447 35.5926 0.870587C29.8436 0.0477042 24.07 5.84813 21.4023 14.4504Z" fill="url(#paint1_linear_13737_1206)"/>
<path d="M37.1322 38.5387C36.2851 39.8744 35.0741 40.9403 33.6417 41.6111C32.3938 42.0729 31.051 42.2189 29.733 42.0359C22.8659 41.0543 18.6106 31.0433 20.234 19.675C20.4863 17.9051 20.8774 16.1578 21.4035 14.4492C23.0304 15.1397 24.6005 15.9569 26.0993 16.8933C35.8599 22.9553 40.7972 32.6466 37.1322 38.5387Z" fill="url(#paint2_linear_13737_1206)"/>
<path d="M48.098 38.0935V38.1226C48.0942 38.3063 48.0467 38.4864 47.9594 38.6481L47.9191 38.7174L47.8051 38.9075C47.6908 39.0338 47.5504 39.1338 47.3937 39.2004C47.3069 39.2362 47.2146 39.2567 47.1208 39.2608C47.0426 39.2608 46.9554 39.2764 46.8637 39.2898C45.3633 39.5135 41.9689 40.7299 37.4833 43.6212C35.3024 44.9998 33.2496 46.5714 31.3497 48.317C31.0374 48.6124 30.6261 48.7806 30.1962 48.7884C29.7664 48.7963 29.3492 48.6433 29.0264 48.3594C28.9553 48.2959 28.8987 48.218 28.8601 48.1309C28.8215 48.0437 28.802 47.9494 28.8028 47.8541C28.8023 47.6798 28.8697 47.5122 28.9906 47.3867C30.6542 45.6359 33.2392 43.5854 36.2266 41.6646C38.939 39.9249 43.4537 37.4652 46.4679 37.018L46.6759 36.9911C46.781 36.9777 46.8861 36.9688 46.9867 36.9621C47.1833 36.946 47.3799 36.993 47.5479 37.0962C47.7176 37.2012 47.8574 37.3481 47.9537 37.5228C48.0501 37.6975 48.0998 37.894 48.098 38.0935Z" fill="#E95B09"/>
<defs>
<linearGradient id="paint0_linear_13737_1206" x1="10.0201" y1="36.663" x2="26.8154" y2="19.8677" gradientUnits="userSpaceOnUse">
<stop stop-color="#F9AD50"/>
<stop offset="0.32" stop-color="#F9A94E"/>
<stop offset="0.6" stop-color="#F99F48"/>
<stop offset="0.87" stop-color="#F98D3E"/>
<stop offset="1" stop-color="#F98137"/>
</linearGradient>
<linearGradient id="paint1_linear_13737_1206" x1="23.0749" y1="31.0489" x2="45.5857" y2="8.53814" gradientUnits="userSpaceOnUse">
<stop stop-color="#F38744"/>
<stop offset="0.25" stop-color="#F38341"/>
<stop offset="0.47" stop-color="#F17939"/>
<stop offset="0.68" stop-color="#EF662B"/>
<stop offset="0.88" stop-color="#EB4D17"/>
<stop offset="1" stop-color="#E93B09"/>
</linearGradient>
<linearGradient id="paint2_linear_13737_1206" x1="20.2094" y1="32.092" x2="34.6255" y2="24.1002" gradientUnits="userSpaceOnUse">
<stop stop-color="#F3761D"/>
<stop offset="0.22" stop-color="#F16F1A"/>
<stop offset="0.52" stop-color="#EB5D13"/>
<stop offset="0.88" stop-color="#E23F07"/>
<stop offset="1" stop-color="#DE3302"/>
</linearGradient>
</defs>
</svg>
