<svg width="29" height="30" viewBox="0 0 29 30" fill="none" xmlns="http://www.w3.org/2000/svg">
<g id="Bookmark" clip-path="url(#clip0_12664_14773)">
<path id="Vector" d="M15.07 23.4915L14.5938 23.2193L14.1175 23.4915L5.24125 28.5635V4.40078C5.24125 3.68667 5.51254 3.01022 5.98238 2.51817C6.45079 2.02762 7.07636 1.76078 7.71875 1.76078H21.4688C22.1111 1.76078 22.7367 2.02762 23.2051 2.51817C23.675 3.01022 23.9463 3.68667 23.9463 4.40078V28.5635L15.07 23.4915ZM5.24125 28.7015V28.7008C5.24126 28.701 5.24125 28.7012 5.24125 28.7015ZM23.9463 28.7014C23.9463 28.7012 23.9462 28.701 23.9462 28.7008L23.9463 28.7014Z" stroke="#CDDEE4" stroke-width="1.92"/>
</g>
<defs>
<clipPath id="clip0_12664_14773">
<rect width="27.5" height="28.8" fill="white" transform="translate(0.859375 0.802734)"/>
</clipPath>
</defs>
</svg>
