<svg width="36" height="36" viewBox="0 0 36 36" fill="none" xmlns="http://www.w3.org/2000/svg">
<g id="Briefcase">
<g id="Layer 1">
<path id="Vector" d="M33.2492 20.3532C31.9781 17.0439 28.5966 15.2571 25.1496 16.0733C22.471 16.7068 20.3514 19.0471 19.9971 21.7603C19.9601 22.0445 20.1344 22.2945 20.4018 22.3396C20.682 22.3872 20.9186 22.2294 20.9849 21.9446C21.0288 21.7559 21.0586 21.5638 21.1032 21.3752C21.8932 18.0055 25.4924 16.0502 28.7578 17.216C31.6295 18.2411 33.2261 21.2301 32.4828 24.189C31.6348 27.5643 28.0001 29.4809 24.7537 28.2358C22.8548 27.5073 21.6532 26.1227 21.1134 24.1631C21.0151 23.8154 20.7754 23.6486 20.4753 23.7261C20.1814 23.8024 20.0426 24.0657 20.1229 24.3941C20.87 27.4479 23.6405 29.6157 26.797 29.6167C27.5518 29.616 28.3015 29.4938 29.0174 29.2546C32.6515 28.0478 34.6173 23.916 33.2492 20.3532Z" fill="black"/>
<path id="Vector_2" d="M33.2492 20.3532C31.9781 17.0439 28.5966 15.2571 25.1496 16.0733C22.471 16.7068 20.3514 19.0471 19.9971 21.7603C19.9601 22.0445 20.1344 22.2945 20.4018 22.3396C20.682 22.3872 20.9186 22.2294 20.9849 21.9446C21.0288 21.7559 21.0586 21.5638 21.1032 21.3752C21.8932 18.0055 25.4924 16.0502 28.7578 17.216C31.6295 18.2411 33.2261 21.2301 32.4828 24.189C31.6348 27.5643 28.0001 29.4809 24.7537 28.2358C22.8548 27.5073 21.6532 26.1227 21.1134 24.1631C21.0151 23.8154 20.7754 23.6486 20.4753 23.7261C20.1814 23.8024 20.0426 24.0657 20.1229 24.3941C20.87 27.4479 23.6405 29.6157 26.797 29.6167C27.5518 29.616 28.3015 29.4938 29.0174 29.2546C32.6515 28.0478 34.6173 23.916 33.2492 20.3532Z" fill="black"/>
<path id="Vector_3" d="M33.2492 20.3532C31.9781 17.0439 28.5966 15.2571 25.1496 16.0733C22.471 16.7068 20.3514 19.0471 19.9971 21.7603C19.9601 22.0445 20.1344 22.2945 20.4018 22.3396C20.682 22.3872 20.9186 22.2294 20.9849 21.9446C21.0288 21.7559 21.0586 21.5638 21.1032 21.3752C21.8932 18.0055 25.4924 16.0502 28.7578 17.216C31.6295 18.2411 33.2261 21.2301 32.4828 24.189C31.6348 27.5643 28.0001 29.4809 24.7537 28.2358C22.8548 27.5073 21.6532 26.1227 21.1134 24.1631C21.0151 23.8154 20.7754 23.6486 20.4753 23.7261C20.1814 23.8024 20.0426 24.0657 20.1229 24.3941C20.87 27.4479 23.6405 29.6157 26.797 29.6167C27.5518 29.616 28.3015 29.4938 29.0174 29.2546C32.6515 28.0478 34.6173 23.916 33.2492 20.3532Z" fill="black"/>
<path id="Vector_4" d="M33.2492 20.3532C31.9781 17.0439 28.5966 15.2571 25.1496 16.0733C22.471 16.7068 20.3514 19.0471 19.9971 21.7603C19.9601 22.0445 20.1344 22.2945 20.4018 22.3396C20.682 22.3872 20.9186 22.2294 20.9849 21.9446C21.0288 21.7559 21.0586 21.5638 21.1032 21.3752C21.8932 18.0055 25.4924 16.0502 28.7578 17.216C31.6295 18.2411 33.2261 21.2301 32.4828 24.189C31.6348 27.5643 28.0001 29.4809 24.7537 28.2358C22.8548 27.5073 21.6532 26.1227 21.1134 24.1631C21.0151 23.8154 20.7754 23.6486 20.4753 23.7261C20.1814 23.8024 20.0426 24.0657 20.1229 24.3941C20.87 27.4479 23.6405 29.6157 26.797 29.6167C27.5518 29.616 28.3015 29.4938 29.0174 29.2546C32.6515 28.0478 34.6173 23.916 33.2492 20.3532Z" fill="black"/>
<path id="Vector_5" d="M33.2492 20.3532C31.9781 17.0439 28.5966 15.2571 25.1496 16.0733C22.471 16.7068 20.3514 19.0471 19.9971 21.7603C19.9601 22.0445 20.1344 22.2945 20.4018 22.3396C20.682 22.3872 20.9186 22.2294 20.9849 21.9446C21.0288 21.7559 21.0586 21.5638 21.1032 21.3752C21.8932 18.0055 25.4924 16.0502 28.7578 17.216C31.6295 18.2411 33.2261 21.2301 32.4828 24.189C31.6348 27.5643 28.0001 29.4809 24.7537 28.2358C22.8548 27.5073 21.6532 26.1227 21.1134 24.1631C21.0151 23.8154 20.7754 23.6486 20.4753 23.7261C20.1814 23.8024 20.0426 24.0657 20.1229 24.3941C20.87 27.4479 23.6405 29.6157 26.797 29.6167C27.5518 29.616 28.3015 29.4938 29.0174 29.2546C32.6515 28.0478 34.6173 23.916 33.2492 20.3532Z" fill="black"/>
<path id="Vector_6" d="M33.2492 20.3532C31.9781 17.0439 28.5966 15.2571 25.1496 16.0733C22.471 16.7068 20.3514 19.0471 19.9971 21.7603C19.9601 22.0445 20.1344 22.2945 20.4018 22.3396C20.682 22.3872 20.9186 22.2294 20.9849 21.9446C21.0288 21.7559 21.0586 21.5638 21.1032 21.3752C21.8932 18.0055 25.4924 16.0502 28.7578 17.216C31.6295 18.2411 33.2261 21.2301 32.4828 24.189C31.6348 27.5643 28.0001 29.4809 24.7537 28.2358C22.8548 27.5073 21.6532 26.1227 21.1134 24.1631C21.0151 23.8154 20.7754 23.6486 20.4753 23.7261C20.1814 23.8024 20.0426 24.0657 20.1229 24.3941C20.87 27.4479 23.6405 29.6157 26.797 29.6167C27.5518 29.616 28.3015 29.4938 29.0174 29.2546C32.6515 28.0478 34.6173 23.916 33.2492 20.3532Z" fill="black"/>
<path id="Vector_7" d="M33.2492 20.3532C31.9781 17.0439 28.5966 15.2571 25.1496 16.0733C22.471 16.7068 20.3514 19.0471 19.9971 21.7603C19.9601 22.0445 20.1344 22.2945 20.4018 22.3396C20.682 22.3872 20.9186 22.2294 20.9849 21.9446C21.0288 21.7559 21.0586 21.5638 21.1032 21.3752C21.8932 18.0055 25.4924 16.0502 28.7578 17.216C31.6295 18.2411 33.2261 21.2301 32.4828 24.189C31.6348 27.5643 28.0001 29.4809 24.7537 28.2358C22.8548 27.5073 21.6532 26.1227 21.1134 24.1631C21.0151 23.8154 20.7754 23.6486 20.4753 23.7261C20.1814 23.8024 20.0426 24.0657 20.1229 24.3941C20.87 27.4479 23.6405 29.6157 26.797 29.6167C27.5518 29.616 28.3015 29.4938 29.0174 29.2546C32.6515 28.0478 34.6173 23.916 33.2492 20.3532Z" fill="black"/>
<path id="Vector_8" d="M33.2492 20.3532C31.9781 17.0439 28.5966 15.2571 25.1496 16.0733C22.471 16.7068 20.3514 19.0471 19.9971 21.7603C19.9601 22.0445 20.1344 22.2945 20.4018 22.3396C20.682 22.3872 20.9186 22.2294 20.9849 21.9446C21.0288 21.7559 21.0586 21.5638 21.1032 21.3752C21.8932 18.0055 25.4924 16.0502 28.7578 17.216C31.6295 18.2411 33.2261 21.2301 32.4828 24.189C31.6348 27.5643 28.0001 29.4809 24.7537 28.2358C22.8548 27.5073 21.6532 26.1227 21.1134 24.1631C21.0151 23.8154 20.7754 23.6486 20.4753 23.7261C20.1814 23.8024 20.0426 24.0657 20.1229 24.3941C20.87 27.4479 23.6405 29.6157 26.797 29.6167C27.5518 29.616 28.3015 29.4938 29.0174 29.2546C32.6515 28.0478 34.6173 23.916 33.2492 20.3532Z" fill="black"/>
<path id="Vector_9" d="M33.2492 20.3532C31.9781 17.0439 28.5966 15.2571 25.1496 16.0733C22.471 16.7068 20.3514 19.0471 19.9971 21.7603C19.9601 22.0445 20.1344 22.2945 20.4018 22.3396C20.682 22.3872 20.9186 22.2294 20.9849 21.9446C21.0288 21.7559 21.0586 21.5638 21.1032 21.3752C21.8932 18.0055 25.4924 16.0502 28.7578 17.216C31.6295 18.2411 33.2261 21.2301 32.4828 24.189C31.6348 27.5643 28.0001 29.4809 24.7537 28.2358C22.8548 27.5073 21.6532 26.1227 21.1134 24.1631C21.0151 23.8154 20.7754 23.6486 20.4753 23.7261C20.1814 23.8024 20.0426 24.0657 20.1229 24.3941C20.87 27.4479 23.6405 29.6157 26.797 29.6167C27.5518 29.616 28.3015 29.4938 29.0174 29.2546C32.6515 28.0478 34.6173 23.916 33.2492 20.3532Z" fill="black"/>
<path id="Vector_10" d="M33.2492 20.3532C31.9781 17.0439 28.5966 15.2571 25.1496 16.0733C22.471 16.7068 20.3514 19.0471 19.9971 21.7603C19.9601 22.0445 20.1344 22.2945 20.4018 22.3396C20.682 22.3872 20.9186 22.2294 20.9849 21.9446C21.0288 21.7559 21.0586 21.5638 21.1032 21.3752C21.8932 18.0055 25.4924 16.0502 28.7578 17.216C31.6295 18.2411 33.2261 21.2301 32.4828 24.189C31.6348 27.5643 28.0001 29.4809 24.7537 28.2358C22.8548 27.5073 21.6532 26.1227 21.1134 24.1631C21.0151 23.8154 20.7754 23.6486 20.4753 23.7261C20.1814 23.8024 20.0426 24.0657 20.1229 24.3941C20.87 27.4479 23.6405 29.6157 26.797 29.6167C27.5518 29.616 28.3015 29.4938 29.0174 29.2546C32.6515 28.0478 34.6173 23.916 33.2492 20.3532Z" fill="black"/>
<path id="Vector_11" d="M33.2492 20.3532C31.9781 17.0439 28.5966 15.2571 25.1496 16.0733C22.471 16.7068 20.3514 19.0471 19.9971 21.7603C19.9601 22.0445 20.1344 22.2945 20.4018 22.3396C20.682 22.3872 20.9186 22.2294 20.9849 21.9446C21.0288 21.7559 21.0586 21.5638 21.1032 21.3752C21.8932 18.0055 25.4924 16.0502 28.7578 17.216C31.6295 18.2411 33.2261 21.2301 32.4828 24.189C31.6348 27.5643 28.0001 29.4809 24.7537 28.2358C22.8548 27.5073 21.6532 26.1227 21.1134 24.1631C21.0151 23.8154 20.7754 23.6486 20.4753 23.7261C20.1814 23.8024 20.0426 24.0657 20.1229 24.3941C20.87 27.4479 23.6405 29.6157 26.797 29.6167C27.5518 29.616 28.3015 29.4938 29.0174 29.2546C32.6515 28.0478 34.6173 23.916 33.2492 20.3532Z" fill="black"/>
<path id="Vector_12" d="M33.2492 20.3532C31.9781 17.0439 28.5966 15.2571 25.1496 16.0733C22.471 16.7068 20.3514 19.0471 19.9971 21.7603C19.9601 22.0445 20.1344 22.2945 20.4018 22.3396C20.682 22.3872 20.9186 22.2294 20.9849 21.9446C21.0288 21.7559 21.0586 21.5638 21.1032 21.3752C21.8932 18.0055 25.4924 16.0502 28.7578 17.216C31.6295 18.2411 33.2261 21.2301 32.4828 24.189C31.6348 27.5643 28.0001 29.4809 24.7537 28.2358C22.8548 27.5073 21.6532 26.1227 21.1134 24.1631C21.0151 23.8154 20.7754 23.6486 20.4753 23.7261C20.1814 23.8024 20.0426 24.0657 20.1229 24.3941C20.87 27.4479 23.6405 29.6157 26.797 29.6167C27.5518 29.616 28.3015 29.4938 29.0174 29.2546C32.6515 28.0478 34.6173 23.916 33.2492 20.3532Z" fill="black"/>
<path id="Vector_13" d="M33.2492 20.3532C31.9781 17.0439 28.5966 15.2571 25.1496 16.0733C22.471 16.7068 20.3514 19.0471 19.9971 21.7603C19.9601 22.0445 20.1344 22.2945 20.4018 22.3396C20.682 22.3872 20.9186 22.2294 20.9849 21.9446C21.0288 21.7559 21.0586 21.5638 21.1032 21.3752C21.8932 18.0055 25.4924 16.0502 28.7578 17.216C31.6295 18.2411 33.2261 21.2301 32.4828 24.189C31.6348 27.5643 28.0001 29.4809 24.7537 28.2358C22.8548 27.5073 21.6532 26.1227 21.1134 24.1631C21.0151 23.8154 20.7754 23.6486 20.4753 23.7261C20.1814 23.8024 20.0426 24.0657 20.1229 24.3941C20.87 27.4479 23.6405 29.6157 26.797 29.6167C27.5518 29.616 28.3015 29.4938 29.0174 29.2546C32.6515 28.0478 34.6173 23.916 33.2492 20.3532Z" fill="black"/>
<path id="Vector_14" d="M33.2492 20.3532C31.9781 17.0439 28.5966 15.2571 25.1496 16.0733C22.471 16.7068 20.3514 19.0471 19.9971 21.7603C19.9601 22.0445 20.1344 22.2945 20.4018 22.3396C20.682 22.3872 20.9186 22.2294 20.9849 21.9446C21.0288 21.7559 21.0586 21.5638 21.1032 21.3752C21.8932 18.0055 25.4924 16.0502 28.7578 17.216C31.6295 18.2411 33.2261 21.2301 32.4828 24.189C31.6348 27.5643 28.0001 29.4809 24.7537 28.2358C22.8548 27.5073 21.6532 26.1227 21.1134 24.1631C21.0151 23.8154 20.7754 23.6486 20.4753 23.7261C20.1814 23.8024 20.0426 24.0657 20.1229 24.3941C20.87 27.4479 23.6405 29.6157 26.797 29.6167C27.5518 29.616 28.3015 29.4938 29.0174 29.2546C32.6515 28.0478 34.6173 23.916 33.2492 20.3532Z" fill="black"/>
<path id="Vector_15" d="M33.2492 20.3532C31.9781 17.0439 28.5966 15.2571 25.1496 16.0733C22.471 16.7068 20.3514 19.0471 19.9971 21.7603C19.9601 22.0445 20.1344 22.2945 20.4018 22.3396C20.682 22.3872 20.9186 22.2294 20.9849 21.9446C21.0288 21.7559 21.0586 21.5638 21.1032 21.3752C21.8932 18.0055 25.4924 16.0502 28.7578 17.216C31.6295 18.2411 33.2261 21.2301 32.4828 24.189C31.6348 27.5643 28.0001 29.4809 24.7537 28.2358C22.8548 27.5073 21.6532 26.1227 21.1134 24.1631C21.0151 23.8154 20.7754 23.6486 20.4753 23.7261C20.1814 23.8024 20.0426 24.0657 20.1229 24.3941C20.87 27.4479 23.6405 29.6157 26.797 29.6167C27.5518 29.616 28.3015 29.4938 29.0174 29.2546C32.6515 28.0478 34.6173 23.916 33.2492 20.3532Z" fill="black"/>
<path id="Vector_16" d="M33.2492 20.3532C31.9781 17.0439 28.5966 15.2571 25.1496 16.0733C22.471 16.7068 20.3514 19.0471 19.9971 21.7603C19.9601 22.0445 20.1344 22.2945 20.4018 22.3396C20.682 22.3872 20.9186 22.2294 20.9849 21.9446C21.0288 21.7559 21.0586 21.5638 21.1032 21.3752C21.8932 18.0055 25.4924 16.0502 28.7578 17.216C31.6295 18.2411 33.2261 21.2301 32.4828 24.189C31.6348 27.5643 28.0001 29.4809 24.7537 28.2358C22.8548 27.5073 21.6532 26.1227 21.1134 24.1631C21.0151 23.8154 20.7754 23.6486 20.4753 23.7261C20.1814 23.8024 20.0426 24.0657 20.1229 24.3941C20.87 27.4479 23.6405 29.6157 26.797 29.6167C27.5518 29.616 28.3015 29.4938 29.0174 29.2546C32.6515 28.0478 34.6173 23.916 33.2492 20.3532Z" fill="black"/>
<path id="Vector_17" d="M33.2492 20.3532C31.9781 17.0439 28.5966 15.2571 25.1496 16.0733C22.471 16.7068 20.3514 19.0471 19.9971 21.7603C19.9601 22.0445 20.1344 22.2945 20.4018 22.3396C20.682 22.3872 20.9186 22.2294 20.9849 21.9446C21.0288 21.7559 21.0586 21.5638 21.1032 21.3752C21.8932 18.0055 25.4924 16.0502 28.7578 17.216C31.6295 18.2411 33.2261 21.2301 32.4828 24.189C31.6348 27.5643 28.0001 29.4809 24.7537 28.2358C22.8548 27.5073 21.6532 26.1227 21.1134 24.1631C21.0151 23.8154 20.7754 23.6486 20.4753 23.7261C20.1814 23.8024 20.0426 24.0657 20.1229 24.3941C20.87 27.4479 23.6405 29.6157 26.797 29.6167C27.5518 29.616 28.3015 29.4938 29.0174 29.2546C32.6515 28.0478 34.6173 23.916 33.2492 20.3532Z" fill="black"/>
<path id="Vector_18" d="M33.2492 20.3532C31.9781 17.0439 28.5966 15.2571 25.1496 16.0733C22.471 16.7068 20.3514 19.0471 19.9971 21.7603C19.9601 22.0445 20.1344 22.2945 20.4018 22.3396C20.682 22.3872 20.9186 22.2294 20.9849 21.9446C21.0288 21.7559 21.0586 21.5638 21.1032 21.3752C21.8932 18.0055 25.4924 16.0502 28.7578 17.216C31.6295 18.2411 33.2261 21.2301 32.4828 24.189C31.6348 27.5643 28.0001 29.4809 24.7537 28.2358C22.8548 27.5073 21.6532 26.1227 21.1134 24.1631C21.0151 23.8154 20.7754 23.6486 20.4753 23.7261C20.1814 23.8024 20.0426 24.0657 20.1229 24.3941C20.87 27.4479 23.6405 29.6157 26.797 29.6167C27.5518 29.616 28.3015 29.4938 29.0174 29.2546C32.6515 28.0478 34.6173 23.916 33.2492 20.3532Z" fill="black"/>
<path id="Vector_19" d="M33.2492 20.3532C31.9781 17.0439 28.5966 15.2571 25.1496 16.0733C22.471 16.7068 20.3514 19.0471 19.9971 21.7603C19.9601 22.0445 20.1344 22.2945 20.4018 22.3396C20.682 22.3872 20.9186 22.2294 20.9849 21.9446C21.0288 21.7559 21.0586 21.5638 21.1032 21.3752C21.8932 18.0055 25.4924 16.0502 28.7578 17.216C31.6295 18.2411 33.2261 21.2301 32.4828 24.189C31.6348 27.5643 28.0001 29.4809 24.7537 28.2358C22.8548 27.5073 21.6532 26.1227 21.1134 24.1631C21.0151 23.8154 20.7754 23.6486 20.4753 23.7261C20.1814 23.8024 20.0426 24.0657 20.1229 24.3941C20.87 27.4479 23.6405 29.6157 26.797 29.6167C27.5518 29.616 28.3015 29.4938 29.0174 29.2546C32.6515 28.0478 34.6173 23.916 33.2492 20.3532Z" fill="black"/>
<path id="Vector_20" d="M33.2492 20.3532C31.9781 17.0439 28.5966 15.2571 25.1496 16.0733C22.471 16.7068 20.3514 19.0471 19.9971 21.7603C19.9601 22.0445 20.1344 22.2945 20.4018 22.3396C20.682 22.3872 20.9186 22.2294 20.9849 21.9446C21.0288 21.7559 21.0586 21.5638 21.1032 21.3752C21.8932 18.0055 25.4924 16.0502 28.7578 17.216C31.6295 18.2411 33.2261 21.2301 32.4828 24.189C31.6348 27.5643 28.0001 29.4809 24.7537 28.2358C22.8548 27.5073 21.6532 26.1227 21.1134 24.1631C21.0151 23.8154 20.7754 23.6486 20.4753 23.7261C20.1814 23.8024 20.0426 24.0657 20.1229 24.3941C20.87 27.4479 23.6405 29.6157 26.797 29.6167C27.5518 29.616 28.3015 29.4938 29.0174 29.2546C32.6515 28.0478 34.6173 23.916 33.2492 20.3532Z" fill="black"/>
<path id="Vector_21" d="M33.2492 20.3532C31.9781 17.0439 28.5966 15.2571 25.1496 16.0733C22.471 16.7068 20.3514 19.0471 19.9971 21.7603C19.9601 22.0445 20.1344 22.2945 20.4018 22.3396C20.682 22.3872 20.9186 22.2294 20.9849 21.9446C21.0288 21.7559 21.0586 21.5638 21.1032 21.3752C21.8932 18.0055 25.4924 16.0502 28.7578 17.216C31.6295 18.2411 33.2261 21.2301 32.4828 24.189C31.6348 27.5643 28.0001 29.4809 24.7537 28.2358C22.8548 27.5073 21.6532 26.1227 21.1134 24.1631C21.0151 23.8154 20.7754 23.6486 20.4753 23.7261C20.1814 23.8024 20.0426 24.0657 20.1229 24.3941C20.87 27.4479 23.6405 29.6157 26.797 29.6167C27.5518 29.616 28.3015 29.4938 29.0174 29.2546C32.6515 28.0478 34.6173 23.916 33.2492 20.3532Z" fill="black"/>
<path id="Vector_22" d="M33.2492 20.3532C31.9781 17.0439 28.5966 15.2571 25.1496 16.0733C22.471 16.7068 20.3514 19.0471 19.9971 21.7603C19.9601 22.0445 20.1344 22.2945 20.4018 22.3396C20.682 22.3872 20.9186 22.2294 20.9849 21.9446C21.0288 21.7559 21.0586 21.5638 21.1032 21.3752C21.8932 18.0055 25.4924 16.0502 28.7578 17.216C31.6295 18.2411 33.2261 21.2301 32.4828 24.189C31.6348 27.5643 28.0001 29.4809 24.7537 28.2358C22.8548 27.5073 21.6532 26.1227 21.1134 24.1631C21.0151 23.8154 20.7754 23.6486 20.4753 23.7261C20.1814 23.8024 20.0426 24.0657 20.1229 24.3941C20.87 27.4479 23.6405 29.6157 26.797 29.6167C27.5518 29.616 28.3015 29.4938 29.0174 29.2546C32.6515 28.0478 34.6173 23.916 33.2492 20.3532Z" fill="black"/>
<path id="Vector_23" d="M33.2492 20.3532C31.9781 17.0439 28.5966 15.2571 25.1496 16.0733C22.471 16.7068 20.3514 19.0471 19.9971 21.7603C19.9601 22.0445 20.1344 22.2945 20.4018 22.3396C20.682 22.3872 20.9186 22.2294 20.9849 21.9446C21.0288 21.7559 21.0586 21.5638 21.1032 21.3752C21.8932 18.0055 25.4924 16.0502 28.7578 17.216C31.6295 18.2411 33.2261 21.2301 32.4828 24.189C31.6348 27.5643 28.0001 29.4809 24.7537 28.2358C22.8548 27.5073 21.6532 26.1227 21.1134 24.1631C21.0151 23.8154 20.7754 23.6486 20.4753 23.7261C20.1814 23.8024 20.0426 24.0657 20.1229 24.3941C20.87 27.4479 23.6405 29.6157 26.797 29.6167C27.5518 29.616 28.3015 29.4938 29.0174 29.2546C32.6515 28.0478 34.6173 23.916 33.2492 20.3532Z" fill="black"/>
<path id="Vector_24" d="M33.2492 20.3532C31.9781 17.0439 28.5966 15.2571 25.1496 16.0733C22.471 16.7068 20.3514 19.0471 19.9971 21.7603C19.9601 22.0445 20.1344 22.2945 20.4018 22.3396C20.682 22.3872 20.9186 22.2294 20.9849 21.9446C21.0288 21.7559 21.0586 21.5638 21.1032 21.3752C21.8932 18.0055 25.4924 16.0502 28.7578 17.216C31.6295 18.2411 33.2261 21.2301 32.4828 24.189C31.6348 27.5643 28.0001 29.4809 24.7537 28.2358C22.8548 27.5073 21.6532 26.1227 21.1134 24.1631C21.0151 23.8154 20.7754 23.6486 20.4753 23.7261C20.1814 23.8024 20.0426 24.0657 20.1229 24.3941C20.87 27.4479 23.6405 29.6157 26.797 29.6167C27.5518 29.616 28.3015 29.4938 29.0174 29.2546C32.6515 28.0478 34.6173 23.916 33.2492 20.3532Z" fill="black"/>
<path id="Vector_25" d="M33.2492 20.3532C31.9781 17.0439 28.5966 15.2571 25.1496 16.0733C22.471 16.7068 20.3514 19.0471 19.9971 21.7603C19.9601 22.0445 20.1344 22.2945 20.4018 22.3396C20.682 22.3872 20.9186 22.2294 20.9849 21.9446C21.0288 21.7559 21.0586 21.5638 21.1032 21.3752C21.8932 18.0055 25.4924 16.0502 28.7578 17.216C31.6295 18.2411 33.2261 21.2301 32.4828 24.189C31.6348 27.5643 28.0001 29.4809 24.7537 28.2358C22.8548 27.5073 21.6532 26.1227 21.1134 24.1631C21.0151 23.8154 20.7754 23.6486 20.4753 23.7261C20.1814 23.8024 20.0426 24.0657 20.1229 24.3941C20.87 27.4479 23.6405 29.6157 26.797 29.6167C27.5518 29.616 28.3015 29.4938 29.0174 29.2546C32.6515 28.0478 34.6173 23.916 33.2492 20.3532Z" fill="black"/>
<path id="Vector_26" d="M33.2492 20.3532C31.9781 17.0439 28.5966 15.2571 25.1496 16.0733C22.471 16.7068 20.3514 19.0471 19.9971 21.7603C19.9601 22.0445 20.1344 22.2945 20.4018 22.3396C20.682 22.3872 20.9186 22.2294 20.9849 21.9446C21.0288 21.7559 21.0586 21.5638 21.1032 21.3752C21.8932 18.0055 25.4924 16.0502 28.7578 17.216C31.6295 18.2411 33.2261 21.2301 32.4828 24.189C31.6348 27.5643 28.0001 29.4809 24.7537 28.2358C22.8548 27.5073 21.6532 26.1227 21.1134 24.1631C21.0151 23.8154 20.7754 23.6486 20.4753 23.7261C20.1814 23.8024 20.0426 24.0657 20.1229 24.3941C20.87 27.4479 23.6405 29.6157 26.797 29.6167C27.5518 29.616 28.3015 29.4938 29.0174 29.2546C32.6515 28.0478 34.6173 23.916 33.2492 20.3532Z" fill="black"/>
<path id="Vector_27" d="M33.2492 20.3532C31.9781 17.0439 28.5966 15.2571 25.1496 16.0733C22.471 16.7068 20.3514 19.0471 19.9971 21.7603C19.9601 22.0445 20.1344 22.2945 20.4018 22.3396C20.682 22.3872 20.9186 22.2294 20.9849 21.9446C21.0288 21.7559 21.0586 21.5638 21.1032 21.3752C21.8932 18.0055 25.4924 16.0502 28.7578 17.216C31.6295 18.2411 33.2261 21.2301 32.4828 24.189C31.6348 27.5643 28.0001 29.4809 24.7537 28.2358C22.8548 27.5073 21.6532 26.1227 21.1134 24.1631C21.0151 23.8154 20.7754 23.6486 20.4753 23.7261C20.1814 23.8024 20.0426 24.0657 20.1229 24.3941C20.87 27.4479 23.6405 29.6157 26.797 29.6167C27.5518 29.616 28.3015 29.4938 29.0174 29.2546C32.6515 28.0478 34.6173 23.916 33.2492 20.3532Z" fill="black"/>
<path id="Vector_28" d="M33.2492 20.3532C31.9781 17.0439 28.5966 15.2571 25.1496 16.0733C22.471 16.7068 20.3514 19.0471 19.9971 21.7603C19.9601 22.0445 20.1344 22.2945 20.4018 22.3396C20.682 22.3872 20.9186 22.2294 20.9849 21.9446C21.0288 21.7559 21.0586 21.5638 21.1032 21.3752C21.8932 18.0055 25.4924 16.0502 28.7578 17.216C31.6295 18.2411 33.2261 21.2301 32.4828 24.189C31.6348 27.5643 28.0001 29.4809 24.7537 28.2358C22.8548 27.5073 21.6532 26.1227 21.1134 24.1631C21.0151 23.8154 20.7754 23.6486 20.4753 23.7261C20.1814 23.8024 20.0426 24.0657 20.1229 24.3941C20.87 27.4479 23.6405 29.6157 26.797 29.6167C27.5518 29.616 28.3015 29.4938 29.0174 29.2546C32.6515 28.0478 34.6173 23.916 33.2492 20.3532Z" fill="black"/>
<path id="Vector_29" d="M33.2492 20.3532C31.9781 17.0439 28.5966 15.2571 25.1496 16.0733C22.471 16.7068 20.3514 19.0471 19.9971 21.7603C19.9601 22.0445 20.1344 22.2945 20.4018 22.3396C20.682 22.3872 20.9186 22.2294 20.9849 21.9446C21.0288 21.7559 21.0586 21.5638 21.1032 21.3752C21.8932 18.0055 25.4924 16.0502 28.7578 17.216C31.6295 18.2411 33.2261 21.2301 32.4828 24.189C31.6348 27.5643 28.0001 29.4809 24.7537 28.2358C22.8548 27.5073 21.6532 26.1227 21.1134 24.1631C21.0151 23.8154 20.7754 23.6486 20.4753 23.7261C20.1814 23.8024 20.0426 24.0657 20.1229 24.3941C20.87 27.4479 23.6405 29.6157 26.797 29.6167C27.5518 29.616 28.3015 29.4938 29.0174 29.2546C32.6515 28.0478 34.6173 23.916 33.2492 20.3532Z" fill="black"/>
<path id="Vector_30" d="M33.2492 20.3532C31.9781 17.0439 28.5966 15.2571 25.1496 16.0733C22.471 16.7068 20.3514 19.0471 19.9971 21.7603C19.9601 22.0445 20.1344 22.2945 20.4018 22.3396C20.682 22.3872 20.9186 22.2294 20.9849 21.9446C21.0288 21.7559 21.0586 21.5638 21.1032 21.3752C21.8932 18.0055 25.4924 16.0502 28.7578 17.216C31.6295 18.2411 33.2261 21.2301 32.4828 24.189C31.6348 27.5643 28.0001 29.4809 24.7537 28.2358C22.8548 27.5073 21.6532 26.1227 21.1134 24.1631C21.0151 23.8154 20.7754 23.6486 20.4753 23.7261C20.1814 23.8024 20.0426 24.0657 20.1229 24.3941C20.87 27.4479 23.6405 29.6157 26.797 29.6167C27.5518 29.616 28.3015 29.4938 29.0174 29.2546C32.6515 28.0478 34.6173 23.916 33.2492 20.3532Z" fill="black"/>
<path id="Vector_31" d="M33.2492 20.3532C31.9781 17.0439 28.5966 15.2571 25.1496 16.0733C22.471 16.7068 20.3514 19.0471 19.9971 21.7603C19.9601 22.0445 20.1344 22.2945 20.4018 22.3396C20.682 22.3872 20.9186 22.2294 20.9849 21.9446C21.0288 21.7559 21.0586 21.5638 21.1032 21.3752C21.8932 18.0055 25.4924 16.0502 28.7578 17.216C31.6295 18.2411 33.2261 21.2301 32.4828 24.189C31.6348 27.5643 28.0001 29.4809 24.7537 28.2358C22.8548 27.5073 21.6532 26.1227 21.1134 24.1631C21.0151 23.8154 20.7754 23.6486 20.4753 23.7261C20.1814 23.8024 20.0426 24.0657 20.1229 24.3941C20.87 27.4479 23.6405 29.6157 26.797 29.6167C27.5518 29.616 28.3015 29.4938 29.0174 29.2546C32.6515 28.0478 34.6173 23.916 33.2492 20.3532Z" fill="black"/>
<path id="Vector_32" d="M33.2492 20.3532C31.9781 17.0439 28.5966 15.2571 25.1496 16.0733C22.471 16.7068 20.3514 19.0471 19.9971 21.7603C19.9601 22.0445 20.1344 22.2945 20.4018 22.3396C20.682 22.3872 20.9186 22.2294 20.9849 21.9446C21.0288 21.7559 21.0586 21.5638 21.1032 21.3752C21.8932 18.0055 25.4924 16.0502 28.7578 17.216C31.6295 18.2411 33.2261 21.2301 32.4828 24.189C31.6348 27.5643 28.0001 29.4809 24.7537 28.2358C22.8548 27.5073 21.6532 26.1227 21.1134 24.1631C21.0151 23.8154 20.7754 23.6486 20.4753 23.7261C20.1814 23.8024 20.0426 24.0657 20.1229 24.3941C20.87 27.4479 23.6405 29.6157 26.797 29.6167C27.5518 29.616 28.3015 29.4938 29.0174 29.2546C32.6515 28.0478 34.6173 23.916 33.2492 20.3532Z" fill="black"/>
<path id="Vector_33" d="M33.2492 20.3532C31.9781 17.0439 28.5966 15.2571 25.1496 16.0733C22.471 16.7068 20.3514 19.0471 19.9971 21.7603C19.9601 22.0445 20.1344 22.2945 20.4018 22.3396C20.682 22.3872 20.9186 22.2294 20.9849 21.9446C21.0288 21.7559 21.0586 21.5638 21.1032 21.3752C21.8932 18.0055 25.4924 16.0502 28.7578 17.216C31.6295 18.2411 33.2261 21.2301 32.4828 24.189C31.6348 27.5643 28.0001 29.4809 24.7537 28.2358C22.8548 27.5073 21.6532 26.1227 21.1134 24.1631C21.0151 23.8154 20.7754 23.6486 20.4753 23.7261C20.1814 23.8024 20.0426 24.0657 20.1229 24.3941C20.87 27.4479 23.6405 29.6157 26.797 29.6167C27.5518 29.616 28.3015 29.4938 29.0174 29.2546C32.6515 28.0478 34.6173 23.916 33.2492 20.3532Z" fill="black"/>
<path id="Vector_34" d="M33.2492 20.3532C31.9781 17.0439 28.5966 15.2571 25.1496 16.0733C22.471 16.7068 20.3514 19.0471 19.9971 21.7603C19.9601 22.0445 20.1344 22.2945 20.4018 22.3396C20.682 22.3872 20.9186 22.2294 20.9849 21.9446C21.0288 21.7559 21.0586 21.5638 21.1032 21.3752C21.8932 18.0055 25.4924 16.0502 28.7578 17.216C31.6295 18.2411 33.2261 21.2301 32.4828 24.189C31.6348 27.5643 28.0001 29.4809 24.7537 28.2358C22.8548 27.5073 21.6532 26.1227 21.1134 24.1631C21.0151 23.8154 20.7754 23.6486 20.4753 23.7261C20.1814 23.8024 20.0426 24.0657 20.1229 24.3941C20.87 27.4479 23.6405 29.6157 26.797 29.6167C27.5518 29.616 28.3015 29.4938 29.0174 29.2546C32.6515 28.0478 34.6173 23.916 33.2492 20.3532Z" fill="black"/>
<path id="Vector_35" d="M33.2492 20.3532C31.9781 17.0439 28.5966 15.2571 25.1496 16.0733C22.471 16.7068 20.3514 19.0471 19.9971 21.7603C19.9601 22.0445 20.1344 22.2945 20.4018 22.3396C20.682 22.3872 20.9186 22.2294 20.9849 21.9446C21.0288 21.7559 21.0586 21.5638 21.1032 21.3752C21.8932 18.0055 25.4924 16.0502 28.7578 17.216C31.6295 18.2411 33.2261 21.2301 32.4828 24.189C31.6348 27.5643 28.0001 29.4809 24.7537 28.2358C22.8548 27.5073 21.6532 26.1227 21.1134 24.1631C21.0151 23.8154 20.7754 23.6486 20.4753 23.7261C20.1814 23.8024 20.0426 24.0657 20.1229 24.3941C20.87 27.4479 23.6405 29.6157 26.797 29.6167C27.5518 29.616 28.3015 29.4938 29.0174 29.2546C32.6515 28.0478 34.6173 23.916 33.2492 20.3532Z" fill="black"/>
<path id="Vector_36" d="M29.0192 29.2546C28.3033 29.4938 27.5535 29.616 26.7987 29.6167C23.641 29.6157 20.872 27.4479 20.1234 24.3957C20.0431 24.0673 20.1819 23.8042 20.4758 23.7276C20.7755 23.6498 21.0155 23.817 21.112 24.1653C21.6518 26.1265 22.8553 27.5095 24.7523 28.238C27.9972 29.4831 31.6318 27.5668 32.4814 24.1912C33.2247 21.2314 31.6281 18.2424 28.7564 17.2182C25.4919 16.0502 21.8931 18.0055 21.103 21.3761C21.0585 21.5648 21.0286 21.7569 20.9847 21.9455C20.9184 22.2303 20.6812 22.3882 20.4017 22.3405C20.1349 22.2954 19.9606 22.0454 19.997 21.7612C20.3531 19.0471 22.4727 16.7068 25.1514 16.0733C28.5983 15.2571 31.9799 17.0439 33.2509 20.3532C34.619 23.916 32.6532 28.0478 29.0192 29.2546Z" fill="black"/>
<path id="Vector_37" d="M32.8224 11.5236C32.8241 11.0434 32.7157 10.5691 32.5055 10.1374C31.839 8.78453 30.7513 8.04677 29.2369 8.02062L28.9639 8.01657C27.3707 7.99447 25.7769 8.00972 24.1834 8.01657H24.086L23.2747 8.01097C23.134 8.01097 23.1013 7.94186 23.1029 7.80085C23.1085 7.12161 23.1122 6.44237 23.1029 5.76344C23.0908 4.86069 22.5476 4.13632 21.6862 3.88511C21.4703 3.82816 21.2476 3.80155 21.0244 3.80604C19.2111 3.79919 16.0764 3.80448 14.2625 3.80853C13.0289 3.81071 12.1977 4.64684 12.1943 5.87769C12.1918 6.5121 12.1862 7.14682 12.1968 7.78093C12.1996 7.95681 12.1448 8.01875 11.9957 8.01875H9.89665C9.87859 8.01875 9.85929 8.01875 9.83843 8.01875H9.62053C8.18392 8.01004 6.74668 8.00537 5.31007 8.01875C5.16978 8.01875 5.02939 8.0201 4.88889 8.0228C4.47643 8.02716 4.0484 8.07416 3.65649 8.19743C2.10781 8.68429 1.12942 10.1299 1.14872 11.7122C1.16864 13.2799 1.15339 14.8482 1.15339 16.4159C1.15339 19.8799 1.14747 23.3443 1.16086 26.808C1.16273 27.2127 1.21191 27.6345 1.33736 28.0165C1.85535 29.5888 3.18768 30.5211 4.87551 30.5224C9.88482 30.5259 14.8943 30.5259 19.9041 30.5224C19.9787 30.5252 20.0535 30.5218 20.1276 30.5124C20.3922 30.4698 20.5749 30.2531 20.5671 29.9994C20.559 29.736 20.3529 29.5325 20.075 29.5169C19.9781 29.5116 19.8804 29.5138 19.7836 29.5138C14.8185 29.5138 9.85358 29.5138 4.88889 29.5138C3.28698 29.5138 2.16478 28.3981 2.16353 26.799C2.16083 23.9544 2.16083 21.1099 2.16353 18.2656C2.16353 18.1912 2.17567 18.1168 2.18439 18.0212C3.39251 18.9221 3.51796 18.9709 4.97107 19.0796C5.08594 19.0883 5.12952 19.1309 5.13543 19.2231C5.13607 19.2353 5.13607 19.2476 5.13543 19.2598C5.13543 19.2701 5.13543 19.2801 5.13543 19.2909V21.1086C5.13543 21.3563 5.23382 21.5938 5.40896 21.7689C5.5841 21.9441 5.82163 22.0425 6.06931 22.0425H9.03188C9.27956 22.0425 9.51709 21.9441 9.69223 21.7689C9.86736 21.5938 9.96575 21.3563 9.96575 21.1086V19.7345C9.97342 19.6185 9.97497 19.5021 9.97042 19.3859C9.95922 19.0843 9.97042 19.0827 10.2562 19.0827C13.0267 19.0827 16.0462 19.0827 18.8152 19.0827C18.8578 19.0827 18.9005 19.0855 18.9503 19.0889C19.111 18.7336 19.2949 18.3893 19.5009 18.0582C19.4812 18.0629 19.4611 18.0654 19.4409 18.0657C16.4472 18.0747 13.2035 18.0722 10.2095 18.0763C10.0345 18.0763 9.96949 18.0209 9.96575 17.8584C9.96575 17.8497 9.96575 17.8403 9.96575 17.8307C9.96575 17.821 9.96575 17.8151 9.96575 17.8073C9.97447 17.2255 9.97136 16.6434 9.96731 16.0613C9.96233 15.2871 9.48294 14.8055 8.70782 14.7999C7.9464 14.7953 7.18467 14.7978 6.42325 14.7999C5.63195 14.7999 5.13979 15.2915 5.13575 16.0846C5.13575 16.2129 5.13523 16.3411 5.13419 16.4694V17.4624C5.13419 17.5927 5.13533 17.7233 5.13761 17.854C5.13816 17.8775 5.13702 17.901 5.13419 17.9244C5.12018 18.034 5.06104 18.075 4.92064 18.08C3.37414 18.1189 2.1766 16.9802 2.1654 15.4344C2.15637 14.1724 2.15232 12.9107 2.171 11.649C2.17562 11.3288 2.23229 11.0113 2.33879 10.7092C2.71234 9.66237 3.66614 9.02827 4.84095 9.02578C7.42405 9.01997 10.0072 9.01904 12.5903 9.02298C18.0707 9.02298 23.5506 9.02557 29.0302 9.03076C29.4038 9.03076 29.8032 9.07279 30.1459 9.2082C31.1675 9.6107 31.7512 10.3858 31.8004 11.4934C31.8393 12.3803 31.8088 13.2699 31.8185 14.1584C31.8178 14.2989 31.847 14.438 31.9041 14.5665C31.9934 14.7564 32.2403 14.8441 32.442 14.794C32.6807 14.7339 32.8239 14.545 32.8249 14.2564C32.8276 13.3456 32.8267 12.4346 32.8224 11.5236ZM6.14122 16.8884C6.1546 16.6282 6.1462 16.3664 6.14122 16.1052C6.13748 15.9038 6.21624 15.8042 6.43228 15.806C7.17813 15.8123 7.9242 15.8123 8.67047 15.806C8.88495 15.8039 8.96557 15.8907 8.9581 16.0999C8.94814 16.3682 8.94783 16.6375 8.9581 16.9055C8.96433 17.0699 8.90861 17.1306 8.7402 17.1272C8.57179 17.1237 8.40556 17.1222 8.23839 17.1222C8.01022 17.1222 7.78173 17.1244 7.55355 17.124C7.32537 17.1237 7.10093 17.1219 6.87493 17.1219C6.71306 17.1219 6.5515 17.1219 6.38963 17.1268C6.21593 17.1306 6.13095 17.0842 6.14122 16.8884ZM6.14122 19.1328C6.14122 18.8586 6.14745 18.5837 6.14309 18.3094C6.1406 18.142 6.24114 18.1348 6.36099 18.1351C6.75727 18.1351 7.15261 18.1351 7.54826 18.1351C7.93675 18.1351 8.32493 18.1423 8.71311 18.1326C8.8837 18.1283 8.96215 18.1694 8.96215 18.3462V20.5227C8.96215 20.6542 8.9099 20.7804 8.81691 20.8734C8.72391 20.9664 8.59778 21.0186 8.46626 21.0186H6.63555C6.50403 21.0186 6.3779 20.9664 6.2849 20.8734C6.19191 20.7804 6.13966 20.6542 6.13966 20.5227L6.14122 19.1328ZM21.8574 8.01253C20.9681 8.00723 18.7573 8.01253 17.8682 8.01253H16.0938C15.2098 8.01253 14.326 8.01253 13.442 8.01657C13.258 8.01657 13.1976 7.96459 13.2001 7.77719C13.2103 7.13624 13.2001 6.49467 13.206 5.85309C13.2119 5.21152 13.592 4.82054 14.2407 4.81836C16.0693 4.81431 19.2189 4.80809 21.0453 4.81431C21.7236 4.81649 22.094 5.20218 22.0952 5.87675C22.0952 6.51054 22.0887 7.14496 22.1002 7.77843C22.1037 7.97112 22.038 8.01346 21.8574 8.01253Z" fill="url(#paint0_linear_12664_14724)" stroke="url(#paint1_linear_12664_14724)" stroke-width="0.96" stroke-miterlimit="10"/>
<path id="Vector_38" d="M29.0192 29.2546C28.3033 29.4938 27.5535 29.616 26.7987 29.6167C23.641 29.6157 20.872 27.4479 20.1234 24.3957C20.0431 24.0673 20.1819 23.8042 20.4758 23.7276C20.7755 23.6498 21.0155 23.817 21.112 24.1653C21.6518 26.1265 22.8553 27.5095 24.7523 28.238C27.9972 29.4831 31.6318 27.5668 32.4814 24.1912C33.2247 21.2314 31.6281 18.2424 28.7564 17.2182C25.4919 16.0502 21.8931 18.0055 21.103 21.3761C21.0585 21.5648 21.0286 21.7569 20.9847 21.9455C20.9184 22.2303 20.6812 22.3882 20.4017 22.3405C20.1349 22.2954 19.9606 22.0454 19.997 21.7612C20.3531 19.0471 22.4727 16.7068 25.1514 16.0733C28.5983 15.2571 31.9799 17.0439 33.2509 20.3532C34.619 23.916 32.6532 28.0478 29.0192 29.2546Z" fill="url(#paint2_linear_12664_14724)"/>
<path id="Vector_39" d="M29.3801 22.7809C29.3015 22.7732 29.2225 22.7707 29.1436 22.7734C29.1034 22.7734 29.0629 22.7734 29.0228 22.7734C29.0004 22.7734 28.9783 22.7722 28.9565 22.7697L28.8463 22.7635V22.1076H28.9359H29.0623C29.1557 22.1076 29.2425 22.1076 29.331 22.1076C29.4657 22.1035 29.5604 22.0491 29.6189 21.942C29.6236 21.9336 29.6279 21.9245 29.632 21.9158C29.6605 21.8603 29.6714 21.7973 29.6634 21.7354C29.6553 21.6735 29.6286 21.6155 29.5868 21.569C29.5583 21.5318 29.5214 21.5018 29.4791 21.4815C29.4368 21.4611 29.3903 21.451 29.3434 21.452H28.84V21.2487C28.84 21.0987 28.84 20.9487 28.84 20.7989C28.84 20.7279 28.84 20.657 28.84 20.5857C28.84 20.3105 28.84 20.031 28.8376 19.7551C28.8392 19.6968 28.8275 19.6389 28.8034 19.5857C28.7792 19.5326 28.7432 19.4857 28.6982 19.4486C28.6531 19.4115 28.6002 19.3852 28.5434 19.3717C28.4867 19.3582 28.4275 19.3579 28.3706 19.3707C28.1863 19.4053 28.0624 19.5699 28.0618 19.7807C28.0618 20.0443 28.0618 20.3099 28.0618 20.5732V21.2581C28.0618 21.2827 28.0618 21.3072 28.0587 21.3312L28.0537 21.4293L27.9852 21.4427L27.9719 21.4458C27.9594 21.4492 27.9465 21.451 27.9336 21.4511H27.7393C27.4333 21.4511 27.1167 21.4526 26.8054 21.4511C26.7722 21.4481 26.74 21.4376 26.7115 21.4203C26.6829 21.403 26.6587 21.3793 26.6408 21.3511C26.562 21.2266 26.4851 21.0974 26.411 20.9729L26.3397 20.8534L25.5724 19.573C25.479 19.4174 25.3545 19.3511 25.1895 19.3679C24.9744 19.3894 24.8406 19.5485 24.8396 19.7832C24.8396 20.0967 24.8396 20.4103 24.8396 20.7239V21.2596C24.8396 21.2851 24.8378 21.3097 24.8356 21.3353C24.8356 21.3471 24.8337 21.3586 24.8328 21.3717L24.8272 21.4554H24.7431C24.7011 21.4554 24.66 21.4554 24.6186 21.4554C24.5299 21.4554 24.4465 21.4536 24.363 21.4573C24.3044 21.4578 24.2473 21.4755 24.1986 21.5081C24.1499 21.5408 24.1118 21.5869 24.0891 21.641C24.0647 21.6887 24.0529 21.7419 24.0549 21.7954C24.0569 21.849 24.0725 21.9011 24.1003 21.947C24.1308 21.9961 24.1731 22.0367 24.2233 22.0653C24.2736 22.0938 24.3302 22.1093 24.3879 22.1104C24.4673 22.1126 24.5461 22.1122 24.6295 22.1104H24.7447H24.834V22.7765H24.6339C24.5523 22.7765 24.4748 22.7765 24.3964 22.7765C24.2009 22.78 24.0595 22.9188 24.0598 23.1065C24.0592 23.1634 24.074 23.2195 24.1025 23.2687C24.1322 23.3188 24.1744 23.3603 24.2251 23.3891C24.2758 23.4178 24.3331 23.4327 24.3914 23.4324C24.4792 23.4349 24.5697 23.4377 24.6566 23.4324C24.6812 23.4291 24.7063 23.431 24.7301 23.438C24.754 23.445 24.7761 23.4569 24.7951 23.4729C24.8123 23.4917 24.8255 23.5138 24.8337 23.5379C24.842 23.562 24.8452 23.5876 24.8431 23.613C24.8431 23.7117 24.8431 23.811 24.8431 23.9106C24.8431 24.1067 24.8431 24.3034 24.8431 24.4977C24.8431 24.5936 24.8431 24.6891 24.8431 24.7838V25.0552C24.8426 25.095 24.8442 25.1348 24.8477 25.1744C24.8533 25.2308 24.8714 25.2853 24.9005 25.334C24.9296 25.3826 24.9691 25.4242 25.0162 25.4558C25.0633 25.4874 25.1168 25.5082 25.1729 25.5167C25.2289 25.5252 25.2862 25.5212 25.3405 25.505C25.5201 25.4515 25.6191 25.3074 25.6207 25.0985C25.6207 24.9251 25.6207 24.7613 25.6207 24.6045C25.6207 24.3554 25.6207 24.1263 25.6207 23.9078C25.6207 23.8079 25.6207 23.7101 25.6207 23.6139C25.6183 23.5892 25.6211 23.5643 25.6289 23.5407C25.6367 23.5171 25.6492 23.4954 25.6658 23.477C25.7034 23.4447 25.7522 23.4287 25.8015 23.4324C26.1567 23.4362 26.5094 23.4362 26.8493 23.4324H26.8534C26.8961 23.4308 26.9384 23.4414 26.9753 23.4631C27.0122 23.4848 27.042 23.5166 27.0613 23.5548C27.4277 24.1705 27.7599 24.7271 28.1057 25.2937C28.1466 25.3643 28.2035 25.4243 28.2719 25.4689C28.3281 25.503 28.3923 25.5215 28.4579 25.5225C28.5236 25.5235 28.5883 25.5071 28.6455 25.4748C28.7054 25.4409 28.7553 25.3917 28.7899 25.3322C28.8246 25.2727 28.8427 25.205 28.8425 25.1361C28.8444 24.9743 28.8447 24.8112 28.8453 24.649C28.8453 24.46 28.8453 24.2714 28.8453 24.0858C28.8453 23.9775 28.8453 23.8692 28.8453 23.7609V23.4303H29.0701C29.1666 23.4303 29.2569 23.4303 29.3487 23.4303C29.4051 23.43 29.4603 23.4148 29.509 23.3863C29.5576 23.3579 29.5979 23.3171 29.6257 23.2681C29.6505 23.223 29.6647 23.1728 29.6672 23.1215C29.6733 23.0384 29.6467 22.9563 29.5931 22.8927C29.5394 22.829 29.463 22.7889 29.3801 22.7809ZM25.6238 22.7681V22.1091H25.8003C25.9052 22.1091 26.011 22.1091 26.1166 22.1091C26.1399 22.1107 26.1625 22.1179 26.1825 22.1299C26.2026 22.142 26.2194 22.1587 26.2317 22.1786L26.2734 22.247L26.4428 22.5309L26.5567 22.7214L26.5838 22.7672L25.6238 22.7681ZM28.0559 22.7728H27.7866C27.7157 22.7728 27.6447 22.7728 27.5734 22.7728C27.55 22.7722 27.5272 22.766 27.5067 22.7547C27.4862 22.7434 27.4688 22.7274 27.4557 22.7081C27.4184 22.6483 27.3823 22.5876 27.3449 22.5263L27.2353 22.3426L27.1108 22.1334L27.0984 22.1122H28.0568L28.0559 22.7728Z" fill="url(#paint3_linear_12664_14724)"/>
<path id="Vector_40" d="M26.8064 13.9941C21.9729 13.9941 18.0547 17.9127 18.0547 22.7452C18.0547 27.5777 21.9729 31.4981 26.8064 31.4981C31.6398 31.4981 35.5583 27.5795 35.5583 22.7452C35.5583 17.9108 31.6401 13.9941 26.8064 13.9941ZM26.8064 30.4895C22.5301 30.4895 19.0633 27.0226 19.0633 22.7452C19.0633 18.4677 22.5301 15.003 26.8064 15.003C31.0826 15.003 34.5497 18.4696 34.5497 22.7452C34.5497 27.0208 31.0823 30.4895 26.8064 30.4895Z" fill="url(#paint4_linear_12664_14724)"/>
</g>
</g>
<defs>
<linearGradient id="paint0_linear_12664_14724" x1="1.82725" y1="10.3738" x2="33.1503" y2="11.23" gradientUnits="userSpaceOnUse">
<stop offset="0.452889" stop-color="#F97D01"/>
<stop offset="1" stop-color="#FB5046"/>
</linearGradient>
<linearGradient id="paint1_linear_12664_14724" x1="1.82725" y1="10.3738" x2="33.1503" y2="11.23" gradientUnits="userSpaceOnUse">
<stop offset="0.452889" stop-color="#F97D01"/>
<stop offset="1" stop-color="#FB5046"/>
</linearGradient>
<linearGradient id="paint2_linear_12664_14724" x1="20.2857" y1="19.2556" x2="33.8305" y2="19.5669" gradientUnits="userSpaceOnUse">
<stop offset="0.452889" stop-color="#F97D01"/>
<stop offset="1" stop-color="#FB5046"/>
</linearGradient>
<linearGradient id="paint3_linear_12664_14724" x1="24.175" y1="20.8764" x2="29.7271" y2="20.993" gradientUnits="userSpaceOnUse">
<stop offset="0.452889" stop-color="#F97D01"/>
<stop offset="1" stop-color="#FB5046"/>
</linearGradient>
<linearGradient id="paint4_linear_12664_14724" x1="18.4298" y1="18.2984" x2="35.741" y2="18.6975" gradientUnits="userSpaceOnUse">
<stop offset="0.452889" stop-color="#F97D01"/>
<stop offset="1" stop-color="#FB5046"/>
</linearGradient>
</defs>
</svg>
