<svg width="24" height="24" viewBox="0 0 24 24" fill="none" xmlns="http://www.w3.org/2000/svg">
<g id="briefcase-job-suitcase-svgrepo-com 1">
<path id="Vector" d="M21 6H15.75V4.5C15.75 4.10218 15.592 3.72064 15.3107 3.43934C15.0294 3.15804 14.6478 3 14.25 3H9.75C9.35218 3 8.97064 3.15804 8.68934 3.43934C8.40804 3.72064 8.25 4.10218 8.25 4.5V6H3C2.60218 6 2.22064 6.15804 1.93934 6.43934C1.65804 6.72064 1.5 7.10218 1.5 7.5V19.5C1.5 19.8978 1.65804 20.2794 1.93934 20.5607C2.22064 20.842 2.60218 21 3 21H21C21.3978 21 21.7794 20.842 22.0607 20.5607C22.342 20.2794 22.5 19.8978 22.5 19.5V7.5C22.5 7.10218 22.342 6.72064 22.0607 6.43934C21.7794 6.15804 21.3978 6 21 6ZM9.75 4.5H14.25V6H9.75V4.5ZM21 7.5V14.25H3V7.5H21ZM3 19.5V15.75H21V19.5H3Z" fill="#42B8BD"/>
<path id="Vector_2" d="M11.25 13.5H12.75C12.9489 13.5 13.1397 13.421 13.2803 13.2803C13.421 13.1397 13.5 12.9489 13.5 12.75C13.5 12.5511 13.421 12.3603 13.2803 12.2197C13.1397 12.079 12.9489 12 12.75 12H11.25C11.0511 12 10.8603 12.079 10.7197 12.2197C10.579 12.3603 10.5 12.5511 10.5 12.75C10.5 12.9489 10.579 13.1397 10.7197 13.2803C10.8603 13.421 11.0511 13.5 11.25 13.5Z" fill="#42B8BD"/>
</g>
</svg>
