<svg width="10" height="10" viewBox="0 0 10 10" fill="none" xmlns="http://www.w3.org/2000/svg">
<g id="certificate-2-svgrepo-com 1" clip-path="url(#clip0_11060_3088)">
<g id="&#233;&#161;&#181;&#233;&#157;&#162;-1">
<g id="Education">
<g id="certificate_fill">
<path id="&#229;&#189;&#162;&#231;&#138;&#182;" fill-rule="evenodd" clip-rule="evenodd" d="M7.91927 4.58464C8.60965 4.58464 9.16927 5.14426 9.16927 5.83464C9.16927 6.20484 9.00835 6.53747 8.7526 6.76634V8.83089C8.7526 8.98576 8.5896 9.08647 8.4511 9.01722L7.91927 8.7513L7.38744 9.01722C7.24894 9.08647 7.08594 8.98576 7.08594 8.83089V6.76634C6.83023 6.53747 6.66927 6.20484 6.66927 5.83464C6.66927 5.14426 7.2289 4.58464 7.91927 4.58464ZM8.33594 1.66797C8.79619 1.66797 9.16927 2.04106 9.16927 2.5013V4.16781C8.82106 3.90628 8.38827 3.7513 7.91927 3.7513C6.76869 3.7513 5.83594 4.68405 5.83594 5.83464C5.83594 6.30355 5.99148 6.7368 6.2526 7.08468V8.33464H1.66927C1.20903 8.33464 0.835938 7.96155 0.835938 7.5013V2.5013C0.835938 2.04106 1.20903 1.66797 1.66927 1.66797H8.33594ZM3.33594 5.41797H2.5026C2.27249 5.41797 2.08594 5.60451 2.08594 5.83464C2.08594 6.06476 2.27249 6.2513 2.5026 6.2513H3.33594C3.56605 6.2513 3.7526 6.06476 3.7526 5.83464C3.7526 5.60451 3.56605 5.41797 3.33594 5.41797ZM5.0026 3.7513H2.5026C2.27249 3.7513 2.08594 3.93785 2.08594 4.16797C2.08594 4.38166 2.24679 4.55776 2.45401 4.58183L2.5026 4.58464H5.0026C5.23273 4.58464 5.41927 4.39809 5.41927 4.16797C5.41927 3.95429 5.25843 3.77817 5.0512 3.75411L5.0026 3.7513Z" fill="#00141B"/>
</g>
</g>
</g>
</g>
<defs>
<clipPath id="clip0_11060_3088">
<rect width="10" height="10" fill="white"/>
</clipPath>
</defs>
</svg>
