<svg width="49" height="48" viewBox="0 0 49 48" fill="none" xmlns="http://www.w3.org/2000/svg">
<g id="Checkbox">
<g id="Rectangle 4818" filter="url(#filter0_d_12675_12258)">
<rect x="5.59375" y="1.99219" width="38.01" height="38.01" rx="4" fill="#42B8BD"/>
<rect x="6.59375" y="2.99219" width="36.01" height="36.01" rx="3" stroke="#42B8BD" stroke-width="2"/>
</g>
<g id="check">
<path id="Icon" d="M36.3622 11.8429C36.9226 12.341 36.973 13.199 36.4749 13.7594L21.9949 30.0494C21.7373 30.3392 21.3681 30.505 20.9803 30.505C20.5926 30.505 20.2233 30.3392 19.9657 30.0494L12.7257 21.9044C12.2276 21.344 12.2781 20.486 12.8385 19.9879C13.3988 19.4898 14.2568 19.5403 14.7549 20.1006L20.9803 27.1042L34.4457 11.9556C34.9438 11.3953 35.8018 11.3448 36.3622 11.8429Z" fill="white"/>
</g>
</g>
<defs>
<filter id="filter0_d_12675_12258" x="0.59375" y="-0.0078125" width="48.0078" height="48.0078" filterUnits="userSpaceOnUse" color-interpolation-filters="sRGB">
<feFlood flood-opacity="0" result="BackgroundImageFix"/>
<feColorMatrix in="SourceAlpha" type="matrix" values="0 0 0 0 0 0 0 0 0 0 0 0 0 0 0 0 0 0 127 0" result="hardAlpha"/>
<feOffset dy="3"/>
<feGaussianBlur stdDeviation="2.5"/>
<feComposite in2="hardAlpha" operator="out"/>
<feColorMatrix type="matrix" values="0 0 0 0 0 0 0 0 0 0 0 0 0 0 0 0 0 0 0.05 0"/>
<feBlend mode="normal" in2="BackgroundImageFix" result="effect1_dropShadow_12675_12258"/>
<feBlend mode="normal" in="SourceGraphic" in2="effect1_dropShadow_12675_12258" result="shape"/>
</filter>
</defs>
</svg>
