<svg width="24" height="25" viewBox="0 0 24 25" fill="none" xmlns="http://www.w3.org/2000/svg">
<g id="cloud-upload">
<path id="Icon" d="M11 4.19531C8.79082 4.19531 7 5.98617 7 8.19531C7 8.22773 7.00047 8.26159 7.00131 8.29755C7.01219 8.76258 6.70099 9.17371 6.25047 9.28947C4.95577 9.62216 4 10.7984 4 12.1953C4 13.8522 5.34317 15.1953 7 15.1953H8C8.55228 15.1953 9 15.643 9 16.1953C9 16.7476 8.55228 17.1953 8 17.1953H7C4.23861 17.1953 2 14.9567 2 12.1953C2 10.1328 3.2482 8.36377 5.02926 7.59904C5.32856 4.56527 7.88746 2.19531 11 2.19531C13.2236 2.19531 15.1629 3.40465 16.199 5.19855C19.4207 5.30354 22 7.9482 22 11.1953C22 14.509 19.3138 17.1953 16 17.1953C15.4477 17.1953 15 16.7476 15 16.1953C15 15.643 15.4477 15.1953 16 15.1953C18.2092 15.1953 20 13.4045 20 11.1953C20 8.98617 18.2092 7.19531 16 7.19531C15.8893 7.19531 15.78 7.19978 15.6718 7.20853C15.2449 7.24307 14.8434 7.00191 14.6734 6.60881C14.0584 5.18705 12.6439 4.19531 11 4.19531ZM11.2929 9.48821C11.6834 9.09768 12.3166 9.09768 12.7071 9.48821L14.7071 11.4882C15.0976 11.8787 15.0976 12.5119 14.7071 12.9024C14.3166 13.2929 13.6834 13.2929 13.2929 12.9024L13 12.6095V20.1953C13 20.7476 12.5523 21.1953 12 21.1953C11.4477 21.1953 11 20.7476 11 20.1953V12.6095L10.7071 12.9024C10.3166 13.2929 9.68342 13.2929 9.29289 12.9024C8.90237 12.5119 8.90237 11.8787 9.29289 11.4882L11.2929 9.48821Z" fill="white"/>
</g>
</svg>
