<svg width="24" height="25" viewBox="0 0 24 25" fill="none" xmlns="http://www.w3.org/2000/svg">
<path d="M11 4.8999C8.79082 4.8999 7 6.69076 7 8.8999C7 8.93232 7.00047 8.96618 7.00131 9.00214C7.01219 9.46717 6.70099 9.87829 6.25047 9.99406C4.95577 10.3268 4 11.503 4 12.8999C4 14.5568 5.34317 15.8999 7 15.8999H8C8.55228 15.8999 9 16.3476 9 16.8999C9 17.4522 8.55228 17.8999 8 17.8999H7C4.23861 17.8999 2 15.6613 2 12.8999C2 10.8374 3.2482 9.06836 5.02926 8.30363C5.32856 5.26986 7.88746 2.8999 11 2.8999C13.2236 2.8999 15.1629 4.10924 16.199 5.90314C19.4207 6.00813 22 8.65279 22 11.8999C22 15.2136 19.3138 17.8999 16 17.8999C15.4477 17.8999 15 17.4522 15 16.8999C15 16.3476 15.4477 15.8999 16 15.8999C18.2092 15.8999 20 14.109 20 11.8999C20 9.69076 18.2092 7.8999 16 7.8999C15.8893 7.8999 15.78 7.90437 15.6718 7.91312C15.2449 7.94766 14.8434 7.7065 14.6734 7.3134C14.0584 5.89164 12.6439 4.8999 11 4.8999ZM11.2929 10.1928C11.6834 9.80227 12.3166 9.80227 12.7071 10.1928L14.7071 12.1928C15.0976 12.5833 15.0976 13.2165 14.7071 13.607C14.3166 13.9975 13.6834 13.9975 13.2929 13.607L13 13.3141V20.8999C13 21.4522 12.5523 21.8999 12 21.8999C11.4477 21.8999 11 21.4522 11 20.8999V13.3141L10.7071 13.607C10.3166 13.9975 9.68342 13.9975 9.29289 13.607C8.90237 13.2165 8.90237 12.5833 9.29289 12.1928L11.2929 10.1928Z" fill="#001A24"/>
</svg>
