<svg width="24" height="24" viewBox="0 0 24 24" fill="none" xmlns="http://www.w3.org/2000/svg">
<path d="M4.5 4.5C4.5 2.84314 5.84314 1.5 7.5 1.5C9.15686 1.5 10.5 2.84314 10.5 4.5C10.5 5.46714 10.0423 6.32739 9.3318 6.876C9.31042 6.89177 9.28919 6.90772 9.2681 6.92385C8.77228 7.28615 8.16111 7.5 7.5 7.5C5.84314 7.5 4.5 6.15686 4.5 4.5ZM7.5 3C6.67158 3 6 3.67158 6 4.5C6 5.32842 6.67158 6 7.5 6C8.32842 6 9 5.32842 9 4.5C9 3.67158 8.32842 3 7.5 3Z" fill="#10303D" stroke="white" stroke-width="0.1" stroke-miterlimit="10"/>
<path d="M14.6682 6.876C13.9577 6.32739 13.5 5.46714 13.5 4.5C13.5 2.84314 14.8431 1.5 16.5 1.5C18.1569 1.5 19.5 2.84314 19.5 4.5C19.5 6.15686 18.1569 7.5 16.5 7.5C15.8389 7.5 15.2277 7.28616 14.7319 6.92387C14.7108 6.90772 14.6896 6.89177 14.6682 6.876ZM16.5 3C15.6716 3 15 3.67158 15 4.5C15 5.32842 15.6716 6 16.5 6C17.3284 6 18 5.32842 18 4.5C18 3.67158 17.3284 3 16.5 3Z" fill="#10303D" stroke="white" stroke-width="0.1" stroke-miterlimit="10"/>
<path d="M3.74997 9H7.75607C7.59023 9.46917 7.5 9.97404 7.5 10.5H3.74997C3.3358 10.5 3 10.8358 3 11.25C3 12.4754 3.48679 13.3841 4.25715 14.0024C4.61136 14.2867 5.03556 14.517 5.51508 14.6843C5.16678 15.0555 4.89316 15.4976 4.7182 15.9864C4.20826 15.779 3.73647 15.5079 3.31823 15.1722C2.18846 14.2654 1.5 12.9241 1.5 11.25C1.5 10.0074 2.50734 9 3.74997 9Z" fill="#10303D" stroke="white" stroke-width="0.1" stroke-miterlimit="10"/>
<path d="M9.40134 9C9.14609 9.44125 9 9.95357 9 10.5C9 11.7653 9.78333 12.8477 10.8915 13.2886C11.2344 13.425 11.6085 13.5 12 13.5C12.3915 13.5 12.7656 13.425 13.1085 13.2886C14.2167 12.8477 15 11.7653 15 10.5C15 9.95357 14.8539 9.44125 14.5987 9C14.0799 8.1033 13.1104 7.5 12 7.5C10.8896 7.5 9.92006 8.1033 9.40134 9ZM11.6634 9.0379C11.7716 9.0131 11.8843 9 12 9C12.1157 9 12.2284 9.0131 12.3366 9.0379C13.0029 9.19067 13.5 9.78729 13.5 10.5C13.5 10.6157 13.4869 10.7284 13.4621 10.8366C13.3093 11.5029 12.7127 12 12 12C11.2873 12 10.6907 11.5029 10.5379 10.8366C10.5131 10.7284 10.5 10.6157 10.5 10.5C10.5 9.78729 10.9971 9.19067 11.6634 9.0379Z" fill="#10303D" stroke="white" stroke-width="0.1" stroke-miterlimit="10"/>
<path d="M19.7411 14.0024C19.3869 14.2867 18.9627 14.517 18.4832 14.6843C18.8315 15.0555 19.1051 15.4976 19.28 15.9864C19.79 15.779 20.2617 15.5079 20.6801 15.1722C21.8097 14.2654 22.4982 12.9241 22.4982 11.25C22.4982 10.0074 21.4908 9 20.2482 9H16.2422C16.4079 9.46917 16.4982 9.97404 16.4982 10.5H20.2482C20.6624 10.5 20.9982 10.8358 20.9982 11.25C20.9982 12.4754 20.5115 13.3841 19.7411 14.0024Z" fill="#10303D" stroke="white" stroke-width="0.1" stroke-miterlimit="10"/>
<path d="M15.75 15C16.6889 15 17.4933 15.575 17.8307 16.392C17.9397 16.6565 18 16.9462 18 17.25C18 18.9241 17.3115 20.2655 16.1819 21.1722C15.0699 22.0647 13.5796 22.5 12 22.5C10.4204 22.5 8.93013 22.0647 7.81823 21.1722C6.68846 20.2655 6 18.9241 6 17.25C6 16.9462 6.06022 16.6565 6.16938 16.392C6.50667 15.575 7.31118 15 8.24997 15H15.75ZM15.75 16.5H8.24997C7.8358 16.5 7.5 16.8359 7.5 17.25C7.5 18.4753 7.98679 19.384 8.75715 20.0023C9.54537 20.635 10.6801 21 12 21C13.3199 21 14.4546 20.635 15.2428 20.0023C16.0132 19.384 16.5 18.4753 16.5 17.25C16.5 16.8359 16.1642 16.5 15.75 16.5Z" fill="#10303D" stroke="white" stroke-width="0.1" stroke-miterlimit="10"/>
</svg>
