<svg width="49" height="48" viewBox="0 0 49 48" fill="none" xmlns="http://www.w3.org/2000/svg">
<g id="Frame 1000003017">
<rect id="Rectangle 4739" x="0.756256" y="0.600006" width="46.8005" height="46.8005" rx="9.0001" fill="#99A6AB" stroke="#285E6A" stroke-width="1.20001"/>
<g id="&#240;&#159;&#166;&#134; icon &#34;business&#34;">
<path id="Vector" d="M24.1589 15.6667V12.3333C24.1589 10.5 22.6589 9 20.8255 9H10.8255C8.99219 9 7.49219 10.5 7.49219 12.3333V35.6667C7.49219 37.5 8.99219 39 10.8255 39H37.4922C39.3255 39 40.8255 37.5 40.8255 35.6667V19C40.8255 17.1667 39.3255 15.6667 37.4922 15.6667H24.1589ZM14.1589 35.6667H10.8255V32.3333H14.1589V35.6667ZM14.1589 29H10.8255V25.6667H14.1589V29ZM14.1589 22.3333H10.8255V19H14.1589V22.3333ZM14.1589 15.6667H10.8255V12.3333H14.1589V15.6667ZM20.8255 35.6667H17.4922V32.3333H20.8255V35.6667ZM20.8255 29H17.4922V25.6667H20.8255V29ZM20.8255 22.3333H17.4922V19H20.8255V22.3333ZM20.8255 15.6667H17.4922V12.3333H20.8255V15.6667ZM35.8255 35.6667H24.1589V32.3333H27.4922V29H24.1589V25.6667H27.4922V22.3333H24.1589V19H35.8255C36.7422 19 37.4922 19.75 37.4922 20.6667V34C37.4922 34.9167 36.7422 35.6667 35.8255 35.6667ZM34.1588 22.3333H30.8255V25.6667H34.1588V22.3333ZM34.1588 29H30.8255V32.3333H34.1588V29Z" fill="#334D57"/>
</g>
</g>
</svg>
