<svg width="18" height="18" viewBox="0 0 18 18" fill="none" xmlns="http://www.w3.org/2000/svg">
<g id="Component 7">
<path id="Vector" d="M13.5811 4.88407C13.301 4.6038 12.9683 4.38146 12.6022 4.22977C12.2361 4.07808 11.8438 4 11.4475 4C11.0512 4 10.6588 4.07808 10.2927 4.22977C9.92661 4.38146 9.59399 4.6038 9.31384 4.88407L8.73244 5.46547L8.15104 4.88407C7.58517 4.3182 6.81768 4.00029 6.01741 4.00029C5.21714 4.00029 4.44965 4.3182 3.88378 4.88407C3.3179 5.44995 3 6.21744 3 7.0177C3 7.81797 3.3179 8.58546 3.88378 9.15134L4.46518 9.73274L8.73244 14L12.9997 9.73274L13.5811 9.15134C13.8614 8.87119 14.0837 8.53857 14.2354 8.17247C14.3871 7.80638 14.4652 7.41398 14.4652 7.0177C14.4652 6.62143 14.3871 6.22903 14.2354 5.86293C14.0837 5.49684 13.8614 5.16422 13.5811 4.88407V4.88407Z" stroke="#F9FAFB" stroke-linecap="round" stroke-linejoin="round"/>
</g>
</svg>
