<svg width="25" height="24" viewBox="0 0 25 24" fill="none" xmlns="http://www.w3.org/2000/svg">
<g id="copy">
<path id="Icon" d="M2.375 4C2.375 2.89543 3.27043 2 4.375 2H14.375C15.4796 2 16.375 2.89543 16.375 4V8H20.375C21.4796 8 22.375 8.89543 22.375 10V20C22.375 21.1046 21.4796 22 20.375 22H10.375C9.27043 22 8.375 21.1046 8.375 20V16H4.375C3.27043 16 2.375 15.1046 2.375 14V4ZM10.375 16V20H20.375V10H16.375V14C16.375 15.1046 15.4796 16 14.375 16H10.375ZM14.375 14V4L4.375 4V14H14.375Z" fill="#00141B"/>
</g>
</svg>
