<svg width="10" height="10" viewBox="0 0 10 10" fill="none" xmlns="http://www.w3.org/2000/svg">
<g id="design-svgrepo-com (1) 1">
<g id="Group 1000002903">
<g id="Layer">
<g id="Group">
<path id="Vector" d="M7.79201 7.77665L7.79205 7.77662C7.94979 7.61889 7.94979 7.36221 7.79205 7.20445C7.71566 7.12807 7.61401 7.08594 7.50593 7.08594C7.39791 7.08594 7.29627 7.12807 7.21983 7.20453C7.06213 7.36221 7.06213 7.6189 7.21987 7.77662C7.37765 7.93433 7.63429 7.93433 7.79201 7.77665ZM7.34569 7.65079C7.3029 7.60801 7.27933 7.5511 7.27933 7.49054C7.27933 7.43001 7.3029 7.37306 7.34569 7.33027C7.38852 7.28749 7.44545 7.2639 7.50599 7.2639C7.56652 7.2639 7.62341 7.28748 7.66623 7.33027C7.75458 7.41865 7.75458 7.56241 7.66619 7.65079C7.57783 7.73918 7.43408 7.73914 7.34569 7.65079Z" fill="#00141B"/>
<path id="Vector_2" d="M8.49607 2.73571C8.49616 2.7356 8.49627 2.73552 8.49637 2.73542C8.49656 2.73523 8.49674 2.73502 8.49693 2.73483L8.52132 2.71044L8.52071 2.70982C8.88334 2.3207 8.87538 1.70918 8.49631 1.33013C8.30863 1.14243 8.0591 1.03906 7.79367 1.03906C7.54008 1.03906 7.30112 1.13362 7.11661 1.30573L7.11602 1.30514L7.0916 1.32954C7.0914 1.32975 7.0912 1.32992 7.091 1.33012C7.09091 1.33022 7.09083 1.33032 7.09073 1.33043L1.25294 7.1682L1.25521 7.17048C1.22258 7.19152 1.19894 7.22608 1.19326 7.26755L1.00127 8.66987C0.995429 8.71262 1.00991 8.7556 1.04041 8.78611C1.06644 8.81212 1.10159 8.82647 1.13791 8.82647C1.14412 8.82647 1.15038 8.82605 1.15663 8.82521L2.5589 8.63316C2.60039 8.62751 2.63495 8.60384 2.65599 8.57122L2.65826 8.57349L8.49607 2.73571ZM7.79367 1.31487C7.98542 1.31487 8.16569 1.38955 8.30127 1.52514C8.54784 1.77169 8.57723 2.15447 8.38944 2.43347L7.39286 1.43693C7.51033 1.35754 7.64874 1.31487 7.79367 1.31487ZM7.11602 1.69518L8.13127 2.71043L2.65826 8.18344L2.27631 7.80151L6.66954 3.40835L6.40654 3.14539L2.01337 7.53859L1.64299 7.1682L7.11602 1.69518ZM1.29917 8.52731L1.45727 7.37251L2.45392 8.36917L1.29917 8.52731Z" fill="#00141B"/>
<path id="Vector_3" d="M3.20733 4.51672L3.45898 4.26508L1.44522 2.2513L2.26691 1.42959L2.65653 1.81924L2.37385 2.10187L2.59701 2.32503L2.87969 2.04241L3.10685 2.26954L2.82417 2.5522L3.04734 2.77533L3.33004 2.49271L3.55717 2.71989L3.13897 3.13799L3.3622 3.36116L3.78034 2.94302L4.0573 3.21996L3.77462 3.50268L3.99779 3.72581L4.28047 3.44313L4.28066 3.44334L4.53231 3.19169L2.39272 1.05213C2.32323 0.982623 2.21058 0.982623 2.14109 1.05213L1.06776 2.12548C0.998247 2.19497 0.998247 2.30763 1.06776 2.37712L3.20733 4.51672Z" fill="#00141B"/>
<path id="Vector_4" d="M8.83958 7.50213C8.83636 7.4989 8.83303 7.49582 8.82965 7.49289L6.59063 5.25391L5.92081 5.92373L6.14351 6.14644L6.56169 5.72827L8.46176 7.6283L7.64003 8.44999L5.51727 6.32725L5.26562 6.57893L7.5142 8.82746C7.58369 8.89699 7.69633 8.89699 7.76584 8.82746L8.83923 7.75416C8.83933 7.75401 8.83945 7.75393 8.83958 7.75378C8.90909 7.68432 8.90909 7.57162 8.83958 7.50213Z" fill="#00141B"/>
</g>
</g>
</g>
</g>
</svg>
