<svg width="58" height="59" viewBox="0 0 58 59" fill="none" xmlns="http://www.w3.org/2000/svg">
<g id="Frame 1000003017">
<rect id="Rectangle 4739" x="0.91532" y="1.50907" width="56.1606" height="56.1606" rx="10.8001" fill="#99A6AB" stroke="#285E6A" stroke-width="1.44002"/>
<g id="&#240;&#159;&#166;&#134; icon &#34;school&#34;">
<path id="Vector" d="M45.1286 27.8589H41.662V17.4589H43.3953V13.9922H39.9286H19.1286H15.662V17.4589H17.3953V27.8589H13.9286C12.9701 27.8589 12.1953 28.6354 12.1953 29.5922V41.7255V43.4589V45.1922H13.9286H17.3953H19.1286H39.9286H41.662H45.1286H46.862V43.4589V41.7255V29.5922C46.862 28.6354 46.0872 27.8589 45.1286 27.8589ZM32.9953 41.7255V34.7922H26.062V41.7255H20.862V17.4589H38.1953V41.7255H32.9953Z" fill="#334D57"/>
<path id="Vector_2" d="M24.3281 20.9297H27.7948V24.3964H24.3281V20.9297ZM31.2615 20.9297H34.7281V24.3964H31.2615V20.9297ZM24.3281 27.863H27.7948V31.3297H24.3281V27.863ZM31.2615 27.863H34.7281V31.3297H31.2615V27.863Z" fill="#334D57"/>
</g>
</g>
</svg>
