<svg width="24" height="24" viewBox="0 0 24 24" fill="none" xmlns="http://www.w3.org/2000/svg">
<g id="eye (5) 1">
<path id="Vector" d="M23.0141 11.7723C22.9817 11.6995 22.2016 9.96918 20.4603 8.22766C18.8455 6.61267 16.0669 4.6875 12 4.6875C7.93313 4.6875 5.15451 6.61267 3.5397 8.22766C1.79837 9.96918 1.01834 11.6995 0.98593 11.7723C0.953983 11.8442 0.937484 11.9221 0.9375 12.0008C0.937516 12.0795 0.954047 12.1573 0.986023 12.2292C1.01834 12.302 1.79846 14.032 3.5398 15.7732C5.1546 17.3878 7.93313 19.3125 12 19.3125C16.0669 19.3125 18.8454 17.3878 20.4602 15.7732C22.2015 14.032 22.9817 12.302 23.014 12.2292C23.046 12.1573 23.0625 12.0795 23.0625 12.0008C23.0625 11.9221 23.046 11.8442 23.0141 11.7723ZM12 18.1875C9.05832 18.1875 6.48935 17.1172 4.36423 15.0065C3.4732 14.1214 2.71923 13.1083 2.12723 12.0007C2.71922 10.8928 3.47322 9.87949 4.36432 8.99414C6.48935 6.88293 9.05841 5.8125 12 5.8125C14.9416 5.8125 17.5106 6.88294 19.6357 8.99414C20.5268 9.87941 21.2807 10.8927 21.8727 12.0005C21.2758 13.1443 18.2849 18.1875 12 18.1875ZM12 7.68832C11.1471 7.68832 10.3133 7.94125 9.6041 8.41511C8.89492 8.88897 8.34217 9.5625 8.01577 10.3505C7.68937 11.1385 7.60396 12.0056 7.77036 12.8422C7.93676 13.6787 8.34749 14.4471 8.9506 15.0502C9.55371 15.6533 10.3221 16.0641 11.1587 16.2305C11.9952 16.3969 12.8623 16.3115 13.6503 15.9851C14.4383 15.6587 15.1118 15.1059 15.5857 14.3967C16.0596 13.6875 16.3125 12.8538 16.3125 12.0008C16.3112 10.8575 15.8564 9.76133 15.048 8.95286C14.2395 8.14439 13.1433 7.68962 12 7.68832ZM12 15.1883C11.3696 15.1883 10.7533 15.0014 10.2291 14.6511C9.70494 14.3009 9.29639 13.8031 9.05513 13.2206C8.81388 12.6382 8.75075 11.9973 8.87375 11.379C8.99674 10.7607 9.30032 10.1927 9.7461 9.74692C10.1919 9.30114 10.7598 8.99756 11.3781 8.87457C11.9965 8.75158 12.6374 8.8147 13.2198 9.05596C13.8022 9.29721 14.3001 9.70576 14.6503 10.2299C15.0006 10.7541 15.1875 11.3704 15.1875 12.0008C15.1866 12.8459 14.8504 13.6561 14.2529 14.2537C13.6553 14.8513 12.8451 15.1874 12 15.1883Z" fill="#CCCCCC"/>
</g>
</svg>
