<svg width="23" height="24" viewBox="0 0 23 24" fill="none" xmlns="http://www.w3.org/2000/svg">
<g clip-path="url(#clip0_13481_13868)">
<path d="M17.1679 15.6683C19.9855 14.1072 22.1216 12.9176 22.3057 12.8252C22.8947 12.5091 23.5029 11.6726 22.3057 11.0228C21.9192 10.8185 19.838 9.66595 17.1679 8.17969L13.4663 11.9517L17.1679 15.6683Z" fill="#FFD900"/>
<path d="M13.4664 11.9531L1.68018 23.9394C1.95681 23.9763 2.26917 23.9024 2.6374 23.6981C3.4105 23.2711 11.606 18.755 17.1679 15.6706L13.4664 11.9531Z" fill="#F43249"/>
<path d="M13.4663 11.9513L17.1678 8.19771C17.1678 8.19771 3.46627 0.652706 2.63729 0.207197C2.32493 0.0204893 1.97502 -0.0349683 1.66174 0.0204893L13.4663 11.9513Z" fill="#00EE76"/>
<path d="M13.4663 11.9503L1.66177 0.0195312C1.18271 0.131371 0.777832 0.558394 0.777832 1.43185V22.5242C0.777832 23.3237 1.0911 23.8996 1.68009 23.955L13.4663 11.9503Z" fill="#00D3FF"/>
</g>
<defs>
<clipPath id="clip0_13481_13868">
<rect width="22.2222" height="24" fill="white" transform="translate(0.777832)"/>
</clipPath>
</defs>
</svg>
