<svg width="24" height="24" viewBox="0 0 24 24" fill="none" xmlns="http://www.w3.org/2000/svg">
<g clip-path="url(#clip0_8259_38969)">
<path d="M17.279 15.6678C20.0966 14.1067 22.2327 12.9171 22.4168 12.8247C23.0058 12.5086 23.614 11.6721 22.4168 11.0223C22.0303 10.8181 19.9491 9.66546 17.279 8.1792L13.5774 11.9512L17.279 15.6678Z" fill="#FFD900"/>
<path d="M13.5773 11.9513L1.79114 23.9375C2.06777 23.9745 2.38013 23.9006 2.74836 23.6963C3.52147 23.2693 11.7169 18.7532 17.2789 15.6688L13.5773 11.9513Z" fill="#F43249"/>
<path d="M13.5774 11.9513L17.2789 8.19771C17.2789 8.19771 3.57735 0.652706 2.74837 0.207197C2.43601 0.0204893 2.0861 -0.0349683 1.77283 0.0204893L13.5774 11.9513Z" fill="#00EE76"/>
<path d="M13.5774 11.9513L1.77286 0.0205078C1.29379 0.132347 0.888916 0.559371 0.888916 1.43283V22.5252C0.888916 23.3247 1.20219 23.9006 1.79118 23.956L13.5774 11.9513Z" fill="#00D3FF"/>
</g>
<defs>
<clipPath id="clip0_8259_38969">
<rect width="22.2222" height="24" fill="white" transform="translate(0.888916)"/>
</clipPath>
</defs>
</svg>
