<svg width="16" height="16" viewBox="0 0 16 16" fill="none" xmlns="http://www.w3.org/2000/svg">
<circle cx="8" cy="8" r="7.5" fill="#E73131" stroke="#F9FAFB"/>
<path d="M11.8657 4.76767C11.6423 4.54411 11.377 4.36677 11.0849 4.24577C10.7929 4.12478 10.4799 4.0625 10.1638 4.0625C9.84776 4.0625 9.53477 4.12478 9.24275 4.24577C8.95074 4.36677 8.68543 4.54411 8.46197 4.76767L7.99822 5.23142L7.53447 4.76767C7.08311 4.31631 6.47092 4.06273 5.8326 4.06273C5.19427 4.06273 4.58209 4.31631 4.13072 4.76767C3.67936 5.21904 3.42578 5.83122 3.42578 6.46955C3.42578 7.10788 3.67936 7.72006 4.13072 8.17142L4.59447 8.63517L7.99822 12.0389L11.402 8.63517L11.8657 8.17142C12.0893 7.94797 12.2666 7.68265 12.3876 7.39064C12.5086 7.09863 12.5709 6.78564 12.5709 6.46955C12.5709 6.15346 12.5086 5.84047 12.3876 5.54846C12.2666 5.25644 12.0893 4.99113 11.8657 4.76767Z" fill="#F9FAFB"/>
</svg>
