<svg width="25" height="24" viewBox="0 0 25 24" fill="none" xmlns="http://www.w3.org/2000/svg">
<g id="instagram-rounded-svgrepo-com">
<g clip-path="url(#clip0_8687_62647)">
<rect x="0.5" width="24" height="24" rx="2" fill="#00141B"/>
<g id="Group">
<path id="Vector" d="M12.5002 14.1109C13.6627 14.1109 14.6143 13.1641 14.6143 11.9969C14.6143 11.5375 14.4643 11.1109 14.2158 10.7641C13.8315 10.2344 13.208 9.88281 12.5049 9.88281C11.8018 9.88281 11.1783 10.2297 10.794 10.7641C10.5455 11.1109 10.3955 11.5375 10.3955 11.9969C10.3908 13.1641 11.3377 14.1109 12.5002 14.1109Z" fill="#ECE2DC"/>
<path id="Vector_2" d="M17.1125 9.41719V7.64531V7.38281H16.85L15.0781 7.3875L15.0875 9.42188L17.1125 9.41719Z" fill="#ECE2DC"/>
<path id="Vector_3" opacity="0.9" d="M22.625 0H2.375C1.33906 0 0.5 0.839062 0.5 1.875V22.125C0.5 23.1609 1.33906 24 2.375 24H22.625C23.6609 24 24.5 23.1609 24.5 22.125V1.875C24.5 0.839062 23.6609 0 22.625 0ZM18.5 10.7672V15.6797C18.5 16.9594 17.4594 18 16.1797 18H8.82031C7.54063 18 6.5 16.9594 6.5 15.6797V10.7672V8.31562C6.5 7.03594 7.54063 5.99531 8.82031 5.99531H16.1797C17.4594 5.99531 18.5 7.03594 18.5 8.31562V10.7672Z" fill="#ECE2DC"/>
<path id="Vector_4" d="M15.7812 11.9984C15.7812 13.8078 14.3094 15.2797 12.5 15.2797C10.6906 15.2797 9.21875 13.8078 9.21875 11.9984C9.21875 11.5625 9.30781 11.1453 9.4625 10.7656H7.67188V15.6781C7.67188 16.3109 8.1875 16.8266 8.82031 16.8266H16.1797C16.8125 16.8266 17.3281 16.3109 17.3281 15.6781V10.7656H15.5375C15.6969 11.1453 15.7812 11.5625 15.7812 11.9984Z" fill="#ECE2DC"/>
</g>
</g>
</g>
<defs>
<clipPath id="clip0_8687_62647">
<rect x="0.5" width="24" height="24" rx="2" fill="white"/>
</clipPath>
</defs>
</svg>
