<svg width="20" height="20" viewBox="0 0 20 20" fill="none" xmlns="http://www.w3.org/2000/svg">
<g clip-path="url(#clip0_13481_13884)">
<path fill-rule="evenodd" clip-rule="evenodd" d="M10 15C12.7614 15 15 12.7614 15 10C15 7.23857 12.7614 5 10 5C7.23857 5 5 7.23857 5 10C5 12.7614 7.23857 15 10 15ZM10 13.3333C11.8409 13.3333 13.3333 11.8409 13.3333 10C13.3333 8.15905 11.8409 6.66667 10 6.66667C8.15905 6.66667 6.66667 8.15905 6.66667 10C6.66667 11.8409 8.15905 13.3333 10 13.3333Z" fill="#0F0F0F"/>
<path d="M15 4.16675C14.5397 4.16675 14.1666 4.53985 14.1666 5.00008C14.1666 5.46031 14.5397 5.83341 15 5.83341C15.4602 5.83341 15.8333 5.46031 15.8333 5.00008C15.8333 4.53985 15.4602 4.16675 15 4.16675Z" fill="#0F0F0F"/>
<path fill-rule="evenodd" clip-rule="evenodd" d="M1.37834 3.5633C0.833374 4.63286 0.833374 6.03299 0.833374 8.83325V11.1666C0.833374 13.9668 0.833374 15.367 1.37834 16.4365C1.85771 17.3773 2.62261 18.1423 3.56342 18.6216C4.63298 19.1666 6.03312 19.1666 8.83337 19.1666H11.1667C13.967 19.1666 15.3671 19.1666 16.4366 18.6216C17.3775 18.1423 18.1424 17.3773 18.6217 16.4365C19.1667 15.367 19.1667 13.9668 19.1667 11.1666V8.83325C19.1667 6.03299 19.1667 4.63286 18.6217 3.5633C18.1424 2.62249 17.3775 1.85759 16.4366 1.37822C15.3671 0.833252 13.967 0.833252 11.1667 0.833252H8.83337C6.03312 0.833252 4.63298 0.833252 3.56342 1.37822C2.62261 1.85759 1.85771 2.62249 1.37834 3.5633ZM11.1667 2.49992H8.83337C7.40574 2.49992 6.43525 2.50122 5.68511 2.5625C4.95441 2.6222 4.58074 2.73041 4.32007 2.86323C3.69287 3.18281 3.18293 3.69274 2.86335 4.31995C2.73053 4.58062 2.62232 4.95429 2.56262 5.68499C2.50134 6.43513 2.50004 7.40562 2.50004 8.83325V11.1666C2.50004 12.5943 2.50134 13.5647 2.56262 14.3148C2.62232 15.0456 2.73053 15.4193 2.86335 15.6799C3.18293 16.3071 3.69287 16.817 4.32007 17.1366C4.58074 17.2694 4.95441 17.3777 5.68511 17.4373C6.43525 17.4986 7.40574 17.4999 8.83337 17.4999H11.1667C12.5944 17.4999 13.5648 17.4986 14.315 17.4373C15.0457 17.3777 15.4194 17.2694 15.68 17.1366C16.3072 16.817 16.8171 16.3071 17.1367 15.6799C17.2695 15.4193 17.3778 15.0456 17.4375 14.3148C17.4987 13.5647 17.5 12.5943 17.5 11.1666V8.83325C17.5 7.40562 17.4987 6.43513 17.4375 5.68499C17.3778 4.95429 17.2695 4.58062 17.1367 4.31995C16.8171 3.69274 16.3072 3.18281 15.68 2.86323C15.4194 2.73041 15.0457 2.6222 14.315 2.5625C13.5648 2.50122 12.5944 2.49992 11.1667 2.49992Z" fill="#0F0F0F"/>
</g>
<defs>
<clipPath id="clip0_13481_13884">
<rect width="20" height="20" fill="white"/>
</clipPath>
</defs>
</svg>
