<svg width="21" height="21" viewBox="0 0 21 21" fill="none" xmlns="http://www.w3.org/2000/svg">
<path fill-rule="evenodd" clip-rule="evenodd" d="M10.5 15.1719C13.2614 15.1719 15.5 12.9333 15.5 10.1719C15.5 7.41045 13.2614 5.17188 10.5 5.17188C7.73857 5.17188 5.5 7.41045 5.5 10.1719C5.5 12.9333 7.73857 15.1719 10.5 15.1719ZM10.5 13.5052C12.3409 13.5052 13.8333 12.0128 13.8333 10.1719C13.8333 8.33092 12.3409 6.83854 10.5 6.83854C8.65905 6.83854 7.16667 8.33092 7.16667 10.1719C7.16667 12.0128 8.65905 13.5052 10.5 13.5052Z" fill="#0F0F0F"/>
<path d="M15.5003 4.33594C15.0401 4.33594 14.667 4.70904 14.667 5.16927C14.667 5.6295 15.0401 6.0026 15.5003 6.0026C15.9606 6.0026 16.3337 5.6295 16.3337 5.16927C16.3337 4.70904 15.9606 4.33594 15.5003 4.33594Z" fill="#0F0F0F"/>
<path fill-rule="evenodd" clip-rule="evenodd" d="M1.87797 3.73786C1.33301 4.80742 1.33301 6.20755 1.33301 9.00781V11.3411C1.33301 14.1414 1.33301 15.5416 1.87797 16.6111C2.35734 17.5519 3.12224 18.3168 4.06306 18.7961C5.13262 19.3411 6.53275 19.3411 9.33301 19.3411H11.6663C14.4666 19.3411 15.8668 19.3411 16.9363 18.7961C17.8771 18.3168 18.642 17.5519 19.1213 16.6111C19.6663 15.5416 19.6663 14.1414 19.6663 11.3411V9.00781C19.6663 6.20755 19.6663 4.80742 19.1213 3.73786C18.642 2.79705 17.8771 2.03215 16.9363 1.55278C15.8668 1.00781 14.4666 1.00781 11.6663 1.00781H9.33301C6.53275 1.00781 5.13262 1.00781 4.06306 1.55278C3.12224 2.03215 2.35734 2.79705 1.87797 3.73786ZM11.6663 2.67448H9.33301C7.90538 2.67448 6.93488 2.67578 6.18474 2.73706C5.45404 2.79676 5.08037 2.90497 4.81971 3.03779C4.1925 3.35737 3.68257 3.8673 3.36298 4.49451C3.23017 4.75518 3.12196 5.12885 3.06226 5.85955C3.00097 6.60969 2.99967 7.58018 2.99967 9.00781V11.3411C2.99967 12.7688 3.00097 13.7392 3.06226 14.4894C3.12196 15.2201 3.23017 15.5938 3.36298 15.8545C3.68257 16.4816 4.1925 16.9916 4.81971 17.3111C5.08037 17.444 5.45404 17.5522 6.18474 17.6119C6.93488 17.6731 7.90538 17.6745 9.33301 17.6745H11.6663C13.094 17.6745 14.0644 17.6731 14.8146 17.6119C15.5453 17.5522 15.919 17.444 16.1797 17.3111C16.8068 16.9916 17.3168 16.4816 17.6363 15.8545C17.7692 15.5938 17.8774 15.2201 17.9371 14.4894C17.9983 13.7392 17.9997 12.7688 17.9997 11.3411V9.00781C17.9997 7.58018 17.9983 6.60969 17.9371 5.85955C17.8774 5.12885 17.7692 4.75518 17.6363 4.49451C17.3168 3.8673 16.8068 3.35737 16.1797 3.03779C15.919 2.90497 15.5453 2.79676 14.8146 2.73706C14.0644 2.67578 13.094 2.67448 11.6663 2.67448Z" fill="#0F0F0F"/>
</svg>
