<svg width="21" height="21" viewBox="0 0 21 21" fill="none" xmlns="http://www.w3.org/2000/svg">
<path d="M5.91699 6.83594C6.60735 6.83594 7.16699 6.2763 7.16699 5.58594C7.16699 4.89558 6.60735 4.33594 5.91699 4.33594C5.22663 4.33594 4.66699 4.89558 4.66699 5.58594C4.66699 6.2763 5.22663 6.83594 5.91699 6.83594Z" fill="#0F0F0F"/>
<path d="M4.66699 8.50521C4.66699 8.04497 5.04009 7.67188 5.50033 7.67188H6.33366C6.79389 7.67188 7.16699 8.04497 7.16699 8.50521V15.1719C7.16699 15.6321 6.79389 16.0052 6.33366 16.0052H5.50033C5.04009 16.0052 4.66699 15.6321 4.66699 15.1719V8.50521Z" fill="#0F0F0F"/>
<path d="M9.66634 16.0052H10.4997C10.9599 16.0052 11.333 15.6321 11.333 15.1719V11.4219C11.333 10.1719 13.833 9.33854 13.833 11.0052V15.1722C13.833 15.6325 14.2061 16.0052 14.6663 16.0052H15.4997C15.9599 16.0052 16.333 15.6321 16.333 15.1719V10.1719C16.333 8.50521 15.083 7.67188 13.4163 7.67188C11.7497 7.67188 11.333 8.92187 11.333 8.92187V8.50521C11.333 8.04497 10.9599 7.67188 10.4997 7.67188H9.66634C9.20609 7.67188 8.83301 8.04497 8.83301 8.50521V15.1719C8.83301 15.6321 9.20609 16.0052 9.66634 16.0052Z" fill="#0F0F0F"/>
<path fill-rule="evenodd" clip-rule="evenodd" d="M17.1663 1.00781C18.5471 1.00781 19.6663 2.1271 19.6663 3.50781V16.8411C19.6663 18.2219 18.5471 19.3411 17.1663 19.3411H3.83301C2.4523 19.3411 1.33301 18.2219 1.33301 16.8411V3.50781C1.33301 2.1271 2.4523 1.00781 3.83301 1.00781H17.1663ZM17.1663 2.67448C17.6266 2.67448 17.9997 3.04758 17.9997 3.50781V16.8411C17.9997 17.3014 17.6266 17.6745 17.1663 17.6745H3.83301C3.37277 17.6745 2.99967 17.3014 2.99967 16.8411V3.50781C2.99967 3.04758 3.37277 2.67448 3.83301 2.67448H17.1663Z" fill="#0F0F0F"/>
</svg>
