<svg width="25" height="24" viewBox="0 0 25 24" fill="none" xmlns="http://www.w3.org/2000/svg">
<g id="linkedin-rounded-svgrepo-com">
<g clip-path="url(#clip0_8687_62645)">
<rect x="0.5" width="24" height="24" rx="2" fill="#00141B"/>
<path id="Vector" opacity="0.9" d="M22.625 0H2.375C1.33906 0 0.5 0.839062 0.5 1.875V22.125C0.5 23.1609 1.33906 24 2.375 24H22.625C23.6609 24 24.5 23.1609 24.5 22.125V1.875C24.5 0.839062 23.6609 0 22.625 0ZM9.14375 17.0203H6.80469V9.53437H9.14375V17.0203ZM7.91094 8.59687H7.89219C7.04375 8.59687 6.49531 8.025 6.49531 7.29844C6.49531 6.55781 7.0625 6 7.925 6C8.7875 6 9.31719 6.55781 9.33594 7.29844C9.34063 8.02031 8.79219 8.59687 7.91094 8.59687ZM18.5 17.0203H15.8469V13.1484C15.8469 12.1359 15.4344 11.4422 14.5203 11.4422C13.8219 11.4422 13.4328 11.9109 13.2547 12.3609C13.1891 12.5203 13.1984 12.7453 13.1984 12.975V17.0203H10.5688C10.5688 17.0203 10.6016 10.1578 10.5688 9.53437H13.1984V10.7109C13.3531 10.1953 14.1922 9.46406 15.5328 9.46406C17.1969 9.46406 18.5 10.5422 18.5 12.8578V17.0203Z" fill="#ECE2DC"/>
</g>
</g>
<defs>
<clipPath id="clip0_8687_62645">
<rect x="0.5" width="24" height="24" rx="2" fill="white"/>
</clipPath>
</defs>
</svg>
