<svg width="20" height="20" viewBox="0 0 20 20" fill="none" xmlns="http://www.w3.org/2000/svg">
<g clip-path="url(#clip0_13481_13879)">
<path d="M5.41663 6.66675C6.10698 6.66675 6.66663 6.10711 6.66663 5.41675C6.66663 4.72639 6.10698 4.16675 5.41663 4.16675C4.72627 4.16675 4.16663 4.72639 4.16663 5.41675C4.16663 6.10711 4.72627 6.66675 5.41663 6.66675Z" fill="#0F0F0F"/>
<path d="M4.16663 8.33333C4.16663 7.8731 4.53973 7.5 4.99996 7.5H5.83329C6.29353 7.5 6.66663 7.87309 6.66663 8.33333V15C6.66663 15.4602 6.29353 15.8333 5.83329 15.8333H4.99996C4.53973 15.8333 4.16663 15.4602 4.16663 15V8.33333Z" fill="#0F0F0F"/>
<path d="M9.16671 15.8333H10C10.4603 15.8333 10.8334 15.4602 10.8334 15V11.25C10.8334 10 13.3334 9.16667 13.3334 10.8333V15.0003C13.3334 15.4606 13.7065 15.8333 14.1667 15.8333H15C15.4603 15.8333 15.8334 15.4602 15.8334 15V10C15.8334 8.33333 14.5834 7.5 12.9167 7.5C11.25 7.5 10.8334 8.75 10.8334 8.75V8.33333C10.8334 7.87309 10.4603 7.5 10 7.5H9.16671C8.70646 7.5 8.33337 7.8731 8.33337 8.33333V15C8.33337 15.4602 8.70646 15.8333 9.16671 15.8333Z" fill="#0F0F0F"/>
<path fill-rule="evenodd" clip-rule="evenodd" d="M16.6667 0.833252C18.0475 0.833252 19.1667 1.95254 19.1667 3.33325V16.6666C19.1667 18.0473 18.0475 19.1666 16.6667 19.1666H3.33337C1.95267 19.1666 0.833374 18.0473 0.833374 16.6666V3.33325C0.833374 1.95254 1.95267 0.833252 3.33337 0.833252H16.6667ZM16.6667 2.49992C17.127 2.49992 17.5 2.87302 17.5 3.33325V16.6666C17.5 17.1268 17.127 17.4999 16.6667 17.4999H3.33337C2.87314 17.4999 2.50004 17.1268 2.50004 16.6666V3.33325C2.50004 2.87302 2.87314 2.49992 3.33337 2.49992H16.6667Z" fill="#0F0F0F"/>
</g>
<defs>
<clipPath id="clip0_13481_13879">
<rect width="20" height="20" fill="white"/>
</clipPath>
</defs>
</svg>
