<svg width="22" height="22" viewBox="0 0 22 22" fill="none" xmlns="http://www.w3.org/2000/svg">
<g id="location-pin (1) 1">
<path id="Vector" d="M10.9102 9.70937H10.9103C11.3013 9.70892 11.6762 9.55339 11.9527 9.27689C12.2292 9.0004 12.3847 8.62552 12.3852 8.23449V8.23437C12.3852 7.94265 12.2987 7.65747 12.1366 7.41491C11.9745 7.17235 11.7441 6.98329 11.4746 6.87165C11.2051 6.76001 10.9085 6.7308 10.6224 6.78772C10.3363 6.84463 10.0735 6.98511 9.86717 7.19139C9.66089 7.39767 9.52041 7.66049 9.4635 7.94662C9.40659 8.23274 9.4358 8.52931 9.54743 8.79883C9.65907 9.06835 9.84813 9.29872 10.0907 9.46079C10.3333 9.62287 10.6184 9.70937 10.9102 9.70937ZM9.4379 6.03098C9.87367 5.7398 10.386 5.58439 10.9101 5.58438C11.6127 5.58519 12.2863 5.86465 12.7831 6.36146C13.2799 6.85828 13.5594 7.53188 13.5602 8.23449C13.5601 8.75857 13.4047 9.27088 13.1136 9.70664C12.8224 10.1424 12.4085 10.4821 11.9243 10.6827C11.44 10.8832 10.9072 10.9357 10.3932 10.8335C9.87912 10.7312 9.40693 10.4788 9.03632 10.1082C8.66571 9.7376 8.41333 9.26541 8.31108 8.75136C8.20883 8.23731 8.2613 7.70449 8.46188 7.22026C8.66245 6.73604 9.00211 6.32217 9.4379 6.03098Z" fill="#CDDEE4" stroke="#00212D" stroke-width="0.2"/>
<path id="Vector_2" d="M10.8263 19.4574L10.9101 19.586L10.9939 19.4574L16.1035 11.6134C17.6934 9.17276 17.3525 5.90729 15.2929 3.84755C14.7173 3.27198 14.034 2.81541 13.282 2.50392C12.53 2.19242 11.724 2.0321 10.9101 2.0321C10.0961 2.0321 9.29012 2.19242 8.53812 2.50392C7.78612 2.81541 7.10283 3.27198 6.52728 3.84755L6.59799 3.91826L6.52728 3.84755C4.46763 5.90729 4.12671 9.17276 5.71657 11.6134L10.8263 19.4574ZM11.2935 0.867763C13.1139 0.962397 14.8346 1.72797 16.1237 3.01671C17.3195 4.21247 18.0678 5.78291 18.2434 7.46481C18.419 9.14672 18.0111 10.8379 17.088 12.2548L11.8926 20.2303C11.7861 20.3939 11.6405 20.5282 11.4689 20.6212C11.2973 20.7142 11.1052 20.7629 10.9101 20.7629C10.7149 20.7629 10.5228 20.7142 10.3512 20.6212C10.1797 20.5282 10.034 20.3939 9.92747 20.2303L4.73225 12.2548C3.7375 10.7274 3.3438 8.88558 3.62714 7.08493C3.91048 5.28428 4.85077 3.65241 6.26654 2.50428C7.68231 1.35614 9.47318 0.773129 11.2935 0.867763Z" fill="#CDDEE4" stroke="#00212D" stroke-width="0.2"/>
</g>
</svg>
