<svg width="142" height="32" viewBox="0 0 142 32" fill="none" xmlns="http://www.w3.org/2000/svg">
<g clip-path="url(#clip0_13481_12103)">
<path d="M50.1195 16.3771C50.1195 17.7773 49.574 18.8613 48.5004 19.6083C47.4789 20.3171 46.1065 20.675 44.4283 20.675C43.1809 20.675 42.1073 20.463 41.2352 20.0392C40.3527 19.6118 39.6648 19.0385 39.1922 18.3297C38.7232 17.6279 38.4556 16.8496 38.4 16.0192L38.3688 15.5536H41.2283L41.2769 15.9393C41.3186 16.3041 41.4506 16.6654 41.6661 17.0094C41.8676 17.343 42.1942 17.6174 42.632 17.8294C43.0836 18.0483 43.6986 18.1595 44.4526 18.1595C44.6889 18.1595 44.9911 18.1351 45.349 18.0865C45.6895 18.0379 46.0265 17.951 46.3427 17.8259C46.6311 17.7147 46.8674 17.5514 47.0654 17.3256C47.2357 17.131 47.3156 16.8809 47.3156 16.5577C47.3156 16.1651 47.1801 15.8837 46.8813 15.6752C46.5164 15.4146 46.0265 15.2062 45.4289 15.0568C44.7792 14.8969 44.0878 14.7371 43.3686 14.5842C42.6215 14.4244 41.9023 14.2159 41.2317 13.9588C40.516 13.6878 39.9219 13.2952 39.4667 12.7879C38.9803 12.2528 38.7336 11.5267 38.7336 10.6268C38.7336 9.32038 39.22 8.29193 40.1825 7.56229C41.1067 6.86392 42.4652 6.50952 44.2198 6.50952C45.415 6.50952 46.4122 6.70062 47.1835 7.08281C47.9618 7.465 48.5629 7.97228 48.9764 8.58031C49.3829 9.18835 49.6296 9.85197 49.7025 10.5538L49.7547 11.0368H46.9299L46.8813 10.6546C46.8257 10.2168 46.6103 9.84155 46.2211 9.51842C45.832 9.19182 45.1405 9.02505 44.1677 9.02505C41.5375 9.02505 41.5375 10.0952 41.5375 10.4496C41.5375 10.804 41.6695 11.0785 41.9614 11.273C42.3297 11.5197 42.8231 11.7178 43.4242 11.8707C44.0704 12.0305 44.7618 12.1868 45.4776 12.3293C46.2315 12.4787 46.9542 12.6906 47.6283 12.9547C48.344 13.2396 48.9382 13.6461 49.3933 14.1708C49.8763 14.7232 50.1195 15.4633 50.1195 16.3771Z" fill="black"/>
<path d="M63.8211 6.71289L55.8246 25.5741H52.781L55.3208 19.8482L49.8867 6.71289H52.9721L56.8287 16.537L60.7601 6.71289H63.8211Z" fill="black"/>
<path d="M76.6697 12.5343V20.47H73.8658V12.5864C73.8658 11.5232 73.5775 10.6963 72.9798 10.0605C72.3892 9.43507 71.6422 9.12931 70.6936 9.12931C70.0509 9.12931 69.4602 9.27524 68.946 9.56362C68.4317 9.852 68.0113 10.262 67.7021 10.7866C67.3929 11.3078 67.2365 11.9228 67.2365 12.6142V20.47H64.4326V6.71281H67.2365V8.02269C67.5492 7.72736 67.8932 7.45982 68.2684 7.22008C69.005 6.74755 69.9501 6.50781 71.0793 6.50781C72.0417 6.50781 72.9555 6.73713 73.7998 7.18881C74.6476 7.64744 75.346 8.33539 75.8741 9.23181C76.4022 10.1317 76.6697 11.2401 76.6697 12.5326V12.5343Z" fill="black"/>
<path d="M91.8272 13.5905C91.8272 12.2911 91.5493 11.0924 91.0038 10.0292C90.4548 8.95903 89.6626 8.09389 88.6446 7.46153C87.6231 6.82917 86.4001 6.50952 84.9998 6.50952C83.5996 6.50952 82.3975 6.82917 81.369 7.46153C80.344 8.09389 79.5449 8.95903 78.9925 10.0292C78.4504 11.0924 78.1725 12.2911 78.1725 13.5905C78.1725 14.89 78.4643 16.0748 79.0342 17.1484C79.6109 18.2255 80.4309 19.0941 81.4767 19.723C82.5191 20.3553 83.749 20.675 85.1284 20.675C86.7475 20.675 88.0956 20.2789 89.138 19.4937C90.1699 18.7189 90.9343 17.7043 91.4103 16.4813L91.6396 15.8906H88.6307L88.5091 16.1165C88.1998 16.6863 87.7655 17.1588 87.2096 17.5202C86.6676 17.8746 85.9762 18.0552 85.1527 18.0552C84.3744 18.0552 83.683 17.8885 83.0993 17.5584C82.5156 17.2248 82.0431 16.7731 81.6956 16.2138C81.4281 15.7794 81.2335 15.3034 81.1154 14.7996H91.8272V13.5905ZM81.1571 12.1278C81.376 11.3425 81.7651 10.6685 82.328 10.1126C82.9985 9.45241 83.8706 9.12928 84.9998 9.12928C86.1291 9.12928 87.0081 9.45241 87.6856 10.1126C88.2624 10.6754 88.6446 11.3391 88.8496 12.1278H81.1571Z" fill="black"/>
<path d="M100.951 6.50781V9.30825H100.284C99.412 9.30825 98.6824 9.53756 98.057 10.0066C97.4246 10.4826 96.9312 11.1115 96.5942 11.8724C96.2537 12.6472 96.08 13.4846 96.08 14.3636V20.4683H93.2761V6.71281H96.08V8.58555C96.2294 8.39098 96.4066 8.19294 96.6011 7.99837C97.0111 7.58838 97.5358 7.23398 98.1542 6.9456C98.7866 6.65374 99.5371 6.50781 100.385 6.50781H100.951Z" fill="black"/>
<path d="M111.835 6.71281V8.03659C111.47 7.69609 111.06 7.40423 110.605 7.16102C109.782 6.72671 108.788 6.50781 107.655 6.50781C106.328 6.50781 105.143 6.81704 104.142 7.4355C103.142 8.05048 102.357 8.89478 101.808 9.94755C101.262 10.9968 100.984 12.1851 100.984 13.4881C100.984 14.791 101.262 15.9584 101.808 17.0112C102.357 18.0744 103.142 18.9256 104.142 19.5406C105.143 20.1556 106.324 20.4683 107.655 20.4683C108.791 20.4683 109.785 20.239 110.612 19.7838C111.064 19.5337 111.474 19.2383 111.835 18.8978V19.5198C111.835 20.7185 111.536 21.6357 110.942 22.2438C110.351 22.8483 109.368 23.1575 108.017 23.1575C107.117 23.1575 106.373 22.9977 105.807 22.6815C105.254 22.3793 104.879 21.9623 104.657 21.4168L104.546 21.1458H101.519L101.703 21.7156C102.093 22.9213 102.843 23.9115 103.931 24.6585C105.015 25.4021 106.422 25.7773 108.121 25.7773C110.167 25.7773 111.779 25.2457 112.912 24.1929C114.059 23.1332 114.639 21.6044 114.639 19.6483V6.71281H111.835ZM107.916 17.8503C107.054 17.8503 106.311 17.6557 105.696 17.27C105.081 16.8878 104.605 16.3597 104.281 15.7065C103.955 15.0394 103.788 14.2924 103.788 13.4898C103.788 12.6872 103.955 11.9193 104.281 11.2592C104.605 10.6164 105.081 10.0917 105.696 9.70955C106.311 9.32388 107.058 9.12931 107.916 9.12931C108.774 9.12931 109.5 9.32388 110.087 9.7026C110.678 10.0883 111.14 10.6094 111.456 11.2557C111.776 11.9158 111.939 12.6663 111.939 13.4898C111.939 14.3132 111.776 15.0429 111.453 15.71C111.14 16.3632 110.678 16.8913 110.087 17.2735C109.5 17.6557 108.771 17.8503 107.916 17.8503Z" fill="black"/>
<path d="M128.222 7.14722L128.389 7.55373L128.563 7.14722H128.222Z" fill="black"/>
<path d="M128.042 6.71289L128.222 7.1472L128.389 7.55372L128.622 8.11658L128.858 7.55372L129.032 7.1472L129.216 6.71289H128.042Z" fill="black"/>
<path d="M128.622 8.11658L121.22 25.5741H118.176L120.716 19.8482L115.282 6.71289H118.367L122.224 16.537L126.153 6.71289H128.042L128.222 7.1472L128.389 7.55372L128.622 8.11658Z" fill="black"/>
<path d="M128.691 7.14722L128.858 7.55373L129.032 7.14722H128.691Z" fill="black"/>
<path d="M128.042 6.71289L128.222 7.1472L128.389 7.55372L128.622 8.11658L128.858 7.55372L129.032 7.1472L129.216 6.71289H128.042Z" fill="black"/>
<path d="M141.974 6.71289L133.98 25.5741H130.936L133.476 19.8482L128.622 8.11658L128.858 7.55372L129.032 7.1472L129.216 6.71289H131.127L134.984 16.537L138.913 6.71289H141.974Z" fill="black"/>
<mask id="mask0_13481_12103" style="mask-type:luminance" maskUnits="userSpaceOnUse" x="1" y="7" width="23" height="22">
<path d="M15.2113 9.42472C9.76506 7.12809 4.41087 7.58151 2.39567 10.8232C1.64509e-05 14.6781 3.22955 21.0208 9.61044 24.9887C14.5512 28.0584 19.9279 28.8054 23.22 27.2002" fill="white"/>
</mask>
<g mask="url(#mask0_13481_12103)">
<path d="M0 16.1948L12.6106 28.8055H0V16.1948Z" fill="#FB9955"/>
<path d="M0 15.8162L12.9894 28.8055H12.6106L0 16.1949V15.8162Z" fill="#FB9955"/>
<path d="M0 15.4375L13.3681 28.8056H12.9894L0 15.8162V15.4375Z" fill="#FB9A56"/>
<path d="M0 15.0586L13.7468 28.8054H13.3681L0 15.4373V15.0586Z" fill="#FB9A57"/>
<path d="M0 14.6799L14.1255 28.8054H13.7468L0 15.0587V14.6799Z" fill="#FB9B58"/>
<path d="M0 14.3013L14.506 28.8055H14.1255L0 14.68V14.3013Z" fill="#FB9B59"/>
<path d="M0 13.9209L14.8847 28.8056H14.506L0 14.3014V13.9209Z" fill="#FB9C5A"/>
<path d="M0 13.542L15.2634 28.8054H14.8847L0 13.9207V13.542Z" fill="#FB9C5B"/>
<path d="M0 13.1633L15.6421 28.8055H15.2634L0 13.542V13.1633Z" fill="#FB9D5C"/>
<path d="M0 12.7847L16.0208 28.8055H15.6421L0 13.1634V12.7847Z" fill="#FB9E5D"/>
<path d="M0 12.406L16.3996 28.8056H16.0208L0 12.7847V12.406Z" fill="#FB9E5E"/>
<path d="M0 12.0271L16.78 28.8054H16.3996L0 12.4058V12.0271Z" fill="#FB9F5F"/>
<path d="M0 11.6467L17.1587 28.8055H16.78L0 12.0272V11.6467Z" fill="#FB9F60"/>
<path d="M0 11.2681L17.5375 28.8055H17.1587L0 11.6468V11.2681Z" fill="#FBA061"/>
<path d="M0 11.011L0.0608035 10.9502L17.9162 28.8056H17.5375L0 11.2681V11.011Z" fill="#FBA162"/>
<path d="M0.060791 10.9501L0.25015 10.7607L18.2949 28.8055H17.9162L0.060791 10.9501Z" fill="#FBA163"/>
<path d="M0.250183 10.7606L0.439542 10.5713L18.6754 28.8054H18.2949L0.250183 10.7606Z" fill="#FBA264"/>
<path d="M0.439514 10.5714L0.628874 10.3821L19.0541 28.8055H18.6753L0.439514 10.5714Z" fill="#FBA265"/>
<path d="M0.628906 10.382L0.818266 10.1909L19.4328 28.8055H19.0541L0.628906 10.382Z" fill="#FBA366"/>
<path d="M0.818237 10.1908L1.0076 10.0015L19.8115 28.8054H19.4328L0.818237 10.1908Z" fill="#FBA367"/>
<path d="M1.00763 10.0016L1.19699 9.81226L20.1903 28.8055H19.8115L1.00763 10.0016Z" fill="#FBA468"/>
<path d="M1.19696 9.81216L1.38632 9.6228L20.5689 28.8054H20.1902L1.19696 9.81216Z" fill="#FBA569"/>
<path d="M1.38629 9.62295L1.57565 9.43359L20.9494 28.8056H20.5689L1.38629 9.62295Z" fill="#FBA56A"/>
<path d="M1.57568 9.4335L1.76678 9.24414L21.3281 28.8055H20.9494L1.57568 9.4335Z" fill="#FBA66B"/>
<path d="M1.76678 9.24405L1.95614 9.05469L21.7069 28.8054H21.3281L1.76678 9.24405Z" fill="#FBA66C"/>
<path d="M1.95612 9.05484L2.14548 8.86548L22.0855 28.8055H21.7068L1.95612 9.05484Z" fill="#FBA76D"/>
<path d="M2.14551 8.86538L2.33487 8.67603L22.4643 28.8055H22.0856L2.14551 8.86538Z" fill="#FBA76E"/>
<path d="M2.33484 8.67618L2.5242 8.48682L22.7196 28.6823L22.5963 28.8056H22.4643L2.33484 8.67618Z" fill="#FBA86F"/>
<path d="M2.712 8.29593L2.52283 8.48511L22.7192 28.6815L22.9084 28.4923L2.712 8.29593Z" fill="#FBA970"/>
<path d="M2.90133 8.10794L2.71216 8.29712L22.9085 28.4935L23.0977 28.3043L2.90133 8.10794Z" fill="#FBA971"/>
<path d="M2.90295 8.10809L3.09231 7.91699L23.2217 28.0464V28.1819L23.0984 28.3035L2.90295 8.10809Z" fill="#FBAA73"/>
<path d="M3.09229 7.9169L3.28164 7.72754L23.2217 27.6676V28.0463L3.09229 7.9169Z" fill="#FBAA74"/>
<path d="M3.28168 7.72745L3.47104 7.53809L23.2217 27.2888V27.6675L3.28168 7.72745Z" fill="#FBAB75"/>
<path d="M3.47101 7.53824L3.66037 7.34888L23.2217 26.9085V27.2889L3.47101 7.53824Z" fill="#FBAC76"/>
<path d="M3.66034 7.34878L3.8497 7.15942L23.2217 26.5297V26.9084L3.66034 7.34878Z" fill="#FBAC77"/>
<path d="M3.84973 7.15944L3.88274 7.12817H4.19892L23.2217 26.151V26.5297L3.84973 7.15944Z" fill="#FBAD78"/>
<path d="M4.57763 7.12817L23.2217 25.7723V26.151L4.19891 7.12817H4.57763Z" fill="#FBAD79"/>
<path d="M4.95636 7.12817L23.2217 25.3935V25.7723L4.57764 7.12817H4.95636Z" fill="#FBAE7A"/>
<path d="M5.33508 7.12817L23.2217 25.0148V25.3935L4.95636 7.12817H5.33508Z" fill="#FBAE7B"/>
<path d="M5.7138 7.12817L23.2217 24.6344V25.0148L5.33508 7.12817H5.7138Z" fill="#FBAF7C"/>
<path d="M6.09253 7.12817L23.2217 24.2556V24.6344L5.71381 7.12817H6.09253Z" fill="#FBB07D"/>
<path d="M6.47299 7.12817L23.2217 23.8769V24.2556L6.09253 7.12817H6.47299Z" fill="#FBB07E"/>
<path d="M6.85168 7.12817L23.2217 23.4982V23.8769L6.47296 7.12817H6.85168Z" fill="#FBB17F"/>
<path d="M7.2304 7.12817L23.2217 23.1195V23.4982L6.85168 7.12817H7.2304Z" fill="#FBB180"/>
<path d="M7.60913 7.12817L23.2217 22.7408V23.1195L7.23041 7.12817H7.60913Z" fill="#FBB281"/>
<path d="M7.98785 7.12817L23.2217 22.3603V22.7408L7.60913 7.12817H7.98785Z" fill="#FBB282"/>
<path d="M8.36657 7.12817L23.2217 21.9816V22.3603L7.98785 7.12817H8.36657Z" fill="#FBB383"/>
<path d="M8.74703 7.12817L23.2217 21.6029V21.9816L8.36658 7.12817H8.74703Z" fill="#FBB484"/>
<path d="M9.12573 7.12817L23.2217 21.2242V21.6029L8.74701 7.12817H9.12573Z" fill="#FBB485"/>
<path d="M9.50445 7.12817L23.2217 20.8454V21.2242L9.12573 7.12817H9.50445Z" fill="#FBB586"/>
<path d="M9.88317 7.12817L23.2217 20.465V20.8454L9.50446 7.12817H9.88317Z" fill="#FBB587"/>
<path d="M10.2619 7.12817L23.2217 20.0863V20.465L9.88318 7.12817H10.2619Z" fill="#FBB688"/>
<path d="M10.6406 7.12817L23.2217 19.7075V20.0863L10.2619 7.12817H10.6406Z" fill="#FBB789"/>
<path d="M11.0211 7.12817L23.2217 19.3288V19.7075L10.6406 7.12817H11.0211Z" fill="#FBB78A"/>
<path d="M11.3998 7.12817L23.2217 18.9501V19.3288L11.0211 7.12817H11.3998Z" fill="#FBB88B"/>
<path d="M11.7785 7.12817L23.2217 18.5714V18.9501L11.3998 7.12817H11.7785Z" fill="#FBB88C"/>
<path d="M12.1572 7.12817L23.2217 18.1909V18.5714L11.7785 7.12817H12.1572Z" fill="#FBB98D"/>
<path d="M12.5359 7.12817L23.2217 17.8122V18.1909L12.1572 7.12817H12.5359Z" fill="#FBB98E"/>
<path d="M12.9147 7.12817L23.2217 17.4335V17.8122L12.5359 7.12817H12.9147Z" fill="#FBBA8F"/>
<path d="M23.2217 17.4335L12.9147 7.12817H23.2217V17.4335Z" fill="#FBBA8F"/>
</g>
<mask id="mask1_13481_12103" style="mask-type:luminance" maskUnits="userSpaceOnUse" x="15" y="0" width="16" height="28">
<path d="M15.2113 9.42463C16.2415 9.85894 17.2751 10.3923 18.2914 11.0246C24.6723 14.9907 27.9036 21.3334 25.5062 25.1884C24.9642 26.0605 24.1824 26.7293 23.2217 27.1983C23.2217 27.1983 23.2217 27.1983 23.2252 27.1983C26.7588 25.9371 29.8684 21.184 30.7266 15.1697C31.7881 7.73081 29.005 1.18141 24.5108 0.540369C20.7375 8.69334e-05 16.959 3.79596 15.2113 9.42463Z" fill="white"/>
</mask>
<g mask="url(#mask1_13481_12103)">
<path d="M15.2113 19.1079L23.3034 27.1982H15.2113V19.1079Z" fill="#FBBB98"/>
<path d="M15.2113 18.8872L23.5223 27.1982H23.3034L15.2113 19.1078V18.8872Z" fill="#FBBB98"/>
<path d="M15.2113 18.6685L23.7412 27.1983H23.5223L15.2113 18.8873V18.6685Z" fill="#FBBA97"/>
<path d="M15.2113 18.4495L23.9618 27.1982H23.7412L15.2113 18.6684V18.4495Z" fill="#FBB996"/>
<path d="M15.2113 18.2307L24.1807 27.1984H23.9618L15.2113 18.4496V18.2307Z" fill="#FAB995"/>
<path d="M15.2113 18.0117L24.3996 27.1983H24.1807L15.2113 18.2306V18.0117Z" fill="#FAB894"/>
<path d="M15.2113 17.791L24.6185 27.1982H24.3996L15.2113 18.0116V17.791Z" fill="#FAB793"/>
<path d="M15.2113 17.5723L24.8374 27.1983H24.6185L15.2113 17.7912V17.5723Z" fill="#FAB692"/>
<path d="M15.2113 17.3533L25.058 27.1982H24.8374L15.2113 17.5722V17.3533Z" fill="#FAB691"/>
<path d="M15.2113 17.1345L25.2769 27.1984H25.058L15.2113 17.3534V17.1345Z" fill="#F9B590"/>
<path d="M15.2113 16.9155L25.4958 27.1983H25.2769L15.2113 17.1344V16.9155Z" fill="#F9B48F"/>
<path d="M15.2113 16.6948L25.7147 27.1982H25.4958L15.2113 16.9155V16.6948Z" fill="#F9B38E"/>
<path d="M15.2113 16.4761L25.9336 27.1983H25.7147L15.2113 16.695V16.4761Z" fill="#F9B38D"/>
<path d="M15.2113 16.2571L26.1542 27.1982H25.9336L15.2113 16.476V16.2571Z" fill="#F9B28C"/>
<path d="M15.2113 16.0383L26.3731 27.1984H26.1542L15.2113 16.2572V16.0383Z" fill="#F8B18B"/>
<path d="M15.2113 15.8193L26.5346 27.1409L26.4773 27.1983H26.3731L15.2113 16.0382V15.8193Z" fill="#F8B08A"/>
<path d="M15.2113 15.5986L26.6441 27.0314L26.5346 27.1409L15.2113 15.8193V15.5986Z" fill="#F8B089"/>
<path d="M15.2113 15.3799L26.7535 26.9221L26.6441 27.0316L15.2113 15.5988V15.3799Z" fill="#F8AF88"/>
<path d="M15.2113 15.1609L26.8647 26.8126L26.7535 26.922L15.2113 15.3798V15.1609Z" fill="#F8AE87"/>
<path d="M15.2113 14.9421L26.9742 26.7033L26.8647 26.8127L15.2113 15.161V14.9421Z" fill="#F7AD86"/>
<path d="M15.2113 14.7231L27.0836 26.5937L26.9742 26.7032L15.2113 14.942V14.7231Z" fill="#F7AD85"/>
<path d="M15.2113 14.5024L27.1931 26.4842L27.0836 26.5936L15.2113 14.7231V14.5024Z" fill="#F7AC84"/>
<path d="M15.2113 14.2837L27.3025 26.3749L27.1931 26.4843L15.2113 14.5026V14.2837Z" fill="#F7AB83"/>
<path d="M15.2113 14.0647L27.412 26.2636L27.3025 26.3748L15.2113 14.2836V14.0647Z" fill="#F7AA82"/>
<path d="M15.2113 13.8457L27.5214 26.1541L27.412 26.2635L15.2113 14.0646V13.8457Z" fill="#F6AA81"/>
<path d="M15.2113 13.627L27.6308 26.0448L27.5214 26.1542L15.2113 13.8458V13.627Z" fill="#F6A980"/>
<path d="M15.2113 13.4062L27.7403 25.9352L27.6308 26.0447L15.2113 13.6269V13.4062Z" fill="#F6A87F"/>
<path d="M15.2113 13.1875L27.8497 25.8259L27.7403 25.9354L15.2113 13.4064V13.1875Z" fill="#F6A77E"/>
<path d="M15.2113 12.9685L27.9609 25.7164L27.8497 25.8258L15.2113 13.1874V12.9685Z" fill="#F6A77D"/>
<path d="M15.2113 12.7495L28.0704 25.6068L27.9609 25.7163L15.2113 12.9684V12.7495Z" fill="#F5A67C"/>
<path d="M15.2113 12.5291L28.1798 25.4976L28.0704 25.607L15.2113 12.7497V12.5291Z" fill="#F5A57B"/>
<path d="M15.2113 12.3101L28.2893 25.388L28.1798 25.4975L15.2113 12.529V12.3101Z" fill="#F5A47A"/>
<path d="M15.2113 12.0913L28.3987 25.2787L28.2893 25.3882L15.2113 12.3102V12.0913Z" fill="#F5A479"/>
<path d="M15.2113 11.8723L28.5082 25.1674L28.3987 25.2786L15.2113 12.0912V11.8723Z" fill="#F5A378"/>
<path d="M15.2113 11.6533L28.6176 25.0579L28.5082 25.1673L15.2113 11.8722V11.6533Z" fill="#F4A277"/>
<path d="M15.2113 11.4329L28.727 24.9486L28.6176 25.0581L15.2113 11.6535V11.4329Z" fill="#F4A176"/>
<path d="M15.2113 11.2139L28.8365 24.8391L28.727 24.9485L15.2113 11.4328V11.2139Z" fill="#F4A175"/>
<path d="M15.2113 10.9951L28.9459 24.7298L28.8365 24.8392L15.2113 11.214V10.9951Z" fill="#F4A074"/>
<path d="M15.2113 10.7761L29.0571 24.6202L28.9459 24.7297L15.2113 10.995V10.7761Z" fill="#F39F73"/>
<path d="M15.2113 10.5571L29.1666 24.5107L29.0571 24.6201L15.2113 10.776V10.5571Z" fill="#F39E72"/>
<path d="M15.2113 10.3367L29.276 24.4014L29.1666 24.5108L15.2113 10.5573V10.3367Z" fill="#F39E71"/>
<path d="M15.2113 10.1177L29.3855 24.2918L29.276 24.4013L15.2113 10.3366V10.1177Z" fill="#F39D70"/>
<path d="M15.2113 9.89893L29.4949 24.1825L29.3855 24.292L15.2113 10.1178V9.89893Z" fill="#F39C6F"/>
<path d="M15.2113 9.67993L29.6044 24.0712L29.4949 24.1824L15.2113 9.89882V9.67993Z" fill="#F29B6E"/>
<path d="M15.2113 9.46094L29.7138 23.9617L29.6044 24.0711L15.2113 9.67983V9.46094Z" fill="#F29B6D"/>
<path d="M15.2113 9.24048L29.8232 23.8524L29.7138 23.9619L15.2113 9.46111V9.24048Z" fill="#F29A6C"/>
<path d="M15.2113 9.02148L29.9327 23.7429L29.8232 23.8523L15.2113 9.24038V9.02148Z" fill="#F2996B"/>
<path d="M15.2113 8.80249L30.0421 23.6333L29.9327 23.7428L15.2113 9.02138V8.80249Z" fill="#F2986A"/>
<path d="M15.2113 8.58374L30.1533 23.524L30.0421 23.6335L15.2113 8.80263V8.58374Z" fill="#F19869"/>
<path d="M15.2113 8.36475L30.2628 23.4145L30.1533 23.5239L15.2113 8.58364V8.36475Z" fill="#F19768"/>
<path d="M15.2113 8.14429L30.3722 23.3052L30.2628 23.4146L15.2113 8.36492V8.14429Z" fill="#F19667"/>
<path d="M15.2113 7.92529L30.4817 23.1957L30.3722 23.3051L15.2113 8.14419V7.92529Z" fill="#F19566"/>
<path d="M15.2113 7.7063L30.5911 23.0861L30.4817 23.1956L15.2113 7.92519V7.7063Z" fill="#F19565"/>
<path d="M15.2113 7.48755L30.7006 22.9751L30.5911 23.0862L15.2113 7.70644V7.48755Z" fill="#F09464"/>
<path d="M15.2113 7.26855L30.81 22.8655L30.7006 22.975L15.2113 7.48745V7.26855Z" fill="#F09363"/>
<path d="M15.2113 7.0481L30.9194 22.7562L30.81 22.8657L15.2113 7.26873V7.0481Z" fill="#F09262"/>
<path d="M15.2113 6.8291L31.0289 22.6467L30.9194 22.7561L15.2113 7.04799V6.8291Z" fill="#F09261"/>
<path d="M15.2113 6.61011L31.1383 22.5371L31.0289 22.6466L15.2113 6.829V6.61011Z" fill="#F09160"/>
<path d="M15.2113 6.39136L31.2495 22.4278L31.1383 22.5373L15.2113 6.61025V6.39136Z" fill="#EF905F"/>
<path d="M15.2113 6.17236L31.359 22.3183L31.2495 22.4277L15.2113 6.39126V6.17236Z" fill="#EF8F5E"/>
<path d="M15.2113 5.9519L31.4684 22.209L31.359 22.3185L15.2113 6.17253V5.9519Z" fill="#EF8F5D"/>
<path d="M15.2113 5.73291L31.5779 22.0995L31.4684 22.2089L15.2113 5.9518V5.73291Z" fill="#EF8E5C"/>
<path d="M15.2113 5.51392L31.6873 21.9899L31.5779 22.0994L15.2113 5.73281V5.51392Z" fill="#EF8D5B"/>
<path d="M15.2113 5.29517L31.7881 21.8719V21.8876L31.6873 21.9901L15.2113 5.51406V5.29517Z" fill="#EE8C5A"/>
<path d="M15.2113 5.07617L31.7881 21.6512V21.8718L15.2113 5.29506V5.07617Z" fill="#EE8C59"/>
<path d="M15.2113 4.85571L31.7881 21.4325V21.6514L15.2113 5.07634V4.85571Z" fill="#EE8B58"/>
<path d="M15.2113 4.63672L31.7881 21.2135V21.4324L15.2113 4.85561V4.63672Z" fill="#EE8A57"/>
<path d="M15.2113 4.54301L15.2738 4.48047L31.7881 20.9947V21.2136L15.2113 4.63682V4.54301Z" fill="#EE8956"/>
<path d="M15.2739 4.4803L15.3833 4.37085L31.7881 20.7756V20.9945L15.2739 4.4803Z" fill="#ED8954"/>
<path d="M15.3833 4.37092L15.4945 4.26147L31.7881 20.5551V20.7757L15.3833 4.37092Z" fill="#ED8853"/>
<path d="M15.4944 4.26155L15.6039 4.1521L31.788 20.3362V20.5551L15.4944 4.26155Z" fill="#ED8752"/>
<path d="M15.6039 4.15193L15.7134 4.04248L31.7881 20.1172V20.3361L15.6039 4.15193Z" fill="#ED8651"/>
<path d="M15.7134 4.04258L15.8228 3.9314L31.7881 19.8984V20.1173L15.7134 4.04258Z" fill="#ED8650"/>
<path d="M15.8228 3.93147L15.9323 3.82202L31.7881 19.6796V19.8985L15.8228 3.93147Z" fill="#EC854F"/>
<path d="M15.9323 3.82185L16.0417 3.7124L31.7881 19.4588V19.6794L15.9323 3.82185Z" fill="#EC844E"/>
<path d="M16.0417 3.71247L16.1511 3.60303L31.788 19.2399V19.4588L16.0417 3.71247Z" fill="#EC834D"/>
<path d="M16.1511 3.6031L16.2606 3.49365L31.788 19.0211V19.24L16.1511 3.6031Z" fill="#EC834C"/>
<path d="M16.2606 3.49348L16.3701 3.38403L31.7881 18.8021V19.0209L16.2606 3.49348Z" fill="#EC824B"/>
<path d="M16.3701 3.3841L16.4795 3.27466L31.7881 18.5832V18.8021L16.3701 3.3841Z" fill="#EB814A"/>
<path d="M16.4795 3.27473L16.5907 3.16528L31.7881 18.3627V18.5833L16.4795 3.27473Z" fill="#EB8049"/>
<path d="M16.5907 3.16535L16.7001 3.05591L31.7881 18.1439V18.3627L16.5907 3.16535Z" fill="#EB8048"/>
<path d="M16.7001 3.05574L16.8096 2.94629L31.7881 17.9248V18.1437L16.7001 3.05574Z" fill="#EB7F47"/>
<path d="M16.8096 2.94639L16.919 2.83521L31.7881 17.706V17.9249L16.8096 2.94639Z" fill="#EB7E46"/>
<path d="M16.919 2.83528L17.0285 2.72583L31.7881 17.4872V17.7061L16.919 2.83528Z" fill="#EA7D45"/>
<path d="M17.0284 2.72566L17.1379 2.61621L31.7881 17.2664V17.487L17.0284 2.72566Z" fill="#EA7D44"/>
<path d="M17.1379 2.61628L17.2473 2.50684L31.788 17.0476V17.2664L17.1379 2.61628Z" fill="#EA7C43"/>
<path d="M17.2474 2.50691L17.3568 2.39746L31.7881 16.8287V17.0476L17.2474 2.50691Z" fill="#EA7B42"/>
<path d="M17.3568 2.39729L17.4663 2.28784L31.7881 16.6097V16.8286L17.3568 2.39729Z" fill="#EA7A41"/>
<path d="M17.4662 2.28791L17.5757 2.17847L31.7881 16.3908V16.6097L17.4662 2.28791Z" fill="#E97A40"/>
<path d="M17.5757 2.17854L17.6869 2.06909L31.7881 16.1703V16.3909L17.5757 2.17854Z" fill="#E9793F"/>
<path d="M17.6869 2.06916L17.7963 1.95972L31.7881 15.9515V16.1704L17.6869 2.06916Z" fill="#E9783E"/>
<path d="M17.7963 1.95954L17.9058 1.8501L31.7881 15.7324V15.9513L17.7963 1.95954Z" fill="#E9773D"/>
<path d="M17.9058 1.8502L18.0152 1.73901L31.7881 15.5136V15.7325L17.9058 1.8502Z" fill="#E9773C"/>
<path d="M18.0152 1.73908L18.1246 1.62964L31.7881 15.2948V15.5137L18.0152 1.73908Z" fill="#E8763B"/>
<path d="M18.1246 1.62947L18.2341 1.52002L31.788 15.074V15.2946L18.1246 1.62947Z" fill="#E8753A"/>
<path d="M18.2341 1.52009L18.3436 1.41064L31.7881 14.8552V15.0741L18.2341 1.52009Z" fill="#E87439"/>
<path d="M18.3436 1.41072L18.453 1.30127L31.7881 14.6363V14.8552L18.3436 1.41072Z" fill="#E87438"/>
<path d="M18.453 1.3011L18.5624 1.19165L31.7881 14.4173V14.6362L18.453 1.3011Z" fill="#E87337"/>
<path d="M18.5624 1.19172L18.6719 1.08228L31.7881 14.1985V14.4173L18.5624 1.19172Z" fill="#E77236"/>
<path d="M18.6719 1.08235L18.7831 0.9729L31.7881 13.9779V14.1985L18.6719 1.08235Z" fill="#E77135"/>
<path d="M18.7831 0.972972L18.8925 0.863525L31.7881 13.7591V13.978L18.7831 0.972972Z" fill="#E77134"/>
<path d="M18.8925 0.863352L19.002 0.753906L31.7881 13.54V13.7589L18.8925 0.863352Z" fill="#E77033"/>
<path d="M19.002 0.754006L19.1114 0.642822L31.7881 13.3212V13.5401L19.002 0.754006Z" fill="#E66F32"/>
<path d="M19.1114 0.642894L19.2208 0.533447L31.788 13.1024V13.3213L19.1114 0.642894Z" fill="#E66E31"/>
<path d="M19.2209 0.533274L19.3303 0.423828L31.7881 12.8816V13.1022L19.2209 0.533274Z" fill="#E66E30"/>
<path d="M19.3303 0.423899L19.4398 0.314453L31.7881 12.6628V12.8817L19.3303 0.423899Z" fill="#E66D2F"/>
<path d="M19.4398 0.314524L19.5492 0.205078L31.7881 12.4439V12.6628L19.4398 0.314524Z" fill="#E66C2E"/>
<path d="M19.5492 0.204905L19.6586 0.095459L31.7881 12.2249V12.4438L19.5492 0.204905Z" fill="#E56B2D"/>
<path d="M19.6586 0.0955483L19.7542 0H19.7837L31.7881 12.0061V12.225L19.6586 0.0955483Z" fill="#E56B2C"/>
<path d="M20.0026 0L31.7881 11.7855V12.0061L19.7838 0H20.0026Z" fill="#E56A2B"/>
<path d="M20.2215 0L31.7881 11.5666V11.7854L20.0026 0H20.2215Z" fill="#E5692A"/>
<path d="M20.4404 0L31.7881 11.3477V11.5666L20.2215 0H20.4404Z" fill="#E56829"/>
<path d="M20.6593 0L31.7881 11.1288V11.3477L20.4404 0H20.6593Z" fill="#E46828"/>
<path d="M20.8799 0L31.7881 10.9099V11.1288L20.6593 0H20.8799Z" fill="#E46727"/>
<path d="M21.0988 0L31.7881 10.6893V10.9099L20.8799 0H21.0988Z" fill="#E46626"/>
<path d="M21.3177 0L31.7881 10.4704V10.6893L21.0988 0H21.3177Z" fill="#E46525"/>
<path d="M21.5366 0L31.788 10.2515V10.4704L21.3177 0H21.5366Z" fill="#E46524"/>
<path d="M21.7555 0L31.7881 10.0326V10.2515L21.5366 0H21.7555Z" fill="#E36423"/>
<path d="M21.9761 0L31.7881 9.81368V10.0326L21.7555 0H21.9761Z" fill="#E36322"/>
<path d="M22.195 0L31.7881 9.59305V9.81368L21.9761 0H22.195Z" fill="#E36221"/>
<path d="M22.4139 0L31.7881 9.37416V9.59305L22.195 0H22.4139Z" fill="#E36220"/>
<path d="M22.6328 0L31.7881 9.15527V9.37416L22.4139 0H22.6328Z" fill="#E3611F"/>
<path d="M22.8517 0L31.7881 8.93637V9.15527L22.6328 0H22.8517Z" fill="#E2601E"/>
<path d="M23.0723 0L31.7881 8.71748V8.93637L22.8517 0H23.0723Z" fill="#E25F1D"/>
<path d="M23.2912 0L31.7881 8.49685V8.71748L23.0723 0H23.2912Z" fill="#E25F1C"/>
<path d="M23.5101 0L31.788 8.27796V8.49685L23.2912 0H23.5101Z" fill="#E25E1B"/>
<path d="M23.729 0L31.7881 8.05907V8.27796L23.5101 0H23.729Z" fill="#E25D1A"/>
<path d="M23.9479 0L31.7881 7.84017V8.05907L23.729 0H23.9479Z" fill="#E15C19"/>
<path d="M24.1685 0L31.788 7.62128V7.84017L23.9479 0H24.1685Z" fill="#E15C18"/>
<path d="M24.3874 0L31.7881 7.40065V7.62128L24.1685 0H24.3874Z" fill="#E15B17"/>
<path d="M24.6063 0L31.788 7.18176V7.40065L24.3874 0H24.6063Z" fill="#E15A16"/>
<path d="M24.8252 0L31.7881 6.96287V7.18176L24.6063 0H24.8252Z" fill="#E15915"/>
<path d="M25.0441 0L31.7881 6.74397V6.96287L24.8252 0H25.0441Z" fill="#E05914"/>
<path d="M25.2647 0L31.788 6.52508V6.74397L25.0441 0H25.2647Z" fill="#E05813"/>
<path d="M25.4836 0L31.7881 6.30445V6.52508L25.2647 0H25.4836Z" fill="#E05712"/>
<path d="M31.7881 6.30445L25.4836 0H31.7881V6.30445Z" fill="#E05712"/>
</g>
<mask id="mask2_13481_12103" style="mask-type:luminance" maskUnits="userSpaceOnUse" x="14" y="9" width="13" height="19">
<path d="M25.5062 25.1883C24.9642 26.0604 24.1824 26.7292 23.2217 27.1983C22.3861 27.4971 21.5244 27.5996 20.6645 27.4762C16.1703 26.8335 13.3872 20.2823 14.4487 12.8452C14.6206 11.6482 14.8795 10.5034 15.213 9.42456C16.2432 9.85887 17.2769 10.3922 18.2932 11.0246C24.6741 14.9907 27.9053 21.3334 25.5079 25.1883H25.5062Z" fill="white"/>
</mask>
<g mask="url(#mask2_13481_12103)">
<path d="M13.3855 19.0801L18.1073 27.5995H13.3855V19.0801Z" fill="#FB8F50"/>
<path d="M13.3855 18.7222L18.3071 27.5995H18.1073L13.3855 19.08V18.7222Z" fill="#FB8F50"/>
<path d="M13.3855 18.3628L18.5051 27.5997H18.3071L13.3855 18.7224V18.3628Z" fill="#FB8F50"/>
<path d="M13.3855 18.0049L18.7049 27.5997H18.5051L13.3855 18.3628V18.0049Z" fill="#FB8F50"/>
<path d="M13.3855 17.6453L18.903 27.5997H18.7049L13.3855 18.0049V17.6453Z" fill="#FB8E4F"/>
<path d="M13.3855 17.2874L19.1028 27.5996H18.903L13.3855 17.6452V17.2874Z" fill="#FB8E4F"/>
<path d="M13.3855 16.9277L19.3008 27.5996H19.1028L13.3855 17.2873V16.9277Z" fill="#FA8E4F"/>
<path d="M13.3855 16.5681L19.5006 27.5996H19.3008L13.3855 16.9277V16.5681Z" fill="#FA8D4E"/>
<path d="M13.3855 16.2102L19.6986 27.5996H19.5006L13.3855 16.5681V16.2102Z" fill="#FA8D4E"/>
<path d="M13.3855 15.8506L19.8984 27.5996H19.6986L13.3855 16.2102V15.8506Z" fill="#FA8C4D"/>
<path d="M13.3855 15.4927L20.0965 27.5995H19.8984L13.3855 15.8505V15.4927Z" fill="#FA8C4D"/>
<path d="M13.3855 15.1331L20.2962 27.5995H20.0965L13.3855 15.4927V15.1331Z" fill="#F98B4C"/>
<path d="M13.3855 14.7751L20.4943 27.5995H20.2962L13.3855 15.133V14.7751Z" fill="#F98B4B"/>
<path d="M13.3855 14.4158L20.6941 27.5997H20.4943L13.3855 14.7754V14.4158Z" fill="#F98A4B"/>
<path d="M13.3855 14.0579L20.8921 27.5997H20.6941L13.3855 14.4157V14.0579Z" fill="#F88A4A"/>
<path d="M13.3855 13.6982L21.0919 27.5997H20.8921L13.3855 14.0579V13.6982Z" fill="#F88949"/>
<path d="M13.3855 13.3386L21.29 27.5996H21.0919L13.3855 13.6982V13.3386Z" fill="#F88849"/>
<path d="M13.3855 12.9807L21.4897 27.5996H21.2899L13.3855 13.3386V12.9807Z" fill="#F78848"/>
<path d="M13.3855 12.6211L21.6878 27.5996H21.4897L13.3855 12.9807V12.6211Z" fill="#F78747"/>
<path d="M13.3855 12.2632L21.8876 27.5996H21.6878L13.3855 12.6211V12.2632Z" fill="#F78646"/>
<path d="M13.3855 11.9036L22.0856 27.5995H21.8876L13.3855 12.2632V11.9036Z" fill="#F68545"/>
<path d="M13.3855 11.5457L22.2854 27.5995H22.0856L13.3855 11.9035V11.5457Z" fill="#F68545"/>
<path d="M13.3855 11.186L22.4834 27.5995H22.2854L13.3855 11.5456V11.186Z" fill="#F68444"/>
<path d="M13.3855 10.8284L22.6832 27.5997H22.4834L13.3855 11.1862V10.8284Z" fill="#F58343"/>
<path d="M13.3855 10.4688L22.8813 27.5997H22.6832L13.3855 10.8284V10.4688Z" fill="#F58242"/>
<path d="M13.3855 10.1091L23.081 27.5997H22.8813L13.3855 10.4687V10.1091Z" fill="#F48141"/>
<path d="M13.3855 9.75122L23.2791 27.5996H23.081L13.3855 10.1091V9.75122Z" fill="#F48140"/>
<path d="M13.3855 9.64183L13.4915 9.58276L23.4789 27.5997H23.2791L13.3855 9.75128V9.64183Z" fill="#F4803F"/>
<path d="M13.4915 9.58266L13.6443 9.49927L23.6769 27.5996H23.4789L13.4915 9.58266Z" fill="#F37F3E"/>
<path d="M13.6443 9.49926L13.7781 9.42456H13.8007L23.8767 27.5996H23.6769L13.6443 9.49926Z" fill="#F37E3D"/>
<path d="M14.0005 9.42456L24.0678 27.5874L24.047 27.5996H23.8767L13.8007 9.42456H14.0005Z" fill="#F27D3C"/>
<path d="M14.1985 9.42456L24.2207 27.504L24.0678 27.5874L14.0005 9.42456H14.1985Z" fill="#F27C3B"/>
<path d="M14.3983 9.42456L24.3718 27.4189L24.2207 27.504L14.1985 9.42456H14.3983Z" fill="#F17B3A"/>
<path d="M14.5964 9.42456L24.5247 27.3338L24.3718 27.4189L14.3983 9.42456H14.5964Z" fill="#F17A39"/>
<path d="M14.7962 9.42456L24.6776 27.2504L24.5247 27.3338L14.5964 9.42456H14.7962Z" fill="#F07938"/>
<path d="M14.9942 9.42456L24.8287 27.1653L24.6776 27.2504L14.7961 9.42456H14.9942Z" fill="#F07836"/>
<path d="M15.194 9.42456L24.9816 27.0819L24.8287 27.1653L14.9942 9.42456H15.194Z" fill="#EF7735"/>
<path d="M15.392 9.42456L25.1327 26.9968L24.9816 27.0819L15.194 9.42456H15.392Z" fill="#EF7634"/>
<path d="M15.5918 9.42456L25.2856 26.9134L25.1327 26.9968L15.392 9.42456H15.5918Z" fill="#EE7533"/>
<path d="M15.7898 9.42456L25.4385 26.8283L25.2856 26.9134L15.5918 9.42456H15.7898Z" fill="#EE7432"/>
<path d="M15.9896 9.42456L25.5896 26.7449L25.4385 26.8283L15.7899 9.42456H15.9896Z" fill="#ED7331"/>
<path d="M16.1877 9.42456L25.7425 26.6597L25.5896 26.7449L15.9896 9.42456H16.1877Z" fill="#ED712F"/>
<path d="M16.3875 9.42456L25.8937 26.5764L25.7425 26.6597L16.1877 9.42456H16.3875Z" fill="#EC702E"/>
<path d="M16.5855 9.42456L26.0465 26.4912L25.8936 26.5764L16.3875 9.42456H16.5855Z" fill="#EC6F2D"/>
<path d="M16.7853 9.42456L26.1977 26.4061L26.0465 26.4912L16.5855 9.42456H16.7853Z" fill="#EB6E2C"/>
<path d="M16.9833 9.42456L26.3505 26.3227L26.1977 26.4061L16.7853 9.42456H16.9833Z" fill="#EB6D2A"/>
<path d="M17.1831 9.42456L26.5034 26.2376L26.3505 26.3227L16.9833 9.42456H17.1831Z" fill="#EA6C29"/>
<path d="M17.3812 9.42456L26.6545 26.1542L26.5034 26.2376L17.1831 9.42456H17.3812Z" fill="#E96B28"/>
<path d="M17.5809 9.42456L26.8074 26.0691L26.6546 26.1542L17.3812 9.42456H17.5809Z" fill="#E96926"/>
<path d="M17.779 9.42456L26.9586 25.9857L26.8074 26.0691L17.5809 9.42456H17.779Z" fill="#E86825"/>
<path d="M17.9788 9.42456L27.1115 25.9006L26.9586 25.9857L17.779 9.42456H17.9788Z" fill="#E86724"/>
<path d="M18.1768 9.42456L27.2643 25.8172L27.1114 25.9006L17.9788 9.42456H18.1768Z" fill="#E76622"/>
<path d="M18.3766 9.42456L27.4155 25.732L27.2643 25.8172L18.1768 9.42456H18.3766Z" fill="#E66421"/>
<path d="M18.5746 9.42456L27.5683 25.6469L27.4155 25.7321L18.3766 9.42456H18.5746Z" fill="#E6631F"/>
<path d="M18.7744 9.42456L27.7195 25.5635L27.5683 25.6469L18.5746 9.42456H18.7744Z" fill="#E5621E"/>
<path d="M18.9725 9.42456L27.8724 25.4784L27.7195 25.5635L18.7744 9.42456H18.9725Z" fill="#E5601C"/>
<path d="M19.1723 9.42456L27.9036 25.1779V25.461L27.8724 25.4784L18.9725 9.42456H19.1723Z" fill="#E45F1B"/>
<path d="M19.3703 9.42456L27.9036 24.8183V25.1779L19.1722 9.42456H19.3703Z" fill="#E35E1A"/>
<path d="M19.5701 9.42456L27.9036 24.4604V24.8183L19.3703 9.42456H19.5701Z" fill="#E35C18"/>
<path d="M19.7681 9.42456L27.9036 24.1008V24.4604L19.5701 9.42456H19.7681Z" fill="#E25B17"/>
<path d="M19.9679 9.42456L27.9036 23.7412V24.1008L19.7681 9.42456H19.9679Z" fill="#E15A15"/>
<path d="M20.1659 9.42456L27.9036 23.3833V23.7412L19.9679 9.42456H20.1659Z" fill="#E15814"/>
<path d="M20.3657 9.42456L27.9036 23.0237V23.3833L20.166 9.42456H20.3657Z" fill="#E05712"/>
<path d="M27.9036 23.0237L20.3657 9.42456H27.9036V23.0237Z" fill="#E05712"/>
</g>
<mask id="mask3_13481_12103" style="mask-type:luminance" maskUnits="userSpaceOnUse" x="20" y="24" width="13" height="8">
<path d="M32.6845 24.8966C32.6845 24.8966 32.6845 24.9087 32.6845 24.9157C32.681 25.0407 32.648 25.1571 32.5924 25.2596C32.5924 25.2596 32.5924 25.2631 32.589 25.2648L32.5629 25.31L32.4882 25.4334C32.4152 25.515 32.3232 25.581 32.2189 25.6262C32.1616 25.6505 32.1008 25.6627 32.04 25.6662C31.9879 25.6696 31.9323 25.6766 31.8715 25.6853C30.89 25.826 28.6698 26.6268 25.7338 28.5187C24.1564 29.535 22.7249 30.6347 21.7208 31.5901C21.2986 31.9914 20.6402 32.0019 20.2007 31.6179C20.1017 31.5311 20.0496 31.4095 20.0496 31.2861C20.0496 31.1767 20.0895 31.0672 20.1712 30.9804C21.2604 29.8355 22.956 28.4926 24.9069 27.2366C26.6893 26.0883 29.6426 24.4813 31.6161 24.1982C31.6613 24.1912 31.7082 24.186 31.7516 24.1808C31.8211 24.1721 31.8889 24.1669 31.9549 24.1617C32.0834 24.153 32.2137 24.1808 32.3232 24.2503C32.5386 24.3858 32.681 24.6238 32.681 24.8966H32.6845Z" fill="white"/>
</mask>
<g mask="url(#mask3_13481_12103)">
<path d="M20.2528 24.1531H20.0496V32.0002H20.2528V24.1531Z" fill="#FB8F50"/>
<path d="M20.4561 24.1531H20.2528V32.0002H20.4561V24.1531Z" fill="#FB8F50"/>
<path d="M20.6611 24.1531H20.4578V32.0002H20.6611V24.1531Z" fill="#FB8F50"/>
<path d="M20.8643 24.1531H20.6611V32.0002H20.8643V24.1531Z" fill="#FB8E4F"/>
<path d="M21.0676 24.1531H20.8643V32.0002H21.0676V24.1531Z" fill="#FB8E4F"/>
<path d="M21.2726 24.1531H21.0693V32.0002H21.2726V24.1531Z" fill="#FA8E4F"/>
<path d="M21.4758 24.1531H21.2726V32.0002H21.4758V24.1531Z" fill="#FA8D4E"/>
<path d="M21.6791 24.1531H21.4758V32.0002H21.6791V24.1531Z" fill="#FA8D4E"/>
<path d="M21.8841 24.1531H21.6808V32.0002H21.8841V24.1531Z" fill="#FA8C4D"/>
<path d="M22.0874 24.1531H21.8841V32.0002H22.0874V24.1531Z" fill="#FA8C4D"/>
<path d="M22.2906 24.1531H22.0873V32.0002H22.2906V24.1531Z" fill="#F98B4C"/>
<path d="M22.4938 24.1531H22.2906V32.0002H22.4938V24.1531Z" fill="#F98B4B"/>
<path d="M22.6989 24.1531H22.4956V32.0002H22.6989V24.1531Z" fill="#F98A4B"/>
<path d="M22.9021 24.1531H22.6989V32.0002H22.9021V24.1531Z" fill="#F88A4A"/>
<path d="M23.1054 24.1531H22.9021V32.0002H23.1054V24.1531Z" fill="#F88949"/>
<path d="M23.3104 24.1531H23.1071V32.0002H23.3104V24.1531Z" fill="#F88849"/>
<path d="M23.5136 24.1531H23.3104V32.0002H23.5136V24.1531Z" fill="#F78848"/>
<path d="M23.7169 24.1531H23.5136V32.0002H23.7169V24.1531Z" fill="#F78747"/>
<path d="M23.9219 24.1531H23.7186V32.0002H23.9219V24.1531Z" fill="#F78646"/>
<path d="M24.1251 24.1531H23.9219V32.0002H24.1251V24.1531Z" fill="#F68545"/>
<path d="M24.3284 24.1531H24.1251V32.0002H24.3284V24.1531Z" fill="#F68545"/>
<path d="M24.5316 24.1531H24.3284V32.0002H24.5316V24.1531Z" fill="#F68444"/>
<path d="M24.7366 24.1531H24.5334V32.0002H24.7366V24.1531Z" fill="#F58343"/>
<path d="M24.9399 24.1531H24.7366V32.0002H24.9399V24.1531Z" fill="#F58242"/>
<path d="M25.1431 24.1531H24.9399V32.0002H25.1431V24.1531Z" fill="#F48141"/>
<path d="M25.3482 24.1531H25.1449V32.0002H25.3482V24.1531Z" fill="#F48140"/>
<path d="M25.5514 24.1531H25.3481V32.0002H25.5514V24.1531Z" fill="#F4803F"/>
<path d="M25.7546 24.1531H25.5514V32.0002H25.7546V24.1531Z" fill="#F37F3E"/>
<path d="M25.9579 24.1531H25.7546V32.0002H25.9579V24.1531Z" fill="#F37E3D"/>
<path d="M26.1629 24.1531H25.9597V32.0002H26.1629V24.1531Z" fill="#F27D3C"/>
<path d="M26.3662 24.1531H26.1629V32.0002H26.3662V24.1531Z" fill="#F27C3B"/>
<path d="M26.5694 24.1531H26.3661V32.0002H26.5694V24.1531Z" fill="#F17B3A"/>
<path d="M26.7744 24.1531H26.5712V32.0002H26.7744V24.1531Z" fill="#F17A39"/>
<path d="M26.9777 24.1531H26.7744V32.0002H26.9777V24.1531Z" fill="#F07938"/>
<path d="M27.1809 24.1531H26.9777V32.0002H27.1809V24.1531Z" fill="#F07836"/>
<path d="M27.3859 24.1531H27.1827V32.0002H27.3859V24.1531Z" fill="#EF7735"/>
<path d="M27.5892 24.1531H27.3859V32.0002H27.5892V24.1531Z" fill="#EF7634"/>
<path d="M27.7924 24.1531H27.5892V32.0002H27.7924V24.1531Z" fill="#EE7533"/>
<path d="M27.9957 24.1531H27.7924V32.0002H27.9957V24.1531Z" fill="#EE7432"/>
<path d="M28.2007 24.1531H27.9974V32.0002H28.2007V24.1531Z" fill="#ED7331"/>
<path d="M28.4039 24.1531H28.2007V32.0002H28.4039V24.1531Z" fill="#ED712F"/>
<path d="M28.6072 24.1531H28.4039V32.0002H28.6072V24.1531Z" fill="#EC702E"/>
<path d="M28.8122 24.1531H28.6089V32.0002H28.8122V24.1531Z" fill="#EC6F2D"/>
<path d="M29.0155 24.1531H28.8122V32.0002H29.0155V24.1531Z" fill="#EB6E2C"/>
<path d="M29.2187 24.1531H29.0154V32.0002H29.2187V24.1531Z" fill="#EB6D2A"/>
<path d="M29.4237 24.1531H29.2205V32.0002H29.4237V24.1531Z" fill="#EA6C29"/>
<path d="M29.627 24.1531H29.4237V32.0002H29.627V24.1531Z" fill="#E96B28"/>
<path d="M29.8302 24.1531H29.627V32.0002H29.8302V24.1531Z" fill="#E96926"/>
<path d="M30.0335 24.1531H29.8303V32.0002H30.0335V24.1531Z" fill="#E86825"/>
<path d="M30.2385 24.1531H30.0352V32.0002H30.2385V24.1531Z" fill="#E86724"/>
<path d="M30.4417 24.1531H30.2385V32.0002H30.4417V24.1531Z" fill="#E76622"/>
<path d="M30.645 24.1531H30.4418V32.0002H30.645V24.1531Z" fill="#E66421"/>
<path d="M30.85 24.1531H30.6467V32.0002H30.85V24.1531Z" fill="#E6631F"/>
<path d="M31.0532 24.1531H30.85V32.0002H31.0532V24.1531Z" fill="#E5621E"/>
<path d="M31.2565 24.1531H31.0532V32.0002H31.2565V24.1531Z" fill="#E5601C"/>
<path d="M31.4615 24.1531H31.2582V32.0002H31.4615V24.1531Z" fill="#E45F1B"/>
<path d="M31.6647 24.1531H31.4615V32.0002H31.6647V24.1531Z" fill="#E35E1A"/>
<path d="M31.868 24.1531H31.6647V32.0002H31.868V24.1531Z" fill="#E35C18"/>
<path d="M32.0713 24.1531H31.868V32.0002H32.0713V24.1531Z" fill="#E25B17"/>
<path d="M32.2763 24.1531H32.073V32.0002H32.2763V24.1531Z" fill="#E15A15"/>
<path d="M32.4795 24.1531H32.2762V32.0002H32.4795V24.1531Z" fill="#E15814"/>
<path d="M32.6828 24.1531H32.4796V32.0002H32.6828V24.1531Z" fill="#E05712"/>
</g>
</g>
<defs>
<clipPath id="clip0_13481_12103">
<rect width="141.974" height="32" fill="white"/>
</clipPath>
</defs>
</svg>
