<svg width="296" height="214" viewBox="0 0 296 214" fill="none" xmlns="http://www.w3.org/2000/svg">
<path d="M141.382 24.8178L69.2679 81.9351L224.892 82.0774L152.463 24.8048C150.886 23.5556 148.932 22.8768 146.919 22.8792C144.906 22.8816 142.955 23.5649 141.382 24.8178Z" fill="#EBEBEB"/>
<path d="M68.3704 82.2452L141.186 24.5804C142.813 23.2812 144.835 22.5743 146.919 22.576C149.003 22.5778 151.025 23.2881 152.651 24.59L225.797 82.424L68.3704 82.2452ZM149.006 23.4083C147.726 23.0902 146.389 23.0722 145.101 23.3559C143.813 23.6395 142.608 24.217 141.582 25.0433L70.1597 81.6286L223.997 81.7688L152.278 25.0375C151.312 24.2762 150.194 23.7304 148.999 23.4369L149.006 23.4083Z" fill="#E0E0E0"/>
<path d="M69.2646 81.9365L225.436 82.0804L225.416 166.613C225.415 168.286 224.749 169.891 223.564 171.073C222.379 172.255 220.771 172.919 219.096 172.917L75.5607 172.785C73.885 172.783 72.278 172.117 71.0934 170.933C69.9088 169.748 69.2435 168.142 69.2439 166.469L69.2646 81.9365Z" fill="#F0F0F0"/>
<path d="M215.295 84.185L151.389 123.469L78.6915 86.9672L80.0455 43.9833C80.0823 41.7578 80.9932 39.6364 82.5819 38.0765C84.1706 36.5166 86.3099 35.6431 88.5385 35.6444L206.836 35.7562C207.952 35.7563 209.056 35.9761 210.087 36.4031C211.118 36.83 212.054 37.4558 212.842 38.2444C213.631 39.0331 214.256 39.9692 214.682 40.9991C215.108 42.0291 215.326 43.1327 215.325 44.2468L215.295 84.185Z" fill="white"/>
<path d="M145.413 117.638L69.1725 165.694C69.1722 166.606 69.3517 167.509 69.701 168.352C70.0502 169.195 70.5622 169.96 71.2078 170.606C71.8533 171.251 72.6197 171.763 73.4633 172.112C74.3068 172.462 75.2109 172.642 76.1239 172.642L218.557 172.77C220.4 172.771 222.167 172.042 223.47 170.742C224.774 169.442 225.507 167.678 225.508 165.838L225.507 165.303L153.334 117.718C152.161 116.944 150.79 116.524 149.384 116.51C147.979 116.496 146.6 116.888 145.413 117.638Z" fill="#E0E0E0"/>
<path d="M140.494 54.9877L94.2119 54.9531L94.2116 59.6726L140.493 59.7072L140.494 54.9877Z" fill="#E0E0E0"/>
<path d="M196.898 66.9947L94.2109 66.918L94.2106 72.2502L196.897 72.3269L196.898 66.9947Z" fill="#E0E0E0"/>
<path d="M196.899 80.022L94.2119 79.9453L94.2115 85.2776L196.898 85.3543L196.899 80.022Z" fill="#E0E0E0"/>
<path d="M194.882 96.7846L191.1 99.054L104.639 100.015L94.6481 94.8963L94.5337 93.6474L196.89 93.7271L196.894 95.4948L194.882 96.7846Z" fill="#E0E0E0"/>
<path d="M168.853 112.733L130.02 112.697L119.475 107.361L177.514 107.405L168.853 112.733Z" fill="#E0E0E0"/>
<path d="M142.629 119.385C142.629 119.385 142.574 119.438 142.449 119.523L141.896 119.889L139.764 121.27L131.887 126.308C125.225 130.543 115.997 136.392 105.801 142.782C95.6043 149.172 86.2814 154.864 79.5065 158.919C76.1191 160.947 73.3651 162.58 71.459 163.69L69.2626 164.964L68.6834 165.287C68.6209 165.329 68.5531 165.364 68.4818 165.389C68.539 165.339 68.6007 165.296 68.6662 165.258L69.2282 164.907L71.383 163.58L79.3833 158.731C86.1281 154.625 95.4152 148.907 105.63 142.515C115.845 136.123 125.076 130.36 131.758 126.118L139.681 121.164L141.837 119.832L142.408 119.494C142.561 119.417 142.629 119.385 142.629 119.385Z" fill="#FAFAFA"/>
<path d="M225.509 165.292C225.461 165.365 210.047 155.312 191.083 142.839C172.12 130.365 156.784 120.193 156.833 120.12C156.881 120.047 172.297 130.094 191.26 142.567C210.224 155.041 225.559 165.213 225.509 165.292Z" fill="#FAFAFA"/>
<path d="M218.342 82.2846C218.298 82.3276 218.249 82.3664 218.198 82.4004L217.779 82.715L216.047 83.8803L209.626 88.1028C204.194 91.649 196.653 96.485 188.247 101.719C179.841 106.952 172.135 111.571 166.555 114.88L159.926 118.765L158.111 119.801L157.638 120.065C157.527 120.123 157.471 120.151 157.467 120.144C157.515 120.104 157.567 120.068 157.621 120.037L158.077 119.744L159.862 118.658L166.433 114.686C171.989 111.328 179.638 106.665 188.043 101.437C196.448 96.2093 204.001 91.4247 209.468 87.93L215.941 83.7932L217.708 82.6793L218.175 82.3947C218.226 82.3512 218.282 82.3143 218.342 82.2846Z" fill="#FAFAFA"/>
<path d="M142.629 119.385C142.562 119.365 142.498 119.336 142.437 119.301L141.899 119.021L139.751 117.879C137.916 116.899 135.243 115.499 131.927 113.798C125.306 110.381 116.079 105.805 105.875 100.785C95.6703 95.7642 86.4578 91.1551 79.8622 87.6839C76.5608 85.9504 73.9007 84.5225 72.0796 83.51L69.9822 82.3377L69.451 82.0292C69.3869 81.9981 69.3272 81.9587 69.2734 81.9121L69.4638 82.0021L70.0036 82.2762L72.1511 83.4185C73.9922 84.3995 76.6665 85.7946 79.9808 87.5009C86.6021 90.9179 95.8231 95.4927 106.033 100.514C116.244 105.536 125.45 110.144 132.046 113.615C135.347 115.348 138.009 116.771 139.828 117.789L141.92 118.96L142.451 119.268L142.629 119.385Z" fill="#FAFAFA"/>
<path d="M215.295 84.1851C215.295 84.1851 215.285 83.9822 215.283 83.5749L215.268 81.853C215.259 80.3268 215.25 78.0961 215.236 75.2209L215.187 50.849C215.184 49.561 215.182 48.243 215.181 46.8949C215.183 46.2276 215.184 45.5417 215.179 44.8543C215.18 44.5085 215.181 44.1627 215.156 43.8226C215.147 43.4792 215.11 43.1371 215.047 42.7994C214.799 41.3755 214.184 40.0405 213.262 38.926C212.34 37.8115 211.143 36.956 209.79 36.4439C209.091 36.1636 208.357 35.9807 207.609 35.9003C206.856 35.8463 206.073 35.8638 205.291 35.857L200.512 35.8803L190.54 35.8544L146.207 35.8568L101.834 35.8005L91.8723 35.7832L89.4399 35.7842C88.6582 35.7531 87.8753 35.7917 87.1006 35.8994C85.5959 36.1488 84.1882 36.8036 83.029 37.7931C82.4675 38.2744 81.9703 38.826 81.5499 39.4342C81.1486 40.0385 80.8212 40.6888 80.5747 41.3709C80.0597 42.7301 80.1128 44.1763 80.0556 45.5767C79.9633 48.3872 79.8742 51.079 79.7882 53.6522C79.4432 63.9427 79.1632 72.264 78.9677 78.0259C78.8592 80.9011 78.7844 83.129 78.7345 84.6466C78.6995 85.3969 78.6773 85.9742 78.6634 86.3715C78.6495 86.7687 78.624 86.9688 78.624 86.9688C78.624 86.9688 78.6195 86.7673 78.6291 86.3629C78.6386 85.9585 78.6523 85.3912 78.6687 84.6424C78.7085 83.1162 78.7719 80.8854 78.8503 78.0088C79.0158 72.2455 79.2614 63.9157 79.5622 53.6323C79.6438 51.0601 79.7195 48.3649 79.8066 45.5511C79.8595 44.1678 79.8064 42.6731 80.3385 41.2696C80.5848 40.562 80.9201 39.8886 81.3365 39.2657C81.7707 38.6382 82.2825 38.068 82.8599 37.5688C83.4473 37.0606 84.1033 36.6375 84.8088 36.3119C85.5196 35.9685 86.2772 35.7318 87.0573 35.6094C87.8464 35.4959 88.6443 35.455 89.441 35.4869L91.8734 35.4859L101.852 35.5076L146.231 35.5409L190.604 35.5972L200.566 35.6145L205.336 35.6254C206.12 35.6266 206.89 35.6119 207.679 35.6688C208.823 35.7792 209.934 36.1164 210.947 36.6607C211.96 37.205 212.854 37.9455 213.577 38.8388C214.497 39.9775 215.109 41.3321 215.357 42.7736C215.423 43.1216 215.461 43.4742 215.471 43.8282C215.493 44.1797 215.492 44.5255 215.491 44.8713C215.49 45.5573 215.484 46.2418 215.486 46.9163C215.485 48.2638 215.479 49.58 215.48 50.8675L215.422 75.2551C215.406 78.1289 215.396 80.361 215.388 81.8829C215.382 82.6403 215.378 83.2162 215.371 83.6092C215.365 84.0022 215.295 84.1851 215.295 84.1851Z" fill="#E0E0E0"/>
<path d="M95.6035 45.9352C94.4511 48.0781 92.6882 49.8312 90.5376 50.9728C88.387 52.1144 85.9454 52.5933 83.5214 52.3489C81.0973 52.1045 78.7998 51.1477 76.9193 49.5997C75.0388 48.0516 73.6598 45.9817 72.9566 43.6517C72.2534 41.3217 72.2577 38.8363 72.9688 36.5096C73.6799 34.183 75.0659 32.1197 76.9517 30.5805C78.8374 29.0414 81.1382 28.0956 83.563 27.8627C85.9879 27.6298 88.4279 28.1202 90.5746 29.272C93.4526 30.8181 95.599 33.4417 96.542 36.5663C97.485 39.6909 97.1474 43.0608 95.6035 45.9352Z" fill="#0D6211"/>
<path d="M90.7742 34.7379C90.9647 34.8764 88.6121 38.5342 85.5148 42.9112C85.059 43.5444 84.599 44.1462 84.199 44.7508L83.9661 45.0753L83.6396 44.8482C80.1357 42.3903 77.6081 40.455 77.721 40.2949C77.8339 40.1349 80.5457 41.7943 84.0982 44.1793L83.5374 44.2824C83.9546 43.682 84.3874 43.0674 84.8317 42.4313C87.9247 38.0472 90.5838 34.6237 90.7742 34.7379Z" fill="white"/>
</svg>
