<svg width="32" height="24" viewBox="0 0 32 24" fill="none" xmlns="http://www.w3.org/2000/svg">
<g id="Frame 1000003102">
<g id="&#240;&#159;&#166;&#134; icon &#34;burger menu&#34;">
<path id="Vector" d="M5.5 10.5C5.10218 10.5 4.72064 10.658 4.43934 10.9393C4.15804 11.2206 4 11.6022 4 12C4 12.3978 4.15804 12.7794 4.43934 13.0607C4.72064 13.342 5.10218 13.5 5.5 13.5V10.5ZM26.5 13.5C26.8978 13.5 27.2794 13.342 27.5607 13.0607C27.842 12.7794 28 12.3978 28 12C28 11.6022 27.842 11.2206 27.5607 10.9393C27.2794 10.658 26.8978 10.5 26.5 10.5V13.5ZM5.5 3C5.10218 3 4.72064 3.15804 4.43934 3.43934C4.15804 3.72064 4 4.10218 4 4.5C4 4.89782 4.15804 5.27936 4.43934 5.56066C4.72064 5.84196 5.10218 6 5.5 6V3ZM26.5 6C26.8978 6 27.2794 5.84196 27.5607 5.56066C27.842 5.27936 28 4.89782 28 4.5C28 4.10218 27.842 3.72064 27.5607 3.43934C27.2794 3.15804 26.8978 3 26.5 3V6ZM5.5 18C5.10218 18 4.72064 18.158 4.43934 18.4393C4.15804 18.7206 4 19.1022 4 19.5C4 19.8978 4.15804 20.2794 4.43934 20.5607C4.72064 20.842 5.10218 21 5.5 21V18ZM26.5 21C26.8978 21 27.2794 20.842 27.5607 20.5607C27.842 20.2794 28 19.8978 28 19.5C28 19.1022 27.842 18.7206 27.5607 18.4393C27.2794 18.158 26.8978 18 26.5 18V21ZM5.5 13.5H26.5V10.5H5.5V13.5ZM5.5 6H26.5V3H5.5V6ZM5.5 21H26.5V18H5.5V21Z" fill="#00141B"/>
</g>
</g>
</svg>
