<svg width="22" height="16" viewBox="0 0 22 16" fill="none" xmlns="http://www.w3.org/2000/svg">
<g id="Frame 1000003102">
<g id="&#240;&#159;&#166;&#134; icon &#34;burger menu&#34;">
<path id="Vector" d="M1.99935 6.66667C1.64573 6.66667 1.30659 6.80714 1.05654 7.05719C0.806492 7.30724 0.666016 7.64638 0.666016 8C0.666016 8.35362 0.806492 8.69276 1.05654 8.94281C1.30659 9.19286 1.64573 9.33333 1.99935 9.33333V6.66667ZM20.666 9.33333C21.0196 9.33333 21.3588 9.19286 21.6088 8.94281C21.8589 8.69276 21.9993 8.35362 21.9993 8C21.9993 7.64638 21.8589 7.30724 21.6088 7.05719C21.3588 6.80714 21.0196 6.66667 20.666 6.66667V9.33333ZM1.99935 0C1.64573 0 1.30659 0.140476 1.05654 0.390525C0.806492 0.640573 0.666016 0.979711 0.666016 1.33333C0.666016 1.68696 0.806492 2.02609 1.05654 2.27614C1.30659 2.52619 1.64573 2.66667 1.99935 2.66667V0ZM20.666 2.66667C21.0196 2.66667 21.3588 2.52619 21.6088 2.27614C21.8589 2.02609 21.9993 1.68696 21.9993 1.33333C21.9993 0.979711 21.8589 0.640573 21.6088 0.390525C21.3588 0.140476 21.0196 0 20.666 0V2.66667ZM1.99935 13.3333C1.64573 13.3333 1.30659 13.4738 1.05654 13.7239C0.806492 13.9739 0.666016 14.313 0.666016 14.6667C0.666016 15.0203 0.806492 15.3594 1.05654 15.6095C1.30659 15.8595 1.64573 16 1.99935 16V13.3333ZM20.666 16C21.0196 16 21.3588 15.8595 21.6088 15.6095C21.8589 15.3594 21.9993 15.0203 21.9993 14.6667C21.9993 14.313 21.8589 13.9739 21.6088 13.7239C21.3588 13.4738 21.0196 13.3333 20.666 13.3333V16ZM1.99935 9.33333H20.666V6.66667H1.99935V9.33333ZM1.99935 2.66667H20.666V0H1.99935V2.66667ZM1.99935 16H20.666V13.3333H1.99935V16Z" fill="#F9FAFB"/>
</g>
</g>
</svg>
