<svg width="49" height="49" viewBox="0 0 49 49" fill="none" xmlns="http://www.w3.org/2000/svg">
<g id="1">
<g id="Layer 2">
<g id="Layer 1">
<path id="Vector" d="M21.4019 14.0493C13.0746 10.5409 4.895 11.2318 1.8159 16.1848C-1.85353 22.0836 3.08824 31.7703 12.8376 37.8346C20.3889 42.5304 28.6066 43.6686 33.6333 41.2134" fill="url(#paint0_linear_8687_62524)"/>
<path id="Vector_2" d="M21.4023 14.05C23.0292 14.7405 24.5993 15.5577 26.0981 16.494C35.8498 22.5561 40.7871 32.2473 37.1221 38.1394C36.2747 39.4757 35.0628 40.5418 33.6293 41.2118C39.0295 39.2843 43.7812 32.0215 45.0938 22.8311C46.7149 11.4651 42.4641 1.45408 35.5926 0.470196C29.8436 -0.352686 24.07 5.44774 21.4023 14.05Z" fill="url(#paint1_linear_8687_62524)"/>
<path id="Vector_3" d="M37.1322 38.1383C36.2851 39.474 35.0741 40.5399 33.6417 41.2107C32.3938 41.6725 31.051 41.8185 29.733 41.6355C22.8659 40.6539 18.6106 30.6429 20.234 19.2746C20.4863 17.5047 20.8774 15.7574 21.4035 14.0488C23.0304 14.7393 24.6005 15.5565 26.0993 16.4929C35.8599 22.5549 40.7972 32.2462 37.1322 38.1383Z" fill="url(#paint2_linear_8687_62524)"/>
<path id="Vector_4" d="M48.098 37.6931V37.7222C48.0942 37.9059 48.0467 38.086 47.9594 38.2477L47.9191 38.317L47.8051 38.5071C47.6908 38.6334 47.5504 38.7334 47.3936 38.8C47.3069 38.8358 47.2146 38.8563 47.1208 38.8604C47.0426 38.8604 46.9554 38.876 46.8637 38.8895C45.3633 39.1131 41.9689 40.3295 37.4833 43.2208C35.3024 44.5994 33.2496 46.171 31.3497 47.9166C31.0374 48.212 30.6261 48.3802 30.1962 48.388C29.7664 48.3959 29.3492 48.2429 29.0264 47.9591C28.9553 47.8955 28.8987 47.8176 28.8601 47.7305C28.8215 47.6433 28.802 47.549 28.8028 47.4537C28.8023 47.2794 28.8697 47.1118 28.9906 46.9863C30.6542 45.2355 33.2392 43.185 36.2266 41.2642C38.939 39.5245 43.4537 37.0648 46.4679 36.6176L46.6759 36.5907C46.781 36.5773 46.8861 36.5684 46.9867 36.5617C47.1833 36.5456 47.3799 36.5926 47.5479 36.6958C47.7176 36.8008 47.8574 36.9477 47.9537 37.1224C48.0501 37.2971 48.0998 37.4936 48.098 37.6931Z" fill="#E95B09"/>
</g>
</g>
</g>
<defs>
<linearGradient id="paint0_linear_8687_62524" x1="10.0201" y1="36.2627" x2="26.8154" y2="19.4673" gradientUnits="userSpaceOnUse">
<stop stop-color="#F9AD50"/>
<stop offset="0.32" stop-color="#F9A94E"/>
<stop offset="0.6" stop-color="#F99F48"/>
<stop offset="0.87" stop-color="#F98D3E"/>
<stop offset="1" stop-color="#F98137"/>
</linearGradient>
<linearGradient id="paint1_linear_8687_62524" x1="23.0749" y1="30.6485" x2="45.5857" y2="8.13775" gradientUnits="userSpaceOnUse">
<stop stop-color="#F38744"/>
<stop offset="0.25" stop-color="#F38341"/>
<stop offset="0.47" stop-color="#F17939"/>
<stop offset="0.68" stop-color="#EF662B"/>
<stop offset="0.88" stop-color="#EB4D17"/>
<stop offset="1" stop-color="#E93B09"/>
</linearGradient>
<linearGradient id="paint2_linear_8687_62524" x1="20.2094" y1="31.6916" x2="34.6255" y2="23.6998" gradientUnits="userSpaceOnUse">
<stop stop-color="#F3761D"/>
<stop offset="0.22" stop-color="#F16F1A"/>
<stop offset="0.52" stop-color="#EB5D13"/>
<stop offset="0.88" stop-color="#E23F07"/>
<stop offset="1" stop-color="#DE3302"/>
</linearGradient>
</defs>
</svg>
