<svg width="20" height="21" viewBox="0 0 20 21" fill="none" xmlns="http://www.w3.org/2000/svg">
<path d="M10 3.93229C8.15905 3.93229 6.66667 5.42468 6.66667 7.26562C6.66667 9.10657 8.15905 10.599 10 10.599C11.8409 10.599 13.3333 9.10657 13.3333 7.26562C13.3333 5.42468 11.8409 3.93229 10 3.93229ZM5 7.26562C5 4.5042 7.23858 2.26562 10 2.26562C12.7614 2.26562 15 4.5042 15 7.26562C15 10.027 12.7614 12.2656 10 12.2656C7.23858 12.2656 5 10.027 5 7.26562ZM6.66667 15.599C5.28595 15.599 4.16667 16.7182 4.16667 18.099C4.16667 18.5592 3.79357 18.9323 3.33333 18.9323C2.8731 18.9323 2.5 18.5592 2.5 18.099C2.5 15.7978 4.36548 13.9323 6.66667 13.9323H13.3333C15.6345 13.9323 17.5 15.7978 17.5 18.099C17.5 18.5592 17.1269 18.9323 16.6667 18.9323C16.2064 18.9323 15.8333 18.5592 15.8333 18.099C15.8333 16.7182 14.714 15.599 13.3333 15.599H6.66667Z" fill="#FAFAFA"/>
</svg>
