<svg width="41" height="40" viewBox="0 0 41 40" fill="none" xmlns="http://www.w3.org/2000/svg">
<g clip-path="url(#clip0_8523_59507)">
<path d="M12.5534 10.5859L11.5371 9.02344C4.50586 13.7497 0.599609 19.4922 0.599609 24.2184C0.599609 28.7884 3.95961 30.9372 6.81086 30.9372C10.4046 30.9372 12.9434 27.8897 12.9434 24.6872C12.9434 21.9922 11.2246 19.6872 8.91961 18.8272C8.25586 18.5922 7.63086 18.3972 7.63086 17.2647C7.63086 15.8197 8.68586 13.6722 12.5534 10.5859ZM28.0609 10.5859L27.0446 9.02344C20.0909 13.7497 16.1071 19.4922 16.1071 24.2184C16.1071 28.7884 19.5446 30.9372 22.3959 30.9372C26.0284 30.9372 28.6071 27.8897 28.6071 24.6872C28.6071 21.9922 26.8496 19.6872 24.4659 18.8272C23.8021 18.5922 23.2159 18.3972 23.2159 17.2647C23.2159 15.8197 24.3096 13.6709 28.0596 10.5847L28.0609 10.5859Z" fill="#ECE2DC"/>
</g>
<defs>
<clipPath id="clip0_8523_59507">
<rect width="40" height="40" fill="white" transform="translate(0.599609)"/>
</clipPath>
</defs>
</svg>
