<svg width="228" height="227" viewBox="0 0 228 227" fill="none" xmlns="http://www.w3.org/2000/svg">
<g id="Mobile UI-UX-rafiki 1">
<g id="freepik--background-simple--inject-31">
<g id="Group">
<path id="Vector" d="M185.251 48.9556C183.245 42.3958 179.155 36.1206 172.84 30.6178C165.397 24.1322 153.886 17.5967 139.084 19.9521C111.757 24.3006 111.673 42.1016 93.1578 38.9802C72.1852 35.4446 47.7575 38.7146 41.3686 56.9268C29.2338 91.5183 105.89 131.201 147.209 118.588C172.932 110.736 195.9 83.7867 185.251 48.9556Z" fill="url(#paint0_linear_10047_28924)"/>
<path id="Vector_2" opacity="0.9" d="M185.251 48.9556C183.245 42.3958 179.155 36.1206 172.84 30.6178C165.397 24.1322 153.886 17.5967 139.084 19.9521C111.757 24.3006 111.673 42.1016 93.1578 38.9802C72.1852 35.4446 47.7575 38.7146 41.3686 56.9268C29.2338 91.5183 105.89 131.201 147.209 118.588C172.932 110.736 195.9 83.7867 185.251 48.9556Z" fill="white"/>
</g>
</g>
<g id="freepik--Shadow--inject-31">
<path id="Vector_3" d="M213.244 204.737C213.244 208.307 170.788 211.201 118.415 211.201C66.0424 211.201 23.5859 208.307 23.5859 204.737C23.5859 201.167 66.0424 198.273 118.415 198.273C170.788 198.273 213.244 201.167 213.244 204.737Z" fill="#F5F5F5"/>
</g>
<g id="freepik--Text--inject-31">
<g id="Group_2">
<path id="Vector_4" d="M200.721 129.859H191.305C189.102 129.859 187.316 131.645 187.316 133.848V143.264C187.316 145.467 189.102 147.252 191.305 147.252H200.721C202.924 147.252 204.709 145.467 204.709 143.264V133.848C204.709 131.645 202.924 129.859 200.721 129.859Z" fill="url(#paint1_linear_10047_28924)"/>
<path id="Vector_5" opacity="0.5" d="M200.721 129.859H191.305C189.102 129.859 187.316 131.645 187.316 133.848V143.264C187.316 145.467 189.102 147.252 191.305 147.252H200.721C202.924 147.252 204.709 145.467 204.709 143.264V133.848C204.709 131.645 202.924 129.859 200.721 129.859Z" fill="white"/>
<g id="Group_3">
<path id="Vector_6" d="M194.476 139.992H191.979L191.538 141.137H189.285L192.157 134.566H194.335L197.208 141.137H194.917L194.476 139.992ZM193.866 138.396L193.228 136.744L192.589 138.396H193.866Z" fill="url(#paint2_linear_10047_28924)"/>
<path id="Vector_7" d="M202.578 138.379V141.139H200.606V140.463C200.362 140.979 199.874 141.233 199.152 141.233C197.894 141.233 197.246 140.519 197.246 139.637C197.246 138.642 197.997 138.088 199.593 138.088H200.447C200.381 137.694 200.081 137.487 199.48 137.487C199.02 137.487 198.504 137.637 198.166 137.891L197.49 136.492C198.091 136.117 199.001 135.91 199.799 135.91C201.564 135.91 202.578 136.671 202.578 138.379ZM200.456 139.468V139.111H199.931C199.48 139.111 199.283 139.261 199.283 139.543C199.283 139.778 199.471 139.956 199.79 139.956C200.081 139.956 200.344 139.806 200.456 139.468Z" fill="url(#paint3_linear_10047_28924)"/>
</g>
</g>
</g>
<g id="freepik--Image--inject-31">
<g id="Group_4">
<path id="Vector_8" d="M188.799 110.258H172.969C171.702 110.258 170.676 111.284 170.676 112.551V125.768C170.676 127.034 171.702 128.061 172.969 128.061H188.799C190.065 128.061 191.091 127.034 191.091 125.768V112.551C191.091 111.284 190.065 110.258 188.799 110.258Z" fill="url(#paint4_linear_10047_28924)"/>
<path id="Vector_9" opacity="0.6" d="M188.799 110.258H172.969C171.702 110.258 170.676 111.284 170.676 112.551V125.768C170.676 127.034 171.702 128.061 172.969 128.061H188.799C190.065 128.061 191.091 127.034 191.091 125.768V112.551C191.091 111.284 190.065 110.258 188.799 110.258Z" fill="white"/>
<path id="Vector_10" d="M186.31 118.565L181.505 122.327L178.531 120.562C177.979 120.235 177.282 120.285 176.784 120.689L170.7 125.61C170.675 126.957 171.759 128.063 173.106 128.065L188.677 128.088C190.016 128.073 191.093 126.983 191.093 125.644V120.151L188.054 118.434C187.5 118.121 186.812 118.173 186.31 118.565Z" fill="url(#paint5_linear_10047_28924)"/>
<path id="Vector_11" d="M184.025 115.71C184.025 116.929 183.061 117.917 181.87 117.917C180.68 117.917 179.715 116.929 179.715 115.71C179.715 114.492 180.68 113.504 181.87 113.504C183.061 113.504 184.025 114.492 184.025 115.71Z" fill="url(#paint6_linear_10047_28924)"/>
</g>
</g>
<g id="freepik--Colors--inject-31">
<path id="Vector_12" d="M183.066 131.473H177.602V136.937H183.066V131.473Z" fill="url(#paint7_linear_10047_28924)"/>
<path id="Vector_13" d="M183.066 138.203H177.602V143.668H183.066V138.203Z" fill="#263238"/>
<g id="Group_5">
<path id="Vector_14" d="M199.547 114.539H194.082V120.004H199.547V114.539Z" fill="url(#paint8_linear_10047_28924)"/>
<path id="Vector_15" opacity="0.8" d="M199.547 114.539H194.082V120.004H199.547V114.539Z" fill="white"/>
</g>
</g>
<g id="freepik--Speech_Bubble--inject-31">
<g id="Group_6">
<g id="Group_7">
<path id="Vector_16" d="M50.9087 43.4798C54.2583 39.7566 59.9918 39.4537 63.7148 42.8033C67.438 46.1528 67.7409 51.8863 64.3914 55.6094C61.8055 58.4837 57.8015 59.3099 54.3958 58.0004L51.9735 59.2455L51.702 56.3807C51.6638 56.3475 51.6229 56.3197 51.5851 56.2858C47.8621 52.9364 47.5593 47.2028 50.9087 43.4798Z" fill="url(#paint9_linear_10047_28924)"/>
<g id="Group_8" opacity="0.3">
<path id="Vector_17" d="M50.9087 43.4798C54.2583 39.7566 59.9918 39.4537 63.7148 42.8033C67.438 46.1528 67.7409 51.8863 64.3914 55.6094C61.8055 58.4837 57.8015 59.3099 54.3958 58.0004L51.9735 59.2455L51.702 56.3807C51.6638 56.3475 51.6229 56.3197 51.5851 56.2858C47.8621 52.9364 47.5593 47.2028 50.9087 43.4798Z" fill="white"/>
</g>
<path id="Vector_18" d="M51.8122 41.0664C49.2377 42.5031 47.4791 45.3049 47.3047 48.248" stroke="url(#paint10_linear_10047_28924)" stroke-width="0.5" stroke-linecap="round" stroke-linejoin="round"/>
<path id="Vector_19" d="M47.2711 49.6016C47.2112 50.0473 47.2447 50.5052 47.3686 50.9375" stroke="url(#paint11_linear_10047_28924)" stroke-width="0.5" stroke-linecap="round" stroke-linejoin="round"/>
</g>
<path id="Vector_20" d="M57.3159 53.186L53.4883 49.693L54.7072 48.3574L57.2739 50.6997L61.5387 46.5352L62.8019 47.8288L57.3159 53.186Z" fill="white"/>
</g>
</g>
<g id="freepik--Character_1--inject-31">
<g id="Group_9">
<g id="Group_10">
<g id="Group_11">
<path id="Vector_21" d="M81.5124 89.9179C81.5124 89.9179 80.9416 88.7911 81.2781 87.8024C81.6146 86.8136 81.6202 85.9346 81.9212 85.2168C82.2222 84.4991 82.548 85.4978 82.6139 86.0642C82.6797 86.6305 82.7601 87.2718 83.1775 87.1535C83.5949 87.0353 86.2032 84.3673 86.8006 84.2693C87.3979 84.1711 87.111 84.7346 87.111 84.7346C87.111 84.7346 87.7619 84.1038 88.0821 84.2935C88.1652 84.3428 88.2787 84.5924 88.0271 84.9264C87.4611 85.6777 86.1921 87.1936 86.1921 87.1936C86.2632 87.1051 87.9632 85.346 88.2522 85.1157C88.63 84.8148 88.9615 84.8655 89.1288 85.0903C89.3669 85.4101 87.3335 87.663 87.3142 87.8179C87.3142 87.8179 88.4415 86.4818 88.9457 86.584C89.4498 86.6863 88.786 87.5661 88.0535 88.2307C87.3819 88.8399 86.2239 90.211 85.4811 90.7641C84.5658 91.4458 83.7981 91.6978 82.8613 91.1806C81.9244 90.6634 81.5124 89.9179 81.5124 89.9179Z" fill="#E9B376"/>
<path id="Vector_22" opacity="0.3" d="M87.0087 84.8008C86.4997 85.3195 86.0144 85.8614 85.5547 86.4243" stroke="black" stroke-width="0.25" stroke-linecap="round" stroke-linejoin="round"/>
<path id="Vector_23" opacity="0.3" d="M86.8942 88.3533C86.4202 87.543 85.7028 86.8772 84.8594 86.4648" stroke="black" stroke-width="0.25" stroke-linecap="round" stroke-linejoin="round"/>
<path id="Vector_24" opacity="0.3" d="M83.2538 87.6172C83.4841 87.9226 83.6039 88.3097 83.5862 88.6918C83.5686 89.074 83.4137 89.4484 83.1562 89.7313" stroke="black" stroke-width="0.25" stroke-linecap="round" stroke-linejoin="round"/>
</g>
<path id="Vector_25" d="M60.7578 84.1218C60.7578 84.1218 62.7051 83.786 65.961 87.3422C70.0763 91.837 73.4037 95.205 73.4037 95.205L82.1361 89.0379L84.2998 91.1755C84.2998 91.1755 76.1525 101.296 74.1117 101.836C72.071 102.376 71.1829 101.687 69.8624 100.607C68.5419 99.5266 60.319 91.2436 60.499 91.3036C60.6791 91.3636 60.7578 84.1218 60.7578 84.1218Z" fill="#EBB373"/>
</g>
<path id="Vector_26" d="M63.4436 195.677C63.414 195.412 62.4603 189.859 62.4603 189.859L57.1406 191.07L58.6421 196.752L62.2829 197.367L63.4436 195.677Z" fill="#EBB373"/>
<path id="Vector_27" d="M20.3792 89.4375C20.6472 89.6015 30.1031 97.8003 30.2125 97.7457C30.3218 97.691 40.1057 89.9841 40.7069 89.7108C41.3082 89.4375 44.4405 94.9034 44.1588 94.9034C43.8771 94.9034 34.5335 103.129 30.6365 103.347C26.7395 103.566 18.4688 90.8587 18.4688 90.8587L20.3792 89.4375Z" fill="#EBB373"/>
<path id="Vector_28" d="M102.361 184.731L99.1277 187.546L91.7305 181.116L94.9639 178.297L102.361 184.731Z" fill="#EBB373"/>
<g id="Group_12">
<path id="Vector_29" d="M96.2052 186.441L97.4048 185.232C97.6762 184.959 98.0658 184.843 98.4469 184.9C100.091 185.148 100.251 184.266 100.108 182.62C100.53 182.082 101.212 182.501 101.4 182.609L105.585 184.967C105.937 185.161 106.066 185.604 105.872 185.957C105.838 186.019 105.794 186.077 105.743 186.127C104.286 187.595 103.597 188.29 101.784 190.117L96.2387 195.707C94.7271 197.23 92.8782 196.023 93.3588 195.254C95.5351 191.813 96.6873 188.991 96.7317 187.304C96.7484 187 96.476 187.059 96.2052 186.441Z" fill="#263238"/>
<path id="Vector_30" d="M95.038 188.72C95.5694 188.638 96.0908 188.5 96.5937 188.309C96.6401 188.285 96.6584 188.228 96.6345 188.182C96.6216 188.157 96.5981 188.139 96.5706 188.133C96.3183 188.048 94.0776 187.338 93.5974 187.782C93.5066 187.859 93.4682 187.982 93.4985 188.097C93.5298 188.316 93.6629 188.507 93.8574 188.611C94.2292 188.772 94.643 188.811 95.038 188.72ZM96.2462 188.226C95.6384 188.423 94.5008 188.729 93.9743 188.433C93.8371 188.352 93.7416 188.215 93.712 188.058C93.6957 188.01 93.711 187.957 93.7506 187.924C94.0161 187.682 95.3191 187.954 96.2462 188.226Z" fill="url(#paint12_linear_10047_28924)"/>
<path id="Vector_31" d="M96.5725 188.316C96.5949 188.32 96.618 188.317 96.6387 188.307C96.6636 188.279 96.6693 188.239 96.6533 188.205C96.6417 188.116 95.8734 186.103 94.733 186.387C94.4513 186.463 94.3867 186.612 94.3908 186.729C94.3913 187.289 95.8564 188.158 96.5251 188.339L96.5725 188.316ZM94.8704 186.537C95.6037 186.441 96.187 187.598 96.3938 188.065C95.657 187.791 94.5789 187.052 94.5955 186.708C94.5919 186.68 94.5818 186.603 94.7939 186.553L94.8704 186.537Z" fill="url(#paint13_linear_10047_28924)"/>
<path id="Vector_32" d="M96.3047 188.207C96.7747 187.847 97.4069 187.707 97.9848 187.836" stroke="url(#paint14_linear_10047_28924)" stroke-width="0.5" stroke-linecap="round" stroke-linejoin="round"/>
<path id="Vector_33" d="M96.125 189.519C96.595 189.159 97.2272 189.02 97.8052 189.149" stroke="url(#paint15_linear_10047_28924)" stroke-width="0.5" stroke-linecap="round" stroke-linejoin="round"/>
<path id="Vector_34" d="M95.6719 190.926C96.1419 190.566 96.7741 190.426 97.352 190.555" stroke="url(#paint16_linear_10047_28924)" stroke-width="0.5" stroke-linecap="round" stroke-linejoin="round"/>
</g>
<g id="Group_13">
<g id="Group_14">
<path id="Vector_35" d="M40.2585 200.907C43.8169 200.453 46.2733 196.733 45.745 192.599C45.2167 188.466 41.9038 185.484 38.3454 185.938C34.787 186.393 32.3306 190.113 32.8589 194.246C33.3871 198.38 36.7001 201.362 40.2585 200.907Z" fill="url(#paint17_linear_10047_28924)"/>
</g>
<path id="Vector_36" d="M18.3672 80.96L22.683 66.9609L31.244 79.3146L45.653 192.072L32.7762 193.718L18.3672 80.96Z" fill="url(#paint18_linear_10047_28924)"/>
<path id="Vector_37" d="M24.948 70.2188C23.9229 71.2428 22.7892 71.3969 21.5395 70.6635L18.3672 80.9591C18.3672 80.9591 19.8485 83.7176 21.573 80.7473C21.573 80.7473 23.542 83.211 25.2448 80.2781C25.2448 80.2781 27.0919 82.2043 28.4479 79.8688C28.4479 79.8688 30.0407 81.3862 31.244 79.3136L24.948 70.2188Z" fill="#B97964"/>
<path id="Vector_38" opacity="0.3" d="M25.2891 80.2882L40.428 192.896L43.4257 192.513C43.8849 192.313 28.4921 79.8789 28.4921 79.8789C27.1362 82.2144 25.2891 80.2882 25.2891 80.2882Z" fill="white"/>
<path id="Vector_39" opacity="0.3" d="M21.5867 80.7852C20.6358 82.423 19.7595 82.3182 19.1641 81.8953L34.1972 193.717L37.1949 193.333C37.6321 193.143 23.6987 91.2063 22.3639 81.449C21.8916 81.1651 21.5867 80.7852 21.5867 80.7852Z" fill="white"/>
<path id="Vector_40" d="M32.6228 195.169L46.2617 193.426L45.9805 191.225L32.3416 192.968L32.6228 195.169Z" fill="#263238"/>
</g>
<g id="Group_15">
<path id="Vector_41" d="M20.052 90.8451C20.052 90.8451 22.5697 89.5444 22.7721 88.7899C22.9744 88.0353 21.887 88.2813 21.887 88.2813C21.887 88.2813 23.0668 87.9372 22.9884 87.4165C22.8944 86.7916 21.7563 87.0543 21.7563 87.0543C21.7563 87.0543 22.7082 86.7339 22.6074 86.2755C22.5029 85.7998 21.1973 86.005 21.1973 86.005C21.1973 86.005 21.8248 85.6527 21.5744 85.3736C21.324 85.0945 18.5446 85.4765 17.822 86.136C17.0995 86.7955 17.6998 90.3527 18.0135 91.0914C18.1036 91.3035 18.3203 91.6376 19.3678 91.7861C19.5873 91.8172 19.798 91.6746 19.8472 91.4585L19.9777 90.8846L20.052 90.8451Z" fill="#EBB373"/>
<path id="Vector_42" opacity="0.2" d="M21.8723 88.2238L21.8674 88.2252L19.8393 88.9235C19.8121 88.9329 19.7979 88.9658 19.8078 88.9967C19.8178 89.0278 19.849 89.0456 19.8751 89.0361L21.9032 88.3378C21.9303 88.3284 21.9445 88.2955 21.9347 88.2646C21.9253 88.2352 21.8981 88.2179 21.8723 88.2238Z" fill="black"/>
<path id="Vector_43" opacity="0.2" d="M21.6853 87.009L21.684 87.0093L19.6826 87.5251C19.6548 87.5324 19.6386 87.5637 19.6465 87.5953C19.6545 87.6272 19.6783 87.6426 19.7115 87.6397L21.7128 87.124C21.7407 87.1167 21.7568 87.0853 21.749 87.0537C21.7411 87.0224 21.7128 87.0027 21.6853 87.009Z" fill="black"/>
<path id="Vector_44" opacity="0.2" d="M21.1156 85.9621L19.6175 86.3028C19.5894 86.3092 19.5726 86.3403 19.5798 86.372C19.587 86.4037 19.6155 86.4245 19.6436 86.4182L21.1418 86.0774C21.17 86.071 21.1867 86.04 21.1795 86.0082C21.1723 85.9765 21.1437 85.9557 21.1156 85.9621Z" fill="black"/>
</g>
<g id="Group_16">
<path id="Vector_45" d="M57.9823 195.199H59.6856C60.071 195.199 60.4275 195.394 60.6552 195.705C61.6375 197.047 62.3757 196.54 63.444 195.278C64.1232 195.199 64.306 195.979 64.3615 196.188L65.6347 200.82C65.7453 201.207 65.5215 201.61 65.1347 201.72C65.0659 201.74 64.9946 201.75 64.9231 201.748H51.4283C49.2819 201.748 48.8372 199.585 49.7212 199.385C53.6969 198.507 56.512 197.337 57.7408 196.18C57.9686 195.978 57.7346 195.826 57.9823 195.199Z" fill="#263238"/>
<path id="Vector_46" d="M55.5406 195.974C55.9735 196.293 56.4385 196.566 56.928 196.789C56.9777 196.805 57.031 196.778 57.0472 196.728C57.0559 196.701 57.0522 196.672 57.0371 196.648C56.9195 196.409 55.8458 194.318 55.1922 194.29C55.0732 194.28 54.9591 194.34 54.8985 194.442C54.7653 194.618 54.7237 194.847 54.7864 195.059C54.9339 195.437 55.1981 195.757 55.5406 195.974ZM56.7426 196.483C56.1745 196.191 55.1561 195.599 54.9951 195.017C54.9564 194.862 54.9861 194.698 55.0766 194.566C55.0995 194.521 55.1482 194.494 55.199 194.499C55.5579 194.517 56.2822 195.634 56.7426 196.483Z" fill="url(#paint19_linear_10047_28924)"/>
<path id="Vector_47" d="M56.908 196.781C56.9213 196.8 56.9396 196.814 56.9608 196.822C56.9984 196.82 57.0312 196.796 57.0441 196.76C57.0985 196.69 57.9869 194.726 56.9821 194.117C56.7298 193.97 56.5787 194.029 56.4984 194.115C56.1007 194.51 56.5162 196.161 56.8583 196.764L56.908 196.781ZM56.9723 194.32C57.5569 194.773 57.1461 196.002 56.9607 196.477C56.636 195.762 56.4015 194.476 56.6576 194.245C56.6746 194.223 56.7223 194.161 56.9074 194.277L56.9723 194.32Z" fill="url(#paint20_linear_10047_28924)"/>
<path id="Vector_48" d="M56.8008 196.516C57.3874 196.596 57.9317 196.946 58.2473 197.447" stroke="url(#paint21_linear_10047_28924)" stroke-width="0.5" stroke-linecap="round" stroke-linejoin="round"/>
<path id="Vector_49" d="M55.7422 197.312C56.3289 197.393 56.8731 197.743 57.1886 198.244" stroke="url(#paint22_linear_10047_28924)" stroke-width="0.5" stroke-linecap="round" stroke-linejoin="round"/>
<path id="Vector_50" d="M54.4258 197.98C55.0125 198.061 55.5567 198.411 55.8723 198.912" stroke="url(#paint23_linear_10047_28924)" stroke-width="0.5" stroke-linecap="round" stroke-linejoin="round"/>
</g>
<g id="Group_17">
<path id="Vector_51" d="M45.1499 87.4199C45.1499 87.4199 42.1387 94.1433 42.5126 96.7797C43.012 100.302 46.0425 104.706 48.9817 111.402L65.481 108.846C63.4773 102.171 61.959 98.442 60.7715 83.6446C58.3291 83.6426 57.2006 83.7552 54.7858 84.2726C52.2123 84.791 49.6788 85.4913 47.2044 86.3683C44.0216 87.5429 45.1499 87.4199 45.1499 87.4199Z" fill="#263238"/>
<path id="Vector_52" d="M59.7891 83.8763C59.7891 83.8763 60.8526 83.2406 62.5299 84.0748C64.2072 84.9091 69.113 89.7575 69.113 89.7575C69.113 89.7575 63.2604 97.0445 63.1744 97.0445C63.0883 97.0445 59.9612 92.7985 59.9612 92.7985L59.7891 83.8763Z" fill="#263238"/>
</g>
<path id="Vector_53" d="M42.7839 95.388L38.7852 90.7102C38.7852 90.7102 43.6893 87.4282 45.0851 86.9C46.4809 86.3719 47.2049 86.3711 47.2049 86.3711L42.7839 95.388Z" fill="#263238"/>
<g id="Group_18">
<path id="Vector_54" d="M48.9808 111.404C46.1448 121.105 46.8821 143.466 49.4512 159.596C51.2946 174.168 55.7133 192.576 55.7133 192.576L64.5911 191.184C64.5911 191.184 61.6202 167.32 60.9063 157.146C59.939 143.125 59.8816 109.715 59.8816 109.715L48.1106 109.414L48.9808 111.404Z" fill="#FBA599"/>
<path id="Vector_55" d="M48.1953 109.413C48.1953 109.413 54.0646 115.758 58.3908 124.922C62.8963 134.466 65.9295 146.992 69.252 154.704C74.512 166.914 93.7513 183.975 93.7513 183.975L98.2973 180.203C98.2973 180.203 84.5531 160.756 80.9143 152.474C69.2612 125.962 72.7203 114.733 65.4797 108.81L64.7965 106.523L48.1953 109.413Z" fill="#FBA599"/>
</g>
<path id="Vector_56" d="M42.371 70.2282C42.3989 70.2191 42.423 70.2012 42.4399 70.1772C42.4724 70.1172 42.451 70.0422 42.3917 70.0084C41.1215 69.09 40.7387 67.3668 41.5008 65.9971C42.7749 63.5208 45.9826 64.3981 46.0157 64.4043C46.0786 64.4333 46.153 64.4058 46.182 64.3429C46.2109 64.28 46.1834 64.2056 46.1205 64.1766C46.1087 64.1712 46.0961 64.1676 46.0832 64.166C46.0543 64.1743 42.6434 63.2246 41.2756 65.8841C40.4774 67.3672 40.8911 69.2116 42.2463 70.2116C42.283 70.2365 42.3292 70.2426 42.371 70.2282Z" fill="#263238"/>
<path id="Vector_57" d="M42.6099 70.3166C42.6501 70.3048 42.6822 70.2742 42.696 70.2347C42.715 70.1699 42.6794 70.1017 42.6154 70.0803C42.6154 70.0803 41.1118 69.5818 40.6454 68.4791C40.4233 67.9024 40.4723 67.2565 40.7789 66.7199C40.8137 66.66 40.7932 66.5833 40.7334 66.5486L40.7293 66.5464C40.6675 66.5137 40.591 66.5356 40.5558 66.596C40.2158 67.1983 40.164 67.9213 40.4147 68.5659C40.9272 69.7754 42.4701 70.2836 42.539 70.3056C42.5608 70.3167 42.5857 70.3206 42.6099 70.3166Z" fill="#263238"/>
<path id="Vector_58" d="M56.8743 78.9054C57.8073 78.7226 58.5989 78.1097 59.0095 77.2522C59.042 77.1923 59.0206 77.1172 58.9612 77.0835C58.9042 77.0494 58.8303 77.068 58.7962 77.125L58.7925 77.1317C57.942 79.2835 53.6757 78.8808 53.633 78.8773C53.5642 78.8691 53.5018 78.9181 53.4935 78.9868L53.4931 78.9903C53.4849 79.0562 53.5317 79.1164 53.5976 79.1247L53.6048 79.1253C54.6993 79.2351 55.8044 79.1608 56.8743 78.9054Z" fill="#263238"/>
<path id="Vector_59" d="M74.0349 71.7821C73.1939 72.2128 72.2374 72.4154 71.2939 72.3627C72.562 71.2409 73.0527 69.3206 72.4779 67.728C70.2912 69.3708 67.0982 69.5336 64.7557 68.1217C63.024 67.0779 61.7513 65.2807 59.84 64.621C58.1818 64.0487 54.7382 64.1636 54.2891 66.6152L55.0322 68.4239C56.3043 67.8612 58.2827 69.8038 58.9811 71.0068C59.6795 72.2098 59.7716 73.6555 59.9116 75.0395C60.0515 76.4234 60.2919 77.884 61.2004 78.9373C61.9887 79.8514 63.1955 80.3305 64.3977 80.4369C65.6 80.5433 66.8073 80.3102 67.9721 79.9938C68.4516 79.8636 68.9504 79.7053 69.2926 79.3451C69.6348 78.9848 69.7488 78.3597 69.4069 77.9992C68.5694 78.1305 67.689 77.9691 66.9526 77.5492C68.7159 77.6928 70.5733 77.394 72.0174 76.372C73.4614 75.35 74.3962 73.5139 74.0349 71.7821Z" fill="#263238"/>
<path id="Vector_60" d="M42.2041 71.185C41.2441 68.8657 42.1575 66.1945 44.3366 64.9486C45.7777 64.0213 47.7049 63.8985 49.5489 64.1062C53.5711 64.5594 56.6903 67.8736 56.9529 71.9126C57.1689 75.2334 56.2349 78.8306 51.5614 79.77C42.3367 81.6243 42.2041 71.185 42.2041 71.185Z" fill="#263238"/>
<path id="Vector_61" d="M55.4408 84.1825C55.4408 84.1825 54.0017 85.5751 52.1702 87.5567C51.7886 87.9695 51.3587 88.338 50.8953 88.6561C49.6451 89.5147 48.478 90.0574 48.0764 89.4531C47.9872 89.3204 47.9136 89.174 47.8538 89.0185C47.4523 87.9759 47.3946 86.4523 48.1844 85.6622C49.0748 84.7712 49.4709 84.0505 49.1741 83.0155C49.0133 82.4279 48.7265 81.8351 48.4051 81.2642L49.4586 80.4564L53.0253 75.9297C52.8484 78.4762 53.1499 82.9502 55.4408 84.1825Z" fill="#EBB373"/>
<path id="Vector_62" opacity="0.2" d="M49.2332 83.2419C50.2667 82.4576 51.3528 81.1777 51.0584 79.8903C50.9308 79.3487 50.7532 78.8419 50.5836 78.5234L48.6719 81.7607C48.9115 82.2201 49.0152 82.53 49.2332 83.2419Z" fill="black"/>
<path id="Vector_63" d="M53.2823 71.2516C53.3749 75.4358 53.5018 77.2002 51.6124 79.615C48.7704 83.2474 43.7002 82.7122 42.3811 78.7046C41.1938 75.0977 41.2419 68.8612 45.1089 66.6576C48.9186 64.4866 53.1897 67.0674 53.2823 71.2516Z" fill="#EBB373"/>
<path id="Vector_64" d="M47.8578 73.2456C47.8873 73.6861 47.6911 74.0729 47.4194 74.1095C47.1477 74.1462 46.9036 73.8189 46.8741 73.3784C46.8444 72.938 47.0407 72.5512 47.3124 72.5145C47.584 72.4778 47.8281 72.8051 47.8578 73.2456Z" fill="#263238"/>
<path id="Vector_65" d="M43.6475 73.7057C43.6753 74.1326 43.4783 74.5084 43.2075 74.545C42.9366 74.5815 42.6945 74.2651 42.6667 73.8382C42.6389 73.4114 42.836 73.0356 43.1069 72.999C43.3776 72.9623 43.6197 73.2787 43.6475 73.7057Z" fill="#263238"/>
<path id="Vector_66" d="M48.7636 71.5873C48.7115 71.5992 48.6563 71.5899 48.611 71.5569C47.9058 71.0388 47.2112 71.328 47.2031 71.3315C47.1001 71.3746 46.9856 71.3266 46.9488 71.2208C46.9123 71.1151 46.9669 70.9934 47.071 70.9484C47.1073 70.9331 47.979 70.5691 48.8542 71.2122C48.9414 71.2763 48.9578 71.4055 48.8908 71.5007C48.8583 71.5465 48.8124 71.5762 48.7636 71.5873Z" fill="#263238"/>
<path id="Vector_67" d="M42.3774 71.7454C42.3341 71.7363 42.2958 71.7091 42.2724 71.6658C42.2241 71.5763 42.2566 71.4519 42.3448 71.3881C43.2307 70.7482 43.9784 71.0727 44.01 71.0872C44.0989 71.1273 44.1324 71.2425 44.0846 71.3449C44.0372 71.4471 43.9267 71.4975 43.8378 71.4581C43.8087 71.4449 43.2247 71.2029 42.5203 71.712C42.4748 71.7448 42.4232 71.7553 42.3774 71.7454Z" fill="#263238"/>
<path id="Vector_68" d="M45.0763 73.3359C45.0763 73.3359 44.6051 74.9598 43.9844 76.0094C43.8759 76.1927 43.983 76.4303 44.1901 76.4808C44.7228 76.6107 45.3019 76.3722 45.3019 76.3722L45.0763 73.3359Z" fill="#E4873E"/>
<path id="Vector_69" d="M47.4682 72.5147L46.4922 72.3984C46.4922 72.3984 47.0927 73.0479 47.4682 72.5147Z" fill="#263238"/>
<path id="Vector_70" d="M43.2534 72.9952L42.2773 72.8789C42.2773 72.8789 42.8779 73.5284 43.2534 72.9952Z" fill="#263238"/>
<path id="Vector_71" d="M50.563 72.1575C50.563 72.1575 48.6373 69.4486 49.8193 67.1309C49.8193 67.1309 41.9555 65.838 41.7242 73.3888C41.7242 73.3888 40.1466 66.4886 47.095 65.0219C54.0435 63.5552 55.9236 73.767 52.8868 77.477C52.8848 77.4877 52.1071 74.0343 50.563 72.1575Z" fill="#263238"/>
<path id="Vector_72" d="M54.9211 74.4869C54.5288 75.3919 53.7947 76.0158 53.0868 76.2816C52.0221 76.6814 51.2552 74.9835 51.5042 73.8428C51.7284 72.8158 52.7309 72.0387 53.8222 72.1327C54.8973 72.2253 55.3697 73.4521 54.9211 74.4869Z" fill="#EBB373"/>
<path id="Vector_73" opacity="0.2" d="M52.5797 74.5283C52.5612 74.1332 52.7051 73.7328 52.971 73.4399C53.2369 73.1469 53.6215 72.965 54.0165 72.9453" stroke="black" stroke-width="0.5" stroke-linecap="round" stroke-linejoin="round"/>
<path id="Vector_74" d="M45.168 77.7375C45.4786 78.1408 45.7604 78.5657 46.011 79.0089L46.2714 78.9345C47.4141 78.4985 47.7963 77.9199 47.8858 77.4302C47.9212 77.181 47.8951 76.9271 47.81 76.6904C47.7667 76.5541 47.705 76.4244 47.6268 76.3047C47.0419 76.8875 46.3374 77.3362 45.5619 77.6197C45.3194 77.6838 45.168 77.7375 45.168 77.7375Z" fill="#263238"/>
<path id="Vector_75" d="M45.5508 77.5806L45.8125 77.9491C46.8843 77.5386 47.5889 77.1025 47.7989 76.6514C47.7556 76.5151 47.6939 76.3853 47.6157 76.2656C47.0308 76.8484 46.3263 77.2971 45.5508 77.5806Z" fill="white"/>
<path id="Vector_76" d="M46.2656 78.9145C47.4083 78.4785 47.7905 77.8999 47.88 77.4102C47.4485 77.5833 47.0517 77.8327 46.7084 78.1465C46.485 78.3506 46.3303 78.6189 46.2656 78.9145Z" fill="#C15854"/>
</g>
</g>
<g id="freepik--Device--inject-31">
<g id="Group_19">
<path id="Vector_77" d="M88.6359 44.1016H139.364C146.433 44.1016 152.172 49.8405 152.172 56.9093V189.255C152.172 194.641 147.799 199.014 142.413 199.014H84.1423C79.5536 199.014 75.8281 195.289 75.8281 190.7V56.9093C75.8281 49.8405 81.5671 44.1016 88.6359 44.1016Z" fill="#024355" fill-opacity="0.6"/>
<path id="Vector_78" d="M139.7 47.7461H88.2973C83.1129 47.7461 78.9102 51.9489 78.9102 57.1333V185.985C78.9102 191.169 83.1129 195.372 88.2973 195.372H139.7C144.885 195.372 149.088 191.169 149.088 185.985V57.1333C149.088 51.9489 144.885 47.7461 139.7 47.7461Z" fill="white"/>
<path id="Vector_79" d="M127.334 54.6289H98.4609V56.4338H127.334V54.6289Z" stroke="#024355" stroke-opacity="0.6" stroke-miterlimit="10"/>
<g id="Group_20">
<path id="Vector_80" d="M138.233 53.5613C138.233 53.9468 137.924 54.2594 137.543 54.2594C137.161 54.2594 136.852 53.9468 136.852 53.5613C136.852 53.1758 137.161 52.8633 137.543 52.8633C137.924 52.8633 138.233 53.1758 138.233 53.5613Z" fill="#024355" fill-opacity="0.6"/>
<path id="Vector_81" d="M138.233 55.3387C138.233 55.7242 137.924 56.0367 137.543 56.0367C137.161 56.0367 136.852 55.7242 136.852 55.3387C136.852 54.9532 137.161 54.6406 137.543 54.6406C137.924 54.6406 138.233 54.9532 138.233 55.3387Z" fill="#024355" fill-opacity="0.6"/>
<path id="Vector_82" d="M138.233 57.1121C138.233 57.4976 137.924 57.8102 137.543 57.8102C137.161 57.8102 136.852 57.4976 136.852 57.1121C136.852 56.7266 137.161 56.4141 137.543 56.4141C137.924 56.4141 138.233 56.7266 138.233 57.1121Z" fill="#024355" fill-opacity="0.6"/>
</g>
<path id="Vector_83" d="M90.4639 54.0508L89.1406 55.3217L90.4639 56.6249" stroke="#024355" stroke-opacity="0.6" stroke-linecap="round" stroke-linejoin="round"/>
<path id="Vector_84" d="M143.434 67.6211H84.7773V77.9874H143.434V67.6211Z" stroke="#024355" stroke-opacity="0.6" stroke-miterlimit="10"/>
<path id="Vector_85" d="M78.8906 62.3906H149.405" stroke="#024355" stroke-opacity="0.6" stroke-miterlimit="10"/>
<path id="Vector_86" d="M143.434 82.9609H84.7773V112.613H143.434V82.9609Z" stroke="#024355" stroke-opacity="0.6" stroke-miterlimit="10"/>
<path id="Vector_87" d="M84.7773 112.614L103.247 97.719C103.906 97.1874 104.824 97.1288 105.544 97.5723L115.159 103.493L127.721 93.7879C128.455 93.2211 129.46 93.1742 130.242 93.6702L143.434 102.036" stroke="#024355" stroke-opacity="0.6" stroke-miterlimit="10"/>
<path id="Vector_88" d="M114.795 95.3916C116.824 95.3916 118.468 93.7299 118.468 91.6802C118.468 89.6304 116.824 87.9688 114.795 87.9688C112.766 87.9688 111.121 89.6304 111.121 91.6802C111.121 93.7299 112.766 95.3916 114.795 95.3916Z" stroke="#024355" stroke-opacity="0.6" stroke-miterlimit="10"/>
<path id="Vector_89" d="M97.8176 117.082H84.7773V120.097H97.8176V117.082Z" stroke="#024355" stroke-opacity="0.6" stroke-miterlimit="10"/>
<path id="Vector_90" d="M143.434 123.617H84.7773V125.627H143.434V123.617Z" stroke="#024355" stroke-opacity="0.6" stroke-miterlimit="10"/>
<path id="Vector_91" d="M143.434 128.137H84.7773V130.147H143.434V128.137Z" stroke="#024355" stroke-opacity="0.6" stroke-miterlimit="10"/>
<path id="Vector_92" d="M110.925 132.66H84.7773V134.67H110.925V132.66Z" stroke="#024355" stroke-opacity="0.6" stroke-miterlimit="10"/>
<path id="Vector_93" d="M143.434 169.469H84.7773V171.479H143.434V169.469Z" stroke="#024355" stroke-opacity="0.6" stroke-miterlimit="10"/>
<path id="Vector_94" d="M143.434 173.992H84.7773V176.002H143.434V173.992Z" stroke="#024355" stroke-opacity="0.6" stroke-miterlimit="10"/>
<path id="Vector_95" d="M110.925 178.512H84.7773V180.522H110.925V178.512Z" stroke="#024355" stroke-opacity="0.6" stroke-miterlimit="10"/>
<g id="Group_21">
<path id="Vector_96" d="M109.54 139.246H84.7656V164.275H109.54V139.246Z" stroke="#024355" stroke-opacity="0.6" stroke-miterlimit="10"/>
<path id="Vector_97" d="M84.7656 164.275L109.54 139.246" stroke="#024355" stroke-opacity="0.6" stroke-miterlimit="10"/>
<path id="Vector_98" d="M109.458 164.275L84.6836 139.246" stroke="#024355" stroke-opacity="0.6" stroke-miterlimit="10"/>
</g>
<g id="Group_22">
<path id="Vector_99" d="M142.255 139.473H117.48V164.501H142.255V139.473Z" stroke="#024355" stroke-opacity="0.6" stroke-miterlimit="10"/>
<path id="Vector_100" d="M117.48 164.501L142.255 139.473" stroke="#024355" stroke-opacity="0.6" stroke-miterlimit="10"/>
<path id="Vector_101" d="M142.173 164.501L117.398 139.473" stroke="#024355" stroke-opacity="0.6" stroke-miterlimit="10"/>
</g>
</g>
</g>
<g id="freepik--Character_2--inject-31">
<g id="Group_23">
<g id="Group_24">
<g id="Group_25">
<path id="Vector_102" opacity="0.2" d="M158.288 182.192C158.288 182.192 199.04 173.904 200.716 182.39C203.109 194.504 173.67 201.738 158.131 200.784C142.593 199.83 158.288 182.192 158.288 182.192Z" fill="black"/>
<path id="Vector_103" opacity="0.2" d="M187.359 184.598L167.996 196.116L170.427 199.796C170.427 199.796 169.032 201.736 166.668 195.579L178.656 188.153C178.656 188.153 174.987 187.675 175.096 187.102C175.28 186.162 183.419 184.602 187.13 183.901C187.323 183.838 187.53 183.943 187.593 184.135C187.656 184.328 187.551 184.535 187.359 184.598Z" fill="black"/>
<path id="Vector_104" opacity="0.2" d="M167.349 194.736L170.488 200.176C166.402 200.766 162.263 200.97 158.132 200.784C156.774 200.735 155.435 200.452 154.182 199.947L153.086 197.795L155.728 192.852L167.349 194.736Z" fill="black"/>
<g id="Group_26">
<path id="Vector_105" d="M173.706 192.797L165.094 197.909L166.488 202.057L176.545 197.889L173.706 192.797Z" fill="#895555"/>
<g id="Group_27">
<path id="Vector_106" d="M160.398 199.145L161.141 202.12C161.141 202.12 161.76 202.27 161.936 202.896C162.035 203.248 161.75 204.202 161.75 204.202L163.732 212.4C163.744 212.397 164.294 212.265 164.515 212.116C164.785 211.933 165.004 211.744 165.182 211.551C165.803 210.875 165.898 209.872 165.943 209.128C166.017 207.881 166.842 204.258 166.842 204.258C166.842 204.258 167.143 203.316 168.17 202.509C168.743 202.059 169.019 201.478 168.978 201.112C168.894 200.365 168.368 200.07 167.671 200.133L166.86 200.208C166.295 199.761 166.14 199.029 166.526 198.339C166.526 198.339 167.056 196.581 166.304 196.858C165.875 197.015 163.984 197.793 162.472 198.362C162.12 198.496 161.786 198.621 161.494 198.731L161.494 198.732C160.844 198.976 160.398 199.145 160.398 199.145Z" fill="#263238"/>
<path id="Vector_107" d="M166.472 206.194C166.496 206.149 166.486 206.091 166.449 206.055C166.279 205.89 166.067 205.768 165.825 205.71C165.697 205.68 165.633 205.884 165.762 205.915C165.977 205.967 166.164 206.073 166.312 206.217C166.362 206.265 166.439 206.256 166.471 206.196L166.472 206.194Z" fill="#10303D"/>
<path id="Vector_108" d="M166.66 205.479C166.684 205.434 166.673 205.377 166.636 205.341C166.467 205.175 166.255 205.053 166.013 204.995C165.885 204.965 165.82 205.169 165.949 205.2C166.164 205.252 166.351 205.358 166.5 205.502C166.55 205.55 166.626 205.541 166.659 205.481L166.66 205.479Z" fill="#10303D"/>
<path id="Vector_109" d="M166.82 204.749C166.844 204.704 166.834 204.646 166.797 204.61C166.627 204.445 166.415 204.323 166.173 204.265C166.045 204.234 165.98 204.439 166.109 204.47C166.324 204.521 166.511 204.627 166.66 204.772C166.71 204.82 166.786 204.811 166.819 204.751L166.82 204.749Z" fill="#10303D"/>
</g>
<path id="Vector_110" opacity="0.2" d="M161.494 198.733L161.494 198.734C160.844 198.978 160.398 199.147 160.398 199.147L161.141 202.122C161.141 202.122 161.76 202.272 161.936 202.899C162.035 203.251 161.75 204.205 161.75 204.205L163.732 212.402C163.744 212.399 164.294 212.268 164.515 212.118C164.639 212.034 164.75 211.949 164.853 211.862L161.657 198.672C161.603 198.692 161.545 198.714 161.494 198.733Z" fill="white"/>
<path id="Vector_111" d="M166.707 204.697C166.985 204.603 167.265 204.509 167.556 204.466C167.846 204.422 168.15 204.432 168.423 204.54C168.55 204.591 168.681 204.678 168.705 204.813C168.73 204.954 168.625 205.088 168.506 205.168C168.277 205.321 167.979 205.352 167.71 205.292C167.44 205.233 166.927 204.864 166.707 204.697Z" stroke="#10303D" stroke-width="0.25" stroke-miterlimit="10"/>
<path id="Vector_112" d="M166.699 204.661C166.935 204.485 167.171 204.308 167.372 204.094C167.573 203.88 167.739 203.625 167.805 203.339C167.836 203.206 167.838 203.049 167.741 202.952C167.639 202.851 167.47 202.861 167.336 202.914C167.079 203.015 166.885 203.242 166.78 203.497C166.676 203.753 166.687 204.385 166.699 204.661Z" stroke="#10303D" stroke-width="0.25" stroke-miterlimit="10"/>
</g>
</g>
<path id="Vector_113" d="M175.768 156.934C175.768 156.934 176.858 170.136 177.232 170.853C178.497 173.28 187.225 177.634 187.225 177.634L191.765 176.822L194.918 179.617L192.738 181.224L190.264 180.205C188.892 180.409 187.505 180.489 186.119 180.446C183.788 180.377 172.174 177.473 170.391 174.284C168.608 171.095 168.633 156.285 168.633 156.285L175.768 156.934Z" fill="#895555"/>
<g id="Group_28">
<path id="Vector_114" d="M168.277 161.891C168.277 161.891 165.151 150.233 169.565 147.152C173.98 144.071 176.947 160.061 176.947 160.061L168.277 161.891Z" fill="#10303D"/>
<path id="Vector_115" opacity="0.5" d="M168.277 161.891C168.277 161.891 165.151 150.233 169.565 147.152C173.98 144.071 176.947 160.061 176.947 160.061L168.277 161.891Z" fill="white"/>
<path id="Vector_116" d="M170.39 183.108L170.808 167.79L171.097 146.809L162.105 144.579L155.808 144.52L145.157 147.836L144.796 152.976C144.796 152.976 145.124 176.635 145.046 177.346C144.949 178.217 142.246 183.623 142.246 183.623C153.492 186.537 170.545 183.894 170.39 183.108Z" fill="#10303D"/>
<path id="Vector_117" opacity="0.2" d="M170.871 161.344L171.023 152.207L172.63 160.973L170.871 161.344Z" fill="black"/>
<path id="Vector_118" opacity="0.2" d="M151.67 162.216C151.951 162.17 153.094 161.832 153.094 161.832L150.496 152.93L154.518 162.711L151.899 163.665L151.67 162.216Z" fill="black"/>
</g>
<g id="Group_29">
<path id="Vector_119" d="M150.672 154.941C150.672 154.941 152.437 169.615 153.664 171.018C155.739 173.388 166.174 179.824 166.174 179.824L171.526 178.123C171.901 178.012 172.31 178.091 172.606 178.331L176.147 181.203L175.793 181.484C175.64 181.606 175.422 181.625 175.249 181.532L174.694 181.236L175.306 181.871L175.101 182.034C174.898 182.195 174.621 182.247 174.368 182.171L172.761 181.689L174.227 182.728C173.885 182.999 173.418 183.083 172.995 182.949L170.645 182.204C169.018 182.526 167.365 182.713 165.704 182.764C162.909 182.853 149.868 177.861 147.512 174.418C145.155 170.975 143.035 156.903 143.035 156.903L150.672 154.941Z" fill="#895555"/>
<g id="Group_30">
<path id="Vector_120" d="M143.372 164.453C143.372 164.453 140.479 151.117 144.894 148.036C149.308 144.955 153.093 161.831 153.093 161.831L143.372 164.453Z" fill="#10303D"/>
<path id="Vector_121" opacity="0.5" d="M143.372 164.453C143.372 164.453 140.479 151.117 144.894 148.036C149.308 144.955 153.093 161.831 153.093 161.831L143.372 164.453Z" fill="white"/>
</g>
</g>
<g id="Group_31">
<path id="Vector_122" d="M178.237 182.327L170.089 182.087L161.442 181.832L161.442 181.838C161.427 182.479 162.128 183.018 163.007 183.04L171.646 183.295L176.589 183.441L176.611 183.442L176.613 183.441L190.366 183.847C191.238 183.867 191.955 183.368 191.97 182.732L178.237 182.327Z" fill="#263238"/>
<path id="Vector_123" d="M190.621 183.789L175.277 183.336C175.012 183.327 174.804 183.147 174.813 182.934C174.814 182.894 174.824 182.855 174.84 182.818L182.127 167.37C182.313 166.928 182.836 166.638 183.419 166.653L198.772 167.105C199.032 167.113 199.237 167.288 199.231 167.497C199.23 167.54 199.219 167.584 199.199 167.624L191.912 183.072C191.724 183.512 191.203 183.801 190.621 183.789Z" fill="#263238"/>
<path id="Vector_124" opacity="0.7" d="M198.771 167.105L183.418 166.653C182.835 166.638 182.312 166.928 182.127 167.37L175.114 182.235L170.089 182.087L161.442 181.832L161.442 181.837C161.427 182.479 162.128 183.017 163.007 183.04L171.646 183.295L176.589 183.441L176.611 183.441L176.613 183.441L190.366 183.847C190.643 183.853 190.9 183.803 191.128 183.717C191.488 183.607 191.781 183.377 191.911 183.072L199.198 167.624C199.218 167.584 199.229 167.54 199.23 167.497C199.236 167.288 199.031 167.113 198.771 167.105Z" fill="white"/>
<path id="Vector_125" d="M189.305 175.166C188.952 175.907 188.264 176.403 187.766 176.283C187.268 176.163 187.155 175.475 187.499 174.731C187.843 173.988 188.538 173.504 189.036 173.624C189.534 173.743 189.664 174.405 189.305 175.166Z" fill="white"/>
<g id="Group_32" opacity="0.3">
<path id="Vector_126" d="M182.126 167.37L175.113 182.235L175.825 182.256L183.417 166.653C182.834 166.638 182.311 166.928 182.126 167.37Z" fill="black"/>
</g>
</g>
<g id="Group_33">
<g id="Group_34">
<path id="Vector_127" d="M181.961 199.812L191.797 201.694L193.503 197.664L183.211 194.117L181.961 199.812Z" fill="#895555"/>
<g id="Group_35">
<path id="Vector_128" d="M196.131 203.879L197.548 201.159C197.548 201.159 197.184 200.636 197.467 200.05C197.627 199.721 198.473 199.196 198.473 199.196L202.423 191.745C202.412 191.739 201.914 191.473 201.649 191.439C201.326 191.397 201.036 191.392 200.775 191.419C199.862 191.514 199.126 192.201 198.599 192.729C197.717 193.613 194.698 195.779 194.698 195.779C194.698 195.779 193.848 196.284 192.544 196.207C191.816 196.164 191.224 196.416 191.013 196.718C190.58 197.332 190.778 197.902 191.343 198.317L191.999 198.799C192.125 199.508 191.757 200.159 191.01 200.42C191.01 200.42 189.448 201.384 190.194 201.675C190.62 201.842 192.551 202.513 194.06 203.089C194.412 203.223 194.745 203.351 195.037 203.462L195.038 203.462C195.686 203.709 196.131 203.879 196.131 203.879Z" fill="#263238"/>
<path id="Vector_129" d="M196.258 194.574C196.21 194.591 196.18 194.641 196.184 194.693C196.201 194.929 196.279 195.161 196.422 195.365C196.497 195.472 196.681 195.362 196.605 195.254C196.479 195.072 196.409 194.869 196.393 194.662C196.388 194.593 196.325 194.549 196.26 194.573L196.258 194.574Z" fill="#10303D"/>
<path id="Vector_130" d="M195.641 194.988C195.593 195.005 195.563 195.055 195.567 195.107C195.584 195.343 195.662 195.575 195.805 195.779C195.88 195.886 196.064 195.776 195.988 195.668C195.861 195.486 195.792 195.283 195.776 195.076C195.771 195.007 195.707 194.963 195.643 194.987L195.641 194.988Z" fill="#10303D"/>
<path id="Vector_131" d="M195.039 195.425C194.992 195.443 194.961 195.493 194.965 195.544C194.983 195.781 195.061 196.012 195.203 196.216C195.279 196.324 195.463 196.214 195.387 196.105C195.26 195.924 195.19 195.721 195.175 195.514C195.169 195.445 195.106 195.401 195.042 195.424L195.039 195.425Z" fill="#10303D"/>
</g>
<path id="Vector_132" opacity="0.2" d="M197.468 200.051C197.628 199.722 198.474 199.196 198.474 199.196L202.424 191.745C202.413 191.74 201.914 191.473 201.649 191.439C201.501 191.42 201.362 191.41 201.227 191.406L194.875 203.4C194.928 203.42 194.987 203.443 195.038 203.462L195.038 203.462C195.686 203.709 196.132 203.879 196.132 203.879L197.549 201.159C197.549 201.159 197.184 200.636 197.468 200.051Z" fill="white"/>
<path id="Vector_133" d="M195.089 195.542C194.819 195.428 194.547 195.313 194.301 195.153C194.055 194.993 193.833 194.784 193.701 194.522C193.639 194.4 193.6 194.248 193.671 194.131C193.746 194.009 193.913 193.978 194.055 193.997C194.328 194.034 194.571 194.209 194.733 194.432C194.896 194.655 195.036 195.272 195.089 195.542Z" stroke="#10303D" stroke-width="0.25" stroke-miterlimit="10"/>
<path id="Vector_134" d="M195.073 195.573C194.78 195.548 194.486 195.524 194.194 195.551C193.901 195.578 193.608 195.659 193.369 195.83C193.258 195.909 193.152 196.025 193.161 196.162C193.17 196.305 193.303 196.409 193.438 196.459C193.697 196.554 193.993 196.512 194.241 196.39C194.488 196.268 194.9 195.788 195.073 195.573Z" stroke="#10303D" stroke-width="0.25" stroke-miterlimit="10"/>
</g>
<path id="Vector_135" d="M144.956 194.208C142.925 190.751 138.378 181.409 148.208 179.906C158.037 178.402 190.244 194.888 190.244 194.888L187.991 201.061L157.729 195.372C157.729 195.372 161.725 201.048 156.687 200.646C149.369 199.703 147.659 197.896 144.956 194.208Z" fill="#263238"/>
<path id="Vector_136" opacity="0.2" d="M158.447 195.562L150.184 192.691C150.184 192.691 157.055 197.179 159.606 197.763L158.447 195.562Z" fill="black"/>
</g>
</g>
<g id="Group_36">
<path id="Vector_137" d="M154.035 146.017C156.259 143.887 155.814 138.109 155.221 135.125L162.22 140.518C162.078 140.868 161.961 141.226 161.869 141.592C161.68 142.246 161.663 142.938 161.819 143.601C161.971 144.146 162.676 145.65 162.676 145.65C162.676 145.65 163.11 147.353 158.571 147.532C156.588 147.826 154.035 146.017 154.035 146.017Z" fill="#895555"/>
<path id="Vector_138" opacity="0.2" d="M156.59 138.117C156.393 141.651 160.01 143.149 161.821 143.607C161.665 142.944 161.682 142.252 161.871 141.598L156.59 138.117Z" fill="black"/>
<g id="Group_37">
<g id="Group_38">
<path id="Vector_139" d="M153.926 132.568C154.988 136.668 155.502 139.002 158.071 140.708C161.935 143.273 166.737 140.452 166.958 136.106C167.157 132.194 165.387 126.145 160.886 125.318C156.451 124.504 152.864 128.467 153.926 132.568Z" fill="#895555"/>
<path id="Vector_140" d="M152.135 126.985C152.291 124.424 158.59 123.215 160.592 124.134C160.891 124.271 157.508 126.793 157.719 126.67L156.075 127.591C155.792 127.583 155.32 127.99 155.202 128.859C155.202 128.859 156.712 135.619 155.108 137.959C153.369 137.503 152.756 134.826 151.945 133.316C150.735 131.066 149.159 127.734 152.135 126.985Z" fill="#263238"/>
<path id="Vector_141" d="M152.904 136.342C153.451 137.347 154.428 138.004 155.354 138.254C156.748 138.63 156.962 137.187 156.589 135.902C156.254 134.746 155.624 133.378 154.218 133.569C152.834 133.756 152.278 135.194 152.904 136.342Z" fill="#895555"/>
<path id="Vector_142" d="M159.728 132.44C159.81 132.865 160.108 133.164 160.393 133.107C160.679 133.051 160.844 132.661 160.763 132.236C160.681 131.812 160.383 131.513 160.097 131.569C159.811 131.626 159.646 132.016 159.728 132.44Z" fill="#263238"/>
<path id="Vector_143" d="M164.044 131.94C164.126 132.365 164.424 132.664 164.71 132.607C164.995 132.551 165.161 132.161 165.079 131.736C164.997 131.311 164.699 131.013 164.414 131.069C164.128 131.126 163.963 131.516 164.044 131.94Z" fill="#263238"/>
<path id="Vector_144" d="M163.137 131.922C163.137 131.922 164.927 133.772 165.537 134.548C165.031 135.197 163.935 135.147 163.935 135.147L163.137 131.922Z" fill="#6D3939"/>
<path id="Vector_145" d="M158.817 130.817C158.888 130.831 158.965 130.808 159.017 130.75C159.634 130.067 160.395 130.157 160.402 130.158C160.516 130.173 160.622 130.095 160.639 129.985C160.656 129.874 160.577 129.773 160.464 129.758C160.424 129.752 159.47 129.639 158.705 130.487C158.628 130.571 158.636 130.699 158.722 130.772C158.75 130.795 158.783 130.81 158.817 130.817Z" fill="#263238"/>
</g>
<path id="Vector_146" opacity="0.2" d="M153.66 135.013C153.785 134.732 154.118 134.576 154.431 134.591C154.743 134.606 155.031 134.767 155.26 134.974C155.534 135.222 155.74 135.541 155.851 135.89" stroke="black" stroke-width="0.5" stroke-linecap="round" stroke-linejoin="round"/>
</g>
<path id="Vector_147" d="M166.124 129.749C166.16 129.734 166.193 129.708 166.217 129.674C166.281 129.58 166.256 129.454 166.161 129.392C165.209 128.773 164.328 129.144 164.287 129.156C164.181 129.201 164.132 129.321 164.177 129.423C164.221 129.526 164.342 129.573 164.447 129.529C164.483 129.512 165.164 129.235 165.929 129.732C165.989 129.771 166.062 129.775 166.124 129.749Z" fill="#263238"/>
<g id="Group_39">
<path id="Vector_148" d="M163.856 136.575C163.525 137.057 163.23 137.561 162.972 138.086C162.874 138.056 162.773 138.028 162.677 137.994C161.344 137.572 160.863 136.938 160.741 136.36C160.686 136.076 160.698 135.783 160.777 135.505C160.818 135.347 160.881 135.195 160.963 135.055C161.537 135.701 162.746 136.189 163.405 136.422C163.693 136.51 163.856 136.575 163.856 136.575Z" fill="#263238"/>
<path id="Vector_149" d="M163.42 136.415L163.147 136.853C161.895 136.454 161.068 136.009 160.793 135.497C160.834 135.339 160.896 135.187 160.979 135.047C161.556 135.699 162.761 136.181 163.42 136.415Z" fill="white"/>
<path id="Vector_150" d="M162.694 137.986C161.361 137.564 160.88 136.93 160.758 136.352C161.261 136.521 161.731 136.778 162.145 137.111C162.414 137.338 162.606 137.644 162.694 137.986Z" fill="#C15854"/>
</g>
<path id="Vector_151" d="M154.164 126.277C154.164 126.277 156.096 119.951 161.889 120.1C161.367 120.317 160.891 120.632 160.486 121.028C160.486 121.028 165.275 119.706 167.421 122.846L166.387 122.475C166.387 122.475 168.146 125.074 167.038 127.209L166.596 126.321C166.596 126.321 165.059 129.157 161.952 129.005L162.884 128.289C162.884 128.289 157.734 129.076 156.25 128.01C155.491 127.513 154.792 126.932 154.164 126.277Z" fill="#263238"/>
</g>
</g>
</g>
<path id="Vector_152" d="M173.5 17C166.38 17 159.42 19.1114 153.499 23.0671C147.579 27.0228 142.965 32.6453 140.24 39.2234C137.516 45.8015 136.803 53.0399 138.192 60.0232C139.581 67.0066 143.009 73.4211 148.044 78.4558C153.079 83.4905 159.493 86.9192 166.477 88.3083C173.46 89.6973 180.698 88.9844 187.277 86.2596C193.855 83.5349 199.477 78.9207 203.433 73.0005C207.389 67.0803 209.5 60.1201 209.5 53C209.5 48.2724 208.569 43.5911 206.76 39.2234C204.951 34.8557 202.299 30.8871 198.956 27.5442C195.613 24.2012 191.644 21.5495 187.277 19.7403C182.909 17.9312 178.228 17 173.5 17ZM193.934 46.6532L172.334 66.4532C171.65 67.0803 170.75 67.4191 169.823 67.399C168.895 67.3788 168.011 67.0013 167.355 66.3452L156.555 55.5452C156.211 55.2131 155.937 54.8159 155.748 54.3766C155.559 53.9374 155.46 53.465 155.456 52.987C155.452 52.509 155.543 52.035 155.724 51.5926C155.905 51.1501 156.172 50.7482 156.51 50.4102C156.848 50.0722 157.25 49.8048 157.693 49.6238C158.135 49.4428 158.609 49.3517 159.087 49.3559C159.565 49.36 160.037 49.4594 160.477 49.648C160.916 49.8367 161.313 50.111 161.645 50.4548L170.008 58.8176L189.066 41.3468C189.77 40.7014 190.701 40.3619 191.655 40.4031C192.609 40.4443 193.508 40.8627 194.153 41.5664C194.799 42.2701 195.138 43.2013 195.097 44.1553C195.056 45.1092 194.637 46.0078 193.934 46.6532Z" fill="#42B8BD"/>
</g>
<defs>
<linearGradient id="paint0_linear_10047_28924" x1="43.25" y1="44.4251" x2="189.375" y2="49.3316" gradientUnits="userSpaceOnUse">
<stop offset="0.452889" stop-color="#FE9730"/>
<stop offset="1" stop-color="#FB5046"/>
</linearGradient>
<linearGradient id="paint1_linear_10047_28924" x1="187.689" y1="134.136" x2="204.891" y2="134.533" gradientUnits="userSpaceOnUse">
<stop offset="0.452889" stop-color="#FE9730"/>
<stop offset="1" stop-color="#FB5046"/>
</linearGradient>
<linearGradient id="paint2_linear_10047_28924" x1="189.455" y1="136.182" x2="197.288" y2="136.4" gradientUnits="userSpaceOnUse">
<stop offset="0.452889" stop-color="#FE9730"/>
<stop offset="1" stop-color="#FB5046"/>
</linearGradient>
<linearGradient id="paint3_linear_10047_28924" x1="197.36" y1="137.219" x2="202.634" y2="137.341" gradientUnits="userSpaceOnUse">
<stop offset="0.452889" stop-color="#FE9730"/>
<stop offset="1" stop-color="#FB5046"/>
</linearGradient>
<linearGradient id="paint4_linear_10047_28924" x1="171.113" y1="114.636" x2="191.301" y2="115.169" gradientUnits="userSpaceOnUse">
<stop offset="0.452889" stop-color="#FE9730"/>
<stop offset="1" stop-color="#FB5046"/>
</linearGradient>
<linearGradient id="paint5_linear_10047_28924" x1="171.136" y1="120.654" x2="191.271" y2="121.615" gradientUnits="userSpaceOnUse">
<stop offset="0.452889" stop-color="#FE9730"/>
<stop offset="1" stop-color="#FB5046"/>
</linearGradient>
<linearGradient id="paint6_linear_10047_28924" x1="179.807" y1="114.589" x2="184.071" y2="114.685" gradientUnits="userSpaceOnUse">
<stop offset="0.452889" stop-color="#FE9730"/>
<stop offset="1" stop-color="#FB5046"/>
</linearGradient>
<linearGradient id="paint7_linear_10047_28924" x1="177.719" y1="132.816" x2="183.123" y2="132.941" gradientUnits="userSpaceOnUse">
<stop offset="0.452889" stop-color="#FE9730"/>
<stop offset="1" stop-color="#FB5046"/>
</linearGradient>
<linearGradient id="paint8_linear_10047_28924" x1="194.199" y1="115.883" x2="199.604" y2="116.007" gradientUnits="userSpaceOnUse">
<stop offset="0.452889" stop-color="#FE9730"/>
<stop offset="1" stop-color="#FB5046"/>
</linearGradient>
<linearGradient id="paint9_linear_10047_28924" x1="48.9707" y1="45.0919" x2="66.908" y2="45.4915" gradientUnits="userSpaceOnUse">
<stop offset="0.452889" stop-color="#FE9730"/>
<stop offset="1" stop-color="#FB5046"/>
</linearGradient>
<linearGradient id="paint10_linear_10047_28924" x1="47.4013" y1="42.8324" x2="51.8607" y2="42.8969" gradientUnits="userSpaceOnUse">
<stop offset="0.452889" stop-color="#FE9730"/>
<stop offset="1" stop-color="#FB5046"/>
</linearGradient>
<linearGradient id="paint11_linear_10047_28924" x1="47.2449" y1="49.9301" x2="47.37" y2="49.9303" gradientUnits="userSpaceOnUse">
<stop offset="0.452889" stop-color="#FE9730"/>
<stop offset="1" stop-color="#FB5046"/>
</linearGradient>
<linearGradient id="paint12_linear_10047_28924" x1="93.5559" y1="187.915" x2="96.6667" y2="188.115" gradientUnits="userSpaceOnUse">
<stop offset="0.452889" stop-color="#FE9730"/>
<stop offset="1" stop-color="#FB5046"/>
</linearGradient>
<linearGradient id="paint13_linear_10047_28924" x1="94.4393" y1="186.846" x2="96.6856" y2="186.906" gradientUnits="userSpaceOnUse">
<stop offset="0.452889" stop-color="#FE9730"/>
<stop offset="1" stop-color="#FB5046"/>
</linearGradient>
<linearGradient id="paint14_linear_10047_28924" x1="96.3407" y1="187.892" x2="97.989" y2="188.045" gradientUnits="userSpaceOnUse">
<stop offset="0.452889" stop-color="#FE9730"/>
<stop offset="1" stop-color="#FB5046"/>
</linearGradient>
<linearGradient id="paint15_linear_10047_28924" x1="96.161" y1="189.204" x2="97.8094" y2="189.357" gradientUnits="userSpaceOnUse">
<stop offset="0.452889" stop-color="#FE9730"/>
<stop offset="1" stop-color="#FB5046"/>
</linearGradient>
<linearGradient id="paint16_linear_10047_28924" x1="95.7079" y1="190.611" x2="97.3563" y2="190.763" gradientUnits="userSpaceOnUse">
<stop offset="0.452889" stop-color="#FE9730"/>
<stop offset="1" stop-color="#FB5046"/>
</linearGradient>
<linearGradient id="paint17_linear_10047_28924" x1="32.6489" y1="190.407" x2="45.4275" y2="189.031" gradientUnits="userSpaceOnUse">
<stop offset="0.452889" stop-color="#FE9730"/>
<stop offset="1" stop-color="#FB5046"/>
</linearGradient>
<linearGradient id="paint18_linear_10047_28924" x1="18.9519" y1="98.1306" x2="45.9515" y2="98.2647" gradientUnits="userSpaceOnUse">
<stop offset="0.452889" stop-color="#FE9730"/>
<stop offset="1" stop-color="#FB5046"/>
</linearGradient>
<linearGradient id="paint19_linear_10047_28924" x1="54.807" y1="194.905" x2="57.0759" y2="194.953" gradientUnits="userSpaceOnUse">
<stop offset="0.452889" stop-color="#FE9730"/>
<stop offset="1" stop-color="#FB5046"/>
</linearGradient>
<linearGradient id="paint20_linear_10047_28924" x1="56.36" y1="194.715" x2="57.4707" y2="194.725" gradientUnits="userSpaceOnUse">
<stop offset="0.452889" stop-color="#FE9730"/>
<stop offset="1" stop-color="#FB5046"/>
</linearGradient>
<linearGradient id="paint21_linear_10047_28924" x1="56.8318" y1="196.745" x2="58.2613" y2="196.796" gradientUnits="userSpaceOnUse">
<stop offset="0.452889" stop-color="#FE9730"/>
<stop offset="1" stop-color="#FB5046"/>
</linearGradient>
<linearGradient id="paint22_linear_10047_28924" x1="55.7732" y1="197.542" x2="57.2027" y2="197.593" gradientUnits="userSpaceOnUse">
<stop offset="0.452889" stop-color="#FE9730"/>
<stop offset="1" stop-color="#FB5046"/>
</linearGradient>
<linearGradient id="paint23_linear_10047_28924" x1="54.4568" y1="198.21" x2="55.8863" y2="198.261" gradientUnits="userSpaceOnUse">
<stop offset="0.452889" stop-color="#FE9730"/>
<stop offset="1" stop-color="#FB5046"/>
</linearGradient>
</defs>
</svg>
