<svg width="135" height="32" viewBox="0 0 135 32" fill="none" xmlns="http://www.w3.org/2000/svg">
<path d="M15.8392 8.74154C16.0786 8.0045 17.1214 8.00449 17.3608 8.74154L18.5757 12.4806C18.6828 12.8102 18.99 13.0333 19.3366 13.0333H23.268C24.043 13.0333 24.3652 14.025 23.7382 14.4806L20.5576 16.7914C20.2772 16.9951 20.1599 17.3562 20.267 17.6858L21.4819 21.4248C21.7214 22.1619 20.8778 22.7748 20.2508 22.3193L17.0702 20.0084C16.7898 19.8047 16.4102 19.8047 16.1298 20.0084L12.9492 22.3193C12.3222 22.7748 11.4786 22.1619 11.7181 21.4248L12.933 17.6858C13.0401 17.3562 12.9228 16.9951 12.6424 16.7914L9.46178 14.4806C8.83481 14.025 9.15703 13.0333 9.932 13.0333H13.8634C14.21 13.0333 14.5172 12.8102 14.6243 12.4806L15.8392 8.74154Z" fill="#FFD700"/>
<path d="M41.4388 8.74154C41.6782 8.00449 42.721 8.00449 42.9605 8.74154L44.1753 12.4806C44.2824 12.8102 44.5896 13.0333 44.9362 13.0333H48.8676C49.6426 13.0333 49.9648 14.025 49.3378 14.4806L46.1572 16.7914C45.8769 16.9951 45.7595 17.3562 45.8666 17.6858L47.0815 21.4248C47.321 22.1619 46.4774 22.7748 45.8504 22.3193L42.6698 20.0084C42.3894 19.8047 42.0098 19.8047 41.7294 20.0084L38.5488 22.3193C37.9218 22.7748 37.0782 22.1619 37.3177 21.4248L38.5326 17.6858C38.6397 17.3562 38.5224 16.9951 38.242 16.7914L35.0614 14.4806C34.4344 14.025 34.7566 13.0333 35.5316 13.0333H39.463C39.8096 13.0333 40.1168 12.8102 40.2239 12.4806L41.4388 8.74154Z" fill="#FFD700"/>
<path d="M67.0384 8.74154C67.2779 8.0045 68.3206 8.00449 68.5601 8.74154L69.7749 12.4806C69.882 12.8102 70.1892 13.0333 70.5358 13.0333H74.4672C75.2422 13.0333 75.5644 14.025 74.9374 14.4806L71.7569 16.7914C71.4765 16.9951 71.3591 17.3562 71.4662 17.6858L72.6811 21.4248C72.9206 22.1619 72.077 22.7748 71.45 22.3193L68.2694 20.0084C67.9891 19.8047 67.6094 19.8047 67.329 20.0084L64.1484 22.3193C63.5214 22.7748 62.6778 22.1619 62.9173 21.4248L64.1322 17.6858C64.2393 17.3562 64.122 16.9951 63.8416 16.7914L60.661 14.4806C60.034 14.025 60.3562 13.0333 61.1312 13.0333H65.0627C65.4092 13.0333 65.7164 12.8102 65.8235 12.4806L67.0384 8.74154Z" fill="#FFD700"/>
<path d="M92.639 8.74154C92.8784 8.0045 93.9212 8.00449 94.1607 8.74154L95.3755 12.4806C95.4826 12.8102 95.7898 13.0333 96.1364 13.0333H100.068C100.843 13.0333 101.165 14.025 100.538 14.4806L97.3574 16.7914C97.077 16.9951 96.9597 17.3562 97.0668 17.6858L98.2817 21.4248C98.5212 22.1619 97.6776 22.7748 97.0506 22.3193L93.87 20.0084C93.5896 19.8047 93.21 19.8047 92.9296 20.0084L89.749 22.3193C89.122 22.7748 88.2784 22.1619 88.5179 21.4248L89.7328 17.6858C89.8399 17.3562 89.7226 16.9951 89.4422 16.7914L86.2616 14.4806C85.6346 14.025 85.9568 13.0333 86.7318 13.0333H90.6632C91.0098 13.0333 91.317 12.8102 91.4241 12.4806L92.639 8.74154Z" fill="#FFD700"/>
<path d="M118.239 8.74154C118.478 8.0045 119.521 8.00449 119.76 8.74154L120.975 12.4806C121.082 12.8102 121.389 13.0333 121.736 13.0333H125.667C126.442 13.0333 126.765 14.025 126.138 14.4806L122.957 16.7914C122.677 16.9951 122.559 17.3562 122.666 17.6858L123.881 21.4248C124.121 22.1619 123.277 22.7748 122.65 22.3193L119.47 20.0084C119.189 19.8047 118.81 19.8047 118.529 20.0084L115.349 22.3193C114.722 22.7748 113.878 22.1619 114.118 21.4248L115.332 17.6858C115.439 17.3562 115.322 16.9951 115.042 16.7914L111.861 14.4806C111.234 14.025 111.556 13.0333 112.331 13.0333H116.263C116.609 13.0333 116.917 12.8102 117.024 12.4806L118.239 8.74154Z" fill="#FFD700"/>
</svg>
