<svg width="16" height="15" viewBox="0 0 16 15" fill="none" xmlns="http://www.w3.org/2000/svg">
<path id="Star 2" d="M6.83916 1.1307C7.07864 0.393655 8.12136 0.393655 8.36085 1.1307L9.57572 4.86971C9.68282 5.19933 9.98999 5.4225 10.3366 5.4225H14.268C15.043 5.4225 15.3652 6.41419 14.7382 6.86971L11.5576 9.18055C11.2772 9.38426 11.1599 9.74536 11.267 10.075L12.4819 13.814C12.7214 14.551 11.8778 15.1639 11.2508 14.7084L8.07023 12.3976C7.78984 12.1939 7.41016 12.1939 7.12977 12.3976L3.94918 14.7084C3.32221 15.1639 2.47863 14.551 2.71811 13.814L3.93298 10.075C4.04008 9.74536 3.92276 9.38426 3.64237 9.18055L0.461776 6.86971C-0.165194 6.41419 0.157026 5.4225 0.932004 5.4225H4.86343C5.21001 5.4225 5.51718 5.19933 5.62428 4.86971L6.83916 1.1307Z" fill="#00141B"/>
</svg>
