<svg width="10" height="10" viewBox="0 0 10 10" fill="none" xmlns="http://www.w3.org/2000/svg">
<g id="research-svgrepo-com 1" clip-path="url(#clip0_11060_3001)">
<path id="Vector" d="M3.125 8.56738H2.1875C2.10462 8.56738 2.02513 8.53445 1.96653 8.47585C1.90793 8.41726 1.875 8.33776 1.875 8.25488C1.875 8.17201 1.90793 8.09251 1.96653 8.03392C2.02513 7.97532 2.10462 7.94238 2.1875 7.94238H2.88437L3.125 7.21738C3.13803 7.17835 3.15869 7.14226 3.18572 7.1112C3.21275 7.08017 3.24566 7.05476 3.28253 7.03648C3.31941 7.01817 3.35953 7.00735 3.40059 7.0046C3.44169 7.00185 3.48291 7.00726 3.52188 7.02051C3.6 7.04688 3.66453 7.10307 3.70141 7.17682C3.73828 7.25057 3.74453 7.33592 3.71875 7.41426L3.40625 8.35176C3.38672 8.41195 3.34937 8.46479 3.29916 8.50329C3.24894 8.54179 3.18819 8.56413 3.125 8.56738Z" fill="#FF8F00"/>
<path id="Vector_2" d="M1.875 8.8828C1.75139 8.8828 1.63055 8.84614 1.52777 8.77749C1.42499 8.7088 1.34488 8.6112 1.29757 8.49699C1.25027 8.3828 1.23789 8.25711 1.26201 8.13589C1.28612 8.01464 1.34565 7.90327 1.43306 7.81586C1.52047 7.72845 1.63183 7.66892 1.75307 7.64483C1.87431 7.6207 1.99997 7.63308 2.11418 7.68039C2.22838 7.7277 2.32599 7.8078 2.39467 7.91058C2.46334 8.01336 2.5 8.1342 2.5 8.2578C2.5 8.42358 2.43415 8.58255 2.31694 8.69977C2.19973 8.81695 2.04076 8.8828 1.875 8.8828Z" fill="#ECE2DC"/>
<path id="Vector_3" d="M2.8125 2.32032C2.77115 2.32015 2.73025 2.31177 2.69217 2.29568C2.65408 2.27959 2.61957 2.2561 2.59063 2.22657L2.05938 1.69532H1.5625C1.47962 1.69532 1.40013 1.66239 1.34153 1.60379C1.28293 1.54518 1.25 1.4657 1.25 1.38282C1.25 1.29994 1.28293 1.22045 1.34153 1.16185C1.40013 1.10324 1.47962 1.07032 1.5625 1.07032H2.1875C2.22863 1.07008 2.2694 1.07796 2.30747 1.09351C2.34554 1.10906 2.38017 1.13198 2.40937 1.16094L3.03437 1.78594C3.07845 1.82965 3.1085 1.8855 3.12071 1.94636C3.13291 2.00721 3.12672 2.07033 3.10293 2.12766C3.07912 2.18498 3.03879 2.23392 2.98707 2.26823C2.93534 2.30255 2.87457 2.32068 2.8125 2.32032Z" fill="#FF8F00"/>
<path id="Vector_4" d="M1.25 2.00781C1.12639 2.00781 1.00555 1.97116 0.902769 1.90248C0.799987 1.83381 0.719881 1.73619 0.672575 1.62199C0.625272 1.50779 0.612894 1.38212 0.637009 1.26088C0.661125 1.13964 0.72065 1.02828 0.808059 0.940872C0.895465 0.853465 1.00683 0.793937 1.12807 0.769822C1.24931 0.745706 1.37497 0.758084 1.48918 0.80539C1.60338 0.852693 1.70099 0.932803 1.76967 1.03558C1.83834 1.13836 1.875 1.2592 1.875 1.38282C1.875 1.54857 1.80915 1.70755 1.69194 1.82476C1.57473 1.94197 1.41576 2.00781 1.25 2.00781Z" fill="#ECE2DC"/>
<path id="Vector_5" d="M6.85938 2.00781H7.48438L7.79688 1.38281H8.42188" fill="#F57C00"/>
<path id="Vector_6" d="M7.5 2.32048H6.875C6.79213 2.32048 6.71263 2.28755 6.65403 2.22894C6.59544 2.17034 6.5625 2.09085 6.5625 2.00798C6.5625 1.92509 6.59544 1.84561 6.65403 1.787C6.71263 1.7284 6.79213 1.69548 6.875 1.69548H7.30625L7.51875 1.25173C7.5445 1.196 7.58609 1.1491 7.63834 1.11686C7.69056 1.08463 7.75116 1.06849 7.8125 1.07048H8.4375C8.52038 1.07048 8.59987 1.1034 8.65847 1.162C8.71706 1.22061 8.75 1.30009 8.75 1.38298C8.75 1.46585 8.71706 1.54534 8.65847 1.60394C8.59987 1.66255 8.52038 1.69548 8.4375 1.69548H7.99062L7.76563 2.14548C7.74106 2.19575 7.70347 2.23852 7.65675 2.2693C7.61003 2.30008 7.55588 2.31776 7.5 2.32048Z" fill="#F57C00"/>
<path id="Vector_7" d="M8.76562 2.05859C8.642 2.05859 8.52118 2.02194 8.4184 1.95326C8.31562 1.88459 8.2355 1.78698 8.18818 1.67277C8.1409 1.55857 8.12853 1.4329 8.15262 1.31166C8.17675 1.19043 8.23628 1.07906 8.32368 0.991654C8.41109 0.904244 8.52246 0.844719 8.64368 0.820604C8.76493 0.796488 8.89059 0.808863 9.00481 0.856169C9.119 0.903472 9.21662 0.983582 9.28528 1.08636C9.35396 1.18914 9.39062 1.30998 9.39062 1.43359C9.39062 1.59935 9.32478 1.75833 9.20756 1.87553C9.09034 1.99274 8.93137 2.05859 8.76562 2.05859Z" fill="#ECE2DC"/>
<path id="Vector_8" d="M8.83126 7.59421L7.58126 6.34421L7.18438 5.83171C7.15672 5.7984 7.12244 5.77118 7.08369 5.75181C7.04497 5.73243 7.00263 5.72134 6.95938 5.71921C6.91638 5.71687 6.87338 5.72343 6.83307 5.73846C6.79272 5.75353 6.75594 5.77678 6.72501 5.80671L5.73438 6.78796C5.70485 6.8169 5.68135 6.8514 5.66526 6.88949C5.64916 6.92759 5.64079 6.96849 5.64063 7.00984C5.64038 7.05096 5.64829 7.09171 5.66382 7.12981C5.67938 7.16787 5.70229 7.20249 5.73126 7.23171L7.45938 8.96921C7.63504 9.14506 7.87332 9.24399 8.12188 9.24421C8.37044 9.24399 8.60872 9.14506 8.78438 8.96921L8.83751 8.91609C9.01129 8.73959 9.10816 8.50153 9.10701 8.25384C9.10582 8.00618 9.00669 7.76903 8.83126 7.59421Z" fill="#10303D"/>
<path id="Vector_9" d="M4.98438 7.9453C6.88284 7.9453 8.42188 6.4063 8.42188 4.5078C8.42188 2.60933 6.88284 1.07031 4.98438 1.07031C3.08589 1.07031 1.54688 2.60933 1.54688 4.5078C1.54688 6.4063 3.08589 7.9453 4.98438 7.9453Z" fill="#00141B"/>
<path id="Vector_10" d="M4.98438 6.6953C6.1925 6.6953 7.17188 5.71592 7.17188 4.5078C7.17188 3.29971 6.1925 2.32031 4.98438 2.32031C3.77625 2.32031 2.79688 3.29971 2.79688 4.5078C2.79688 5.71592 3.77625 6.6953 4.98438 6.6953Z" fill="#BBDEFB"/>
<path id="Vector_11" d="M3.125 8.59452H2.1875C2.10462 8.59452 2.02513 8.56161 1.96653 8.50299C1.90793 8.4444 1.875 8.3649 1.875 8.28202C1.875 8.19915 1.90793 8.11965 1.96653 8.06105C2.02513 8.00246 2.10462 7.96952 2.1875 7.96952H2.9L3.14062 7.24452C3.16716 7.1658 3.22387 7.1008 3.29828 7.0639C3.37272 7.02696 3.45875 7.02111 3.5375 7.04765C3.61625 7.07418 3.68122 7.1309 3.71812 7.2053C3.75506 7.27974 3.76091 7.3658 3.73437 7.44452L3.42187 8.38202C3.40091 8.44408 3.36097 8.49799 3.30769 8.53615C3.25444 8.57427 3.1905 8.59468 3.125 8.59452Z" fill="#FF8F00"/>
<path id="Vector_12" d="M1.875 8.90625C1.75139 8.90625 1.63055 8.86959 1.52777 8.8009C1.42499 8.73225 1.34488 8.63462 1.29757 8.52043C1.25027 8.40621 1.23789 8.28056 1.26201 8.15931C1.28612 8.03809 1.34565 7.92671 1.43306 7.83931C1.52047 7.7519 1.63183 7.69237 1.75307 7.66825C1.87431 7.64415 1.99997 7.65653 2.11418 7.70381C2.22838 7.75112 2.32599 7.83125 2.39467 7.93403C2.46334 8.03681 2.5 8.15762 2.5 8.28125C2.5 8.447 2.43415 8.60596 2.31694 8.72318C2.19973 8.8404 2.04076 8.90625 1.875 8.90625Z" fill="#00141B"/>
<path id="Vector_13" d="M2.8125 2.34376C2.77137 2.34399 2.7306 2.33611 2.69253 2.32056C2.65446 2.30501 2.61983 2.28209 2.59063 2.25313L2.05938 1.71876H1.5625C1.47962 1.71876 1.40013 1.68583 1.34153 1.62722C1.28293 1.56862 1.25 1.48913 1.25 1.40626C1.25 1.32337 1.28293 1.24389 1.34153 1.18528C1.40013 1.12668 1.47962 1.09376 1.5625 1.09376H2.1875C2.22863 1.09352 2.2694 1.1014 2.30747 1.11695C2.34554 1.1325 2.38017 1.15542 2.40937 1.18438L3.03437 1.80938C3.06367 1.83843 3.08691 1.87299 3.10278 1.91107C3.11864 1.94916 3.12681 1.99 3.12681 2.03126C3.12681 2.07251 3.11864 2.11335 3.10278 2.15143C3.08691 2.18951 3.06367 2.22408 3.03437 2.25313C3.00517 2.28209 2.97054 2.30501 2.93247 2.32056C2.8944 2.33611 2.85363 2.34399 2.8125 2.34376Z" fill="#FF8F00"/>
<path id="Vector_14" d="M1.25 2.03125C1.12639 2.03125 1.00555 1.99459 0.902769 1.92592C0.799987 1.85724 0.719881 1.75963 0.672575 1.64543C0.625272 1.53122 0.612894 1.40556 0.637009 1.28432C0.661125 1.16308 0.72065 1.05172 0.808059 0.964309C0.895465 0.8769 1.00683 0.817375 1.12807 0.793259C1.24931 0.769144 1.37497 0.781522 1.48918 0.828825C1.60338 0.876131 1.70099 0.956237 1.76967 1.05902C1.83834 1.1618 1.875 1.28264 1.875 1.40625C1.875 1.57201 1.80915 1.73098 1.69194 1.84819C1.57473 1.9654 1.41576 2.03125 1.25 2.03125Z" fill="#00141B"/>
<path id="Vector_15" d="M1.5625 4.53125C1.5625 5.44294 1.92467 6.31728 2.56932 6.96194C3.21397 7.60659 4.08831 7.96875 5 7.96875V1.09375C4.08831 1.09375 3.21397 1.45592 2.56932 2.10057C1.92467 2.74523 1.5625 3.61956 1.5625 4.53125Z" fill="#00141B"/>
<path id="Vector_16" d="M2.8125 4.53125C2.8125 5.11141 3.04297 5.66781 3.45322 6.07803C3.86344 6.48828 4.41984 6.71875 5 6.71875V2.34375C4.41984 2.34375 3.86344 2.57422 3.45322 2.98445C3.04297 3.39469 2.8125 3.95109 2.8125 4.53125Z" fill="#E3F2FD"/>
</g>
<defs>
<clipPath id="clip0_11060_3001">
<rect width="10" height="10" fill="white"/>
</clipPath>
</defs>
</svg>
