<svg width="16" height="17" viewBox="0 0 16 17" fill="none" xmlns="http://www.w3.org/2000/svg">
<g clip-path="url(#clip0_13737_1828)">
<path fill-rule="evenodd" clip-rule="evenodd" d="M14.0644 0.911865C11.7437 0.911963 9.51822 1.8339 7.87736 3.47487L7.41836 3.93287C7.10436 4.24687 6.80236 4.57387 6.51436 4.91187H3.31036C3.01154 4.91195 2.71772 4.98855 2.4569 5.13437C2.19608 5.28018 1.97694 5.49036 1.82036 5.74487L0.110356 8.51887C0.05033 8.61637 0.0134236 8.72632 0.00246604 8.84029C-0.00849152 8.95426 0.00679063 9.06922 0.0471412 9.17638C0.0874917 9.28353 0.151839 9.38002 0.235252 9.45845C0.318665 9.53688 0.418928 9.59518 0.528356 9.62887L3.63036 10.5829C3.66736 10.6339 3.70936 10.6829 3.75436 10.7279L6.18336 13.1559C6.22936 13.2019 6.27736 13.2439 6.32836 13.2809L7.28236 16.3829C7.31604 16.4923 7.37434 16.5926 7.45277 16.676C7.53121 16.7594 7.6277 16.8237 7.73485 16.8641C7.842 16.9044 7.95696 16.9197 8.07094 16.9088C8.18491 16.8978 8.29486 16.8609 8.39236 16.8009L11.1664 15.0939C11.4209 14.9373 11.631 14.7181 11.7769 14.4573C11.9227 14.1965 11.9993 13.9027 11.9994 13.6039V10.3969C12.3374 10.1089 12.6644 9.80687 12.9784 9.49287L13.4364 9.03386C15.0774 7.39341 15.9997 5.16827 16.0004 2.84787V2.66187C16.0004 2.19774 15.816 1.75262 15.4878 1.42443C15.1596 1.09624 14.7145 0.911865 14.2504 0.911865H14.0644ZM10.5004 11.5369C10.4124 11.5969 10.3234 11.6549 10.2344 11.7119L7.88436 13.2329L8.43236 15.0159L10.3814 13.8159C10.4177 13.7935 10.4478 13.7622 10.4686 13.7249C10.4894 13.6876 10.5004 13.6456 10.5004 13.6029V11.5369ZM3.67836 9.02787L5.20036 6.67787C5.25836 6.58786 5.31736 6.49987 5.37636 6.41187H3.30936C3.26664 6.41185 3.22464 6.42278 3.18735 6.44362C3.15007 6.46445 3.11874 6.49449 3.09636 6.53087L1.89636 8.48087L3.67836 9.02787ZM8.93836 4.53487C10.2977 3.17577 12.1411 2.41214 14.0634 2.41187H14.2494C14.3157 2.41187 14.3792 2.4382 14.4261 2.48509C14.473 2.53197 14.4994 2.59556 14.4994 2.66187V2.84787C14.4995 3.8 14.3121 4.74283 13.9478 5.62252C13.5835 6.50222 13.0496 7.30155 12.3764 7.97487L11.9174 8.43287C11.158 9.19255 10.3203 9.86966 9.41836 10.4529L7.10136 11.9529L4.95836 9.80986L6.45836 7.49287C7.04175 6.5907 7.71884 5.75272 8.47836 4.99287L8.93636 4.53487H8.93836ZM12.0004 5.91187C12.0004 6.17708 11.895 6.43144 11.7075 6.61897C11.5199 6.80651 11.2656 6.91187 11.0004 6.91187C10.7351 6.91187 10.4808 6.80651 10.2933 6.61897C10.1057 6.43144 10.0004 6.17708 10.0004 5.91187C10.0004 5.64665 10.1057 5.39229 10.2933 5.20476C10.4808 5.01722 10.7351 4.91187 11.0004 4.91187C11.2656 4.91187 11.5199 5.01722 11.7075 5.20476C11.895 5.39229 12.0004 5.64665 12.0004 5.91187ZM3.56036 15.4719C3.70773 15.3345 3.82593 15.1689 3.90792 14.9849C3.9899 14.8009 4.03399 14.6023 4.03754 14.4009C4.04109 14.1995 4.00404 13.9994 3.9286 13.8127C3.85316 13.6259 3.74087 13.4562 3.59843 13.3138C3.456 13.1714 3.28633 13.0591 3.09955 12.9836C2.91278 12.9082 2.71272 12.8711 2.51131 12.8747C2.30991 12.8782 2.11128 12.9223 1.92728 13.0043C1.74328 13.0863 1.57768 13.2045 1.44036 13.3519C0.706356 14.0819 0.393356 15.6839 0.290356 16.3549C0.284266 16.391 0.286913 16.4281 0.298076 16.4631C0.309239 16.498 0.328595 16.5298 0.354528 16.5557C0.380462 16.5816 0.412221 16.601 0.447156 16.6121C0.482092 16.6233 0.51919 16.626 0.555356 16.6199C1.22636 16.5169 2.82836 16.2039 3.56036 15.4719Z" fill="black"/>
</g>
<defs>
<clipPath id="clip0_13737_1828">
<rect width="16" height="16" fill="white" transform="translate(0 0.911865)"/>
</clipPath>
</defs>
</svg>
