<svg width="180" height="95" viewBox="0 0 180 95" fill="none" xmlns="http://www.w3.org/2000/svg">
<g id="Group 1000002846">
<g id="Group">
<path id="Vector" fill-rule="evenodd" clip-rule="evenodd" d="M118.899 84.7905C120.979 87.6861 122.793 90.2156 124.707 92.8949C122.643 94.3261 120.863 94.2761 119.066 93.2777C114.023 90.4486 108.964 87.6362 103.972 84.7406C99.8779 82.3775 95.8507 79.9146 91.8234 77.435C90.1926 76.4365 90.2425 75.1717 91.9066 74.3064C97.7145 71.2444 103.556 68.199 109.563 65.0704C109.264 64.7375 109.064 64.3548 108.748 64.1884C106.518 63.0235 105.786 61.143 105.902 58.73C106.019 56.5167 106.168 54.3699 107.134 52.323C108.914 48.5288 110.013 44.385 113.008 41.2232C114.589 39.559 114.522 39.4924 116.802 40.3578C118.017 40.8071 119.232 41.3064 120.713 41.8888C120.713 40.2579 120.796 38.7436 120.696 37.2458C120.447 33.7511 120.031 30.2564 119.864 26.7617C119.781 25.0477 119.348 23.6997 117.934 22.6846C117.302 22.2186 116.569 21.7194 116.236 21.0703C115.92 20.4712 115.787 19.4395 116.12 18.9569C116.436 18.4743 117.468 18.1248 118.1 18.2413C119.099 18.4243 120.064 18.9735 120.979 19.506C130.665 25.031 140.017 31.0885 148.854 37.8949C149.336 38.261 149.736 38.7103 150.335 39.2761C148.205 41.7058 145.675 40.5242 143.196 40.208C142.763 41.789 143.479 43.0537 143.994 44.2852C145.925 48.8949 147.872 53.5046 149.902 58.081C150.235 58.8298 150.901 59.4955 151.566 59.9947C156.725 63.9554 161.767 68.0325 166.344 72.6755C168.99 75.3714 171.769 77.9509 174.265 80.7633C175.879 82.5772 177.211 84.6907 178.442 86.8041C179.557 88.7179 179.091 89.6498 176.911 90.2822C173.35 91.314 169.755 90.9811 166.211 90.2655C159.155 88.8677 152.199 87.0038 145.525 84.2913C142.031 82.8767 138.669 81.1793 135.191 79.7315C134.292 79.3487 133.044 79.0658 132.212 79.382C127.836 80.9963 123.575 82.8435 118.899 84.7905ZM114.006 63.9055C114.606 64.3548 114.972 64.6044 115.305 64.8873C121.129 69.9297 127.885 73.5742 134.675 77.0023C141.548 80.4804 148.704 83.4093 156.193 85.4562C161.368 86.8707 166.56 88.1188 171.935 88.4017C173.217 88.4683 174.548 88.7179 175.796 87.6362C175.447 86.9872 175.214 86.3215 174.798 85.789C173.134 83.7421 171.503 81.6786 169.722 79.7648C162.3 71.7602 154.262 64.438 145.193 58.3306C142.28 56.3669 139.385 54.4032 136.389 52.5893C132.645 50.326 128.817 48.1793 124.99 46.0492C124.191 45.5999 123.209 45.4667 122.194 45.1505C118.533 50.9917 117.451 57.7481 114.006 63.9055ZM129.766 77.4017C129.017 76.0371 127.952 75.5212 126.804 75.0553C125.755 74.6392 124.657 74.2398 123.725 73.6241C120.663 71.6105 117.601 69.5469 114.639 67.3835C113.674 66.6846 112.858 66.3684 111.777 66.9176C110.046 67.7663 108.282 68.5318 106.584 69.4304C103.589 71.0613 100.627 72.7754 97.6479 74.4395C96.6661 74.9887 95.6676 75.4879 94.2364 76.2534C103.156 80.7966 110.911 86.5212 119.781 90.3987C119.099 89.0174 118.217 87.8692 117.351 86.7043C116.053 84.9403 116.17 83.9418 118.067 82.8767C119.814 81.8949 121.728 81.196 123.559 80.3472C125.622 79.4153 127.653 78.4168 129.766 77.4017ZM121.928 22.7345C122.094 23.7995 122.294 24.6316 122.344 25.4803C122.693 30.5393 123.043 35.615 123.309 40.674C123.392 42.1551 123.875 42.9871 125.339 43.6029C130.432 45.7663 135.308 48.3124 139.634 51.8404C141.265 53.1551 143.179 54.1203 144.96 55.2519C144.56 53.1218 143.728 51.3911 143.096 49.5938C141.964 46.382 140.3 43.3533 140.067 39.8586C140 38.7103 139.851 37.5787 140.999 36.7799C141.798 36.9297 142.58 37.0628 143.345 37.2126C136.572 31.854 129.533 27.0446 121.928 22.7345ZM114.123 56.9327C114.572 55.6846 114.905 54.7194 115.305 53.6377C113.557 52.8056 112.026 52.0734 110.329 51.2746C109.829 52.5893 109.48 53.5378 109.081 54.5862C110.795 55.385 112.292 56.084 114.123 56.9327ZM113.707 44.3185C115.288 45.2504 116.569 45.9826 118 46.8313C118.566 45.8495 119.115 44.9342 119.748 43.8525C118.117 43.1702 116.769 42.6044 115.371 42.0219C114.755 42.8707 114.306 43.4864 113.707 44.3185ZM112.426 46.615C112.043 47.4637 111.743 48.146 111.41 48.8949C113.025 49.7436 114.522 50.5424 116.187 51.4077C116.503 50.4924 116.769 49.7269 117.035 48.9281C115.97 48.2625 115.121 47.6634 114.206 47.1642C113.757 46.9145 113.224 46.848 112.426 46.615ZM112.842 59.8616C110.978 57.9145 110.795 57.8313 108.781 57.7481C108.249 60.8934 108.398 61.1763 111.444 62.5076C111.91 61.6422 112.376 60.7436 112.842 59.8616Z" fill="#42B8BD"/>
<path id="Vector_2" fill-rule="evenodd" clip-rule="evenodd" d="M167.493 84.4417C165.013 83.6762 162.55 83.0771 160.22 82.1285C153.98 79.599 147.756 76.9697 141.599 74.2571C138.786 73.009 136.207 71.3282 134.127 68.9984C132.912 67.6338 131.946 66.2026 132.779 64.2556C133.577 62.3751 135.724 60.9273 137.804 61.0771C141.532 61.3267 145.01 62.4916 148.238 64.3055C152.832 66.8849 157.125 69.897 160.936 73.5748C162.766 75.3388 164.63 77.0695 166.378 78.9167C167.742 80.3312 168.974 81.8955 167.493 84.4417ZM165.595 81.0468C160.686 75.3055 155.211 70.4462 148.738 66.8516C146.158 65.4205 143.296 64.5052 140.5 63.5067C139.552 63.1739 138.37 63.0574 137.405 63.2904C136.573 63.4901 135.724 64.2057 135.208 64.9212C134.576 65.8032 135.325 66.6353 136.007 67.1512C138.004 68.6989 139.918 70.4961 142.164 71.5445C148.189 74.3569 154.363 76.8698 160.503 79.416C162.151 80.1149 163.898 80.5143 165.595 81.0468Z" fill="#42B8BD"/>
</g>
<g id="Group 1000002845">
<path id="Vector_3" fill-rule="evenodd" clip-rule="evenodd" d="M97.8086 45.1687C94.3943 41.7974 90.7008 39.4138 86.7496 37.4812C77.7951 33.122 68.8191 28.8487 59.7572 24.7258C48.4191 19.5506 36.7374 15.3847 24.5188 12.7005C18.1197 11.2832 11.7634 9.65122 5.38575 8.12659C5.17101 8.06217 4.95627 7.9548 4.74153 7.91185C2.61564 7.50385 1.30575 7.9548 1.04807 9.20027C0.768909 10.4887 1.64933 11.047 4.05439 11.5839C13.9752 13.7742 24.0035 15.5994 33.774 18.3695C46.7227 22.063 59.07 27.4744 71.1597 33.4226C73.9943 34.8184 76.9362 36.0639 79.7063 37.5885C84.3446 40.1654 88.8755 42.914 93.4494 45.6197C94.8667 46.5001 96.1981 47.2087 97.8086 45.1687Z" fill="#42B8BD"/>
<path id="Vector_4" fill-rule="evenodd" clip-rule="evenodd" d="M107.387 45.6623C106.206 43.7726 105.347 42.0547 104.166 40.5945C97.9812 32.8639 90.7016 26.2715 83.0141 20.0441C74.7037 13.3014 65.6848 7.7397 56.2793 2.71485C55.0767 2.07064 53.9816 1.25464 52.7791 0.610429C51.7698 0.0521128 50.4599 -0.506198 49.7942 0.803698C49.1071 2.13507 50.0304 3.12286 51.2544 3.7456C52.3711 4.30392 53.4233 4.9696 54.5614 5.48496C70.0224 12.7646 83.2932 23.0505 95.1038 35.269C98.0027 38.2753 100.451 41.7111 103.113 44.9536C104.531 46.6286 104.531 46.6286 107.387 45.6623Z" fill="#42B8BD"/>
<path id="Vector_5" fill-rule="evenodd" clip-rule="evenodd" d="M44.9832 48.8203C38.8847 49.078 32.7862 49.3142 26.6876 49.5719C26.022 49.5934 25.206 49.5504 24.7121 49.8725C24.1323 50.2376 23.4666 51.0536 23.5095 51.6119C23.5525 52.1487 24.3685 52.9218 24.9912 53.0721C25.9361 53.3083 27.0312 53.2224 28.019 53.0506C35.4704 51.8911 42.9218 52.4923 50.3946 52.9647C50.9529 53.0077 51.5327 53.1151 52.091 53.0721C60.0148 52.5353 67.5951 54.5323 75.2182 56.1858C76.3993 56.4435 77.6448 56.5079 78.8688 56.4435C79.2553 56.422 79.8136 55.7134 79.878 55.2839C79.9424 54.8759 79.5344 54.1887 79.1264 53.974C78.3534 53.5445 77.4515 53.3083 76.5925 53.0721C66.2637 50.1732 55.6771 49.2713 44.9832 48.8203Z" fill="#42B8BD"/>
</g>
</g>
</svg>
