<svg width="17" height="16" viewBox="0 0 17 16" fill="none" xmlns="http://www.w3.org/2000/svg">
<g id="rocket (5) 1" clip-path="url(#clip0_8862_80881)">
<path id="Vector" fill-rule="evenodd" clip-rule="evenodd" d="M14.5639 0C12.2433 9.77766e-05 10.0177 0.922034 8.37687 2.563L7.91787 3.021C7.60387 3.335 7.30187 3.662 7.01387 4H3.80987C3.51105 4.00009 3.21724 4.07669 2.95641 4.2225C2.69559 4.36832 2.47645 4.57849 2.31987 4.833L0.609868 7.607C0.549842 7.7045 0.512935 7.81445 0.501978 7.92842C0.49102 8.04239 0.506302 8.15736 0.546653 8.26451C0.587003 8.37166 0.651351 8.46815 0.734764 8.54658C0.818176 8.62502 0.918439 8.68331 1.02787 8.717L4.12987 9.671C4.16687 9.722 4.20887 9.771 4.25387 9.816L6.68287 12.244C6.72887 12.29 6.77687 12.332 6.82787 12.369L7.78187 15.471C7.81556 15.5804 7.87385 15.6807 7.95228 15.7641C8.03072 15.8475 8.12721 15.9119 8.23436 15.9522C8.34151 15.9926 8.45648 16.0078 8.57045 15.9969C8.68442 15.9859 8.79437 15.949 8.89187 15.889L11.6659 14.182C11.9204 14.0254 12.1305 13.8063 12.2764 13.5455C12.4222 13.2846 12.4988 12.9908 12.4989 12.692V9.485C12.8369 9.197 13.1639 8.895 13.4779 8.581L13.9359 8.122C15.577 6.48154 16.4992 4.2564 16.4999 1.936V1.75C16.4999 1.28587 16.3155 0.840752 15.9873 0.512563C15.6591 0.184374 15.214 0 14.7499 0H14.5639ZM10.9999 10.625C10.9119 10.685 10.8229 10.743 10.7339 10.8L8.38387 12.321L8.93187 14.104L10.8809 12.904C10.9172 12.8816 10.9473 12.8503 10.9681 12.813C10.9889 12.7757 10.9999 12.7337 10.9999 12.691V10.625ZM4.17787 8.116L5.69987 5.766C5.75787 5.676 5.81687 5.588 5.87587 5.5H3.80887C3.76616 5.49999 3.72415 5.51092 3.68687 5.53175C3.64958 5.55258 3.61825 5.58262 3.59587 5.619L2.39587 7.569L4.17787 8.116ZM9.43787 3.623C10.7972 2.26391 12.6406 1.50028 14.5629 1.5H14.7489C14.8152 1.5 14.8788 1.52634 14.9256 1.57322C14.9725 1.62011 14.9989 1.6837 14.9989 1.75V1.936C14.999 2.88813 14.8116 3.83096 14.4473 4.71066C14.083 5.59035 13.5491 6.38968 12.8759 7.063L12.4169 7.521C11.6575 8.28068 10.8199 8.95779 9.91787 9.541L7.60087 11.041L5.45787 8.898L6.95787 6.581C7.54126 5.67884 8.21835 4.84085 8.97787 4.081L9.43587 3.623H9.43787ZM12.4999 5C12.4999 5.26522 12.3945 5.51957 12.207 5.70711C12.0194 5.89464 11.7651 6 11.4999 6C11.2347 6 10.9803 5.89464 10.7928 5.70711C10.6052 5.51957 10.4999 5.26522 10.4999 5C10.4999 4.73478 10.6052 4.48043 10.7928 4.29289C10.9803 4.10536 11.2347 4 11.4999 4C11.7651 4 12.0194 4.10536 12.207 4.29289C12.3945 4.48043 12.4999 4.73478 12.4999 5ZM4.05987 14.56C4.20724 14.4227 4.32545 14.2571 4.40743 14.0731C4.48941 13.8891 4.5335 13.6905 4.53705 13.489C4.5406 13.2876 4.50356 13.0876 4.42811 12.9008C4.35267 12.714 4.24038 12.5444 4.09794 12.4019C3.95551 12.2595 3.78584 12.1472 3.59906 12.0718C3.41229 11.9963 3.21223 11.9593 3.01082 11.9628C2.80942 11.9664 2.61079 12.0105 2.42679 12.0924C2.24279 12.1744 2.07719 12.2926 1.93987 12.44C1.20587 13.17 0.892868 14.772 0.789868 15.443C0.783778 15.4792 0.786425 15.5163 0.797588 15.5512C0.808751 15.5861 0.828107 15.6179 0.85404 15.6438C0.879974 15.6698 0.911733 15.6891 0.946668 15.7003C0.981603 15.7114 1.0187 15.7141 1.05487 15.708C1.72587 15.605 3.32787 15.292 4.05987 14.56Z" fill="black"/>
</g>
<defs>
<clipPath id="clip0_8862_80881">
<rect width="16" height="16" fill="white" transform="translate(0.5)"/>
</clipPath>
</defs>
</svg>
