<svg width="16" height="21" viewBox="0 0 16 21" fill="none" xmlns="http://www.w3.org/2000/svg">
<path id="Vector" d="M15.2502 8.0402C13.1875 7.69642 11.4591 6.79876 9.97888 5.31857C8.51779 3.85749 7.44822 2.04306 6.33092 0.32414C5.95849 -0.258384 5.15633 0.0281011 5.02263 0.524679C4.88894 0.639274 4.80299 0.811166 4.83164 1.04991C5.06083 2.97892 5.01309 4.89838 4.38282 6.76055C3.73344 8.66091 2.32965 10.1793 0.69667 11.2871C0.572525 11.373 0.486583 11.478 0.438836 11.5926C-0.220085 11.7836 -0.134139 12.92 0.677575 12.9678C5.00353 13.197 7.23814 16.7208 9.13851 20.1491C9.13851 20.1968 9.13851 20.2541 9.13851 20.3019C9.13851 20.7411 9.47273 20.9703 9.81652 20.9799C10.3322 21.1136 10.972 20.5597 10.6378 19.9485C10.6091 19.8912 10.5805 19.8435 10.5519 19.7862C10.5901 15.7563 11.0866 11.2871 15.4508 9.75913C15.9951 9.56814 16.0428 8.93787 15.7659 8.59408C15.7468 8.33624 15.6036 8.0975 15.2502 8.0402ZM10.0935 13.0728C9.51094 14.4575 9.28174 15.9759 9.19579 17.5038C7.50552 14.8395 5.44283 12.5476 2.33922 11.8027C3.73345 10.6759 4.87938 9.28164 5.56695 7.58182C6.16858 6.08254 6.38823 4.49731 6.36913 2.90253C8.2504 5.64326 10.3513 8.09749 13.5886 9.0811C12.0034 9.97876 10.8383 11.3062 10.0935 13.0728Z" fill="white"/>
</svg>
