<svg width="37" height="48" viewBox="0 0 37 48" fill="none" xmlns="http://www.w3.org/2000/svg">
<path id="Vector" d="M34.8577 18.3776C30.1429 17.5918 26.1921 15.54 22.8089 12.1567C19.4692 8.81712 17.0245 4.66986 14.4707 0.740892C13.6194 -0.590592 11.7859 0.0642312 11.4803 1.19927C11.1747 1.4612 10.9783 1.85409 11.0438 2.39978C11.5676 6.80896 11.4585 11.1963 10.0179 15.4527C8.53359 19.7964 5.32491 23.267 1.59239 25.799C1.30863 25.9954 1.11219 26.2355 1.00305 26.4975C-0.503052 26.934 -0.306604 29.5315 1.54874 29.6406C11.4366 30.1645 16.5443 38.2189 20.888 46.055C20.888 46.1642 20.888 46.2951 20.888 46.4042C20.888 47.4083 21.652 47.9322 22.4378 47.954C23.6164 48.2596 25.0789 46.9936 24.3149 45.5966C24.2495 45.4657 24.184 45.3565 24.1185 45.2256C24.2058 36.0143 25.3408 25.799 35.316 22.3066C36.5602 21.87 36.6694 20.4294 36.0364 19.6436C35.9927 19.0543 35.6653 18.5086 34.8577 18.3776ZM23.0708 29.8807C21.7393 33.0457 21.2154 36.5163 21.019 40.0087C17.1555 33.9188 12.4408 28.6802 5.34678 26.9777C8.53361 24.402 11.1529 21.2152 12.7245 17.3299C14.0996 13.9029 14.6017 10.2796 14.558 6.63435C18.8581 12.8989 23.6601 18.5086 31.0597 20.7568C27.4363 22.8086 24.7733 25.8426 23.0708 29.8807Z" fill="white"/>
</svg>
