<svg width="25" height="24" viewBox="0 0 25 24" fill="none" xmlns="http://www.w3.org/2000/svg">
<g id="trash 1" clip-path="url(#clip0_12231_11528)">
<path id="Vector" d="M4.15625 7H20.1562" stroke="#E73131" stroke-width="0.8" stroke-linecap="round" stroke-linejoin="round"/>
<path id="Vector_2" d="M10.1562 11V17" stroke="#E73131" stroke-width="0.8" stroke-linecap="round" stroke-linejoin="round"/>
<path id="Vector_3" d="M14.1562 11V17" stroke="#E73131" stroke-width="0.8" stroke-linecap="round" stroke-linejoin="round"/>
<path id="Vector_4" d="M5.15625 7L6.15625 19C6.15625 19.5304 6.36696 20.0391 6.74204 20.4142C7.11711 20.7893 7.62582 21 8.15625 21H16.1562C16.6867 21 17.1954 20.7893 17.5705 20.4142C17.9455 20.0391 18.1562 19.5304 18.1562 19L19.1562 7" stroke="#E73131" stroke-width="0.8" stroke-linecap="round" stroke-linejoin="round"/>
<path id="Vector_5" d="M9.15625 7V4C9.15625 3.73478 9.26161 3.48043 9.44914 3.29289C9.63668 3.10536 9.89103 3 10.1562 3H14.1562C14.4215 3 14.6758 3.10536 14.8634 3.29289C15.0509 3.48043 15.1562 3.73478 15.1562 4V7" stroke="#E73131" stroke-width="0.8" stroke-linecap="round" stroke-linejoin="round"/>
</g>
<defs>
<clipPath id="clip0_12231_11528">
<rect width="24" height="24" fill="white" transform="translate(0.15625)"/>
</clipPath>
</defs>
</svg>
