<svg width="20" height="20" viewBox="0 0 20 20" fill="none" xmlns="http://www.w3.org/2000/svg">
<path fill-rule="evenodd" clip-rule="evenodd" d="M16.4856 3.26525C16.7761 3.19641 16.9786 3.12874 17.1445 3.05766C17.377 2.95805 17.5697 2.83871 17.8743 2.63774C18.1302 2.46883 18.4582 2.45412 18.7282 2.59944C18.9982 2.74476 19.1666 3.02662 19.1666 3.33326C19.1666 4.23403 19.0544 4.97231 18.7946 5.62204C18.5759 6.16855 18.2687 6.61243 17.9013 7.01644C17.7461 9.81904 16.9349 12.02 15.6946 13.6874C14.4091 15.4156 12.6988 16.5224 10.8959 17.1422C9.09823 17.7601 7.19884 17.8982 5.49723 17.689C3.80678 17.4811 2.24418 16.9215 1.15502 16.0744C0.856757 15.8424 0.75191 15.4387 0.899574 15.0909C1.04724 14.743 1.41045 14.5381 1.78452 14.5916C2.85616 14.7447 3.88773 14.501 4.73598 14.1527C4.569 14.0619 4.41156 13.9635 4.26522 13.8622C3.49227 13.3271 2.86865 12.6007 2.58796 12.0393C2.4718 11.807 2.4706 11.5338 2.58472 11.3005C2.64358 11.1801 2.72967 11.0775 2.83418 10.9993C1.70562 10.0679 1.24997 8.77962 1.24997 7.91659C1.24997 7.65997 1.36821 7.41766 1.57047 7.25975C1.65552 7.19335 1.75144 7.14497 1.85255 7.11584C1.7681 6.86856 1.70257 6.61871 1.65262 6.37684C1.43114 5.30446 1.4508 4.09407 1.69152 3.13115C1.7739 2.80163 2.04802 2.55509 2.38439 2.50797C2.72076 2.46086 3.05207 2.62261 3.2218 2.91682C4.11972 4.47322 5.77595 5.42456 7.31737 5.98811C8.04207 6.25306 8.71323 6.42189 9.21632 6.52569C9.3249 5.50853 9.6089 4.66971 10.0448 4.00346C10.6199 3.12447 11.422 2.60441 12.2833 2.37252C13.7689 1.97261 15.4173 2.42822 16.4856 3.26525ZM8.95698 8.17375C8.38607 8.0591 7.60141 7.86651 6.74508 7.55344C5.61407 7.13995 4.30072 6.49519 3.20058 5.49646C3.22027 5.68025 3.24822 5.86247 3.28484 6.03976C3.46922 6.93253 3.81182 7.43253 4.12266 7.58795C4.50283 7.77804 4.67902 8.22379 4.53154 8.62245C4.33187 9.1622 3.80672 9.20645 3.32957 9.0872C3.71334 9.66254 4.40312 10.2362 5.55364 10.428C5.95046 10.4941 6.24338 10.8343 6.24987 11.2365C6.25636 11.6388 5.97456 11.9882 5.58007 12.0671L4.85469 12.2122C4.96566 12.3086 5.08582 12.4032 5.2139 12.4919C5.79467 12.894 6.37778 13.0674 6.8812 12.9415C7.25824 12.8473 7.65037 13.0261 7.82634 13.3727C8.0023 13.7192 7.91537 14.1414 7.6168 14.3901C7.0802 14.8368 6.45352 15.1952 5.82546 15.4926C5.53061 15.6323 5.2011 15.7701 4.84323 15.8915C5.11847 15.9502 5.40487 15.9984 5.70063 16.0348C7.17612 16.2162 8.8184 16.0939 10.3541 15.566C11.8845 15.04 13.2991 14.1155 14.3574 12.6927C15.4141 11.2719 16.1516 9.30562 16.2506 6.6358C16.2583 6.4256 16.3453 6.22611 16.4941 6.07738C16.8687 5.70267 17.1784 5.27318 17.3307 4.76196C17.0641 4.84506 16.764 4.917 16.4065 4.98535C16.1352 5.0372 15.856 4.95134 15.6607 4.7561C15.0236 4.11899 13.7636 3.70002 12.7166 3.98189C12.2238 4.11455 11.7759 4.40173 11.4395 4.91592C11.0961 5.4409 10.8333 6.25875 10.8333 7.49995C10.8333 7.73577 10.7334 7.96054 10.5584 8.11855C10.1434 8.49312 9.44498 8.27173 8.95698 8.17375Z" fill="#0F0F0F"/>
</svg>
