<svg width="25" height="24" viewBox="0 0 25 24" fill="none" xmlns="http://www.w3.org/2000/svg">
<g clip-path="url(#clip0_8687_62643)">
<rect x="0.5" width="24" height="24" rx="2" fill="#00141B"/>
<path opacity="0.9" d="M22.625 0H2.375C1.33906 0 0.5 0.839062 0.5 1.875V22.125C0.5 23.1609 1.33906 24 2.375 24H22.625C23.6609 24 24.5 23.1609 24.5 22.125V1.875C24.5 0.839062 23.6609 0 22.625 0ZM17.2906 10.1344C17.2953 10.2375 17.2953 10.3453 17.2953 10.4531C17.2953 13.7109 14.8156 17.4703 10.2781 17.4703C8.88594 17.4703 7.5875 17.0625 6.5 16.3641C6.69219 16.3875 6.88906 16.3969 7.09063 16.3969C8.24375 16.3969 9.30781 16.0031 10.1516 15.3422C9.07344 15.3234 8.15938 14.6109 7.85 13.6312C8 13.6594 8.15469 13.6734 8.31406 13.6734C8.53906 13.6734 8.75938 13.6453 8.96563 13.5844C7.83594 13.3594 6.9875 12.3609 6.9875 11.1656V11.1375C7.32031 11.3203 7.7 11.4328 8.10312 11.4469C7.44219 11.0063 7.00625 10.2469 7.00625 9.39375C7.00625 8.94375 7.12812 8.51719 7.33906 8.15156C8.55781 9.64687 10.3719 10.6266 12.4203 10.7297C12.3781 10.5516 12.3547 10.3641 12.3547 10.1672C12.3547 8.80781 13.4609 7.70156 14.8203 7.70156C15.5281 7.70156 16.1703 8.00156 16.6203 8.47969C17.1828 8.36719 17.7078 8.16563 18.1859 7.87969C18.0031 8.45625 17.6094 8.93906 17.1031 9.24375C17.6 9.18281 18.0781 9.05156 18.5187 8.85469C18.1906 9.35156 17.7734 9.78281 17.2906 10.1344Z" fill="#ECE2DC"/>
</g>
<defs>
<clipPath id="clip0_8687_62643">
<rect x="0.5" width="24" height="24" rx="2" fill="white"/>
</clipPath>
</defs>
</svg>
