<svg width="21" height="21" viewBox="0 0 21 21" fill="none" xmlns="http://www.w3.org/2000/svg">
<path fill-rule="evenodd" clip-rule="evenodd" d="M16.9854 3.4381C17.2758 3.36927 17.4783 3.30159 17.6442 3.23052C17.8767 3.1309 18.0695 3.01157 18.3741 2.81059C18.63 2.64168 18.958 2.62697 19.228 2.77229C19.498 2.91761 19.6664 3.19947 19.6664 3.50611C19.6664 4.40688 19.5542 5.14517 19.2943 5.79489C19.0757 6.3414 18.7685 6.78528 18.4011 7.18929C18.2459 9.99189 17.4347 12.1928 16.1944 13.8602C14.9089 15.5885 13.1986 16.6952 11.3957 17.3151C9.59799 17.933 7.6986 18.0711 5.99699 17.8618C4.30654 17.654 2.74394 17.0943 1.65478 16.2472C1.35651 16.0152 1.25167 15.6116 1.39933 15.2637C1.547 14.9159 1.9102 14.711 2.28427 14.7645C3.35591 14.9176 4.38749 14.6739 5.23574 14.3256C5.06875 14.2347 4.91131 14.1364 4.76497 14.0351C3.99203 13.5 3.3684 12.7736 3.08771 12.2121C2.97155 11.9799 2.97035 11.7066 3.08447 11.4734C3.14334 11.353 3.22942 11.2504 3.33394 11.1721C2.20538 10.2407 1.74973 8.95247 1.74973 8.08944C1.74973 7.83282 1.86796 7.59051 2.07023 7.4326C2.15528 7.3662 2.2512 7.31782 2.3523 7.28869C2.26785 7.04141 2.20232 6.79156 2.15237 6.54969C1.9309 5.47731 1.95055 4.26692 2.19128 3.304C2.27365 2.97448 2.54777 2.72794 2.88415 2.68082C3.22051 2.63372 3.55182 2.79547 3.72155 3.08967C4.61948 4.64607 6.2757 5.59741 7.81712 6.16096C8.54182 6.42591 9.21299 6.59474 9.71607 6.69854C9.82465 5.68138 10.1087 4.84256 10.5446 4.17632C11.1197 3.29732 11.9217 2.77727 12.7831 2.54537C14.2687 2.14546 15.9171 2.60107 16.9854 3.4381ZM9.45674 8.3466C8.88582 8.23195 8.10116 8.03936 7.24484 7.72629C6.11382 7.3128 4.80047 6.66804 3.70034 5.66931C3.72003 5.8531 3.74798 6.03532 3.7846 6.21261C3.96897 7.10538 4.31157 7.60538 4.62241 7.7608C5.00259 7.95089 5.17877 8.39664 5.0313 8.79531C4.83163 9.33506 4.30648 9.37931 3.82933 9.26006C4.2131 9.83539 4.90288 10.4091 6.0534 10.6008C6.45021 10.667 6.74314 11.0071 6.74962 11.4094C6.75611 11.8116 6.47431 12.1611 6.07983 12.24L5.35445 12.3851C5.46541 12.4815 5.58557 12.5761 5.71365 12.6647C6.29442 13.0668 6.87754 13.2402 7.38095 13.1144C7.758 13.0201 8.15013 13.199 8.3261 13.5456C8.50205 13.8921 8.41512 14.3142 8.11655 14.563C7.57995 15.0096 6.95328 15.3681 6.32521 15.6655C6.03036 15.8051 5.70085 15.943 5.34299 16.0643C5.61822 16.1231 5.90462 16.1712 6.20039 16.2076C7.67587 16.3891 9.31815 16.2667 10.8538 15.7389C12.3842 15.2128 13.7988 14.2883 14.8572 12.8656C15.9139 11.4447 16.6514 9.47847 16.7503 6.80865C16.7581 6.59845 16.8451 6.39896 16.9938 6.25023C17.3685 5.87552 17.6782 5.44603 17.8305 4.93481C17.5639 5.01792 17.2637 5.08985 16.9062 5.1582C16.635 5.21005 16.3557 5.12419 16.1605 4.92895C15.5234 4.29184 14.2634 3.87287 13.2163 4.15474C12.7236 4.2874 12.2757 4.57458 11.9392 5.08877C11.5958 5.61376 11.3331 6.4316 11.3331 7.67281C11.3331 7.90862 11.2332 8.13339 11.0582 8.2914C10.6432 8.66597 9.94474 8.44458 9.45674 8.3466Z" fill="#0F0F0F"/>
</svg>
