<svg width="25" height="25" viewBox="0 0 25 25" fill="none" xmlns="http://www.w3.org/2000/svg">
<path d="M11.5996 4.6001C9.39043 4.6001 7.59961 6.39095 7.59961 8.6001C7.59961 8.63252 7.60008 8.66637 7.60092 8.70234C7.6118 9.16737 7.3006 9.57849 6.85008 9.69426C5.55537 10.0269 4.59961 11.2032 4.59961 12.6001C4.59961 14.2569 5.94278 15.6001 7.59961 15.6001H8.59961C9.15189 15.6001 9.59961 16.0478 9.59961 16.6001C9.59961 17.1524 9.15189 17.6001 8.59961 17.6001H7.59961C4.83822 17.6001 2.59961 15.3615 2.59961 12.6001C2.59961 10.5376 3.84781 8.76855 5.62886 8.00383C5.92816 4.97005 8.48707 2.6001 11.5996 2.6001C13.8232 2.6001 15.7625 3.80943 16.7986 5.60334C20.0203 5.70833 22.5996 8.35299 22.5996 11.6001C22.5996 14.9138 19.9134 17.6001 16.5996 17.6001C16.0473 17.6001 15.5996 17.1524 15.5996 16.6001C15.5996 16.0478 16.0473 15.6001 16.5996 15.6001C18.8088 15.6001 20.5996 13.8092 20.5996 11.6001C20.5996 9.39095 18.8088 7.6001 16.5996 7.6001C16.4889 7.6001 16.3796 7.60457 16.2714 7.61332C15.8445 7.64786 15.443 7.4067 15.273 7.0136C14.658 5.59183 13.2435 4.6001 11.5996 4.6001ZM11.8925 9.89299C12.283 9.50247 12.9162 9.50247 13.3067 9.89299L15.3067 11.893C15.6972 12.2835 15.6972 12.9167 15.3067 13.3072C14.9162 13.6977 14.283 13.6977 13.8925 13.3072L13.5996 13.0143V20.6001C13.5996 21.1524 13.1519 21.6001 12.5996 21.6001C12.0473 21.6001 11.5996 21.1524 11.5996 20.6001V13.0143L11.3067 13.3072C10.9162 13.6977 10.283 13.6977 9.8925 13.3072C9.50198 12.9167 9.50198 12.2835 9.8925 11.893L11.8925 9.89299Z" fill="#99A6AB" stroke="#CCCCCC" stroke-width="0.72" stroke-miterlimit="10" stroke-linecap="round" stroke-linejoin="round"/>
</svg>
