<svg width="20" height="20" viewBox="0 0 20 20" fill="none" xmlns="http://www.w3.org/2000/svg">
<path d="M10 3.33073C8.15905 3.33073 6.66667 4.82311 6.66667 6.66406C6.66667 8.50501 8.15905 9.9974 10 9.9974C11.8409 9.9974 13.3333 8.50501 13.3333 6.66406C13.3333 4.82311 11.8409 3.33073 10 3.33073ZM5 6.66406C5 3.90264 7.23858 1.66406 10 1.66406C12.7614 1.66406 15 3.90264 15 6.66406C15 9.42549 12.7614 11.6641 10 11.6641C7.23858 11.6641 5 9.42549 5 6.66406ZM6.66667 14.9974C5.28595 14.9974 4.16667 16.1167 4.16667 17.4974C4.16667 17.9576 3.79357 18.3307 3.33333 18.3307C2.8731 18.3307 2.5 17.9576 2.5 17.4974C2.5 15.1962 4.36548 13.3307 6.66667 13.3307H13.3333C15.6345 13.3307 17.5 15.1962 17.5 17.4974C17.5 17.9576 17.1269 18.3307 16.6667 18.3307C16.2064 18.3307 15.8333 17.9576 15.8333 17.4974C15.8333 16.1167 14.714 14.9974 13.3333 14.9974H6.66667Z" fill="#10303D"/>
</svg>
