<svg width="277" height="166" viewBox="0 0 277 166" fill="none" xmlns="http://www.w3.org/2000/svg">
<path d="M17.4554 165.811L102.8 165.361L125.553 165.351H133.094L155.887 165.341L260.019 165.311C260.019 165.311 283.834 134.531 258.397 105.301C232.019 74.9908 219.19 99.6708 211.088 57.0108C190.678 -50.3792 -11.1063 12.1208 41.821 103.511C60.8588 136.421 4.28617 118.931 17.4554 165.811Z" fill="#00212D"/>
<path d="M116.17 160.633C116.17 160.633 116.491 164.382 115.7 164.762L105.555 164.743C105.555 164.743 105.555 163.572 107.187 163.312C108.819 163.052 111.684 162.103 112.164 159.983C112.655 157.863 116.17 160.633 116.17 160.633Z" fill="#285E6A"/>
<path d="M145.292 159.179C145.292 159.179 145.592 164.369 144.801 164.759L134.656 164.739C134.656 164.739 134.656 163.569 136.289 163.309C137.921 163.049 140.785 162.099 141.266 159.979C141.747 157.859 145.292 159.179 145.292 159.179Z" fill="#285E6A"/>
<path d="M145.632 159.82C145.632 159.82 143.619 160.86 142.758 161.04C141.796 161.25 140.004 161.12 140.004 161.12C136.548 151.88 125.853 114.33 125.853 114.33C125.392 124.71 123.509 135.07 121.557 143.4C121.507 143.62 121.456 143.84 121.396 144.06C121.346 144.26 121.296 144.46 121.256 144.66C121.256 144.67 121.256 144.68 121.246 144.69C118.883 154.51 116.509 161.2 116.509 161.2C116.509 161.2 115.898 161.97 114.186 161.62C112.233 161.21 111.582 160.36 111.582 160.36C112.844 120.35 113.555 97.7799 113.555 97.7799C113.555 97.7799 130.49 88.6399 135.096 96.4499C139.693 104.26 145.632 159.82 145.632 159.82Z" fill="#024355"/>
<path d="M138.803 101.853C136.61 94.0128 136.249 86.5728 136.259 80.4028C136.279 71.6328 137.071 65.4528 134.427 64.4128C134.427 64.4128 126.255 62.0428 120.637 60.9928C119.745 60.5028 118.744 59.9828 117.993 59.6828C116.22 58.9628 109.3 48.9128 108.128 46.5128C106.957 44.1028 105.014 33.6328 105.014 33.6328L102.32 34.4928C102.32 34.4928 101.509 46.2528 101.899 49.3228C102.29 52.3928 110.852 65.5728 111.563 66.7228C114.618 77.8528 111.563 95.9728 112.955 100.013C113.676 102.093 126.976 105.903 134.257 105.423C134.617 105.403 134.968 105.363 135.298 105.323C137.021 105.083 138.272 104.533 138.733 103.573C138.963 103.093 138.993 102.533 138.803 101.853Z" fill="#0D6211"/>
<path d="M105.013 33.6309C105.013 33.6309 106.536 29.2109 105.424 29.0809C104.312 28.9509 101.508 28.9709 101.168 29.7109C100.827 30.4609 102.319 34.4909 102.319 34.4909L105.013 33.6309Z" fill="#FFB27D"/>
<path d="M101.167 29.7108C101.167 29.7108 101.027 31.2308 101.508 31.5208C101.999 31.8108 102.169 29.7108 102.169 29.7108C102.169 29.7108 102.199 31.4308 102.57 31.5508C102.94 31.6708 103.17 29.5708 103.17 29.5708C103.17 29.5708 103.21 31.2408 103.461 31.1808C103.711 31.1208 103.891 29.5708 103.891 29.5708C103.891 29.5708 104.002 30.7808 104.352 30.5608C104.693 30.3408 105.023 29.0508 105.023 29.0508L101.167 29.7108Z" fill="#FFB27D"/>
<path d="M105.012 33.63C105.012 33.63 106.053 32.81 106.284 32.07C106.514 31.32 107.185 30.07 106.834 29.92C106.474 29.77 105.422 31.38 105.422 31.38L105.012 33.63Z" fill="#FFB27D"/>
<path d="M123.081 59.7911L122.95 60.4711C122.95 60.4711 122.339 62.5611 124.903 63.3911C127.467 64.2211 129.62 64.6011 129.87 62.9511C129.89 61.6311 129.85 59.5811 130.041 58.5211C130.111 58.1311 130.221 57.7211 130.381 57.2711L125.324 56.1711L123.782 56.1211L123.081 59.7911Z" fill="#FFB27D"/>
<path d="M123.791 56.1094L123.32 58.5894C128.127 59.8594 130.23 57.7194 130.391 57.2694L125.333 56.1694L123.791 56.1094Z" fill="#E2915A"/>
<path d="M131.131 56.2415C129.639 59.2615 125.543 58.0015 123.82 57.3015C123.33 57.1015 123.039 56.9515 123.039 56.9515C122.518 56.6415 122.448 55.6615 122.629 54.4615C122.989 52.0715 124.301 48.7915 124.942 48.0415C125.893 46.9015 127.396 45.8015 131.261 47.9815C135.127 50.1615 133.044 52.3615 131.131 56.2415Z" fill="#FFB27D"/>
<path d="M124.523 44.6406C124.523 44.6406 126.386 45.0106 128.809 44.6806C130.772 44.4106 132.745 45.8706 133.356 46.4406C133.366 46.3206 133.366 46.1506 133.306 45.9606C133.306 45.9606 133.566 46.2806 133.526 46.6106C133.556 46.6406 133.566 46.6606 133.556 46.6706C133.556 46.6706 133.937 46.7106 134.147 46.8806C134.147 46.8806 133.987 46.8106 133.897 46.9006C133.887 46.9106 133.877 46.9206 133.867 46.9206C136.23 49.0006 135.269 53.3806 134.107 54.1306C132.715 55.0306 130.322 57.5206 130.322 57.5206C130.322 57.5206 130.402 56.6106 130.892 55.6106C131.383 54.6106 130.472 54.3506 129.45 53.5506C128.429 52.7506 129.771 51.6706 128.99 50.5806C128.208 49.4806 124.373 48.9306 124.603 48.3206C123.351 47.4306 124.483 44.7806 124.523 44.6406Z" fill="#285E6A"/>
<path d="M125.135 55.1222C125.135 55.1222 124.884 55.4922 123.883 55.0522C123.883 55.0522 123.041 54.6822 123.242 54.2422C123.242 54.2422 124.193 54.2322 125.135 55.1222Z" fill="white"/>
<path d="M124.011 65.3516C124.011 65.3516 121.707 80.6416 104.452 91.2516L102.84 95.9216H109.069C109.069 95.9216 124.521 82.9816 125.563 65.7916L124.011 65.3516Z" fill="#DA6E01"/>
<path d="M124.012 65.3513V63.0312L126.856 63.8413L125.554 65.7913L124.012 65.3513Z" fill="#DB6516"/>
<path d="M123.08 59.7891L121.418 61.2091C121.418 61.2091 120.957 63.1891 122.079 65.3491L125.434 63.4291C125.434 63.4291 123.451 62.4791 123.08 59.7891Z" fill="#083F0B"/>
<path d="M125.434 63.4297C125.434 63.4297 125.764 65.2297 126.635 66.1197C126.635 66.1197 130.411 65.4597 131.462 63.6497L129.88 61.1797C129.89 61.1797 129.51 62.8697 125.434 63.4297Z" fill="#083F0B"/>
<path d="M148.078 103.059C148.078 103.059 148.088 106.479 147.767 107.159C147.447 107.839 146.035 110.059 145.384 110.529C144.733 110.999 145.524 107.789 145.324 107.199C145.123 106.609 144.873 108.359 144.563 108.429C144.262 108.499 144.182 106.959 144.112 106.399C144.042 105.839 145.394 104.309 145.804 103.069C146.205 101.829 148.078 103.059 148.078 103.059Z" fill="#FFB27D"/>
<path d="M134.386 64.4102C134.386 64.4102 137.71 65.3102 139.964 70.2602C142.327 75.4502 148.646 86.9802 148.877 88.5702C149.107 90.1602 148.456 105.02 148.456 105.02C148.456 105.02 145.692 105.13 144.831 103.82C144.831 103.82 143.869 90.7802 143.439 90.0702C143.008 89.3602 132.122 76.4002 133.044 73.1102C133.965 69.8102 134.386 64.4102 134.386 64.4102Z" fill="#0D6211"/>
<path d="M138.733 103.56C137.912 104.27 136.8 104.88 135.298 105.31C134.927 105.42 134.587 105.45 134.256 105.41C128.177 104.78 129.109 81.1803 132.053 79.4403C135.158 77.6003 136.259 80.3903 136.259 80.3903C136.239 86.5503 136.6 94.0003 138.803 101.84C138.993 102.53 138.963 103.09 138.733 103.56Z" fill="#083F0B"/>
<path d="M121.258 144.663C121.298 144.483 121.348 144.283 121.398 144.062C121.348 144.263 121.298 144.463 121.258 144.663Z" fill="#285E6A"/>
<path d="M121.559 143.402C123.421 134.602 121.418 111.032 122.31 110.582C123.231 110.122 125.855 114.332 125.855 114.332C125.384 124.722 123.501 135.072 121.559 143.402Z" fill="#1B3E46"/>
<path d="M76.0408 161.361L75.5 157.511L77.7533 155.621L78.4643 160.731L76.0408 161.361Z" fill="#FFB27D"/>
<path d="M83.519 164.812H74.3355C74.3355 164.812 74.1152 163.412 74.5959 162.352C75.0566 161.332 75.7676 160.702 75.8377 159.922C76.4186 160.522 77.1396 160.912 78.4716 160.732C78.6318 160.992 79.5231 162.402 80.0639 162.792C80.6548 163.232 83.3387 163.072 83.519 164.812Z" fill="#285E6A"/>
<path d="M81.6773 109.262C81.0764 114.092 80.5857 118.642 80.1851 122.882C78.042 145.482 78.4626 159.292 78.4626 159.292C78.4626 159.292 78.3124 159.702 76.9804 159.702C76.2293 159.702 75.4983 159.542 75.4983 159.542C75.4983 159.542 70.7113 144.782 71.0818 136.392C71.1219 135.382 71.242 134.462 71.4523 133.672C72.604 129.372 67.2061 112.942 73.0747 106.832C78.9433 100.712 81.9477 107.052 81.6773 109.262Z" fill="#ED7832"/>
<path d="M81.6773 109.262C81.0764 114.092 80.5857 118.642 80.1851 122.882L71.0818 136.392C71.1219 135.382 71.242 134.462 71.4523 133.672C72.604 129.372 67.2061 112.942 73.0747 106.832C78.9433 100.712 81.9477 107.052 81.6773 109.262Z" fill="#DA6E01"/>
<path d="M88.9071 63.2208C88.9071 63.2208 88.6868 62.1208 88.4364 61.2808C88.3262 60.9108 89.0974 58.4608 89.6281 58.1608C90.1589 57.8608 91.5509 59.5108 91.1504 60.7708C90.9501 61.4208 90.6196 63.5308 90.6196 63.5308L88.9071 63.2208Z" fill="#FFB27D"/>
<path d="M88.9069 63.2197C88.9069 63.2197 88.6165 62.5797 88.3561 62.4797C88.0957 62.3797 87.8153 61.3297 87.625 60.9197C87.625 60.9197 87.8053 60.6497 88.1357 60.9997C88.336 61.2097 88.7767 61.8397 88.7767 61.8397L88.9069 63.2197Z" fill="#FFB27D"/>
<path d="M50.9831 66.9323C50.923 67.0523 50.8529 67.2524 50.7828 67.4524C50.7828 67.4024 50.7828 67.3424 50.7828 67.2924C50.7828 66.9024 49.3307 64.7923 48.7298 64.6623C48.129 64.5323 47.2877 66.5124 48.0388 67.6024C48.4194 68.1624 49.3608 70.0924 49.3608 70.0924L50.913 69.2924C50.913 69.2924 51.0032 68.5924 51.2235 68.4224C51.4438 68.2424 51.4037 67.1623 51.4638 66.7123C51.4438 66.7123 51.1834 66.5023 50.9831 66.9323Z" fill="#FFB27D"/>
<path d="M60.629 160.209C60.4988 158.969 60.4688 155.719 60.4688 155.719C60.4688 155.719 63.7936 154.659 63.6634 155.389C63.0625 158.969 63.2228 160.739 63.2228 160.739L61.8808 161.539L60.629 160.209Z" fill="#FFB27D"/>
<path d="M78.9057 109.032C78.9057 109.032 66.077 144.142 63.5533 159.372C63.5533 159.372 62.9724 159.772 61.8808 159.642C60.639 159.492 60.3085 158.632 60.3085 158.632C60.3085 158.632 57.9852 140.382 62.5919 134.042C65.7565 129.692 61.2299 110.562 68.6006 109.032C75.9614 107.502 78.9057 109.032 78.9057 109.032Z" fill="#ED7832"/>
<path d="M76.622 75.2598C76.622 75.2498 76.622 75.2498 76.622 75.2598C76.622 75.2398 76.612 75.2298 76.612 75.2098C76.5419 74.8998 76.4518 74.5998 76.3717 74.2898C76.1013 73.3698 75.7808 72.4898 75.4403 71.7098C75.24 71.2698 75.0397 70.8498 74.8294 70.4898C74.7994 70.4298 74.7693 70.3798 74.7393 70.3298C74.2486 69.4998 73.7378 68.9198 73.2772 68.7498C72.4359 68.4298 71.5046 68.5198 70.8636 68.6498C71.0038 68.4498 71.3243 68.3398 71.3243 68.3398C70.9137 68.3398 70.0725 68.8698 70.0725 68.8698C64.1638 67.5498 64.5144 75.8998 64.9149 77.7898C65.3155 79.6798 63.4128 80.5998 60.7288 82.5398C55.6114 86.2298 55.6915 90.1498 55.6915 90.1498C55.7416 90.1698 55.7916 90.1898 55.8417 90.2198C56.052 89.7098 56.4826 88.7498 56.9433 88.5498C56.9333 88.5998 56.5628 89.8398 56.4526 90.5298C57.2337 90.9598 58.3153 91.6198 59.487 92.3698C61.0593 93.3698 62.7818 94.5298 64.1739 95.4598C64.1038 95.0798 64.0437 94.5398 64.1438 94.2298L64.5845 95.5998L64.6446 95.7798C65.5258 96.3798 66.2269 96.8598 66.5874 97.0998C66.6274 97.1198 66.6575 97.1498 66.6875 97.1698C66.7877 97.2398 66.8478 97.2798 66.8478 97.2798C66.7276 96.7998 67.2484 95.5398 68.1096 93.9498C68.1697 93.8398 68.2298 93.7298 68.2999 93.6098C68.5803 93.1098 68.8907 92.5798 69.2312 92.0298C69.3514 91.8298 69.4716 91.6398 69.6018 91.4398C69.7019 91.2798 69.8021 91.1198 69.9122 90.9498C70.1626 90.5598 70.423 90.1698 70.6934 89.7798C71.3844 88.7698 72.1054 87.7598 72.8265 86.8398C73.868 85.4998 74.8895 84.3298 75.7508 83.5698C75.7808 83.5098 75.8008 83.4498 75.8309 83.3898C75.9611 83.0798 76.0712 82.7298 76.1514 82.3798C76.1714 82.2698 76.2014 82.1698 76.2214 82.0598C76.4318 80.9398 76.4418 79.8198 76.4318 79.5598C76.5019 80.6398 76.4718 81.4598 76.4017 82.0798C76.3817 82.2198 76.3717 82.3398 76.3516 82.4598C76.3016 82.7198 76.2515 82.9398 76.2014 83.1198C76.3416 82.9498 76.4618 82.7598 76.572 82.5498C76.6421 82.4098 76.7122 82.2698 76.7622 82.1198C77.4132 80.3498 77.2229 77.7198 76.622 75.2598Z" fill="#033945"/>
<path d="M75.5173 83.7123C75.5374 83.7223 73.8649 84.9323 72.4428 84.7623C71.1109 84.6023 70.0193 83.0623 70.0393 83.0623C70.5701 82.8723 70.6102 82.1023 70.1194 78.9023L70.3698 78.9123L74.626 79.1123C74.626 79.1123 74.7262 80.4223 74.9064 81.6523C75.0567 82.6723 75.2569 83.6423 75.5173 83.7123Z" fill="#FFB27D"/>
<path d="M74.6273 79.1102C74.6273 79.1102 74.7275 80.4202 74.9077 81.6502C72.5843 81.9302 71.0521 80.0002 70.3711 78.9102L74.6273 79.1102Z" fill="#ED975D"/>
<path d="M69.88 78.5205C69.88 78.5205 68.3878 76.7905 67.847 75.2005C67.4664 74.0605 67.4164 69.6505 71.8628 69.6305C71.8628 69.6305 73.1447 69.5705 74.4566 70.1905C75.4982 70.6905 77.0705 71.8605 76.099 75.8605L75.8887 77.1905L69.88 78.5205Z" fill="#033945"/>
<path d="M82.2083 108.359C82.2083 108.359 76.6702 111.639 69.7301 109.959C69.6499 109.939 64.0117 109.039 64.0117 109.039C64.1119 108.779 64.8329 104.419 64.9331 104.179C66.1649 100.999 68.4182 83.7594 70.3009 82.9094C70.7816 83.4294 72.1536 83.7894 73.3353 83.6894C74.6873 83.5694 75.138 82.9894 75.0278 82.3594C76.53 83.0694 77.6817 83.7194 77.6817 83.7194C79.0437 85.7694 82.2083 108.359 82.2083 108.359Z" fill="white"/>
<path d="M75.5692 80.1512C75.5692 80.1512 70.1112 81.0512 69.6005 77.6512C69.0897 74.2512 68.0382 72.0712 71.5032 71.3512C74.9683 70.6312 75.8396 71.8312 76.2902 72.9212C76.7409 74.0212 76.9812 79.8312 75.5692 80.1512Z" fill="#FFB27D"/>
<path d="M73.9875 70.901C73.9875 70.901 73.0862 75.111 70.8729 76.051C68.6597 76.981 67.5781 76.511 67.5781 76.511C67.5781 76.511 69.1304 74.851 69.1304 72.351C69.1304 72.361 72.5754 69.171 73.9875 70.901Z" fill="#033945"/>
<path d="M73.668 71.2792C73.668 71.2792 74.9198 71.9992 75.3204 72.8292C75.721 73.6592 76.1115 75.4192 76.6223 75.2792C76.6223 75.2792 77.3433 72.3992 75.8512 71.0492C74.2588 69.6292 73.668 71.2792 73.668 71.2792Z" fill="#033945"/>
<path d="M90.6602 63.3009C90.4398 63.2209 90.1094 63.0409 89.6887 63.0009C89.3082 62.9709 88.8275 63.0909 88.8275 63.0909C88.8275 63.0909 87.2852 72.6509 87.1751 73.1509C87.0649 73.6609 80.5754 80.9509 78.8229 80.9309C77.2406 80.9009 75.3678 82.1209 75.0273 82.3609C75.0273 82.3609 78.7027 90.1309 78.893 91.5909C79.0933 93.1809 80.9961 117.631 80.9961 117.631C80.9961 117.631 80.8859 118.771 83.009 118.161C85.1421 117.551 85.6729 117.041 85.6729 117.041C85.6729 117.041 83.72 97.7909 83.3094 91.8109C83.2594 91.0109 83.1192 90.2609 82.9389 89.5809C82.7586 88.9209 82.8988 88.2109 83.3094 87.6609C86.0034 83.9709 90.2496 78.0009 90.4899 76.7309C90.8104 74.8309 90.6602 63.3009 90.6602 63.3009Z" fill="#024355"/>
<path d="M68.2885 164.812H59.1051C59.1051 164.812 58.8848 163.412 59.3655 162.352C59.8261 161.332 60.5372 160.702 60.6073 159.922C61.1881 160.522 61.9092 160.912 63.2411 160.732C63.4014 160.992 64.2927 162.402 64.8334 162.792C65.4243 163.232 68.0982 163.072 68.2885 164.812Z" fill="#285E6A"/>
<path d="M74.5984 92.3298C74.288 90.4298 70.3322 82.7898 70.3322 82.7898C70.3322 82.7898 67.8285 82.0398 66.1861 82.6398C64.5437 83.2398 56.0313 78.4398 55.7609 77.9898C55.4905 77.5498 50.9339 69.0698 50.9339 69.0698C50.9339 69.0698 50.5533 68.8498 49.9524 69.1698C49.3516 69.4798 49.3516 70.0898 49.3516 70.0898C49.3516 70.0898 52.8667 80.7698 53.8081 82.4198C54.3689 83.4198 59.1158 86.8798 62.8012 89.4798C63.5022 89.9798 63.8728 90.8198 63.7526 91.6698C63.2619 95.3198 63.1317 97.3798 62.5608 103.64C62.0902 108.84 61.9099 118.9 61.9099 118.9C61.9099 118.9 66.0259 120.32 68.8701 120.51C71.7142 120.7 72.3351 117.71 72.3351 117.71C72.3351 117.71 74.9189 94.2898 74.5984 92.3298Z" fill="#024355"/>
<path d="M73.7852 78.4721C73.7852 78.4721 74.4461 78.8621 75.2273 78.7421C75.7681 78.6621 75.8882 78.0221 75.8882 78.0221C75.8882 78.0221 75.5177 77.9021 74.9168 78.0221C74.3259 78.1521 73.7852 78.4721 73.7852 78.4721Z" fill="white"/>
<path d="M180.073 77.7617C180.073 77.7617 181.766 80.5517 178.581 82.3117C178.581 82.3117 181.035 83.1917 181.886 82.8617C181.886 82.8617 181.676 83.0817 181.515 83.1617C181.515 83.1617 183.819 83.8917 184.96 83.4917C186.112 83.0917 188.576 71.9617 181.786 71.3717C181.786 71.3717 176.428 69.4517 175.296 75.4317C174.165 81.4117 172.102 80.8217 172.102 80.8217C172.102 80.8217 172.602 81.2417 172.883 81.3217C172.883 81.3217 173.323 81.2917 173.464 81.1117C173.464 81.1117 173.293 81.4117 173.163 81.4917C173.163 81.4917 175.336 82.3117 176.668 81.8517C178 81.3917 180.053 79.0517 180.073 77.7617Z" fill="#033945"/>
<path d="M173.242 165.622H181.915C181.915 165.622 182.125 164.302 181.674 163.302C181.244 162.342 180.563 161.752 180.503 161.012C179.952 161.582 179.271 161.942 178.019 161.772C177.869 162.022 177.028 163.352 176.517 163.722C175.946 164.132 173.422 163.992 173.242 165.622Z" fill="#285E6A"/>
<path d="M180.413 162.324C180.413 162.324 179.672 162.564 178.901 162.634C177.539 162.754 177.338 162.354 177.338 162.354C177.338 162.354 175.986 150.294 171.59 127.234C170.959 123.904 170.709 122.064 170.478 119.104C170.408 118.214 170.338 117.234 170.268 116.074C170.068 112.964 170.538 107.734 172.872 106.364C173.933 105.734 175.376 105.914 177.328 107.444C177.479 107.564 177.639 107.694 177.799 107.834C183.487 112.754 181.154 126.864 181.384 133.504C181.424 134.604 181.535 135.504 181.755 136.114C182.045 136.904 182.676 138.004 182.826 139.044C184.018 147.634 180.413 162.324 180.413 162.324Z" fill="#024355"/>
<path d="M181.384 133.492L170.478 119.092C170.408 118.202 170.338 117.222 170.268 116.062C170.068 112.952 170.538 107.722 172.872 106.352L177.328 107.432C177.479 107.552 177.639 107.682 177.799 107.822C183.487 112.732 181.154 126.852 181.384 133.492Z" fill="#1B3E46"/>
<path d="M212.22 147.413L208.615 139.543C208.615 139.543 207.323 139.903 206.602 140.733C205.911 141.523 205.41 141.383 203.828 140.293C204.419 141.213 204.499 141.753 204.87 142.963C205.16 143.003 206.812 144.593 208.505 145.033C209.186 145.203 210.658 147.933 212.22 147.413Z" fill="#285E6A"/>
<path d="M174.392 109.811C174.392 109.811 182.163 136.771 185.008 138.511C187.852 140.251 202.814 142.631 205.858 143.931C205.858 143.931 206.229 143.401 206.008 142.271C205.958 142.021 205.528 141.111 205.528 141.111C205.528 141.111 196.234 134.131 190.115 133.431C188.593 133.261 193.21 110.111 182.945 109.181C173.591 108.341 174.392 109.811 174.392 109.811Z" fill="#024355"/>
<path d="M163.317 65.5727C163.317 65.5727 163.527 64.5327 163.758 63.7427C163.858 63.3927 163.137 61.0827 162.636 60.8027C162.135 60.5227 160.823 62.0727 161.194 63.2627C161.384 63.8727 161.695 65.8727 161.695 65.8727L163.317 65.5727Z" fill="#FFB27D"/>
<path d="M163.316 65.5742C163.316 65.5742 163.587 64.9742 163.837 64.8742C164.088 64.7742 164.348 63.7942 164.528 63.3942C164.528 63.3942 164.358 63.1342 164.047 63.4642C163.857 63.6642 163.447 64.2542 163.447 64.2542L163.316 65.5742Z" fill="#FFB27D"/>
<path d="M199.099 69.0735C199.149 69.1835 199.229 69.3835 199.289 69.5635C199.289 69.5135 199.289 69.4635 199.289 69.4135C199.289 69.0435 200.661 67.0535 201.222 66.9235C201.783 66.8035 202.584 68.6635 201.873 69.7035C201.513 70.2335 200.631 72.0535 200.631 72.0535L199.169 71.3035C199.169 71.3035 199.089 70.6435 198.879 70.4835C198.668 70.3135 198.709 69.2935 198.648 68.8735C198.658 68.8635 198.899 68.6635 199.099 69.0735Z" fill="#FFB27D"/>
<path d="M175.946 84.9016C175.925 84.9116 177.508 86.0516 178.85 85.8916C180.112 85.7416 181.133 84.2916 181.123 84.2816C180.622 84.1016 180.582 83.3816 181.043 80.3516L180.803 80.3616L176.787 80.5516C176.787 80.5516 176.697 81.7916 176.526 82.9416C176.386 83.9216 176.186 84.8316 175.946 84.9016Z" fill="#FFB27D"/>
<path d="M176.788 80.5533C176.788 80.5533 176.698 81.7933 176.527 82.9433C178.721 83.2033 180.163 81.3933 180.804 80.3633L176.788 80.5533Z" fill="#ED975D"/>
<path d="M181.263 80.0011C181.263 80.0011 182.675 78.3711 183.175 76.8711C183.536 75.8011 183.586 71.6311 179.39 71.6111C179.39 71.6111 178.178 71.5511 176.946 72.1411C175.965 72.6111 174.483 73.7211 175.394 77.4911L175.584 78.7511L181.263 80.0011Z" fill="#033945"/>
<path d="M170.918 108.773C170.918 108.773 174.854 111.253 181.413 109.663C181.493 109.643 185.139 109.063 185.139 109.063C185.049 108.813 181.213 102.483 181.123 102.253C179.961 99.2533 182.655 84.9433 180.873 84.1433C180.422 84.6333 179.12 84.9733 178.018 84.8733C176.736 84.7633 176.316 84.2133 176.416 83.6133C175.004 84.2833 173.912 84.9033 173.912 84.9033C172.62 86.8433 170.918 108.773 170.918 108.773Z" fill="#FFB27D"/>
<path d="M175.896 81.5418C175.896 81.5418 181.043 82.3918 181.524 79.1818C182.005 75.9718 182.996 73.9218 179.731 73.2418C176.467 72.5618 175.645 73.6918 175.215 74.7218C174.794 75.7518 174.564 81.2318 175.896 81.5418Z" fill="#FFB27D"/>
<path d="M177.387 72.8122C177.387 72.8122 178.238 76.7922 180.321 77.6622C182.404 78.5422 183.436 78.1022 183.436 78.1022C183.436 78.1022 181.973 76.5322 181.963 74.1822C181.973 74.1922 178.719 71.1822 177.387 72.8122Z" fill="#033945"/>
<path d="M177.697 73.1736C177.697 73.1736 176.515 73.8536 176.134 74.6336C175.754 75.4136 175.393 77.0736 174.902 76.9436C174.902 76.9436 174.221 74.2236 175.634 72.9536C177.136 71.6136 177.697 73.1736 177.697 73.1736Z" fill="#033945"/>
<path d="M200.302 72.0411C200.302 72.0411 196.987 82.1211 196.096 83.6711C195.565 84.6111 189.587 88.3311 186.112 90.7811C186.071 90.8111 186.031 90.8611 185.981 90.9411C185.11 92.2811 182.426 100.561 183.067 102.041C185.771 108.291 187.634 110.701 188.305 112.451C188.645 113.321 188.195 114.301 187.303 114.621C186.192 115.021 184.549 115.511 182.616 115.841C182.246 115.901 181.865 115.961 181.475 116.011C176.137 116.691 172.532 115.441 170.689 114.511C169.818 114.071 169.297 113.161 169.357 112.201C169.467 110.221 170.459 108.271 170.899 103.521C171.24 99.9111 168.125 94.4311 168.255 92.5111C168.306 91.7511 168.906 90.8411 169.227 90.2511C169.798 89.2111 170.118 88.2711 169.738 87.7411C167.194 84.2611 161.716 79.4611 161.496 78.2611C161.165 76.5011 161.315 65.6211 161.315 65.6211C161.526 65.5511 161.836 65.3711 162.237 65.3411C162.597 65.3111 163.048 65.4211 163.048 65.4211C163.048 65.4211 164.5 74.4411 164.61 74.9111C164.72 75.3911 170.839 82.2711 172.492 82.2511C173.984 82.2211 176.087 83.3711 176.407 83.6011C176.407 83.6011 175.065 85.9711 174.735 89.1611C174.505 91.4011 175.997 90.4011 176.938 88.8711C178.21 86.8011 180.774 83.8411 180.774 83.8411C180.774 83.8411 182.857 83.3011 184.409 83.8611C185.961 84.4211 193.993 79.8911 194.253 79.4811C194.514 79.0611 198.81 71.0611 198.81 71.0611C198.81 71.0611 199.171 70.8511 199.741 71.1511C200.302 71.4711 200.302 72.0411 200.302 72.0411Z" fill="#ED7832"/>
<path d="M177.389 79.8038C177.389 79.8038 177.168 80.2438 176.868 80.2538C176.567 80.2638 175.816 80.1938 175.766 80.1138C175.716 80.0338 175.586 79.5738 175.586 79.5738C175.586 79.5738 176.838 79.5238 177.389 79.8038Z" fill="white"/>
<path d="M187.312 114.643C186.2 115.043 184.558 115.533 182.625 115.863C180.782 113.333 177.668 110.143 178.469 104.273C179.3 98.2131 185.269 91.8331 185.98 90.9531C185.109 92.2931 182.425 100.573 183.066 102.053C185.77 108.303 187.632 110.713 188.303 112.463C188.644 113.343 188.193 114.323 187.312 114.643Z" fill="#DA6E01"/>
<path d="M169.247 90.2634C169.818 89.2234 170.138 88.2834 169.758 87.7534C167.214 84.2734 161.736 79.4734 161.516 78.2734C162.056 79.5734 168.696 83.4634 170.569 85.1334C172.402 86.8034 169.317 90.1834 169.247 90.2634Z" fill="#DA6E01"/>
<path d="M57.8019 42.2813C57.8019 42.2813 59.0437 43.9813 58.9136 45.9213C58.8134 47.3613 57.5315 48.8213 57.4414 48.8813L59.4744 49.9613C59.4744 49.9613 60.9766 47.2913 60.4758 45.0613C60.3156 44.3813 59.6046 43.2813 59.0738 42.8013C58.4829 42.2613 57.8019 42.2813 57.8019 42.2813Z" fill="#6BB7BF"/>
<path d="M53.6569 42.4611L52.375 39.6211C52.375 39.6211 58.3738 39.8211 60.3667 44.7011C60.3567 44.7111 56.1605 41.7211 53.6569 42.4611Z" fill="#86D1CD"/>
<path d="M30.995 114.662C30.995 114.662 29.5629 113.582 29.1924 111.972C28.922 110.772 29.603 109.272 29.663 109.212L27.7503 108.832C27.7503 108.832 27.1794 111.372 28.1408 113.062C28.4312 113.582 29.2925 114.292 29.8433 114.562C30.4442 114.842 30.995 114.662 30.995 114.662Z" fill="#6BB7BF"/>
<path d="M34.3308 113.493L36.0734 115.483C36.0734 115.483 31.1462 116.793 28.332 113.313C28.322 113.312 32.4781 114.713 34.3308 113.493Z" fill="#86D1CD"/>
<path d="M250.294 123.93C250.294 123.93 250.163 122.06 253.689 121.15C255.261 120.74 258.776 121.47 256.553 124.91C254.239 128.5 252.176 127.2 252.176 127.2C252.176 127.2 257.003 123.43 255.071 121.7C252.937 119.8 252.116 123.57 252.116 123.57C252.116 123.57 251.255 123.54 250.294 123.93Z" fill="#F1A34F"/>
<path d="M251.534 127.431C251.534 127.431 250.223 126.721 250.743 125.141L252.636 125.471C252.636 125.471 251.905 127.181 253.688 127.391C253.688 127.381 251.975 127.791 251.534 127.431Z" fill="#DB7714"/>
<path d="M128.163 27.0627C128.163 27.0627 130.126 24.2327 133.14 26.2327L134.973 24.4827C134.973 24.4827 133.26 23.1827 129.305 25.5127C126.721 27.0427 128.163 27.0627 128.163 27.0627Z" fill="#5685D8"/>
<path d="M126.221 29.8325C126.221 29.8325 125.83 26.5925 131.268 24.5625C131.268 24.5625 129.306 25.5125 128.695 28.7525L126.221 29.8325Z" fill="#739AF0"/>
<path d="M148.074 12.6306C148.074 12.6306 149.687 11.6206 149.847 10.3906C149.847 10.3906 151.409 10.4706 151.75 10.9806C151.75 10.9806 151.029 13.0106 150.187 13.3906C150.197 13.3906 148.295 13.5106 148.074 12.6306Z" fill="#ED7832"/>
<path d="M96.3476 128.292C96.3476 128.292 94.6351 127.212 94.4548 125.902C94.4548 125.902 92.7824 125.992 92.4219 126.532C92.4219 126.532 93.193 128.692 94.0943 129.102C94.0943 129.102 96.1273 129.242 96.3476 128.292Z" fill="#ED7832"/>
<path d="M166.742 44.5602C166.742 44.5602 168.465 43.4702 168.645 42.1602C168.645 42.1602 170.317 42.2502 170.688 42.7902C170.688 42.7902 169.917 44.9602 169.016 45.3702C169.005 45.3802 166.963 45.5102 166.742 44.5602Z" fill="#86D1CD"/>
<path d="M200.262 94.3607C200.262 94.3607 199.271 93.1507 198.73 92.9807C198.199 92.8107 197.158 92.0107 197.028 92.3407C196.897 92.6707 197.729 93.1807 197.679 93.5607C197.639 93.9407 195.035 94.5407 195.055 94.9407C195.075 95.3407 195.666 96.3007 196.657 96.1907C197.649 96.0807 200.162 95.4807 200.683 95.7407C201.194 96.0107 200.262 94.3607 200.262 94.3607Z" fill="#FFB27D"/>
<path d="M227.071 88.4894C225.598 90.4594 223.886 92.0094 222.113 93.2394C216.495 97.1394 210.406 97.7194 210.406 97.7194C208.944 97.2494 204.468 96.7694 201.814 96.3394C200.662 96.1494 199.851 95.9794 199.801 95.8294L199.871 93.5294C199.871 93.5294 209.595 93.0194 211.207 92.2694C213.751 90.0894 215.994 87.2494 217.447 85.0294C218.678 83.1594 220.06 81.7794 222.344 80.9694C225.638 79.7894 231.637 82.3794 227.071 88.4894Z" fill="#0D6211"/>
<path d="M222.615 91.7892L222.124 93.2392C216.506 97.1392 210.417 97.7192 210.417 97.7192C209.245 97.7192 204.478 96.7692 201.824 96.3392C201.924 96.3492 209.035 96.8992 210.607 96.7392C212.189 96.5792 219.56 90.1992 219.56 90.1992L222.615 91.7892Z" fill="#083F0B"/>
<path d="M216.277 164.811H227.023C227.794 164.291 226.813 159.191 226.813 159.191C226.813 159.191 223.878 158.081 223.378 160.341C222.867 162.601 219.642 163.321 217.93 163.591C216.758 163.781 216.388 164.421 216.277 164.811Z" fill="#285E6A"/>
<path d="M232.211 164.811H242.957C243.728 164.291 242.746 159.191 242.746 159.191C242.746 159.191 239.812 158.081 239.311 160.341C238.801 162.601 235.576 163.321 233.863 163.591C232.692 163.781 232.321 164.421 232.211 164.811Z" fill="#285E6A"/>
<path d="M219.16 112.809C219.16 112.809 219.641 118.829 220.212 126.059C220.983 135.889 223.066 160.239 223.066 160.239C223.066 160.239 224.428 161.399 227.452 160.769C227.452 160.769 230.026 152.369 230.797 142.769C230.807 142.609 230.817 142.449 230.837 142.299C231.548 132.539 232.67 111.969 232.67 111.969L219.16 112.809Z" fill="#024355"/>
<path d="M219 110.73C219 110.73 219.651 118.83 220.212 126.06L230.787 142.78C230.797 142.62 230.807 142.46 230.827 142.31C231.538 132.55 232.66 111.98 232.66 111.98L219 110.73Z" fill="#1B3E46"/>
<path d="M222.086 110.73C222.086 110.73 229.757 129.8 232.211 137.03C233.953 142.18 238.89 160.25 238.89 160.25C238.89 160.25 241.034 160.9 242.836 159.64C242.836 159.64 244.669 141.18 240.963 135.98C239.001 133.22 240.473 107.28 232.511 107.06C224.54 106.84 222.086 110.73 222.086 110.73Z" fill="#024355"/>
<path d="M225.51 82.6212C226.681 83.2412 227.823 83.2712 228.815 83.0612C229.726 82.8712 230.497 82.4712 231.058 82.1212C231.629 81.7612 231.959 81.4412 231.959 81.4412C231.959 81.4412 231.919 81.3812 231.849 81.2712C231.498 80.6812 230.457 78.5512 230.918 75.1412C230.928 75.1012 230.587 75.1612 230.076 75.2812C228.554 75.6412 225.49 76.5112 225.36 76.5512H225.349C225.349 76.5512 225.309 77.2712 225.189 78.5612C225.179 78.6712 225.169 78.7912 225.159 78.9112C225.139 79.0612 225.129 79.2212 225.109 79.3912C224.969 80.7212 225.51 82.6212 225.51 82.6212Z" fill="#FFB27D"/>
<path d="M225.188 78.5513C227.461 79.0713 230.856 75.7213 230.856 75.7213C230.605 75.5413 230.345 75.3913 230.075 75.2812C228.552 75.6413 225.488 76.5113 225.358 76.5513H225.348C225.348 76.5513 225.318 77.2613 225.188 78.5513Z" fill="#ED975D"/>
<path d="M224.419 76.3619C224.419 76.3619 225.35 76.6919 226.542 76.8519C228.285 77.0819 230.578 76.9519 231.299 74.8419C232.511 71.3019 234.063 69.1719 230.488 67.7219C228.575 66.9519 227.353 66.9019 226.522 67.2019C225.801 67.4619 225.38 67.9619 225.05 68.4719C224.369 69.5719 222.977 75.7419 224.419 76.3619Z" fill="#FFB27D"/>
<path d="M222.254 68.7606C224.317 70.2406 227.181 68.7906 228.062 69.1806C228.954 69.5706 229.114 71.0606 229.124 71.5306C229.144 72.0006 229.204 72.4006 230.406 72.1206C230.606 72.0706 230.746 72.0906 230.846 72.1506C231.347 72.4506 230.706 73.8806 230.516 74.1906C230.516 74.1906 230.236 75.2206 230.856 75.7206C230.927 75.7806 232.138 76.3106 235.053 71.8606C235.513 71.1606 235.944 69.5906 235.243 68.0706C234.532 66.5506 231.588 65.0906 229.084 64.3106C228.142 64.0206 227.451 64.0306 226.911 64.2306C225.999 64.5606 225.519 65.4206 225.038 66.2806C224.227 67.7206 222.254 68.7606 222.254 68.7606Z" fill="#A9453D"/>
<path d="M235.545 112.071C235.545 112.071 234.543 112.291 233.282 112.501C232.05 112.711 230.558 112.911 229.496 112.901C224.108 112.861 219.602 111.271 219.602 111.271C218.59 111.271 218.129 109.701 217.959 107.521C217.849 106.041 217.869 104.281 217.949 102.521C217.979 101.951 218.009 101.381 218.039 100.831C218.109 99.7214 218.19 98.6614 218.27 97.7314C218.34 96.8514 218.41 96.0814 218.44 95.4814C218.44 95.4814 218.3 91.2914 218.35 87.6114C218.39 84.9714 219.872 82.5614 220.253 82.1714C221.334 81.0314 224.459 80.3114 225.08 80.2114C225.13 80.2014 225.15 80.2014 225.15 80.2014C227.723 81.6414 231.179 79.6914 231.179 79.6914C231.259 79.7014 231.329 79.7214 231.409 79.7414C231.659 79.6914 234.263 80.0714 234.864 80.4014C236.356 81.2114 237.227 90.2414 237.227 90.2414C237.478 96.3714 237.167 106.181 237.648 109.931C237.828 111.151 236.626 111.821 235.545 112.071Z" fill="#0D6211"/>
<path d="M231.408 79.7422C231.408 79.7422 227.582 83.6822 224.838 82.8822C224.838 82.8822 224.478 82.3522 225.709 82.1822C226.941 82.0022 228.273 82.0722 231.408 79.7422Z" fill="#083F0B"/>
<path d="M224.388 74.0825C224.388 74.0825 224.318 74.5425 225.379 74.9025C225.379 74.9025 226.28 75.2125 226.441 74.7425C226.441 74.7425 225.73 74.0625 224.388 74.0825Z" fill="white"/>
<path d="M233.51 94.6523C233.51 94.6523 227.952 103.942 224.797 105.572C222.664 106.682 219.68 107.262 217.967 107.522C217.857 106.042 217.877 104.282 217.957 102.522C220.22 102.252 223.655 101.812 223.655 101.812L233.51 94.6523Z" fill="#083F0B"/>
<path d="M226.179 89.9922L223.214 100.672C223.214 100.672 219.729 100.892 218.047 100.832C218.117 99.7222 218.117 99.6922 218.197 98.7522C218.197 98.7522 222.203 96.6622 226.179 89.9922Z" fill="#083F0B"/>
<path d="M208.333 101.462C208.333 101.462 207.341 100.252 206.8 100.082C206.27 99.9123 205.228 99.1123 205.098 99.4423C204.968 99.7723 205.799 100.282 205.749 100.662C205.709 101.042 203.105 101.642 203.125 102.042C203.145 102.442 203.736 103.402 204.727 103.292C205.719 103.182 208.233 102.582 208.753 102.842C209.264 103.102 208.333 101.462 208.333 101.462Z" fill="#FFB27D"/>
<path d="M237.558 86.6423C237.558 86.6423 237.729 92.3023 224.82 103.652L222.226 99.0123C221.745 98.7323 230.568 79.7923 233.102 79.9423C238.009 80.2323 237.558 86.6423 237.558 86.6423Z" fill="#0D6211"/>
<path d="M223.765 98.4609C223.765 98.4609 209.074 100.141 208.533 100.431C207.992 100.721 206.82 101.861 207.211 103.281C207.211 103.281 214.812 104.231 218.998 104.221C222.603 104.201 224.937 103.631 224.937 103.631L223.765 98.4609Z" fill="#0D6211"/>
<path d="M276.582 165.622H0.64909C0.458812 165.622 0.308594 165.472 0.308594 165.282V165.102C0.308594 164.912 0.458812 164.762 0.64909 164.762H276.582C276.772 164.762 276.922 164.912 276.922 165.102V165.282C276.922 165.472 276.772 165.622 276.582 165.622Z" fill="#2E3552"/>
</svg>
