<svg width="21" height="21" viewBox="0 0 21 21" fill="none" xmlns="http://www.w3.org/2000/svg">
<g id="&#240;&#159;&#166;&#134; icon &#34;tick circle&#34;">
<path id="Vector" d="M10.5 0.800781C4.99 0.800781 0.5 5.29078 0.5 10.8008C0.5 16.3108 4.99 20.8008 10.5 20.8008C16.01 20.8008 20.5 16.3108 20.5 10.8008C20.5 5.29078 16.01 0.800781 10.5 0.800781ZM15.28 8.50078L9.61 14.1708C9.47 14.3108 9.28 14.3908 9.08 14.3908C8.88 14.3908 8.69 14.3108 8.55 14.1708L5.72 11.3408C5.43 11.0508 5.43 10.5708 5.72 10.2808C6.01 9.99078 6.49 9.99078 6.78 10.2808L9.08 12.5808L14.22 7.44078C14.51 7.15078 14.99 7.15078 15.28 7.44078C15.57 7.73078 15.57 8.20078 15.28 8.50078Z" fill="#3DD368"/>
</g>
</svg>
